<?xml version="1.0" encoding="UTF-8" standalone="no"?>
<svg xmlns="http://www.w3.org/2000/svg" id="svg90" version="1.1" height="634.7" width="668">
  <g transform="matrix(1.73514 0 0 1.73514 -1829.866 -128.478)" id="town" fill="#ddd" stroke="#000" stroke-width=".1">
    <path d="m 1177.1141,236.5152 0.078,0.0174 0.1219,0.0174 0.1908,0.0324 0.1218,0.031 0.2942,0.0709 0.1342,0.0286 0.3348,0.1193 0.1687,0.0522 0.1452,0.0572 0.2905,0.1019 0.043,0.015 0.055,0.0248 0.087,0.0286 0.1108,0.0348 0.1699,0.0522 0.2511,0.092 0.2646,0.1057 0.357,0.1802 0.031,0.0199 0.091,0.051 0.1575,0.0795 0.2093,0.1343 0.1218,0.0883 0.1084,0.0882 0.1145,0.0957 0.095,0.0858 0.091,0.0883 0.1588,0.1429 0.1046,0.1032 0.2093,0.2536 0.039,0.046 0.063,0.0783 0.057,0.087 0.074,0.1131 0.1071,0.1678 0.028,0.0659 0.1674,0.2747 0.048,0.092 0.073,0.1082 0.078,0.1193 0.1698,0.2872 0.026,0.0509 0.05,0.0684 0.057,0.0945 0.1169,0.1554 0.213,0.2995 0.037,0.0572 0.1095,0.1293 0.046,0.0671 0.048,0.0585 0.1,0.128 0.1022,0.1429 0.1046,0.1405 0.1083,0.1616 0.071,0.1057 0.092,0.1342 0.1194,0.179 0.1145,0.1368 0.1071,0.0808 0.046,0.0311 0.1464,0.1143 0.2302,0.1442 0.1441,0.0945 0.098,0.0497 0.4456,0.2337 0.3324,0.1392 0.062,0.0224 0.1047,0.0236 0.063,0.0112 0.1612,0.0187 0.1551,0.0136 0.094,0.0199 0.1538,0.0274 0.043,0.0112 0.1723,0.0808 0.3287,0.2784 0.073,0.0821 0.066,0.0957 0.09,0.133 0.01,0.0112 0.3988,1.5588 0.6512,1.304 -0.2203,0.7023 -0.9257,0.7794 -0.5441,2.0747 0.4173,1.2767 -2.452,0.007 -0.4346,-1.2319 -4.6862,1.1636 -1.1362,0.624 -0.5563,0.6352 -0.698,0.0137 1.2654,-2.6453 -0.464,-1.1772 0.4677,-0.8925 -0.3016,-1.4122 -1.045,-0.1939 -1.908,2.4178 -1.3134,0.2026 0.059,-0.5643 1.3258,-1.8833 -0.9097,-0.7483 -1.919,-1.0007 -1.3787,-0.3729 -1.6803,-0.7906 -1.4759,0.4487 -0.5785,-0.5208 0.1083,-0.001 0.2142,-0.0174 0.1329,-0.0161 0.2142,-0.0348 0.038,-0.0112 0.1502,-0.0373 0.1772,-0.0622 0.1797,-0.0659 0.2745,-0.1292 0.1034,-0.0609 0.6463,-0.4065 0.2216,-0.138 0.5514,-0.3978 0.1083,-0.0982 0.2179,-0.179 0.039,-0.041 0.1563,-0.1604 0.079,-0.0882 0.1859,-0.2064 0.1206,-0.1467 0.1182,-0.1591 0.1366,-0.1976 0.2475,-0.3779 0.2831,-0.4028 0.096,-0.1293 0.3077,-0.4177 0.052,-0.087 0.213,-0.2834 0.2166,-0.276 0.062,-0.077 0.1735,-0.2163 0.1773,-0.2263 0.2216,-0.2635 0.1723,-0.1964 0.2154,-0.2312 0.1305,-0.1355 0.1859,-0.1778 0.208,-0.2101 0.1686,-0.1578 0.2487,-0.2499 0.034,-0.041 0.1661,-0.1467 0.06,-0.0398 0.032,-0.0211 0.087,-0.0622 0.1132,-0.041 0.084,-0.0485 0.09,-0.0236 0.2105,-0.0808 0.074,-0.0224 0.1133,-0.0236 0.1108,-0.0236 0.037,-0.007 0.1317,-0.0187 0.064,-0.006 h 0.091 l 0.112,-0.0149 0.165,0.0174 h 0.059 l 0.087,-0.005 0.1096,0.0236 0.085,0.0137 z" id="_65000040">
      <title>
        永和區 Yonghe District
      </title>
    </path>
    <path d="m 1228.5026,269.8671 0.7287,2.7136 -0.1822,1.5054 -1.3368,0.2461 0.2905,2.8703 -0.8888,0.8764 0.1084,1.9901 -1.2014,-0.3132 -1.7677,-0.005 -0.2388,0.8093 -1.4537,0.6352 0.064,0.8975 0.7385,1.0131 0.2462,1.253 -1.1238,0.9124 -0.7004,1.5887 0.041,1.1884 -0.5146,1.0541 -0.2338,1.268 -0.4653,0.7918 0.7718,2.0909 0.098,2.424 0.5503,1.299 -0.074,1.7415 0.2277,1.5042 -0.2277,0.9559 -0.6905,-0.4376 -0.6685,-1.299 -0.7238,-0.5059 -1.2383,-0.2573 -0.8937,0.1951 -1.9264,1.4569 -2.3425,1.2829 -1.2925,0.4723 -2.6724,-0.1404 -1.0955,0.6091 -0.4247,0.9074 -2.0766,1.6608 0.8949,0.1802 0.6622,0.9634 1.5473,0.9435 2.1887,0.7459 1.0475,1.018 0.304,1.1847 -0.4086,1.1188 0.081,1.3226 -0.8161,1.6831 -0.094,1.3165 0.7866,1.3301 -0.5108,0.8092 0.4936,0.9994 -0.099,0.8491 -0.4948,0.4599 -0.5072,1.6197 -1.3159,0.1492 -1.034,-1.1884 -0.7558,0.1604 -1.0881,-0.5482 -0.5613,0.3393 -1.2002,-0.0795 0.1305,-1.8149 -0.3041,-1.2729 0.1379,-1.2854 -0.2068,-1.2443 -2.7586,-2.2276 -1.0291,-0.0336 -1.4254,-0.5494 -2.1591,0.4338 -1.2506,1.3438 -0.7374,0.1455 -1.3885,-1.0281 -1.0586,-1.2828 -1.0943,-0.8155 -0.7927,0.2561 -0.7669,0.6837 -1.002,0.4176 -0.4961,1.1225 -0.8284,1.1337 -1.5449,1.406 -1.6285,0.8987 -1.4808,-0.0597 -1.5954,0.2934 -1.4217,1.34 -1.7578,0.8292 -1.2051,0.3058 -1.8944,0.895 -1.2334,1.2679 -1.476,1.1188 -0.981,0.3095 -1.4132,1.5141 -0.7287,0.1653 -1.6568,1.0181 -1.5609,1.8845 -1.791,1.6794 -1.4636,-0.4263 -1.3824,0.6638 -1.306,0.0609 -1.5264,-2.286 0.8543,-2.5645 -0.8961,-0.6713 -0.3718,-1.1026 -0.7939,-0.5159 -0.4653,-0.8975 -1.4772,-0.8391 0.5515,-1.4469 0.7779,-1.1958 0.6254,-2.0114 -0.075,-0.6861 1.2186,-1.0567 0.6401,-1.1535 0.7361,-0.3605 1.9548,-3.6385 0.6622,-0.7297 0.7017,-1.4059 1.6605,-0.4277 1.4895,-1.3785 -0.8174,-0.7508 -0.8173,-2.2301 0.384,-0.8093 0.3484,-2.2139 0.5022,-0.7856 0.1305,-1.0691 -1.1411,-1.248 -0.8961,-1.7478 -0.7534,0.0112 -0.6856,-1.1387 0.1194,-1.2033 -0.5687,-0.9671 -2.3782,-0.5134 -1.0734,0.1131 -1.0082,-0.2685 -1.5448,-1.0044 -1.4562,-0.2014 -1.1546,0.2648 -0.7128,-0.6961 -0.5994,-0.0348 -1.0439,-0.7048 -2.1418,-0.5433 -0.1502,-0.7346 0.6093,-1.212 -1.1485,-1.1151 -0.1834,-2.2151 -0.4788,-1.6496 0.8136,-0.8316 1.4501,0.0136 0.9971,-1.0566 1.7245,-1.3164 -0.027,-0.7869 0.5096,-0.885 1.8193,-0.4103 0.4862,-0.6004 -0.1748,-1.647 1.4969,-1.1387 2.1061,-1.2344 0.586,-0.5171 1.4217,0.3244 0.9491,-0.8005 0.6438,-0.0162 1.4414,-0.6899 0.8309,-0.6551 1.0574,-0.2126 1.1263,-0.8763 0.5785,0.0547 0.8445,-0.6638 1.535,-0.4376 1.3196,0.4798 0.416,-0.8005 1.4772,-1.4805 0.8555,-1.299 0.9589,-0.3046 0.9527,-0.8863 0.2388,-0.7123 0.7201,-0.3841 0.5995,-0.859 0.1256,-1.3462 0.9958,-1.9964 3.3113,-0.7247 0.645,0.2374 -0.3976,1.207 0.4998,1.1511 2.0421,-1.8335 0.2905,-0.0448 1.9757,-1.9939 1.2986,-1.4581 0.4075,-1.1325 0.7016,0.4985 0.4333,1.043 -0.2474,1.6458 0.1686,0.4711 1.6557,0.5196 2.1443,-0.2995 0.3951,0.7073 -0.3163,1.3151 0.3495,0.5743 1.1978,0.2872 1.0155,-0.2872 1.0389,-1.1324 -0.084,-0.8876 0.9429,0.3034 0.7017,1.253 -0.4616,2.2935 0.4099,1.9876 0.7262,0.3494 0.4961,1.8571 0.7349,0.6464 0.5601,2.2475 1.4426,2.1369 1.6704,0.031 1.3713,0.3058 1.823,-0.2026 1.3726,0.1852 0.7213,-0.6849 0.1071,-0.9062 2.1652,0.1392 1.8932,1.0517 1.1719,0.0969 0.7041,0.8043 1.6002,-0.1082 1.2802,-0.7197 1.1793,0.2238 0.7693,1.524 1.1928,0.6228 0.7546,-0.4413 1.3663,0.2138 2.2096,-1.2431 1.6679,-0.0845 z" id="_65000060">
      <title>
        新店區 Xindian District
      </title>
    </path>
    <path d="m 1153.1093,253.3242 0.5712,-0.4649 1.0241,0.8527 1.5301,-1.0479 2.0901,2.0237 1.1325,0.1741 0.1514,0.5109 -1.3417,2.0921 -1.4132,1.5302 0.8063,2.2487 0.9786,0.1144 0.8506,0.8552 0.1502,0.9858 0.6561,0.3356 0.6376,1.2543 -1.1928,0.3518 0.1576,1.4718 -0.2068,1.3835 -0.4235,0.6303 0.6094,0.9746 v 0.5979 l -0.586,0.5171 -2.1061,1.2344 -1.4969,1.1387 0.1748,1.647 -0.4862,0.6004 -1.8193,0.4103 -0.5096,0.885 0.027,0.7869 -1.7245,1.3164 -0.9971,1.0566 -1.4501,-0.0136 -0.8136,0.8316 -1.9006,1.038 -1.1805,-0.0162 -0.8518,0.5233 -1.0512,1.0703 -1.1916,0.5768 -1.8489,1.7316 -1.3146,0.3655 -0.4949,0.5532 -1.1718,0.3157 -0.4272,-1.1188 -0.9047,-1.5886 -0.57,-0.4426 -1.3577,1.0119 -2.5431,0.4587 -1.8957,0.1392 -1.2371,-0.2971 -1.2519,0.7173 -1.4205,-1.1088 -0.3853,-0.9597 -2.5924,-0.3157 0.2671,-1.1312 -0.6265,-2.3694 0.057,-2.0734 -0.597,-0.5072 1.2211,-1.1797 0.3557,-1.2045 -0.3003,-3.6261 0.2129,-1.4482 1.3049,-0.6538 2.5394,-0.818 1.3356,-0.1989 1.4574,-0.6489 1.2519,-1.3052 1.8501,-0.5519 2.6466,-2.0213 0.5773,-1.7104 -0.096,-1.2593 0.4665,-0.9398 0.6709,-0.5071 0.8038,-1.9455 0.8776,-0.9969 0.2142,-2.3395 1.1399,-0.4065 0.8752,1.0579 2.5431,-0.9037 2.1,0.9273 0.9799,-2.787 0.6708,-0.3107 0.027,1.161 0.4579,1.7043 1.6864,0.5556 0.3989,0.7334 1.1066,0.0386 1.8353,-0.9435 z" id="_65000130">
      <title>
        土城區 Tucheng District
      </title>
    </path>
    <path d="m 1165.6059,194.0815 -0.469,0.5506 -0.4468,0.3879 -0.4739,0.6464 -2.0459,1.6719 -0.5293,1.0417 0.2167,1.6931 -0.6291,0.4823 -0.3163,1.0032 -1.8698,2.2959 -0.7964,0.3929 -0.9663,2.3979 -1.167,0.2921 -1.1362,-0.4363 -0.7348,-1.4383 -0.9749,-0.2573 -1.4796,-0.8192 -0.8383,0.0199 -1.2396,-0.6315 -2.1689,-1.4308 -0.8998,-1.6682 -0.2709,-3.0269 0.5835,-1.8074 0.9282,-0.8055 0.2892,-1.1822 -0.023,-1.1076 1.3147,-0.5221 0.5588,-1.7801 0.4838,-0.7906 0.1896,0.1131 0.05,0.0286 0.1576,0.0858 0.1674,0.0932 0.1194,0.0485 0.095,0.046 0.2511,0.0982 0.2265,0.0808 0.1071,0.0373 0.1502,0.0671 0.2105,0.0771 0.1821,0.0796 0.1404,0.0136 0.1354,-0.001 0.1292,0.006 0.1982,0.008 0.1219,-0.006 0.2215,0.005 0.065,-0.001 0.4234,0.002 h 0.075 l 0.1613,0.004 0.6881,0.01 0.2006,0.005 0.1859,-0.007 0.2105,0.004 0.192,-0.004 0.229,0.004 0.2031,-0.002 0.2351,0.005 0.053,0.007 0.1687,0.0125 0.08,-0.002 0.2708,0.0261 0.1834,0.007 0.1723,0.002 0.1404,0.005 0.3459,-0.001 0.1637,0.002 0.1895,0.005 0.054,0.002 0.3004,0.007 0.1612,0.009 0.068,0.006 0.2007,0.006 0.464,0.087 0.3545,0.0821 0.084,0.0136 0.2265,0.046 0.1773,0.0323 0.043,0.009 0.1305,0.0299 0.047,0.0161 0.2228,0.0995 0.099,0.0621 0.1465,0.0796 0.1539,0.082 0.4997,0.276 0.068,0.0311 0.1,0.0311 0.1588,0.0721 0.032,0.0136 0.096,0.0435 0.1243,0.0435 0.1538,0.0721 0.074,0.0336 0.1883,0.0796 0.1638,0.0559 0.034,0.0112 0.2228,0.0882 0.043,0.0187 0.1366,0.0845 0.052,0.0311 0.2487,0.1765 0.085,0.0647 0.071,0.0484 0.1687,0.1206 0.097,0.0647 0.048,0.031 0.149,0.097 0.3877,0.2312 0.054,0.0435 0.08,0.0659 0.1,0.1069 0.077,0.0783 0.1194,0.1355 0.2856,0.3406 0.096,0.1082 0.042,0.0447 0.1859,0.2051 0.054,0.0522 z" id="_65000140">
      <title>
        蘆洲區 Luzhou District
      </title>
    </path>
    <path d="m 1148.556,183.698 v 0.007 l -0.07,0.1404 -0.017,0.0386 -0.058,0.1069 -0.052,0.0659 -0.1453,0.2026 -0.1034,0.2026 -0.1304,0.3356 -0.076,0.2014 -0.02,0.0485 -0.039,0.1069 -0.011,0.0708 -0.046,0.1728 -0.07,0.2437 -0.101,0.3356 -0.021,0.0945 -0.021,0.2076 0.01,0.3257 0.022,0.1118 0.067,0.2536 0.1895,0.2399 0.2831,0.286 1.0119,0.8104 0.1342,0.1119 0.1169,0.0845 0.094,0.0808 0.1821,0.1442 0.053,0.046 0.2178,0.1542 0.1785,0.1106 0.245,0.1343 0.128,0.0795 -0.4838,0.7906 -0.5588,1.7801 -1.3147,0.5221 0.023,1.1076 -0.2892,1.1822 -0.9282,0.8055 -0.5835,1.8074 0.2709,3.0269 0.8998,1.6682 2.1689,1.4308 1.2396,0.6315 0.8383,-0.0199 1.4796,0.8192 0.9749,0.2573 0.7348,1.4383 -0.7041,0.629 0.078,2.2151 -0.8444,0.4202 -1.3972,1.3686 -0.5207,-1.2716 -0.9466,-0.5731 -1.402,0.2287 -1.0069,0.6464 -2.4976,1.1113 0.012,1.3426 -0.8395,0.3393 -0.8457,0.9584 -1.2272,-1.0653 -1.1498,-0.8229 -0.272,-1.9168 0.069,-1.1847 -1.4045,0.2051 -0.2474,0.9485 -1.0549,0.2001 -0.9442,-0.1889 0.034,1.1262 -0.6019,0.6166 -1.3898,-1.2866 -1.5731,0.3033 -0.3028,-1.5215 -0.7411,-0.23 -3.0626,-0.0249 -2.5702,0.1181 -1.988,-0.9186 -0.4727,-0.8826 -2.244,-1.9765 -1.1682,-0.179 -0.1834,-0.6638 -1.194,0.3481 -1.114,-0.4376 0.084,-0.6849 0.7435,-0.6017 -1.082,-0.6103 0.099,-0.675 -0.554,-0.8652 0.3004,-0.8975 2.2415,1.3301 0.8482,1.0653 0.5034,-1.207 1.5584,1.1088 -0.1219,-0.8838 -0.7521,-0.1007 -0.9687,-1.1387 0.07,-0.9833 -0.5206,-0.4848 -0.068,-0.9944 1.295,-0.6974 -0.2856,-1.3873 -0.7348,-1.2331 0.6597,-0.1193 0.586,0.7446 0.6536,-0.363 0.02,-1.5638 -0.9035,0.752 -0.5416,-1.0926 -1.4267,-1.8211 0.2659,-0.5457 -0.7706,-0.5706 -0.9749,0.6837 -0.075,-1.6794 -0.4961,-1.8435 -0.6302,-0.3394 -0.3127,-1.0044 0.2278,-0.6203 -0.5281,-1.5501 0.1698,-2.8926 0.8629,-0.404 -0.1551,-0.8006 1.3492,-1.4395 2.5542,0.8888 1.7122,-1.0902 1.0316,-0.0696 0.5945,-1.2567 -0.2351,-2.4613 0.2511,-0.312 2.2982,-0.1355 0.4604,0.3406 1.3762,-1.4196 0.5908,0.2598 0.5392,1.1026 1.6753,0.5059 1.2174,-0.1454 0.9663,0.6787 1.3799,0.3108 1.2704,1.3313 0.4148,-0.133 1.1989,1.1436 0.8826,0.2412 1.3245,-0.179 1.1276,0.5818 0.7115,1.1336 2.0938,-0.3418 v 0.8018 l 1.1079,0.348 0.5379,0.5507 -0.3188,0.7608 0.7373,1.2095 0.8986,0.0734 z" id="_65000150">
      <title>
        五股區 Wugu District
      </title>
    </path>
    <path d="m 1317.4486,257.2958 1.2703,0.6104 1.0857,1.0069 1.924,0.004 0.7189,-0.6166 1.6654,-0.0236 0.698,-0.2996 0.981,0.3133 -0.057,1.202 0.549,0.9174 0.1797,1.1437 -0.087,2.4874 -1.0513,1.6657 -0.059,1.248 0.2339,1.1114 -0.7853,1.1001 0.053,1.4096 -0.2831,1.2096 0.549,1.3325 -0.069,0.8789 0.5563,0.8353 0.5971,0.1654 -0.4986,1.5315 -0.6475,0.2523 -1.2543,2.961 -0.5059,0.7757 0.9552,2.4886 -1.7184,2.0847 -0.1256,1.5638 -0.517,0.5805 0.2536,0.8664 -0.2351,0.7857 -1.695,1.3823 -0.6217,3.0256 -0.9109,1.1325 -0.3619,0.8763 1.6507,0.7757 1.4476,1.4582 0.3952,0.9335 0.1797,2.1617 0.3508,1.6135 0.4247,0.7322 0.7977,0.046 2.8964,3.7118 -0.7312,0.4227 0.042,0.8639 0.4924,0.7533 -1.2851,0.9721 -0.2979,0.6614 -0.9663,0.3965 -0.7041,-0.0883 -0.6844,0.4898 0.1317,0.7347 -1.5559,0.2983 -0.6315,0.5557 0.3004,1.1809 -0.1551,2.92 0.1896,1.8335 1.0549,0.8801 0.3853,1.1847 -0.2007,1.1498 -0.7029,-0.3281 -2.0655,1.5973 -1.0192,0.4003 -0.073,0.7098 -1.055,1.6259 0.1379,0.9771 -2.2957,0.1628 -1.0894,-0.6153 -0.8986,0.6228 0.2339,0.5668 -0.922,0.8068 -0.3644,0.8776 -0.9798,0.6526 -0.4739,-0.7421 -0.5933,0.7645 0.2363,0.9286 -0.485,0.8888 -1.9363,0.0236 -1.7344,0.2834 -0.5625,0.8105 -1.2876,0.2387 -1.4808,-0.2436 -0.2376,0.7023 -0.8469,0.4972 -2.0126,0.2399 -1.8994,-1.606 -1.1854,-0.2785 -1.8944,-0.041 -1.1214,0.3108 -1.7701,1.2605 -1.2297,1.4606 -1.5412,0.4686 -1.7208,2.4501 -1.6581,0.8068 -0.6586,1.4556 -1.567,0.2052 -1.2359,0.5109 -0.7644,1.0118 -1.9277,-2.0138 -1.0266,-0.2536 -2.1024,-0.1019 -1.2975,-0.4711 -0.6548,0.1243 -1.231,-0.8267 -0.1477,-0.8428 -0.7693,-1.0727 -0.8949,-0.007 -0.3656,-0.8329 -2.9715,-0.2399 -0.3656,0.3257 -2.2551,-0.0199 -1.9868,0.4612 -1.1128,0.0398 -0.8912,0.4773 -2.2895,-1.3363 -0.4407,0.4301 -1.4328,-0.2125 -1.2384,-0.4637 -1.3639,0.6862 -1.1263,-0.992 -1.1079,-2.2351 -1.2568,-0.992 -2.6563,-1.4867 -0.5133,-0.7048 1.2998,-1.8261 0.3533,-1.7962 0.2991,-0.5395 1.0316,-0.312 0.3102,-0.6042 1.2297,-0.5929 -0.022,-1.0293 0.5207,-2.7584 -0.8678,-0.8092 -0.906,-0.2574 -0.6118,-0.7968 0.9762,-2.7459 -0.055,-1.534 0.7349,-1.5365 -1.0032,-1.2952 -0.5786,-0.2859 -0.5872,-1.3463 1.4366,-1.3873 0.8272,-0.5507 2.2218,-0.8378 1.503,-0.8242 0.9614,-1.1274 -0.1588,-1.1163 0.874,-0.8055 0.7176,-0.1952 0.7066,-0.8391 -0.986,-1.5899 v -0.9733 l -0.5306,-1.2729 0.1785,-0.4364 1.407,-0.8452 1.3356,-0.2412 2.3462,-1.3873 1.0241,-0.9845 0.7694,0.0994 -0.1835,-0.9758 -0.8456,-2.0436 -1.7123,-1.1237 -0.5994,-0.7397 -0.4038,-5.2607 -1.3307,-0.4823 -0.2375,-0.7023 -0.1157,-1.81 -0.2992,-0.8589 0.1047,-1.6111 -0.2401,-0.8627 0.6364,-1.5227 2.036,-0.1368 0.5638,-0.3505 2.3253,-0.5756 2.2895,-0.2063 1.0365,-0.9211 0.3779,-0.777 1.0155,-0.496 0.2868,-0.8888 1.087,-1.7527 0.5773,-0.4239 1.4673,0.1914 1.2075,-0.7408 1.9068,-0.2511 0.5625,0.1367 0.9897,-1.1623 0.9996,-0.1417 1.2777,-2.2587 1.8526,-1.1635 1.5867,0.4985 0.4369,-0.3419 1.508,0.8839 1.1718,-0.3419 0.4875,-0.977 0.079,-1.0256 1.3011,0.4885 2.1357,-0.6352 0.8149,0.2412 1.4082,-0.2051 1.0721,-0.4774 1.6015,-0.3431 1.4722,0.2922 0.1785,-0.9112 1.002,-1.345 0.4431,0.399 1.4144,-0.3667 0.9146,2.6627 1.1337,-0.046 0.9675,0.5867 0.6647,-0.2896 1.4969,-1.4283 0.853,0.2188 1.4058,-0.5731 1.1878,0.4587 0.9011,-0.9373 0.9921,-0.2511 0.7164,-0.9721 2.1013,0.5855 2.1049,-0.1056 0.8223,-0.9647 1.0081,-2.2947 z" id="_65000200">
      <title>
        坪林區 Pinglin District
      </title>
    </path>
    <path fill="#f6e8c3" d="m 1338.3193,223.8657 -0.4739,0.67 -0.7312,-0.2611 -1.3171,0.5743 -0.7804,0.6651 -1.1325,1.4096 0.149,0.9547 -1.082,2.1605 -1.1928,0.009 -2.5432,0.8179 -3.4996,3.7417 -0.9084,0.5084 -1.1005,-0.0596 -0.4222,0.8987 -0.7546,0.5681 -1.2678,1.5377 -0.325,2.7261 -0.9688,1.156 -0.949,0.3779 -0.8186,1.7304 0.3323,0.6924 -1.1558,0.3916 -1.263,1.8919 -1.1682,0.5022 -0.7139,0.7819 -0.7177,0.092 -1.0118,0.6253 -2.0311,1.7204 0.5675,1.6981 0.9922,0.2163 0.8936,1.0106 0.06,0.5681 1.2568,0.6948 1.023,-0.128 0.6942,0.3406 0.7115,1.5825 0.778,0.5643 -1.0993,-0.2573 -1.0081,2.2947 -0.8223,0.9647 -2.1049,0.1056 -2.1013,-0.5855 -0.7164,0.9721 -0.9921,0.2511 -0.9011,0.9373 -1.1878,-0.4587 -1.4058,0.5731 -0.853,-0.2188 -1.4969,1.4283 -0.6647,0.2896 -0.9675,-0.5867 -1.1337,0.046 -0.9146,-2.6627 -1.4144,0.3667 -0.4431,-0.399 -1.002,1.345 -0.1785,0.9112 -1.4722,-0.2922 -1.6015,0.3431 -1.0721,0.4774 -1.4082,0.2051 -0.8149,-0.2412 -2.1357,0.6352 -1.3011,-0.4885 0.039,-1.1449 -0.5379,-1.3388 0.6943,-0.5308 1.1398,-0.1118 0.682,-1.2406 0.8678,-0.1194 0.4715,-0.6377 -0.015,-1.5153 0.2474,-0.7197 0.9072,-0.9174 -0.1342,-0.6775 -0.7287,-1.033 -1.0734,-2.8951 -1.2617,-1.3637 -0.1526,-0.8751 0.6647,-0.2163 0.4517,-2.4004 -0.1784,-1.1324 -0.6315,-0.8714 -0.7841,0.8502 h -1.0045 l -0.5773,0.3754 -1.5978,0.4376 -0.9207,-2.148 -0.9503,-1.0989 -0.4739,-0.143 -1.6864,-1.892 0.4505,-1.1187 -1.5092,-0.8279 -0.8075,-1.667 -0.8198,-1.1051 0.65,-1.2543 1.1078,-0.6774 0.059,-0.4699 -0.7004,-1.2245 -0.016,-1.4506 2.436,-0.8975 0.2696,-0.3419 2.0126,0.4028 0.6081,-0.8515 1.3307,-0.8279 0.4542,-2.3631 -0.3656,-0.8341 0.9663,-0.7086 1.0537,-1.35 0.6561,-1.1734 1.0992,-0.7136 0.6426,0.1107 1.1891,-0.6191 0.7029,-1.1188 1.1324,-1.2169 1.1744,0.3331 1.3208,-0.8154 1.6076,-0.2984 1.0401,0.9236 3.2424,0.0174 0.9047,-0.4226 1.6852,-1.9417 2.0864,-0.6004 1.2039,-0.7633 1.1866,-0.0634 0.6771,0.8602 0.9441,0.5669 0.8974,-0.2735 0.405,-1.2269 0.5822,-0.2586 0.7533,-1.074 1.4046,-0.9746 0.9121,0.1591 0.6893,-2.1182 1.3811,-1.8795 1.3012,-0.6911 1.4242,0.0497 1.2482,-0.895 0.7434,0.0758 2.0176,-1.7267 1.434,-0.6625 2.2514,-0.4276 1.327,0.7993 1.4931,1.9591 0.5934,1.3276 1.0426,1.5414 1.0291,0.7956 -0.016,0.6725 -0.6118,0.9969 0.2806,0.399 0.027,1.3028 0.5798,1.2493 2.0594,-0.8403 1.146,0.1852 1.0992,0.7421 0.052,0.5246 -0.4677,2.1903 0.091,0.9696 0.9356,2.4663 -0.2992,0.9547 1.0857,1.7079 z" id="_65000240">
      <title>
        平溪區 Pingxi District
      </title>
    </path>
    <path d="m 1210.9898,321.6662 1.2199,0.5109 0.9232,-0.0671 2.8521,0.9746 0.3508,0.5345 1.2544,0.9323 0.9823,0.419 0.6511,1.1187 0.8186,0.7347 1.4649,-0.1405 0.5268,0.235 0.6339,1.0615 2.0163,0.5197 2.0754,-0.0485 2.0385,0.1317 3.406,1.3451 1.1965,-0.7061 0.9306,0.174 0.7004,-0.9485 2.5555,1.0467 1.9855,-0.0311 1.2605,1.222 1.1226,0.2287 1.0377,0.6477 1.2913,-1.7888 1.1718,-0.6514 0.5786,0.0621 0.9638,0.7335 0.5823,-0.0684 0.5133,0.7048 2.6563,1.4867 1.2568,0.992 1.1079,2.2351 1.1263,0.992 1.3639,-0.6862 1.2384,0.4637 1.4328,0.2125 0.4407,-0.4301 2.2895,1.3363 0.8912,-0.4773 1.1128,-0.0398 1.9868,-0.4612 2.2551,0.0199 0.3656,-0.3257 2.9715,0.2399 0.3656,0.8329 0.8949,0.007 0.7693,1.0727 0.1477,0.8428 1.231,0.8267 0.6548,-0.1243 1.2975,0.4711 2.1024,0.1019 1.0266,0.2536 1.9277,2.0138 -2.2526,2.1319 -0.8088,0.5022 -1.4045,-0.6837 -0.4911,0.7782 -0.7681,0.2784 -0.3189,1.0231 0.1625,0.8838 -2.1689,1.8547 -1.7947,0.6377 -0.6463,1.0827 1.0673,0.9448 0.2388,0.706 -0.6155,1.2618 0.2068,1.1635 -0.8801,0.7371 -0.746,-0.8266 -1.6963,0.3493 -1.2247,-0.3456 -0.9823,1.2779 -0.8826,0.6998 -1.0808,-0.307 -0.549,0.307 -1.6827,-1.5712 -0.9552,-0.6166 -0.3533,0.6924 -1.9794,1.3624 -0.9404,1.0442 -1.4833,0.8913 -3.7704,-0.0733 -1.4341,-0.9746 -0.9269,0.1778 -0.6364,-0.7074 -0.9134,2.4365 -0.8432,0.261 -1.1251,-0.6824 -1.7147,-0.1604 -0.8358,0.7533 -3.8024,0.3083 -0.9552,0.5867 -1.3639,-0.3679 0.4001,1.6322 -0.1576,1.4059 -0.533,0.6178 -0.1182,0.8925 0.613,2.378 -0.3729,0.9933 -0.9233,0.3443 -1.146,1.0529 -0.5071,0.0161 -1.5523,-0.6638 -0.8912,-0.1156 -1.3269,0.4227 -1.9659,-0.3207 -1.306,1.9653 -0.8026,0.7421 -1.4402,-0.1765 -2.0889,1.0019 -2.2773,0.2349 -1.4562,-0.0832 0.7977,1.6557 -0.1231,1.2742 0.6044,0.8167 v 1.0641 l 0.7398,1.8733 0.9958,1.9989 -1.0536,2.0846 0.3705,0.9622 -1.1731,1.11 -1.8711,2.7273 0.1773,1.1387 -0.7484,0.9174 -0.2204,1.1983 0.7287,2.2687 1.0279,0.5395 1.2383,0.0609 0.8297,1.1374 -0.9318,1.1548 -0.8395,0.1753 -0.5958,0.6091 0.1686,0.9572 1.5128,1.3425 0.2967,1.0616 -0.5945,2.5906 0.4246,1.2716 -0.6782,1.1735 0.192,0.6998 1.9954,-0.0174 -0.1502,0.9348 -1.9166,1.0753 -0.6745,0.7148 -1.1768,0.6837 -0.6881,0.9994 -1.103,0.951 -1.8993,-0.2511 -2.6183,-1.089 -0.5206,0.9808 0.069,1.0964 -0.2487,2.4936 -0.8222,2.066 -0.4309,0.5457 -1.2875,-0.1678 -1.0353,-2.0647 -0.5145,0.762 -1.0599,0.67 -1.0623,-0.1082 -1.1866,-0.624 -0.7595,0.1107 -1.9031,0.9845 -0.7004,-0.2238 -0.6585,0.4736 -0.6573,1.2444 -1.6938,1.4096 -0.4887,0.1703 -1.4685,-0.3381 -2.2022,0.3157 -0.2487,0.6228 -1.1091,1.3761 -1.5768,1.5116 0.4271,0.987 0.1071,1.9964 -0.7053,0.455 0.059,2.1517 -0.3828,0.9398 -1.8908,0.0535 -0.7583,0.4214 -1.4623,0.0497 -0.4875,-0.7285 -0.5761,0.2076 -0.089,1.9019 -1.0672,0.4488 -0.6057,0.6974 -4.7723,0.0509 -0.6008,-0.6165 -0.7865,-0.097 -1.0919,0.7309 -1.4242,0.4637 -1.3688,1.7527 -1.0205,0.0212 -2.0064,0.8117 -1.0833,0.9833 -0.1501,0.4761 -1.5572,1.1523 -0.6265,0.2113 -1.828,-0.5966 -0.4321,-0.5271 -0.8604,-0.0149 -0.9811,0.752 -1.6999,-0.2622 -0.9638,0.2896 -0.4223,-0.9373 -1.7651,-2.2736 -0.2265,-2.2686 -0.6918,-0.8789 -0.6253,-2.8329 0.8407,-1.7404 -0.2203,-2.0001 -1.9326,-0.3679 -0.5847,0.348 -1.2224,-0.8229 -1.7947,-1.9081 -1.8083,-0.9957 -2.0889,-0.3754 -2.2502,-1.079 -1.0241,-0.2636 -0.6647,-1.7266 -0.2475,-2.2363 -1.1767,-1.0541 -0.6943,-0.3294 -1.9375,-4.853 -0.3102,-1.7105 -1.4045,-0.2896 -0.8174,-1.0306 -1.338,-0.9596 0.5711,-1.6732 -0.1661,-0.7197 -1.1079,-1.5601 0.054,-1.3773 -0.6684,-1.8585 -0.7866,-0.6165 -0.1145,-1.217 -0.8038,-1.5302 0.2967,-1.0256 -0.3952,-0.9136 v -1.1263 l -0.9909,-1.473 -0.5945,-1.7789 0.2056,-0.7234 -1.2581,-0.7968 -0.07,-0.8242 1.0573,-2.255 0.6906,-0.7557 2.4878,-2.1481 2.2944,-0.6016 1.2408,-1.1263 1.3061,-2.4762 1.0143,-0.8055 0.8346,-0.0696 1.0094,-0.6352 0.8272,-1.447 1.0524,-1.0106 -0.3656,-1.3413 0.858,-1.033 -0.046,-0.5233 0.8666,-0.6415 1.0057,0.1343 0.8826,-0.2959 0.3508,-0.6352 -0.3175,-0.9845 0.1292,-1.0442 -0.309,-1.1983 2.1505,-1.5377 1.0377,-1.8932 0.5035,-0.496 1.1509,-0.3729 1.1337,-0.0249 1.2987,-0.542 1.8058,-1.9106 0.4197,-1.6508 1.2839,-0.5059 1.5325,-1.0703 1.6557,0.1131 0.9145,-1.0317 0.3164,-0.9324 -1.0512,-1.9864 -0.8949,-0.501 0.4406,-1.0578 1.2569,-1.7167 -0.1059,-0.895 0.2597,-1.0131 1.4919,-1.5688 1.8895,-0.1517 2.1924,-1.1697 0.1501,-1.8534 0.6832,-1.0567 0.3644,-1.6545 -0.1231,-1.4793 0.3582,-0.8142 -0.5749,-1.6408 -1.002,-0.3792 -0.7878,-1.1324 0.097,-1.4184 -0.8186,-1.396 -1.631,-2.1207 1.791,-1.6794 1.5609,-1.8845 1.6568,-1.0181 0.7287,-0.1653 1.4132,-1.5141 0.981,-0.3095 1.476,-1.1188 1.2334,-1.2679 1.8944,-0.895 1.2051,-0.3058 1.7578,-0.8292 1.4217,-1.34 1.5954,-0.2934 1.4808,0.0597 1.6285,-0.8987 1.5449,-1.406 0.8284,-1.1337 0.4961,-1.1225 1.002,-0.4176 0.7669,-0.6837 0.7927,-0.2561 1.0943,0.8155 1.0586,1.2828 1.3885,1.0281 0.7374,-0.1455 1.2506,-1.3438 2.1591,-0.4338 1.4254,0.5494 1.0291,0.0336 2.7586,2.2276 0.2068,1.2443 -0.1379,1.2854 0.3041,1.2729 -0.1305,1.8149 1.2002,0.0795 0.5613,-0.3393 1.0881,0.5482 0.7558,-0.1604 1.034,1.1884 z" id="_65000290">
      <title>
        烏來區 Wulai District
      </title>
    </path>
    <path d="m 1181.6095,144.9599 -0.015,0.0721 0.1157,0.2312 0.149,0.22 0.062,0.1939 -0.128,0.4998 -0.026,0.2647 0.089,0.1268 0.049,0.0933 0.047,0.1367 0.011,0.1417 -0.01,0.097 0.025,0.1454 0.076,0.3257 -0.027,0.1778 -0.012,0.0422 -0.054,0.1094 -0.1,0.1554 -0.09,0.1318 -0.053,0.0683 -0.051,0.0597 -0.085,0.1094 -0.096,0.1865 -0.1317,0.3518 -0.015,0.1988 -0.01,0.3394 -0.039,0.0957 -0.02,0.046 -0.1108,0.2089 -0.1588,0.2299 -0.089,0.1803 -0.078,0.179 -0.031,0.077 -0.062,0.1629 -0.1145,0.0994 -0.1218,-0.01 -0.1268,-0.0361 -0.128,-0.0584 -0.098,-0.0422 -0.1834,-0.092 -0.2622,-0.1144 -0.229,-0.0845 -0.1243,-0.0286 -0.4899,-0.0721 -0.1329,-0.0199 -0.1071,-0.0398 -0.1145,-0.051 -0.064,-0.0435 -0.3225,-0.1143 -0.1108,-0.0286 -0.101,-0.0323 -0.028,-0.009 -0.1969,-0.0672 -0.1896,-0.0596 -0.2105,-0.01 -0.2757,0.0249 -0.4789,0.4003 -0.1415,0.1877 -0.1465,0.1541 -0.1342,0.1579 -0.469,-0.0149 -0.2228,-0.0821 -0.1317,-0.0659 -0.3582,-0.1777 -0.4456,-0.2188 -0.067,-0.0236 -0.1009,-0.0647 -0.1674,-0.1541 -0.1219,-0.0957 -0.1686,-0.1094 -0.069,-0.0249 -0.1798,0.0212 -0.1686,0.0708 -0.277,-0.0211 -0.076,-0.1194 -0.014,-0.0373 -0.041,-0.0832 -0.037,-0.0597 -0.063,-0.1318 0.064,-0.3008 -0.03,-0.1765 -0.1452,-0.22 -0.1428,-0.1281 -0.1637,-0.0398 -0.2561,-0.001 -0.068,0.002 -0.293,-0.005 -0.4234,0.0435 v 0.0174 l 0.043,0.0957 0.032,0.102 -0.01,0.1342 -0.1859,0.3655 -0.047,0.082 -0.025,0.0311 -0.1735,0.1765 -0.078,0.0684 -0.041,0.0746 v 0.1044 l 0.039,0.1467 0.01,0.0348 0.027,0.1318 0.048,0.2461 0.015,0.0858 v 0.2523 l -0.03,0.0771 -0.049,0.0795 -0.1378,0.0808 -0.3361,0.23 -0.08,0.0174 -0.1588,0.0758 -0.058,0.0585 -0.1526,0.215 -0.081,0.1479 -0.085,0.1915 -0.037,0.1243 -0.032,0.1566 -0.042,0.2524 -0.03,0.1578 -0.022,0.0634 -0.053,0.1629 -0.068,0.2013 -0.1095,0.2238 -0.049,0.0858 -0.049,0.082 -0.1219,0.1467 -0.3311,0.3418 -0.1145,0.1231 -0.099,0.0895 -0.1144,0.0522 -0.277,0.143 -0.1637,0.087 -0.1403,0.0758 -0.068,0.0336 -0.2401,0.1554 -0.1169,0.1442 -0.2265,0.2548 -0.094,0.087 -0.3693,0.2536 -0.1649,0.0982 -0.5515,0.4077 -0.176,0.184 -0.039,0.0684 -0.073,0.1181 -0.1403,0.2088 -0.055,0.1604 -0.073,0.1926 -0.028,0.1579 -0.047,0.0957 -0.076,0.1243 -0.1501,0.2611 -0.073,0.1032 -0.053,0.1205 -0.069,0.1554 -0.2573,0.3891 -0.073,0.1206 -0.026,0.036 -0.1145,0.1132 -0.049,0.0944 -0.045,0.1343 -0.027,0.0572 -0.1071,0.2076 -0.3865,0.6501 -0.1748,0.174 -0.058,0.1156 -0.048,0.1467 -0.112,0.1343 -0.1662,0.2225 -0.015,0.1056 0.026,0.1368 v 0.1007 l -0.09,0.2747 0.018,0.1057 0.01,0.1193 -0.1059,0.1156 -0.1206,0.0634 -0.087,0.0609 -0.051,0.046 -0.1157,0.092 -0.9638,-0.0249 -0.5527,0.0672 -0.048,0.0236 -0.245,0.1603 -0.025,0.0149 -0.1206,0.0982 -0.1293,0.1952 -0.1071,0.1927 -0.047,0.0994 -0.048,0.0958 -0.038,0.0733 -0.065,0.1517 -0.033,0.0832 -0.043,0.1082 -0.054,0.133 -0.055,0.1566 -0.133,0.1467 -0.058,0.0671 -0.087,0.1045 -0.1601,0.2187 -0.1046,0.1206 -0.022,0.0174 -0.051,0.0634 -0.034,0.0199 -0.1,0.092 -0.034,0.0199 -0.3201,0.2809 -0.16,0.133 -0.065,0.0647 -0.1083,0.0907 -0.2105,0.2026 -0.1588,0.1417 -0.1317,0.1119 -0.084,0.0796 -0.065,0.0895 -0.1342,0.1181 -0.033,0.0149 -0.2118,0.087 -0.093,0.0646 -0.051,0.0498 -0.075,0.1355 -0.011,0.2449 -0.01,0.0919 -0.025,0.1231 -0.031,0.0522 -0.057,0.0684 -0.068,0.0609 -0.1797,0.1318 -0.1539,0.1255 -0.1009,0.138 -0.05,0.0883 -0.07,0.0994 -0.05,0.0883 -0.059,0.0969 -0.1366,0.1392 -0.082,0.0709 -0.1994,0.1976 -0.101,0.0821 -0.1489,0.1144 -0.4075,0.3617 -0.1686,0.2014 -0.057,0.1069 -0.082,0.1939 -0.019,0.0883 -0.032,0.2001 -0.095,0.2088 -0.048,0.0895 -0.101,0.1206 -0.1034,0.1268 -0.039,0.0311 -0.1292,0.1243 -0.026,0.0199 -0.1292,0.092 -0.1182,0.0994 -0.2868,0.1803 -0.1009,0.0596 -0.133,0.0746 -0.1982,0.1094 -0.1095,0.092 -0.2007,0.2051 -0.044,0.0659 -0.1354,0.2996 -0.029,0.164 -0.064,0.1107 -0.149,0.1293 -0.1379,0.225 -0.076,0.0919 -0.1588,0.1641 -0.071,0.0585 -0.1058,0.1355 -0.1243,0.0596 -0.058,0.0497 -0.091,0.1318 -0.076,0.1119 -0.08,0.1554 -0.1945,0.2038 -0.08,0.1119 -0.1256,0.547 -0.092,0.3704 -0.033,0.0932 -0.064,0.235 -0.036,0.1417 -0.037,0.0957 -0.05,0.2275 -0.1305,0.2685 -0.1059,0.4102 0.02,0.0908 0.063,0.312 0.099,0.4065 0.025,0.1205 v 0.0311 l 0.015,0.1653 v 0.0945 l -0.01,0.0684 -0.014,0.0945 -0.045,0.1554 -0.016,0.0646 0.01,0.0373 0.041,0.0634 0.034,0.0572 0.051,0.0621 -0.041,0.0535 -0.1145,0.036 -0.1428,0.0671 -0.068,0.0336 -0.1477,0.0472 -0.1957,-0.002 -0.41,0.1255 -0.2437,0.0522 -0.224,0.0261 -0.1305,0.0883 -0.01,0.1579 -0.074,0.0658 -0.1637,0.0311 -0.1218,0.01 -0.1478,10e-4 -0.1366,0.006 -0.1009,-0.005 -0.1613,0.0162 -0.1366,-0.0162 -0.213,0.01 -0.1415,-0.005 -0.068,0.009 v -0.6899 l -1.0648,-1.5054 -1.1534,-6.6306 -1.0402,-4.7734 -1.1066,-3.3625 -0.7878,-1.4333 -1.487,-1.8422 -2.228,-2.2202 -1.2211,-1.028 -3.5476,-2.4787 -1.6335,-0.6551 -3.1635,-1.5812 -3.5722,-2.3233 0.7496,-1.084 -0.5908,-1.166 -0.7288,-0.7197 -3.6547,-0.7123 -2.7351,-0.6862 0.077,-1.1561 -0.2942,-1.1013 0.4973,-1.662 2.7143,-0.4911 1.1928,0.414 1.9522,-0.45 0.4235,-0.4885 1.0672,-0.002 0.011,-0.6763 -0.5453,-1.0019 0.6192,-2.8156 3.0183,-5.0394 2.1123,-2.5359 1.1509,-2.1107 2.6712,-0.716 0.9084,-0.5346 -0.176,-0.9584 1.0881,-2.6826 0.7854,-2.4165 0.7386,-0.7471 0.6474,-1.6421 -0.063,-0.992 1.0266,-2.1766 0.3951,-1.3948 -0.1194,-0.8639 2.3314,-1.4755 2.4028,0.2436 1.1104,0.4624 0.2609,1.1002 0.5958,0.5022 1.5682,0.1317 1.1042,0.5806 2.1135,-0.051 0.8715,-0.3916 0.8703,0.5768 2.3967,0.7309 1.6704,0.9075 2.6588,0.9311 0.6943,0.4723 2.2748,0.9584 1.5867,-0.0111 2.2711,0.854 0.6327,0.6401 -0.7127,1.3028 0.6942,1.0603 0.9245,-0.0397 1.1497,0.8602 -0.6524,1.3487 -1.7837,-0.2163 -0.3939,0.9174 0.4222,1.3065 0.8199,1.2841 -0.4481,0.8714 -0.8863,-0.1032 -1.6051,1.5439 -0.8125,-0.4972 -0.3151,0.9335 -0.9946,0.1679 -1.1239,-0.2623 -0.9281,1.8149 0.8026,1.115 -0.6007,0.8304 1.7455,1.2294 0.2979,0.5358 -0.2364,0.9347 -1.4907,0.5719 -0.2437,1.1312 3.0109,0.6041 0.9737,0.7384 -0.06,0.803 1.3836,1.478 0.8038,-0.4723 1.9818,-0.6141 1.0106,0.2113 0.245,1.0119 1.6322,0.3319 0.7866,0.8378 -0.053,0.685 1.1989,0.0286 1.1596,1.345 1.0192,0.7471 2.9863,0.9447 z" id="_65000100">
      <title>
        淡水區 Tamsui District
      </title>
    </path>
    <path fill="#8c510a" d="m 1394.0038,176.8648 -1.5928,1.0666 -2.7438,1.1399 -0.6844,0.5295 -0.8284,-0.0385 -1.6384,0.6016 -0.2364,-0.4525 -3.0995,0.946 -0.2757,0.6738 -0.794,0.6389 -1.2851,-0.041 -0.5466,1.4159 -0.8062,0.762 -0.1317,1.0081 1.4057,2.8032 -0.8863,1.3437 -1.7245,0.3531 -2.6897,0.1591 -1.146,0.7135 -1.86,0.8043 -1.6285,1.5774 -1.6138,0.2797 -0.7324,-0.2312 -0.9651,0.731 -1.9633,0.009 -0.8457,-0.2089 -0.8887,-0.6302 -1.8305,-0.7272 -1.9412,0.0224 -0.4788,-0.4811 -2.1923,1.5165 -0.2733,1.4669 -0.7632,1.8547 -1.876,-0.1741 -1.2568,1.5414 -0.7201,1.222 -0.533,1.3686 -1.1164,0.9597 0.031,0.8614 -0.8444,1.5676 -1.2506,1.2816 -0.8802,0.3331 -1.3774,1.0977 -0.058,1.5277 -0.4813,1.1138 -0.9109,1.3326 -0.036,1.0317 0.4703,0.7807 0.033,1.6794 0.3717,0.5755 -0.4714,0.6962 1.6852,3.3849 0.1809,1.4991 0.5072,0.6676 -0.4272,1.6769 -1.2851,0.082 -0.5355,-0.4525 -1.5423,-0.2784 -0.3853,0.3518 -1.1165,0.0199 -0.5428,-0.5196 -1.1965,-0.0137 -0.6315,1.3139 -1.2408,0.9212 -0.5675,-0.0547 -0.059,-0.4563 -1.0857,-1.7079 0.2992,-0.9547 -0.9356,-2.4663 -0.091,-0.9696 0.4677,-2.1903 -0.052,-0.5246 -1.0992,-0.7421 -1.146,-0.1852 -2.0594,0.8403 -0.5798,-1.2493 -0.027,-1.3028 -0.2806,-0.399 0.6118,-0.9969 0.016,-0.6725 -1.0291,-0.7956 -1.0426,-1.5414 -0.5934,-1.3276 -1.4931,-1.9591 -1.327,-0.7993 -2.2514,0.4276 -1.434,0.6625 -2.0176,1.7267 -0.7434,-0.0758 -1.2482,0.895 -1.4242,-0.0497 -1.3012,0.6911 -1.0893,-1.744 -0.7866,-0.6091 -0.3582,-1.0194 -1.1079,-1.1722 -1.2383,-0.4972 -2.8608,0.2374 -0.885,-1.5265 -0.4973,-2.0834 0.224,-1.1586 -0.2006,-1.1995 0.3299,-0.9187 -0.4456,-0.9534 -0.3398,-1.6794 0.5675,-0.8801 0.07,-2.6179 -1.5043,-0.6303 0.6586,-0.8677 -0.4124,-1.151 0.074,-0.7459 -0.7201,-1.0293 -1.1448,-0.1491 -0.6093,1.0678 -0.9811,-0.5159 -0.4751,-1.1126 0.965,-0.7893 2.745,0.496 1.2519,-1.437 0.8888,0.1181 1.1694,-0.6278 1.1534,0.1082 0.7669,0.4151 0.5699,-0.8291 0.9158,-0.5979 0.9614,-2.0722 0.741,-0.9286 1.0217,0.1206 0.6438,0.7458 0.5613,-0.0112 1.1817,0.6004 0.618,-0.0522 1.5793,0.6091 1.3134,-0.895 0.7533,1.4544 1.2384,1.7292 0.4443,0.2225 1.2359,-0.3941 0.9318,0.1865 0.4887,-0.6551 1.1387,-0.368 -0.1096,-1.979 0.6795,-0.8888 -0.6696,-0.3331 -0.2893,-0.849 -1.5289,-1.1934 0.2056,-1.7664 0.8211,0.5656 1.4623,0.5917 1.7898,1.483 1.3602,-1.9032 -0.5428,-1.258 0.773,-1.2356 0.01,-1.0305 -0.7681,-1.4084 -0.7386,-0.45 0.5133,-1.0914 1.7689,0.3269 0.288,0.537 1.615,0.9174 2.6404,-0.9808 0.9528,0.2374 1.386,-0.2871 1.0722,-0.7123 2.3191,-0.0559 -0.2204,0.8216 -1.4537,1.2792 -0.597,-0.0435 -0.112,1.1946 -1.0291,0.6924 -0.3435,1.4842 0.3558,1.3798 0.7029,1.1809 0.7828,0.5532 1.5141,-0.1802 0.128,-0.4736 1.4575,-0.2549 0.6142,-0.8204 -0.5785,-1.6894 0.9417,-0.302 1.839,0.445 0.1809,-0.7372 2.8374,0.1057 1.2691,-0.4686 0.5392,0.5979 1.6002,0.409 1.5768,-0.0386 2.0163,0.5582 1.8145,0.7781 2.4138,0.1181 0.9356,-0.7011 0.1206,0.8578 0.7558,0.0484 0.5232,0.6154 1.8378,-0.0112 0.528,-1.2095 1.0574,0.8179 1.1694,-0.9311 0.5453,0.3071 0.6525,-0.4165 0.7545,0.2984 0.2561,0.8478 0.7619,0.2871 1.956,-0.5743 1.7381,0.8975 1.0992,-0.0447 0.586,0.4699 0.3373,1.0951 1.194,-0.2958 1.4205,-0.0286 1.0808,0.389 1.951,-0.6476 1.9326,-1.4693 0.047,-0.5992 1.908,0.2113 1.1571,0.327 0.7705,-0.4761 1.7344,-0.1393 0.2536,-1.1796 0.4912,-0.4985 1.2888,-0.2064 1.2063,-0.5233 0.5552,-0.6166 0.9318,-0.3406 1.0746,0.2561 0.3976,0.4749 -1.3799,2.8044 z" id="_65000120">
      <title>
        瑞芳區 Ruifang District
      </title>
    </path>
    <path d="m 1118.2808,186.7833 0.6302,0.3394 0.4961,1.8435 0.075,1.6794 0.9749,-0.6837 0.7706,0.5706 -0.2659,0.5457 1.4267,1.8211 0.5416,1.0926 0.9035,-0.752 -0.02,1.5638 -0.6536,0.363 -0.586,-0.7446 -0.6597,0.1193 0.7348,1.2331 0.2856,1.3873 -1.295,0.6974 0.068,0.9944 0.5206,0.4848 -0.07,0.9833 0.9687,1.1387 0.7521,0.1007 0.1219,0.8838 -1.5584,-1.1088 -0.5034,1.207 -0.8482,-1.0653 -2.2415,-1.3301 -0.3004,0.8975 0.554,0.8652 -0.099,0.675 1.082,0.6103 -0.7435,0.6017 -0.084,0.6849 1.114,0.4376 1.194,-0.3481 0.1834,0.6638 -1.1004,-0.0224 -0.6771,0.414 -1.3011,0.1218 -1.7332,-0.6613 -0.1095,1.9056 0.2228,1.4507 0.6364,0.3617 1.3159,-0.4686 1.4365,0.1529 0.2031,0.8503 -0.4505,0.3642 -1.2974,0.1268 -0.1194,0.6215 1.6014,1.3898 -0.063,0.7098 -0.9195,0.1678 -0.4788,-0.3468 -1.2322,0.2958 -0.2757,-1.34 -1.439,-0.1579 -1.3331,-0.5991 0.9281,-0.5955 -0.1748,-0.4264 0.4321,-2.3568 -0.5847,-0.3319 -2.1431,1.662 -0.3915,0.5917 -0.7644,0.007 -1.1091,-0.4375 -0.3643,-1.7503 -0.6894,0.5606 -1.6543,0.3456 -0.9146,-0.3232 -1.0205,0.5917 1.8353,0.5358 0.2881,0.624 -0.2277,1.7304 -1.3541,-0.0448 0.1317,0.547 -1.7332,-0.5333 -0.8493,0.005 -4.1557,0.5444 -2.1172,0.1306 -3.1623,-0.009 -1.3516,-0.23 0.068,-1.0554 -0.6721,-0.8142 -1.295,0.1964 -1.2506,-0.9485 -0.3878,-0.6774 0.9749,-0.1989 0.229,-0.8304 -0.9749,-0.7906 -2.6946,0.675 -1.6261,-0.6017 -0.079,-1.2145 0.6031,-0.271 1.1608,0.9038 0.4013,-0.5768 -0.2696,-0.7757 1.3393,-1.2468 -1.5941,-0.0734 2.8829,-0.9086 -0.4197,-0.6651 -1.0451,-0.7558 -2.6207,-0.2076 -1.359,0.2374 -1.2149,-0.9086 -1.8895,-0.8168 -1.3812,-0.9298 -1.1509,-1.6048 -1.7677,-0.9485 -1.999,0.0125 -1.4353,-0.2275 -4.1643,-2.0511 -4.0794,-0.1641 -0.6844,-0.946 -0.095,-1.8596 -0.6167,-0.3419 -0.1157,-0.7185 -0.8186,-0.5755 -1.5387,0.8739 -1.9978,0.2138 -0.6906,-2.3917 -1.9055,-0.1616 -1.013,-1.0044 -1.1325,-0.7508 0.5872,-1.1971 0.014,-1.3363 -0.2388,-1.9716 2.2674,-0.0559 1.9461,-0.399 1.8834,-1.3102 0.6684,-1.1723 0.2782,-1.9404 1.0943,1.1449 0.9835,-0.5917 1.8662,0.6053 0.4148,-1.1336 2.4237,0.1181 0.3792,1.2492 1.711,0.1641 1.5978,-0.3816 1.9399,0.3953 1.8034,-0.4935 1.7541,0.0162 2.0187,-0.7347 0.5478,0.0895 3.6596,-0.9646 1.6335,-1.0181 1.7578,0.1616 0.9811,-0.8503 0.9293,-0.1044 2.5419,-0.905 1.1731,-0.9509 2.2551,-0.8876 2.4016,-1.8261 0.6906,-1.064 0.3816,2.3792 0.3385,1.0007 0.8998,0.982 0.97,2.0872 1.0205,1.5787 0.9306,0.7682 0.02,0.849 0.6794,0.8901 0.8038,0.2076 -0.098,0.8415 2.3252,1.8584 1.0537,1.0467 1.3578,-0.1081 -0.2327,1.2381 0.565,0.7719 -0.6622,0.8938 0.986,0.4686 0.597,1.2991 0.6031,0.2125 1.2618,3.4011 1.5423,-0.3468 0.5848,1.171 -0.3447,0.7843 0.533,0.869 0.4284,1.8484 -0.2942,1.749 0.071,1.4072 -0.5343,0.9112 -0.4948,-0.0212 -0.033,-1.1349 -0.9687,-0.4463 -0.1785,0.808 0.3299,1.8199 0.3791,0.2287 -0.501,1.1797 -0.071,0.8503 0.5995,0.3406 0.3656,-1.1586 0.8789,-0.1267 1.3639,0.7458 0.019,-0.6414 -0.73,-0.5781 1.1325,-1.5961 0.2142,-1.1846 1.0906,0.1715 0.2339,-1.0069 -0.9983,-0.123 0.1871,-1.3687 0.6253,-0.0932 0.6155,-0.946 -0.09,-0.7608 0.5429,-0.3605 -1.135,-1.3785 0.341,-0.6986 -0.6696,-0.9361 0.3655,-0.8726 0.069,-1.5216 -0.762,-0.5419 0.7608,-0.5035 z" id="_65000170">
      <title>
        林口區 Linkou District
      </title>
    </path>
    <path d="m 1204.9422,123.9929 -0.8666,0.6588 -1.0069,-0.1243 -1.7037,2.3121 -0.058,0.0249 -0.1071,0.0646 -0.1601,0.0734 -0.2917,0.2187 -0.065,0.0684 -0.1096,0.1032 -0.2659,0.1815 -0.1982,0.1205 -0.4726,0.0286 -0.3804,0.0721 -0.065,0.0212 -0.094,0.1864 -0.064,0.2984 -0.049,0.179 -0.059,0.1703 -0.078,0.2374 -0.01,0.051 -0.017,0.0907 -0.076,0.2064 -0.042,0.0882 -0.039,0.0485 -0.07,0.1032 -0.1169,0.1069 -0.075,0.0795 -0.041,0.0286 -0.046,0.0585 -0.029,0.031 -0.039,0.0771 -0.028,0.1268 -0.01,0.1305 -0.01,0.0609 -0.026,0.092 -0.02,0.0423 -0.1121,0.0783 -0.1661,0.0684 -0.085,0.0497 -0.1034,0.0634 -0.1489,0.0609 -0.1514,0.184 -0.023,0.1666 -0.01,0.0882 -0.01,0.0883 -0.031,0.2548 v 0.0572 l 0.028,0.1641 0.069,0.1131 0.026,0.0398 0.2055,0.1578 0.041,0.0336 0.079,0.0721 0.06,0.0671 0.048,0.0746 0.046,0.1604 v 0.1081 l -0.016,0.1293 -0.02,0.082 -0.012,0.2723 0.036,0.2175 0.01,0.046 0.015,0.0908 -0.025,0.1454 -0.1403,0.1989 -0.051,0.0746 -0.089,0.1355 -0.07,0.1628 -0.039,0.0472 -0.092,0.0709 -0.1021,0.0547 -0.1034,0.046 -0.2105,0.1305 -0.043,0.0311 -0.112,0.0236 -0.1514,-0.0659 -0.2376,-0.0982 -0.1527,-0.1317 -0.1206,-0.1368 -0.2536,-0.1641 -0.469,0.1815 -0.1735,0.3158 -0.2881,0.1603 -0.1317,-0.0236 -0.1058,0.002 -0.1219,0.0323 -0.1034,0.0945 -0.079,0.169 -0.048,0.1032 -0.086,0.1007 -0.093,0.0684 -0.036,0.0161 -0.074,0.0622 -0.086,0.0522 -0.1773,0.0783 -0.087,0.0746 -0.09,0.092 -0.051,0.1144 -0.1982,0.3393 -0.1268,0.1368 -0.033,0.041 -0.073,0.0907 -0.043,0.0398 -0.089,0.041 -0.096,0.1815 -0.022,0.1343 -0.015,0.1889 -0.017,0.1914 -0.016,0.1927 -0.1379,0.4836 -0.037,0.1243 -0.018,0.0932 0.01,0.2325 0.031,0.1081 0.021,0.2499 0.012,0.174 v 0.2026 l -0.015,0.1206 -0.01,0.3145 -0.1539,0.0945 -0.1145,0.0385 -0.091,0.0833 -0.1095,0.1467 -0.1662,0.2461 -0.1182,0.1492 -0.077,0.0795 -0.079,0.0796 -0.1256,0.0895 -0.1218,0.0535 -0.4186,0.0447 -0.3212,-0.004 -0.048,0.0199 -0.3361,0.0833 -0.368,0.0136 -0.2425,-0.0596 -0.08,-0.0274 -0.2609,0.0696 -0.2167,0.0982 -0.1071,0.0174 -0.1501,0.0237 -0.05,0.1006 -0.052,0.1567 -0.067,0.2349 -0.1095,0.1803 -0.044,0.087 -0.034,0.0596 -0.087,0.1467 -0.096,0.1716 -0.011,0.036 -0.083,0.1243 -0.068,0.0224 -0.3742,0.2959 -0.075,0.0646 -0.073,0.0845 -0.099,0.0348 -0.1181,-0.0199 -0.4247,-0.004 -0.2967,-0.003 h -0.1748 l -0.093,0.001 -0.1428,0.0211 -0.1096,0.0249 -0.1046,0.0335 -0.1317,0.0684 -0.1317,0.0684 -0.3188,0.1205 -0.081,0.0286 -0.054,-0.004 -0.1379,-0.006 -0.2634,-0.0584 -0.2167,-0.0261 -0.1329,-0.0199 -0.044,0.002 -0.2019,-0.001 -0.1613,0.0199 -0.059,0.01 -0.1292,0.0223 -0.1391,0.0236 -0.2942,0.138 -0.1305,0.1206 -0.06,0.0721 -0.028,0.0286 -0.1096,0.1206 -0.1624,0.1603 -0.1933,0.2126 -0.192,0.2001 -0.3878,0.4214 -0.1255,0.1169 -0.1391,0.1467 -0.1699,0.1728 -0.047,0.0348 -0.093,0.0783 -0.2832,0.2623 -0.026,0.0323 -1.1423,-1.8522 -2.9863,-0.9447 -1.0192,-0.7471 -1.1596,-1.345 -1.1989,-0.0286 0.053,-0.685 -0.7866,-0.8378 -1.6322,-0.3319 -0.245,-1.0119 -1.0106,-0.2113 -1.9818,0.6141 -0.8038,0.4723 -1.3836,-1.478 0.06,-0.803 -0.9737,-0.7384 -3.0109,-0.6041 0.2437,-1.1312 1.4907,-0.5719 0.2364,-0.9347 -0.2979,-0.5358 -1.7455,-1.2294 0.6007,-0.8304 -0.8026,-1.115 0.9281,-1.8149 1.1239,0.2623 0.9946,-0.1679 0.3151,-0.9335 0.8125,0.4972 1.6051,-1.5439 0.8863,0.1032 0.4481,-0.8714 -0.8199,-1.2841 -0.4222,-1.3065 0.3939,-0.9174 1.7837,0.2163 0.6524,-1.3487 -1.1497,-0.8602 -0.9245,0.0397 -0.6942,-1.0603 0.7127,-1.3028 -0.6327,-0.6401 -2.2711,-0.854 -1.5867,0.0111 -2.2748,-0.9584 -0.6943,-0.4723 -2.6588,-0.9311 -1.6704,-0.9075 -2.3967,-0.7309 -0.8703,-0.5768 -0.8715,0.3916 -2.1135,0.051 -1.1042,-0.5806 -1.5682,-0.1317 -0.5958,-0.5022 -0.2609,-1.1002 -1.1104,-0.4624 -2.4028,-0.2436 -2.3314,1.4755 -0.048,-0.4127 0.9515,-2.3892 1.6458,-2.4054 1.018,-1.1784 1.8489,-0.2113 2.5037,0.6153 0.8469,0.0199 2.5579,-0.7384 2.2281,-1.5712 0.6844,-0.777 1.0561,-1.9168 1.1239,-3.2917 0.4887,-0.8167 1.5707,-1.8721 2.4323,-1.0926 0.5798,0.0025 2.2871,-1.1549 0.6487,-0.7172 0.826,-0.2611 0.89,-0.9074 2.8484,-1.2133 0.9786,0.133 0.1145,-0.5755 2.4976,-1.1847 0.3397,2.6279 1.0894,0.3891 0.7595,0.5905 1.775,0.22 0.133,0.808 2.3388,3.3464 0.7447,0.1355 0.7004,1.4071 0.629,0.1629 0.2216,1.3698 1.0943,0.7745 0.3496,0.803 0.9725,0.271 1.6544,-0.1753 -0.4629,-1.7701 0.5786,-1.079 0.6007,-0.4475 1.0832,0.2387 1.9252,-0.102 0.9602,0.2101 0.6991,-1.3015 0.7078,0.0199 1.6827,1.0206 0.9233,0.0758 0.9453,1.7303 0.197,0.7894 -0.3656,1.3413 -0.9048,1.0852 0.01,1.6135 -0.8125,0.7583 0.7029,2.1605 -0.1526,0.8751 -0.6463,1.2244 -0.7866,0.5296 0.6229,1.0578 -0.698,1.2046 0.4961,0.2673 1.4205,-1.0728 0.3558,-0.8491 0.9023,-0.6961 0.7139,0.1703 0.3459,0.6688 -0.9318,0.7943 1.7061,1.6645 0.5084,0.8851 0.2671,1.3811 0.5404,1.1834 -0.4149,1.5513 0.2352,1.1524 -0.2389,0.9459 0.986,0.5147 1.4907,2.0013 1.2482,0.69 0.2954,1.33 0.4333,0.496 0.6069,1.7341 z" id="_65000210">
      <title>
        三芝區 Sanzhi District
      </title>
    </path>
    <path d="m 1148.4108,177.7573 0.01,0.0174 0.017,0.0398 0.057,0.1044 0.033,0.0659 0.1514,0.2747 0.05,0.1293 0.028,0.128 0.074,0.2574 0.01,0.0335 0.018,0.1007 0.057,0.2461 0.031,0.1455 0.012,0.0771 0.044,0.2548 0.018,0.092 0.03,0.138 0.043,0.179 0.057,0.1504 0.063,0.2349 0.037,0.1691 0.079,0.2797 0.05,0.1914 0.052,0.2014 0.084,0.2362 0.011,0.0522 v 0.2063 l -0.052,0.1094 -0.043,0.0734 -0.078,0.1379 -0.064,0.1293 -0.047,0.092 -0.067,0.1417 -0.066,0.138 -0.09,0.1666 -0.1539,0.3468 -0.092,0.1865 -0.028,0.0621 -0.049,0.0734 -0.045,0.0832 -0.074,0.1492 -0.016,0.046 -0.2573,-0.9074 -0.8986,-0.0734 -0.7373,-1.2095 0.3188,-0.7608 -0.5379,-0.5507 -1.1079,-0.348 v -0.8018 l -2.0938,0.3418 -0.7115,-1.1336 -1.1276,-0.5818 -1.3245,0.179 -0.8826,-0.2412 -1.1989,-1.1436 -0.4148,0.133 -1.2704,-1.3313 -1.3799,-0.3108 -0.9663,-0.6787 -1.2174,0.1454 -1.6753,-0.5059 -0.5392,-1.1026 -0.5908,-0.2598 -1.3762,1.4196 -0.4604,-0.3406 -2.2982,0.1355 -0.2511,0.312 0.2351,2.4613 -0.5945,1.2567 -1.0316,0.0696 -1.7122,1.0902 -2.5542,-0.8888 -1.3492,1.4395 0.1551,0.8006 -0.8629,0.404 -0.1698,2.8926 0.5281,1.5501 -0.2278,0.6203 0.3127,1.0044 0.1219,0.5855 -0.7608,0.5035 0.762,0.5419 -0.069,1.5216 -0.3655,0.8726 0.6696,0.9361 -0.341,0.6986 1.135,1.3785 -0.5429,0.3605 0.09,0.7608 -0.6155,0.946 -0.6253,0.0932 -0.1871,1.3687 0.9983,0.123 -0.2339,1.0069 -1.0906,-0.1715 -0.2142,1.1846 -1.1325,1.5961 0.73,0.5781 -0.019,0.6414 -1.3639,-0.7458 -0.8789,0.1267 -0.3656,1.1586 -0.5995,-0.3406 0.071,-0.8503 0.501,-1.1797 -0.3791,-0.2287 -0.3299,-1.8199 0.1785,-0.808 0.9687,0.4463 0.033,1.1349 0.4948,0.0212 0.5343,-0.9112 -0.071,-1.4072 0.2942,-1.749 -0.4284,-1.8484 -0.533,-0.869 0.3447,-0.7843 -0.5848,-1.171 -1.5423,0.3468 -1.2618,-3.4011 -0.6031,-0.2125 -0.597,-1.2991 -0.986,-0.4686 0.6622,-0.8938 -0.565,-0.7719 0.2327,-1.2381 -1.3578,0.1081 -1.0537,-1.0467 -2.3252,-1.8584 0.098,-0.8415 -0.8038,-0.2076 -0.6794,-0.8901 -0.02,-0.849 -0.9306,-0.7682 -1.0205,-1.5787 -0.97,-2.0872 -0.8998,-0.982 -0.3385,-1.0007 -0.3816,-2.3792 0.8161,0.3344 0.9454,-0.276 1.3442,-0.8242 0.1748,-0.5718 1.7812,0.009 1.0943,-0.5295 1.0832,-0.0833 1.7147,-0.9037 1.9388,-0.8031 1.7873,-1.064 -0.9429,-2.4986 1.9412,-9.2747 4.5484,4.3943 1.0709,0.9336 1.7061,-0.9597 1.1989,-1.9616 1.8218,-2.1716 0.6697,-0.5656 0.4357,-1.1611 2.1407,-2.9535 3.5722,2.3233 3.1635,1.5812 1.6335,0.6551 3.5476,2.4787 1.2211,1.028 2.228,2.2202 1.487,1.8422 0.7878,1.4333 1.1066,3.3625 1.0402,4.7734 1.1534,6.6306 1.0648,1.5054 z" id="_65000230">
      <title>
        八里區 Bali District
      </title>
    </path>
    <path d="m 1148.0895,280.6098 0.4788,1.6496 0.1834,2.2151 1.1485,1.1151 -0.6093,1.212 0.1502,0.7346 2.1418,0.5433 1.0439,0.7048 0.5994,0.0348 0.7128,0.6961 1.1546,-0.2648 1.4562,0.2014 1.5448,1.0044 1.0082,0.2685 1.0734,-0.1131 2.3782,0.5134 0.5687,0.9671 -0.1194,1.2033 0.6856,1.1387 0.7534,-0.0112 0.8961,1.7478 1.1411,1.248 -0.1305,1.0691 -0.5022,0.7856 -0.3484,2.2139 -0.384,0.8093 0.8173,2.2301 0.8174,0.7508 -1.4895,1.3785 -1.6605,0.4277 -0.7017,1.4059 -0.6622,0.7297 -1.9548,3.6385 -0.7361,0.3605 -0.6401,1.1535 -1.2186,1.0567 0.075,0.6861 -0.6254,2.0114 -0.7779,1.1958 -0.5515,1.4469 1.4772,0.8391 0.4653,0.8975 0.7939,0.5159 0.3718,1.1026 0.8961,0.6713 -0.8543,2.5645 1.5264,2.286 1.306,-0.0609 1.3824,-0.6638 1.4636,0.4263 1.631,2.1207 0.8186,1.396 -0.097,1.4184 0.7878,1.1324 1.002,0.3792 0.5749,1.6408 -0.3582,0.8142 0.1231,1.4793 -0.3644,1.6545 -0.6832,1.0567 -0.1501,1.8534 -2.1924,1.1697 -1.8895,0.1517 -1.4919,1.5688 -0.2597,1.0131 0.1059,0.895 -1.2569,1.7167 -0.4406,1.0578 0.8949,0.501 1.0512,1.9864 -0.3164,0.9324 -0.9145,1.0317 -1.6557,-0.1131 -1.5325,1.0703 -1.2839,0.5059 -0.4197,1.6508 -1.8058,1.9106 -1.2987,0.542 -1.1337,0.0249 -1.1509,0.3729 -0.5035,0.496 -1.0377,1.8932 -2.1505,1.5377 0.309,1.1983 -0.1292,1.0442 0.3175,0.9845 -0.3508,0.6352 -0.8826,0.2959 -1.0057,-0.1343 -0.8666,0.6415 -0.48,-0.0821 -1.1583,0.5855 h -0.6881 l -1.7652,-1.1473 -0.522,-0.7372 -1.8279,-1.1685 -0.629,-1.6508 0.5022,-1.6993 -0.068,-1.8012 -0.4948,-0.721 0.1501,-1.396 -0.4259,-1.5041 -0.039,-1.0293 -2.212,-0.7408 -1.2186,-0.8304 -1.1941,-1.3935 -0.2892,-0.8279 -1.0205,-0.7906 -0.1378,-1.5675 -0.8026,-1.5489 -2.2071,-0.0622 -0.9479,0.2014 -0.7373,-0.9659 -0.069,-1.0628 -1.0562,-1.4233 v -0.8851 l 0.8087,-1.6172 -1.6888,-0.9485 -0.9528,-0.7707 -1.0266,-1.2903 -3.2153,-1.6695 -0.8198,0.9522 -1.6802,0.1007 -0.3792,-1.1237 -1.919,-0.1492 -0.6475,0.4313 -1.7578,0.6116 -0.5551,-0.1218 -1.6101,0.936 -0.2573,1.6223 -0.6364,0.6041 -1.2888,0.2934 -1.599,1.1697 -1.114,0.3754 -1.5178,0.1691 -0.062,-0.8242 -1.3664,-0.6601 -1.5645,-0.3704 -1.8243,-0.7981 -1.9634,0.0261 -1.2678,-0.8167 -1.5818,-2.5868 -1.663,-0.276 -1.5165,-0.6178 -1.1128,-0.2076 -2.5924,0.8826 -0.8937,0.5606 -2.1369,-0.215 -0.1576,-0.6576 0.1637,-1.1312 0.4272,-0.7769 1.7061,-0.3058 0.949,0.0857 2.5247,-0.9546 0.73,0.2511 0.5958,0.7781 2.18,-1.2617 0.7669,-1.6073 1.0327,-0.143 -1.3109,-1.744 -0.3336,-1.0554 -2.3081,-0.7993 -1.05,-1.3189 -0.4419,-1.7527 -0.7829,-1.074 0.4604,-0.7111 1.8329,-0.3543 0.6339,-0.7756 1.3467,-0.5918 0.6795,-1.243 -0.4825,-0.8801 0.011,-0.9982 -0.7656,-0.1678 -0.7989,-1.0591 -1.8489,-0.0833 -0.778,-0.7645 -0.1723,-2.0461 -0.3151,-1.2754 -0.4899,-0.5221 -1.2938,-0.4587 -0.1403,-0.6775 0.5293,-2.3072 -0.8062,0.1641 -1.183,-0.5904 -0.437,0.3803 -1.9276,0.6638 -0.3903,-0.9633 -0.4973,-0.0871 0.5946,-1.6769 0.1022,-1.7067 -0.8654,-0.4202 -0.6943,1.1847 -0.8148,0.3257 -0.6697,0.8104 -0.6142,-0.0186 -0.5921,-0.7558 -1.6532,-0.7521 -0.6844,-1.4146 0.3348,-1.4544 0.9897,-0.5407 1.3627,-1.6595 -0.026,-1.1163 -1.4291,-0.4724 -0.213,-0.982 -0.8493,-0.8913 -0.7534,-0.2971 -0.2757,-0.6986 -1.0623,-0.8205 1.4451,-1.4394 0.4912,-0.7906 1.7787,-1.8423 1.4611,-0.7446 1.1965,-0.2001 2.4533,0.128 0.4961,-0.1131 1.6101,-1.1834 0.8235,-0.905 2.2194,-1.6483 2.2846,-2.8852 5.7153,-3.4433 0.4579,-1.1238 0.7632,-0.844 0.3693,0.3132 1.151,-0.629 0.5034,-0.7135 1.4365,0.0622 0.8248,0.3604 0.6327,-0.1752 1.9929,-1.3202 0.8604,-0.3344 1.6827,3.6522 0.954,-0.3866 2.2157,0.1604 2.1825,-0.7596 1.6692,0.0746 1.2555,-0.8216 1.0131,0.4325 -0.4764,0.5346 0.7497,1.253 1.6568,-1.0305 0.6734,-0.8229 0.4973,-1.437 2.6219,-2.3184 0.597,0.5072 -0.057,2.0734 0.6265,2.3694 -0.2671,1.1312 2.5924,0.3157 0.3853,0.9597 1.4205,1.1088 1.2519,-0.7173 1.2371,0.2971 1.8957,-0.1392 2.5431,-0.4587 1.3577,-1.0119 0.57,0.4426 0.9047,1.5886 0.4272,1.1188 1.1718,-0.3157 0.4949,-0.5532 1.3146,-0.3655 1.8489,-1.7316 1.1916,-0.5768 1.0512,-1.0703 0.8518,-0.5233 1.1805,0.0162 z" id="_65000090">
      <title>
        三峽區 Sanxia District
      </title>
    </path>
    <path d="m 1101.0598,262.8984 v 0 l -0.1847,0.7421 0.5626,1.1449 0.6819,0.7135 2.1776,1.3127 0.1292,0.8353 1.6052,1.8659 1.5473,-0.0597 0.5724,0.4426 -1.5289,1.5116 -0.3865,0.7558 -2.3314,1.4805 -1.1595,1.0454 -3.1131,1.0305 -0.2462,2.0088 -1.3294,2.2624 -0.7497,0.4053 -0.1785,0.6924 -0.7632,0.844 -0.4579,1.1238 -5.7153,3.4433 -2.2846,2.8852 -2.2194,1.6483 -1.0414,-0.0286 -2.2994,-0.7384 -4.6543,0.6837 -1.4057,0.373 0.6118,-1.8846 -1.0586,-0.4537 -0.5084,-0.9447 -1.1694,-0.6862 -1.2187,-2.0909 3.8763,-2.506 1.1017,-0.5271 2.7783,-0.5084 0.6154,-0.7583 -0.7373,-0.4139 -1.1559,-1.4445 0.042,-3.7342 0.5367,-2.9784 -0.2376,-2.0511 -0.3287,-0.8403 0.9036,-0.7832 -0.6438,-0.9174 0.16,-0.6575 -0.5564,-1.8659 -1.439,0.9683 -0.5896,-0.082 -0.011,-0.0273 -0.1772,-0.8578 1.9892,-1.125 0.6241,-0.9173 -0.6955,-0.6639 1.3183,-0.926 0.9454,0.2411 1.5953,-0.2461 1.1657,-0.951 2.2453,0.2486 0.8912,-1.2008 1.0992,1.1747 0.9503,0.6701 1.8563,-0.4848 1.2051,-0.5271 0.8641,1.7453 3.8751,-0.0261 0.045,-0.5333 1.343,-0.4699 z" id="_65000080">
      <title>
        鶯歌區 Yingge District
      </title>
    </path>
    <path d="m 1164.4944,240.201 0.044,0.1367 0.049,0.1392 0.036,0.0821 0.043,0.0882 0.043,0.0647 0.025,0.0596 0.053,0.1082 0.068,0.1206 0.032,0.1218 0.053,0.2436 0.036,0.179 0.039,0.007 0.1526,0.082 0.1945,0.1542 0.077,0.0969 0.2314,0.3046 0.1256,0.1554 0.1502,0.2088 0.074,0.1169 0.049,0.0882 0.081,0.148 0.037,0.0907 0.085,0.1529 0.1058,0.1765 0.1108,0.1815 0.1047,0.143 0.08,0.0795 0.3705,0.1181 0.097,-10e-4 h 0.181 l 0.5785,0.5208 1.4759,-0.4487 1.6803,0.7906 1.3787,0.3729 1.919,1.0007 0.9097,0.7483 -1.3258,1.8833 -0.059,0.5643 1.3134,-0.2026 1.908,-2.4178 1.045,0.1939 0.3016,1.4122 -0.4677,0.8925 0.464,1.1772 -1.2654,2.6453 0.698,-0.0137 0.5563,-0.6352 1.1362,-0.624 4.6862,-1.1636 0.4346,1.2319 2.452,-0.007 0.2117,1.299 -0.022,1.5675 -1.9757,1.9939 -0.2905,0.0448 -2.0421,1.8335 -0.4998,-1.1511 0.3976,-1.207 -0.645,-0.2374 -3.3113,0.7247 -0.9958,1.9964 -0.1256,1.3462 -0.5995,0.859 -0.7201,0.3841 -0.2388,0.7123 -0.9527,0.8863 -0.9589,0.3046 -0.8555,1.299 -1.4772,1.4805 -0.416,0.8005 -1.3196,-0.4798 -1.535,0.4376 -0.8445,0.6638 -0.5785,-0.0547 -1.1263,0.8763 -1.0574,0.2126 -0.8309,0.6551 -1.4414,0.6899 -0.6438,0.0162 -0.9491,0.8005 -1.4217,-0.3244 v -0.5979 l -0.6094,-0.9746 0.4235,-0.6303 0.2068,-1.3835 -0.1576,-1.4718 1.1928,-0.3518 -0.6376,-1.2543 -0.6561,-0.3356 -0.1502,-0.9858 -0.8506,-0.8552 -0.9786,-0.1144 -0.8063,-2.2487 1.4132,-1.5302 1.3417,-2.0921 -0.1514,-0.5109 -1.1325,-0.1741 -2.0901,-2.0237 -1.5301,1.0479 -1.0241,-0.8527 -0.5712,0.4649 -0.4604,0.0211 -1.0709,-1.4581 0.6943,-1.304 0.4899,-1.7552 -0.3152,-0.818 1.3036,-0.6961 -0.2511,-0.6477 1.1116,-1.0019 1.0143,-0.496 2.3141,-2.4924 2.4558,-0.2162 0.8321,-1.6981 -0.2954,-0.6775 1.1854,-0.0186 2.361,-0.0311 v 0.051 z" id="_65000030">
      <title>
        中和區 Zhonghe District
      </title>
    </path>
    <path d="m 1133.4572,252.0886 -1.8797,2.5843 -0.7656,0.8018 -0.3484,1.2754 1.1423,1.7714 0.096,1.5824 -0.3988,0.7807 0.4333,1.8298 -0.031,2.3382 1.1214,0.4948 -1.8501,0.5519 -1.2519,1.3052 -1.4574,0.6489 -1.3356,0.1989 -2.5394,0.818 -1.3049,0.6538 -0.2129,1.4482 0.3003,3.6261 -0.3557,1.2045 -1.2211,1.1797 -2.6219,2.3184 -0.4973,1.437 -0.6734,0.8229 -1.6568,1.0305 -0.7497,-1.253 0.4764,-0.5346 -1.0131,-0.4325 -1.2555,0.8216 -1.6692,-0.0746 -2.1825,0.7596 -2.2157,-0.1604 -0.954,0.3866 -1.6827,-3.6522 -0.8604,0.3344 -1.9929,1.3202 -0.6327,0.1752 -0.8248,-0.3604 -1.4365,-0.0622 -0.5034,0.7135 -1.151,0.629 -0.3693,-0.3132 0.1785,-0.6924 0.7497,-0.4053 1.3294,-2.2624 0.2462,-2.0088 3.1131,-1.0305 1.1595,-1.0454 2.3314,-1.4805 0.3865,-0.7558 1.5289,-1.5116 -0.5724,-0.4426 -1.5473,0.0597 -1.6052,-1.8659 -0.1292,-0.8353 -2.1776,-1.3127 -0.6819,-0.7135 -0.5626,-1.1449 0.1847,-0.7421 h 0.065 l 1.0636,-0.7583 0.7139,-1.0715 2.1542,-0.7049 1.1952,-1.1946 1.2298,-0.6389 0.5686,0.2188 1.8292,-1.5352 -1.013,-0.9174 -0.01,-1.0044 0.3422,-1.1225 -0.3594,-0.6564 0.3188,-1.652 2.0003,-0.3891 1.4943,1.8236 1.9425,-0.2747 1.0044,-1.0219 0.2253,-1.0678 0.9835,-0.6128 0.6795,0.0323 0.8481,-0.5084 0.8752,-0.0982 -0.6487,-0.9982 0.01,-0.8627 -1.0119,-1.1125 0.1281,-0.5955 -0.4629,-0.8714 -3.1143,-1.6384 -0.8333,-0.6899 0.3397,-2.6801 1.2248,0.5047 1.2494,-0.8813 2.2366,0.2648 1.4107,-0.8503 1.7972,-0.1952 0.8924,-0.5034 1.0033,0.2449 0.4456,-0.8528 0.6118,-0.1914 1.3811,0.3219 1.1583,-0.1156 1.2014,0.3655 0.9835,0.9186 0.8962,0.4152 0.1637,1.6732 1.2396,1.4271 0.2695,1.7105 1.0451,-0.009 0.6081,1.5886 1.0254,1.0952 -0.3902,0.839 z" id="_65000070">
      <title>
        樹林區 Shulin District
      </title>
    </path>
    <path d="m 1240.6385,233.9781 0.2191,0.1218 0.1403,0.1169 0.059,0.0684 0.085,0.0584 0.059,0.036 0.096,-0.006 0.071,0.0224 0.1268,0.092 0.1231,0.1168 0.054,0.0535 0.1514,0.1156 0.1391,0.051 0.2179,0.0472 0.1,0.0286 0.066,0.0435 0.014,0.0597 -0.034,0.2809 0.144,0.0137 0.149,-0.1069 0.1095,-0.0498 0.2179,-0.0745 0.1428,-0.0262 0.1748,-0.123 0.062,-0.0473 0.1944,0.0386 0.057,0.036 0.023,0.0199 0.1834,0.097 0.7533,0.0858 0.1699,0.0136 0.057,0.009 -0.036,0.9584 -0.5047,0.5967 0.6327,1.217 0.405,2.1816 -0.3373,1.6608 0.2733,0.7147 -0.2499,0.7334 0.5527,1.1611 -1.2039,1.2915 0.149,1.2643 0.3927,0.3791 2.6354,0.6116 -0.027,1.3674 0.2758,0.5942 -0.8272,0.9161 -0.1773,0.8801 -3.1401,0.046 -0.6795,0.8702 -0.031,0.6153 0.698,0.7036 -0.3386,1.069 -0.034,1.1238 0.3754,2.3966 0.7644,1.5626 -0.8727,0.4512 -0.4222,0.6626 -1.4907,0.6501 -1.3577,1.3587 -3.2091,2.3805 -2.7906,1.1884 -0.2265,-0.6017 -1.7873,-0.7794 -0.9466,-1.0404 -0.5269,0.0571 -1.1546,-0.711 -0.6204,0.2175 -2.6342,-0.0982 -1.2088,-0.854 -1.2433,-0.4524 -0.6241,-1.1536 0.698,-0.8863 -0.4272,-3.6472 1.0451,-0.8739 v -1.4395 l -1.4956,-0.7272 0.112,-0.8217 -0.6069,-0.798 0.7731,-1.1138 0.4566,-1.135 0.034,-1.3711 -0.4148,-0.9758 -1.0057,-1.0156 -1.0771,-0.4102 -0.1243,-1.3363 0.4468,-2.7771 0.5379,-0.7123 -0.1464,-0.7172 0.034,-0.1106 0.1084,-0.1194 0.055,-0.0186 0.2327,-0.002 0.1,0.0112 0.2216,0.009 0.2302,0.001 0.4357,-0.0858 0.2081,0.0709 0.1538,0.009 0.075,-0.0211 0.2708,-0.1753 0.112,-0.0149 0.1281,0.0248 0.09,0.0361 0.3878,-0.0323 0.084,-0.1293 0.062,-0.1293 0.03,-0.1168 0.021,-0.2574 -0.01,-0.1578 0.037,-0.2151 0.045,-0.0945 0.1465,-0.2759 0.052,-0.2113 0.011,-0.1057 0.036,-0.1131 0.1219,-0.2735 0.09,-0.1616 0.03,-0.051 0.1354,-0.0497 0.1194,-0.004 0.192,-0.0187 0.091,-0.0161 0.373,-0.0709 0.2548,-0.0161 0.6758,-0.0498 0.2351,-0.0161 0.1871,-0.1654 0.051,-0.0907 0.059,-0.1641 0.058,-0.1454 0.112,-0.1467 0.1182,-0.1119 0.1674,-0.0161 0.073,0.1081 0.065,0.1479 0.063,0.1194 0.1514,0.1143 0.1871,0.092 0.078,-0.002 0.3053,-0.0273 0.4973,0.2275 0.1772,-0.0535 0.082,-0.0149 0.1071,0.0224 0.031,0.0509 0.069,0.0833 0.082,0.0634 0.1317,0.0584 0.1391,-0.0348 0.1243,-0.0522 0.2548,-0.0472 0.1416,-0.0112 0.1748,-0.0559 0.093,-0.0274 0.2893,-0.0609 0.1022,-0.0273 0.1132,-0.0187 0.117,0.051 0.1477,0.1541 0.1255,0.1368 0.051,0.0857 0.069,0.1169 0.1157,0.1342 0.1428,0.0734 0.2118,0.0497 0.3138,0.0286 0.3779,0.0858 0.1465,-0.002 0.1748,-0.087 0.1182,-0.0697 0.1452,-0.0211 0.2081,0.0858 0.1699,0.1492 0.084,0.0285 0.1206,0.0237 0.1772,0.0857 0.087,0.0535 0.1638,0.0994 0.082,0.046 0.1,0.0398 0.325,0.0584 0.112,-0.0298 0.084,-0.0684 0.069,-0.0708 0.6634,-0.3729 0.3016,-0.0771 0.095,-0.0547 0.2007,-0.1057 0.1267,-0.1044 0.049,-0.0572 0.057,-0.0671 0.09,-0.1604 0.1292,-0.169 0.2191,-0.0224 0.1982,0.0348 0.3718,-0.0708 0.1267,-0.0734 0.079,-0.0447 0.1182,-0.1529 0.042,-0.1417 0.062,-0.1778 0.089,-0.184 0.085,-0.1019 0.047,-0.0783 0.1354,-0.2275 0.1,-0.1579 0.073,-0.1405 0.031,-0.0795 0.011,-0.0908 v -0.0882 l -0.01,-0.0908 -0.01,-0.1118 -0.012,-0.0833 0.011,-0.097 0.044,-0.138 0.08,-0.2287 0.1748,-0.4189 0.038,-0.0609 0.1489,-0.1653 0.078,-0.0659 z" id="_65000180">
      <title>
        深坑區 Shenkeng District
      </title>
    </path>
    <path d="m 1162.5938,226.3953 -0.2167,0.2685 -0.1231,0.2064 -0.096,0.1616 -0.042,0.0771 -0.1121,0.2051 -0.069,0.1703 -0.047,0.1466 -0.03,0.1194 -0.058,0.2038 -0.031,0.1455 -0.018,0.1864 v 0.0746 0.1094 0.1964 l 0.027,0.143 0.042,0.2374 0.079,0.2984 0.1305,0.3368 0.079,0.2188 0.055,0.1492 0.039,0.0932 0.1022,0.2785 0.038,0.1106 0.027,0.097 0.019,0.1019 0.1058,0.2474 0.1084,0.2461 0.1132,0.2225 0.1564,0.3195 0.2043,0.4114 0.065,0.1455 0.033,0.0509 0.1686,0.3891 0.089,0.23 0.1219,0.1616 0.1686,0.1206 0.1034,0.1541 0.022,0.0622 0.01,0.0422 v 0.2673 l 0.01,0.1144 v 0.1317 l 0.023,0.0572 0.091,0.2113 0.077,0.1853 0.1047,0.2598 0.1132,0.2747 0.1034,0.2536 0.078,0.1951 -0.023,0.7297 -0.014,0.1169 -0.02,0.1292 -0.014,0.1119 -0.033,0.1865 -0.047,0.2088 v 0.097 0.0684 l -0.01,0.0745 v 0.0833 0.0473 0.0932 l 0.01,0.0485 0.01,0.1392 0.023,0.1355 0.016,0.0634 v 0.0621 l 0.01,0.0746 v 0.097 0.0298 l 0.014,0.1591 v 0.0423 0.1616 l 0.01,0.0448 v 0.174 0.1902 l -0.012,0.1081 v 0.092 0.1106 l 0.023,0.1579 0.01,0.092 v 0.0883 0.0323 l 0.017,0.0771 0.014,0.0708 0.01,0.2064 v 0.0944 0.0485 0.002 l -2.361,0.0311 -1.1854,0.0186 0.2954,0.6775 -0.8321,1.6981 -2.4558,0.2162 -2.3141,2.4924 -1.0143,0.496 -1.1116,1.0019 0.2511,0.6477 -1.3036,0.6961 0.3152,0.818 -0.4899,1.7552 -0.6943,1.304 1.0709,1.4581 0.4604,-0.0211 -0.3004,1.3301 -1.8353,0.9435 -1.1066,-0.0386 -0.3989,-0.7334 -1.6864,-0.5556 -0.4579,-1.7043 -0.027,-1.161 -0.6708,0.3107 -0.9799,2.787 -2.1,-0.9273 -2.5431,0.9037 -0.8752,-1.0579 -1.1399,0.4065 -0.2142,2.3395 -0.8776,0.9969 -0.8038,1.9455 -0.6709,0.5071 -0.4665,0.9398 0.096,1.2593 -0.5773,1.7104 -2.6466,2.0213 -1.1214,-0.4948 0.031,-2.3382 -0.4333,-1.8298 0.3988,-0.7807 -0.096,-1.5824 -1.1423,-1.7714 0.3484,-1.2754 0.7656,-0.8018 1.8797,-2.5843 0.4456,-0.6029 -0.081,-1.0318 0.6414,-0.8291 0.7718,-0.4289 1.5251,0.0385 0.3422,-1.7614 -0.03,-2.7248 0.3668,-1.6496 1.5732,-2.8417 1.0647,-1.473 1.7701,-3.2693 1.4747,-2.1903 1.4168,-1.6645 1.8846,-1.5924 1.6729,-1.1051 2.5037,-1.4445 1.7455,-0.6787 1.7406,-0.4139 4.6838,-0.373 1.4192,0.2735 z" id="_65000010">
      <title>
        板橋區 Banqiao District
      </title>
    </path>
    <path d="m 1278.1074,230.096 0.016,1.4506 0.7004,1.2245 -0.059,0.4699 -1.1078,0.6774 -0.65,1.2543 0.8198,1.1051 0.8075,1.667 1.5092,0.8279 -0.4505,1.1187 1.6864,1.892 0.4739,0.143 0.9503,1.0989 0.9207,2.148 1.5978,-0.4376 0.5773,-0.3754 h 1.0045 l 0.7841,-0.8502 0.6315,0.8714 0.1784,1.1324 -0.4517,2.4004 -0.6647,0.2163 0.1526,0.8751 1.2617,1.3637 1.0734,2.8951 0.7287,1.033 0.1342,0.6775 -0.9072,0.9174 -0.2474,0.7197 0.015,1.5153 -0.4715,0.6377 -0.8678,0.1194 -0.682,1.2406 -1.1398,0.1118 -0.6943,0.5308 0.5379,1.3388 -0.039,1.1449 -0.079,1.0256 -0.4875,0.977 -1.1718,0.3419 -1.508,-0.8839 -0.4369,0.3419 -1.5867,-0.4985 -1.8526,1.1635 -1.2777,2.2587 -0.9996,0.1417 -0.9897,1.1623 -0.5625,-0.1367 -1.9068,0.2511 -1.2075,0.7408 -1.4673,-0.1914 -0.5773,0.4239 -1.087,1.7527 -0.2868,0.8888 -1.0155,0.496 -0.3779,0.777 -1.0365,0.9211 -2.2895,0.2063 -2.3253,0.5756 -0.5638,0.3505 -2.036,0.1368 -0.6364,1.5227 0.2401,0.8627 -0.1047,1.6111 0.2992,0.8589 0.1157,1.81 0.2375,0.7023 1.3307,0.4823 0.4038,5.2607 0.5994,0.7397 1.7123,1.1237 0.8456,2.0436 0.1835,0.9758 -0.7694,-0.0994 -1.0241,0.9845 -2.3462,1.3873 -1.3356,0.2412 -1.407,0.8452 -0.1785,0.4364 0.5306,1.2729 v 0.9733 l 0.986,1.5899 -0.7066,0.8391 -0.7176,0.1952 -0.874,0.8055 0.1588,1.1163 -0.9614,1.1274 -1.503,0.8242 -2.2218,0.8378 -0.8272,0.5507 -1.4366,1.3873 0.5872,1.3463 0.5786,0.2859 1.0032,1.2952 -0.7349,1.5365 0.055,1.534 -0.9762,2.7459 0.6118,0.7968 0.906,0.2574 0.8678,0.8092 -0.5207,2.7584 0.022,1.0293 -1.2297,0.5929 -0.3102,0.6042 -1.0316,0.312 -0.2991,0.5395 -0.3533,1.7962 -1.2998,1.8261 -0.5823,0.0684 -0.9638,-0.7335 -0.5786,-0.0621 -1.1718,0.6514 -1.2913,1.7888 -1.0377,-0.6477 -1.1226,-0.2287 -1.2605,-1.222 -1.9855,0.0311 -2.5555,-1.0467 -0.7004,0.9485 -0.9306,-0.174 -1.1965,0.7061 -3.406,-1.3451 -2.0385,-0.1317 -2.0754,0.0485 -2.0163,-0.5197 -0.6339,-1.0615 -0.5268,-0.235 -1.4649,0.1405 -0.8186,-0.7347 -0.6511,-1.1187 -0.9823,-0.419 -1.2544,-0.9323 -0.3508,-0.5345 -2.8521,-0.9746 -0.9232,0.0671 -1.2199,-0.5109 0.5072,-1.6197 0.4948,-0.4599 0.099,-0.8491 -0.4936,-0.9994 0.5108,-0.8092 -0.7866,-1.3301 0.094,-1.3165 0.8161,-1.6831 -0.081,-1.3226 0.4086,-1.1188 -0.304,-1.1847 -1.0475,-1.018 -2.1887,-0.7459 -1.5473,-0.9435 -0.6622,-0.9634 -0.8949,-0.1802 2.0766,-1.6608 0.4247,-0.9074 1.0955,-0.6091 2.6724,0.1404 1.2925,-0.4723 2.3425,-1.2829 1.9264,-1.4569 0.8937,-0.1951 1.2383,0.2573 0.7238,0.5059 0.6685,1.299 0.6905,0.4376 0.2277,-0.9559 -0.2277,-1.5042 0.074,-1.7415 -0.5503,-1.299 -0.098,-2.424 -0.7718,-2.0909 0.4653,-0.7918 0.2338,-1.268 0.5146,-1.0541 -0.041,-1.1884 0.7004,-1.5887 1.1238,-0.9124 -0.2462,-1.253 -0.7385,-1.0131 -0.064,-0.8975 1.4537,-0.6352 0.2388,-0.8093 1.7677,0.005 1.2014,0.3132 -0.1084,-1.9901 0.8888,-0.8764 -0.2905,-2.8703 1.3368,-0.2461 0.1822,-1.5054 -0.7287,-2.7136 2.3449,-1.4184 0.6783,0.1492 1.045,-0.7856 0.6574,0.4027 0.7841,-0.2013 0.176,-1.2369 2.7906,-1.1884 3.2091,-2.3805 1.3577,-1.3587 1.4907,-0.6501 0.4222,-0.6626 0.8727,-0.4512 -0.7644,-1.5626 -0.3754,-2.3966 0.034,-1.1238 0.3386,-1.069 -0.698,-0.7036 0.031,-0.6153 0.6795,-0.8702 3.1401,-0.046 0.1773,-0.8801 0.8272,-0.9161 -0.2758,-0.5942 0.027,-1.3674 -2.6354,-0.6116 -0.3927,-0.3791 -0.149,-1.2643 1.2039,-1.2915 -0.5527,-1.1611 0.2499,-0.7334 -0.2733,-0.7147 0.3373,-1.6608 -0.405,-2.1816 -0.6327,-1.217 0.5047,-0.5967 0.036,-0.9584 0.02,0.002 0.07,0.0112 0.068,0.0112 0.1218,0.009 0.032,-0.002 0.1182,-0.0771 0.1834,-0.1292 0.091,-0.0585 0.3065,-0.1989 0.1428,-0.0335 0.082,-0.041 0.1218,-0.0547 0.1367,-0.0187 0.112,0.1094 0.1896,0.1156 0.1243,0.0783 0.144,0.0547 0.059,0.0112 0.074,0.0199 0.1526,0.0621 0.037,0.0286 0.076,0.0597 0.075,0.0684 0.094,0.1392 0.064,0.0572 0.1058,0.1479 0.057,0.1057 0.094,0.22 0.042,0.1181 0.2055,0.2312 0.3213,-0.0398 0.293,-0.2001 0.2326,-0.1964 0.2241,-0.1666 0.2265,-0.0883 0.1009,-0.0857 0.046,-0.0348 0.086,-0.0783 0.068,-0.097 0.059,-0.087 0.073,-0.0684 0.054,-0.046 0.087,-0.0758 0.064,-0.0559 0.076,-0.015 0.2425,0.004 0.1687,0.031 0.1944,0.0224 0.1613,-0.001 0.1293,-0.0125 0.1366,-0.0261 0.2437,-0.0857 0.2413,-0.0386 0.066,-0.0161 0.07,-0.006 0.2819,-0.1094 0.2006,0.0199 0.2007,0.0658 0.144,0.0572 0.229,0.1355 0.2191,0.1368 0.1625,-0.061 0.084,-0.036 0.1206,0.0522 0.1293,0.0597 0.1218,0.0397 0.022,-0.005 0.2511,0.0895 0.128,0.092 0.389,-0.1828 0.082,0.0585 0.057,0.006 0.043,-0.0149 0.2068,0.0472 0.057,-0.005 0.2093,-0.0124 0.054,-0.004 h 0.054 l 0.1625,-0.004 0.2068,0.0187 0.054,0.004 0.1194,0.002 0.1416,0.0634 0.144,0.092 0.2893,0.1019 0.2708,0.0659 0.2905,0.0472 0.3324,-0.1168 0.2141,-0.0883 0.1465,-0.1715 0.042,-0.2089 0.063,-0.2498 0.09,-0.133 0.1933,-0.1206 0.039,-0.092 0.1723,-0.5532 0.042,-0.1342 v -0.041 l -0.1501,-0.3357 -0.074,-0.2473 -0.055,-0.2139 -0.01,-0.1168 0.012,-0.2026 0.02,-0.1206 0.02,-0.041 0.149,-0.138 0.07,-0.0597 0.052,-0.1268 0.1342,-0.2722 0.06,-0.1492 0.011,-0.2598 -0.02,-2.2015 0.9442,0.3257 1.8636,0.0485 0.5773,-0.7794 1.1904,-0.3033 1.4217,0.0335 0.73,-0.9422 1.3786,-0.6315 1.6027,-1.4942 1.135,-0.1342 1.1903,-0.7807 1.9818,-0.1566 0.7866,0.5407 0.9958,0.1057 -0.073,2.2412 0.7533,1.0455 1.4784,0.6476 1.0192,0.0323 z" id="_65000190">
      <title>
        石碇區 Shiding District
      </title>
    </path>
    <path d="m 1152.1085,211.134 -0.2006,1.222 0.485,1.6669 0.7127,1.1325 0.016,1.5638 0.6709,1.5315 -0.4518,1.2368 -0.3028,2.2164 -0.7964,2.1468 0.304,2.9884 -1.7455,0.6787 -2.5037,1.4445 -1.6729,1.1051 -1.8846,1.5924 -1.4168,1.6645 -1.4747,2.1903 -1.7701,3.2693 -1.0647,1.473 -1.5732,2.8417 -0.3668,1.6496 0.03,2.7248 -0.3422,1.7614 -1.5251,-0.0385 -0.7718,0.4289 -0.6414,0.8291 0.081,1.0318 -0.4456,0.6029 0.6204,-4.0227 0.3902,-0.839 -1.0254,-1.0952 -0.6081,-1.5886 -1.0451,0.009 -0.2695,-1.7105 -1.2396,-1.4271 -0.1637,-1.6732 -0.8962,-0.4152 -0.9835,-0.9186 -1.2014,-0.3655 -1.1583,0.1156 -1.3811,-0.3219 -0.6118,0.1914 -0.7398,-0.8739 -1.0796,0.0585 -2.1554,-1.6745 -0.4554,-0.885 -0.8284,-0.3096 -0.6155,-0.6613 0.24,-0.6998 -0.4394,-0.5942 -0.7854,-0.1741 -0.6487,-0.9683 0.4075,-2.1381 0.4332,-0.6526 0.8543,-0.2474 -1.2839,-1.3363 -2.3388,-0.8167 -0.9207,-1.9181 2.2945,-0.0497 3.2091,-1.1884 2.7511,0.501 1.087,0.9807 -0.1625,1.1064 1.0845,0.4077 0.677,1.2456 -0.3102,1.744 1.1485,0.4189 1.0856,-0.1628 0.6734,0.6613 -0.8469,1.9653 0.8715,-0.0572 1.6433,0.8926 0.4899,-0.9124 0.6204,0.5954 1.4575,-0.5308 -1.0931,-0.9497 0.9171,-0.7123 3.6423,-4.7187 2.1025,1.3139 0.3447,-2.5284 1.5411,0.9659 0.8789,-0.1318 -0.037,-1.6968 -0.8986,-1.4793 0.9798,-0.2884 -0.7078,-1.6657 -0.1723,-1.0156 -0.9011,-1.9927 0.437,-0.6029 3.0257,-1.2281 0.9195,-0.8565 0.4912,-0.0671 0.063,-1.2481 1.2272,1.0653 0.8457,-0.9584 0.8395,-0.3393 -0.012,-1.3426 2.4976,-1.1113 1.0069,-0.6464 1.402,-0.2287 0.9466,0.5731 z" id="_65000050">
      <title>
        新莊區 Xinzhuang District
      </title>
    </path>
    <path d="m 1121.7508,205.2356 1.1682,0.179 2.244,1.9765 0.4727,0.8826 1.988,0.9186 2.5702,-0.1181 3.0626,0.0249 0.7411,0.23 0.3028,1.5215 1.5731,-0.3033 1.3898,1.2866 0.6019,-0.6166 -0.034,-1.1262 0.9442,0.1889 1.0549,-0.2001 0.2474,-0.9485 1.4045,-0.2051 -0.069,1.1847 0.272,1.9168 1.1498,0.8229 -0.063,1.2481 -0.4912,0.0671 -0.9195,0.8565 -3.0257,1.2281 -0.437,0.6029 0.9011,1.9927 0.1723,1.0156 0.7078,1.6657 -0.9798,0.2884 0.8986,1.4793 0.037,1.6968 -0.8789,0.1318 -1.5411,-0.9659 -0.3447,2.5284 -2.1025,-1.3139 -3.6423,4.7187 -0.9171,0.7123 1.0931,0.9497 -1.4575,0.5308 -0.6204,-0.5954 -0.4899,0.9124 -1.6433,-0.8926 -0.8715,0.0572 0.8469,-1.9653 -0.6734,-0.6613 -1.0856,0.1628 -1.1485,-0.4189 0.3102,-1.744 -0.677,-1.2456 -1.0845,-0.4077 0.1625,-1.1064 -1.087,-0.9807 -2.7511,-0.501 -1.7098,0.2635 -0.9479,-0.9882 0.7362,-0.6228 -1.7997,-0.4264 -0.9047,-0.5817 2.1209,-0.1331 1.0167,0.1231 -0.064,-1.1175 -1.0253,0.1168 -0.9282,-0.6551 -1.8624,-0.8987 -1.167,-0.1169 -0.4591,0.7857 -2.0446,-0.4836 0.6709,-1.0603 -0.8519,-0.818 0.044,-0.7222 1.5288,0.6737 -0.3348,-1.381 0.9614,-1.35 -1.9597,-0.9075 -1.7209,0.1853 -0.3988,-0.7894 -1.0722,-0.491 -0.1317,-0.547 1.3541,0.0448 0.2277,-1.7304 -0.2881,-0.624 -1.8353,-0.5358 1.0205,-0.5917 0.9146,0.3232 1.6543,-0.3456 0.6894,-0.5606 0.3643,1.7503 1.1091,0.4375 0.7644,-0.007 0.3915,-0.5917 2.1431,-1.662 0.5847,0.3319 -0.4321,2.3568 0.1748,0.4264 -0.9281,0.5955 1.3331,0.5991 1.439,0.1579 0.2757,1.34 1.2322,-0.2958 0.4788,0.3468 0.9195,-0.1678 0.063,-0.7098 -1.6014,-1.3898 0.1194,-0.6215 1.2974,-0.1268 0.4505,-0.3642 -0.2031,-0.8503 -1.4365,-0.1529 -1.3159,0.4686 -0.6364,-0.3617 -0.2228,-1.4507 0.1095,-1.9056 1.7332,0.6613 1.3011,-0.1218 0.6771,-0.414 z" id="_65000160">
      <title>
        泰山區 Taishan District
      </title>
    </path>
    <path d="m 1165.6121,194.0889 0.2055,0.2064 0.097,0.1056 0.1612,0.1529 0.091,0.0883 0.144,0.1367 0.3078,0.2797 0.1391,0.1256 0.1366,0.1205 0.2253,0.1927 0.384,0.3344 0.1108,0.1019 0.101,0.1057 0.052,0.0398 0.097,0.0945 0.7657,0.7433 0.1858,0.1691 0.053,0.0509 0.1674,0.1567 0.2068,0.2001 0.1255,0.1131 0.2081,0.1977 0.2511,0.2386 0.2252,0.2288 0.092,0.1168 0.097,0.1442 0.2093,0.312 0.1637,0.2723 0.097,0.1566 0.094,0.1454 0.037,0.0622 0.096,0.1566 0.082,0.1281 0.071,0.1218 0.1243,0.1989 0.1391,0.2175 0.2524,0.4102 0.043,0.0721 0.065,0.1368 0.1698,0.3853 0.064,0.138 0.026,0.0572 0.076,0.1641 0.067,0.1641 0.033,0.0658 0.091,0.1989 0.028,0.0684 0.074,0.1454 0.074,0.1679 0.2019,0.6165 0.1268,0.4463 0.048,0.1541 0.028,0.087 0.021,0.0535 0.027,0.0622 0.032,0.0795 0.066,0.1467 0.085,0.179 0.08,0.1927 0.031,0.0621 0.046,0.1256 0.1169,0.3207 0.092,0.2561 0.039,0.1168 0.079,0.2636 0.047,0.1516 0.023,0.0982 0.042,0.2412 0.021,0.1703 0.023,0.1566 -0.01,0.1231 0.012,0.1143 0.023,0.0721 0.036,0.1044 0.054,0.1629 0.021,0.0783 0.2117,0.7831 0.011,0.1032 0.011,0.0945 v 0.0709 l 0.01,0.169 v 0.2312 l -0.01,0.0933 v 0.1703 l -0.012,0.3866 -0.01,0.164 -0.021,0.634 -0.017,0.5184 -0.016,0.4636 -0.014,0.2263 -0.01,0.3058 -0.028,0.1429 -0.08,0.2549 -0.011,0.0298 -0.032,0.1144 -0.025,0.0833 -0.055,0.1951 -0.022,0.087 -0.079,0.2934 -0.06,0.2523 -0.036,0.1579 -0.1292,0.5321 -0.099,0.3866 -0.012,0.0633 -0.041,0.3208 -0.016,0.0882 -0.014,0.2598 0.012,0.2897 0.02,0.123 0.038,0.1492 0.019,0.0733 0.1095,0.3121 0.026,0.0832 0.065,0.1592 0.144,0.3691 0.099,0.3891 -0.019,0.2897 -0.013,0.2585 v 0.0597 l -0.01,0.1417 -0.014,0.235 -0.01,0.0509 -0.041,0.2984 -0.053,0.1976 -0.058,0.1902 -0.075,0.2374 -0.015,0.0572 -0.1761,0.496 -0.05,0.0957 -0.094,0.2188 -0.048,0.1181 -0.048,0.1106 -0.026,0.0696 -0.073,0.1803 -0.043,0.1032 -0.032,0.0634 -0.016,0.0248 -0.091,0.1417 -0.3016,0.3493 -0.1096,0.1069 -0.052,0.051 -0.2277,0.2362 -0.01,0.0746 -0.066,0.1032 -0.3151,0.3778 -0.095,0.1181 -0.071,0.1007 -0.052,0.0746 -0.048,0.0721 -0.112,0.1778 -0.1822,0.2324 -0.07,0.0547 -0.1957,0.1616 -0.1539,0.1268 -0.087,0.0734 -0.079,0.0634 -0.1047,0.0683 -0.2068,0.1181 -0.1304,0.0671 -0.2105,0.1045 -0.586,0.3095 -0.1243,0.0534 -0.1059,0.0622 -0.3212,0.1703 -0.1244,0.0609 -0.1144,0.0584 -0.089,0.0485 -0.1834,0.0895 -0.1551,0.0671 -0.1932,0.0572 -0.1527,0.006 -0.2671,0.007 -0.1773,-0.0199 -0.1452,0.004 -0.1317,-0.004 -0.086,-0.009 -0.4185,-0.005 -0.4641,0.009 -0.2425,-0.004 -0.2782,0.0274 -0.2117,0.0198 -0.1674,0.0187 -0.3016,0.0298 -0.1354,0.0162 h -0.073 l -0.1834,0.1131 -0.2561,0.2648 -0.1452,0.1429 -0.2425,0.2611 -0.144,0.1405 -0.1317,0.1404 -0.1601,0.1554 -0.1489,0.1467 -0.1711,0.1778 -0.1046,0.118 -0.1355,0.1293 -0.1317,0.1243 -0.041,0.0622 -0.045,0.0559 -2.2047,-0.0696 -1.4192,-0.2735 -4.6838,0.373 -1.7406,0.4139 -0.304,-2.9884 0.7964,-2.1468 0.3028,-2.2164 0.4518,-1.2368 -0.6709,-1.5315 -0.016,-1.5638 -0.7127,-1.1325 -0.485,-1.6669 0.2006,-1.222 1.3972,-1.3686 0.8444,-0.4202 -0.078,-2.2151 0.7041,-0.629 1.1362,0.4363 1.167,-0.2921 0.9663,-2.3979 0.7964,-0.3929 1.8698,-2.2959 0.3163,-1.0032 0.6291,-0.4823 -0.2167,-1.6931 0.5293,-1.0417 2.0459,-1.6719 0.4739,-0.6464 0.4468,-0.3879 0.469,-0.5506 z" id="_65000020">
      <title>
        三重區 Sanchong District
      </title>
    </path>
    <path fill="#f6e8c3" d="m 1369.1977,193.1491 0.8174,1.6683 -0.2868,0.6302 -0.2524,1.8485 0.3976,1.2343 0.9035,1.3811 -0.1206,1.7279 -0.5244,1.9628 0.533,1.565 0.874,0.7819 1.2519,0.0622 0.4222,0.3294 0.036,1.1337 0.4271,0.4798 1.7504,3.1811 0.4764,1.7701 -0.035,1.6508 0.6229,0.7869 0.091,0.8938 0.7016,1.1548 -0.8666,1.0877 -0.032,1.0541 0.3176,0.7546 -0.8875,1.3288 0.09,0.5582 1.1312,0.4239 0.2794,1.1063 1.0636,0.0671 1.0081,0.7347 0.8728,-0.0137 0.4148,0.7322 -0.4431,0.9808 -0.8949,3.6198 -1.0697,1.6135 0.6745,1.2568 0.2438,0.9858 -1.2064,0.4437 -1.0118,1.7988 -0.7767,0.1578 0.031,0.8652 1.3713,0.5259 0.1699,1.1287 -1.3688,0.9534 -1.098,0.3568 -0.6943,-0.4699 -0.6721,0.404 -1.7012,0.3692 0.02,1.0081 -1.0229,0.7098 0.089,1.6782 -0.4345,0.8428 -0.9638,1.0392 -0.4715,3.053 -1.4636,1.6359 -0.81,1.9479 -0.5748,0.5905 -1.1768,0.588 -0.8457,0.9671 -1.1804,2.3593 0.6758,0.5917 -0.1822,0.8043 -1.2162,0.9037 0.1034,1.1076 -0.3754,1.1785 -0.01,1.1075 -0.5096,1.2518 0.073,1.4743 0.3631,2.0809 -0.5169,1.1014 0.3298,1.1113 -1.2961,0.1629 -2.457,1.2493 -0.063,0.6936 -0.7743,0.2822 -1.1755,-0.9075 -0.8457,0.6912 -0.9614,-0.1778 -0.7435,0.6439 -0.089,0.6676 -0.9946,0.6862 -0.2622,1.0292 -0.8358,0.5681 0.2117,1.6359 -0.5625,2.03 -0.7546,0.8415 -0.096,0.9559 0.4284,1.4992 0.8345,0.68 0.5527,0.9634 2.2256,0.8714 0.6204,1.2766 0.017,0.936 0.8457,1.6906 -0.1231,0.4562 2.5222,1.447 0.063,1.1038 -0.9798,1.2742 -0.5884,0.1517 -0.6918,0.8552 -2.1653,1.5526 -0.3865,1.2841 -0.5847,0.8453 -0.7312,0.2996 -1.4783,1.4942 -0.7977,1.519 -1.9117,1.892 -0.5194,0.0572 -0.8088,1.0441 -2.0963,-0.21 -2.8767,0.4549 -1.4082,0.9696 -0.8321,0.1219 -1.5436,-1.1375 -1.4858,-0.8527 -0.7681,-0.056 -0.3274,1.5216 -2.3278,0.6812 -0.8321,0.7893 -0.7423,-0.3232 -0.4911,0.4301 -1.1423,-0.1193 -1.9991,0.1206 -0.4973,0.6911 -1.0229,0.0609 -2.8964,-3.7118 -0.7977,-0.046 -0.4247,-0.7322 -0.3508,-1.6135 -0.1797,-2.1617 -0.3952,-0.9335 -1.4476,-1.4582 -1.6507,-0.7757 0.3619,-0.8763 0.9109,-1.1325 0.6217,-3.0256 1.695,-1.3823 0.2351,-0.7857 -0.2536,-0.8664 0.517,-0.5805 0.1256,-1.5638 1.7184,-2.0847 -0.9552,-2.4886 0.5059,-0.7757 1.2543,-2.961 0.6475,-0.2523 0.4986,-1.5315 -0.5971,-0.1654 -0.5563,-0.8353 0.069,-0.8789 -0.549,-1.3325 0.2831,-1.2096 -0.053,-1.4096 0.7853,-1.1001 -0.2339,-1.1114 0.059,-1.248 1.0513,-1.6657 0.087,-2.4874 -0.1797,-1.1437 -0.549,-0.9174 0.057,-1.202 -0.981,-0.3133 -0.698,0.2996 -1.6654,0.0236 -0.7189,0.6166 -1.924,-0.004 -1.0857,-1.0069 -1.2703,-0.6104 -0.778,-0.5643 -0.7115,-1.5825 -0.6942,-0.3406 -1.023,0.128 -1.2568,-0.6948 -0.06,-0.5681 -0.8936,-1.0106 -0.9922,-0.2163 -0.5675,-1.6981 2.0311,-1.7204 1.0118,-0.6253 0.7177,-0.092 0.7139,-0.7819 1.1682,-0.5022 1.263,-1.8919 1.1558,-0.3916 -0.3323,-0.6924 0.8186,-1.7304 0.949,-0.3779 0.9688,-1.156 0.325,-2.7261 1.2678,-1.5377 0.7546,-0.5681 0.4222,-0.8987 1.1005,0.0596 0.9084,-0.5084 3.4996,-3.7417 2.5432,-0.8179 1.1928,-0.009 1.082,-2.1605 -0.149,-0.9547 1.1325,-1.4096 0.7804,-0.6651 1.3171,-0.5743 0.7312,0.2611 0.4739,-0.67 0.5675,0.0547 1.2408,-0.9212 0.6315,-1.3139 1.1965,0.0137 0.5428,0.5196 1.1165,-0.0199 0.3853,-0.3518 1.5423,0.2784 0.5355,0.4525 1.2851,-0.082 0.4272,-1.6769 -0.5072,-0.6676 -0.1809,-1.4991 -1.6852,-3.3849 0.4714,-0.6962 -0.3717,-0.5755 -0.033,-1.6794 -0.4703,-0.7807 0.036,-1.0317 0.9109,-1.3326 0.4813,-1.1138 0.058,-1.5277 1.3774,-1.0977 0.8802,-0.3331 1.2506,-1.2816 0.8444,-1.5676 -0.031,-0.8614 1.1164,-0.9597 0.533,-1.3686 0.7201,-1.222 1.2568,-1.5414 1.876,0.1741 0.7632,-1.8547 0.2733,-1.4669 2.1923,-1.5165 0.4788,0.4811 1.9412,-0.0224 1.8305,0.7272 0.8887,0.6302 0.8457,0.2089 1.9633,-0.009 0.9651,-0.731 z" id="_65000250">
      <title>
        雙溪區 Shuangxi District
      </title>
    </path>
    <path fill="#d8b365" d="m 1417.6024,257.6824 -1.0586,-1.4283 -0.5441,-1.161 -1.7406,-0.46 -0.8543,0.6241 -1.7873,-0.6017 -0.9564,0.2176 -1.3787,-0.1815 -1.311,0.9733 -1.1115,-0.6452 -0.9959,-0.082 -0.48,0.9099 -1.0574,0.4687 -0.2327,0.6165 -1.2863,0.0647 -0.3077,0.803 -1.6421,-0.0385 -0.2499,1.064 -1.775,0.1778 -1.0845,0.7943 -2.2563,0.1927 -1.0882,0.445 -0.7915,-0.6314 -0.8432,0.5941 -2.3056,-0.3505 -1.2334,0.6141 -0.8604,0.89 -0.4087,1.1735 -0.9577,-0.6352 -0.7558,0.1665 -0.7398,1.2667 -0.7398,-0.7284 -0.6413,0.1765 -1.5682,1.8932 -0.213,1.0467 -1.1719,1.3326 -0.5859,0.009 -2.2625,1.1374 -1.1386,0.2039 -0.6093,0.9447 -1.4033,-0.5905 -1.8809,0.0547 -1.6175,0.8205 -0.677,0.004 -0.922,0.6986 -0.8309,-0.0882 -2.26,0.5258 -1.2174,-0.506 -2.3757,-0.2299 -1.2655,-0.8789 -0.3298,-1.1113 0.5169,-1.1014 -0.3631,-2.0809 -0.073,-1.4743 0.5096,-1.2518 0.01,-1.1075 0.3754,-1.1785 -0.1034,-1.1076 1.2162,-0.9037 0.1822,-0.8043 -0.6758,-0.5917 1.1804,-2.3593 0.8457,-0.9671 1.1768,-0.588 0.5748,-0.5905 0.81,-1.9479 1.4636,-1.6359 0.4715,-3.053 0.9638,-1.0392 0.4345,-0.8428 -0.089,-1.6782 1.0229,-0.7098 -0.02,-1.0081 1.7012,-0.3692 0.6721,-0.404 0.6943,0.4699 1.098,-0.3568 1.3688,-0.9534 -0.1699,-1.1287 -1.3713,-0.5259 -0.031,-0.8652 0.7767,-0.1578 1.0118,-1.7988 1.2064,-0.4437 -0.2438,-0.9858 -0.6745,-1.2568 1.0697,-1.6135 0.8949,-3.6198 0.4431,-0.9808 -0.4148,-0.7322 -0.8728,0.0137 -1.0081,-0.7347 -1.0636,-0.0671 -0.2794,-1.1063 -1.1312,-0.4239 -0.09,-0.5582 0.8875,-1.3288 -0.3176,-0.7546 0.032,-1.0541 0.8666,-1.0877 -0.7016,-1.1548 -0.091,-0.8938 -0.6229,-0.7869 0.035,-1.6508 -0.4764,-1.7701 -1.7504,-3.1811 -0.4271,-0.4798 -0.036,-1.1337 -0.4222,-0.3294 -1.2519,-0.0622 -0.874,-0.7819 -0.533,-1.565 0.5244,-1.9628 0.1206,-1.7279 -0.9035,-1.3811 -0.3976,-1.2343 0.2524,-1.8485 0.2868,-0.6302 -0.8174,-1.6683 1.6138,-0.2797 1.6285,-1.5774 1.86,-0.8043 1.146,-0.7135 2.6897,-0.1591 1.7245,-0.3531 0.8863,-1.3437 -1.4057,-2.8032 0.1317,-1.0081 0.8062,-0.762 0.5466,-1.4159 1.2851,0.041 0.794,-0.6389 0.2757,-0.6738 3.0995,-0.946 0.2364,0.4525 1.6384,-0.6016 0.8284,0.0385 0.6844,-0.5295 2.7438,-1.1399 1.5928,-1.0666 -0.7225,0.5855 -0.1921,2.245 -2.0433,0.7583 -0.474,1.3537 1.3664,0.7719 1.4057,-0.6886 1.0242,0.225 1.7972,2.9759 -0.5724,1.1946 -1.0328,0.3791 -0.1514,0.4674 -1.3602,0.6962 -0.6339,0.7906 -0.4665,1.4432 0.6388,1.1349 -0.055,1.6508 -1.1731,0.3543 -1.5387,2.6328 0.01,2.4825 1.3183,2.3618 -0.7903,1.9367 0.1034,0.8379 0.5958,0.3853 1.6889,-0.2038 3.0084,2.4588 1.5707,0.67 -0.1551,1.1946 1.0771,1.4681 0.8383,1.8323 -0.5466,1.8857 0.5047,3.3551 -0.9478,1.611 -0.4062,2.9772 0.6782,0.3518 -0.047,1.0653 -0.6573,0.4488 0.051,1.1809 0.9601,1.3898 0.7004,1.5886 1.3393,2.0238 4.1089,4.4651 2.5912,2.0598 1.514,0.3406 -0.16,-0.6688 1.3073,-0.3717 2.0446,-0.087 1.4304,-0.3617 1.1534,-0.0224 2.1024,-0.9994 1.0968,0.435 1.0451,-0.3194 0.5416,-0.6004 1.9658,-0.6415 2.2453,-0.0472 2.7265,0.9684 3.8049,2.2164 1.1411,2.6602 -0.4345,0.8751 0.9244,0.3928 0.3865,-1.0106 1.8378,-2.0039 0.8925,-0.1069 1.4525,2.7858 0.9343,0.0932 0.8075,-0.5594 0.2893,0.6104 -0.2154,0.8838 0.7533,1.1561 -0.4911,1.8969 -0.1798,1.9044 0.3656,0.6762 -0.432,1.0343 -0.8395,-0.2548 -3.6523,0.7458 -1.1718,0.9186 -2.0003,2.035 -0.7115,1.1535 -1.7455,0.9585 -1.1116,0.9186 -1.5731,-0.2934 -1.7861,0.6029 -0.7718,0.7359 -0.6894,2.0523 -1.3429,-0.0323 -2.3795,0.3344 -0.2117,1.2344 z" id="_65000260">
      <title>
        貢寮區 Gongliao District
      </title>
    </path>
    <path fill="#8c510a" d="m 1237.3285,167.6436 v 0.0398 l 0.8543,2.6888 2.212,1.5091 0.2758,0.757 0.8456,0.3618 1.7431,-0.2139 1.5005,0.7061 0.5576,0.8751 0.6413,0.1455 1.0033,2.5881 -0.1108,0.6824 0.8284,0.6626 -0.2905,1.1747 0.309,3.1437 2.0877,2.3097 0.1747,0.9074 0.938,1.9703 -0.288,0.731 -0.7657,0.041 -0.6918,0.8763 0.7768,0.7633 0.1095,1.0579 1.2814,0.8378 0.2573,0.5532 1.0328,0.4102 0.1526,1.1573 1.0439,0.4997 0.3865,0.675 1.3405,0.3978 0.5502,0.89 1.2408,-0.0534 1.1066,0.8291 0.826,1.2978 2.4385,1.1163 0.81,0.5171 0.4973,-0.3033 2.0225,-2.3146 0.9293,-0.5134 0.6204,0.6725 -0.096,1.57 -0.7029,-0.0448 0.165,1.4445 -0.6697,2.025 0.522,0.2598 1.9436,1.8609 2.4262,1.8087 0.874,-0.01 0.8395,0.7471 2.5899,0.1964 1.503,1.5327 2.5986,-0.2946 0.528,0.5818 0.8592,0.1927 1.2778,-0.6489 1.5941,-0.2138 1.3872,0.9198 1.9006,2.0586 0.2807,0.7259 1.5879,0.8814 0.3804,0.9547 1.8599,0.1926 1.0771,1.8336 0.9946,0.9286 -1.1324,1.2169 -0.7029,1.1188 -1.1891,0.6191 -0.6426,-0.1107 -1.0992,0.7136 -0.6561,1.1734 -1.0537,1.35 -0.9663,0.7086 0.3656,0.8341 -0.4542,2.3631 -1.3307,0.8279 -0.6081,0.8515 -2.0126,-0.4028 -0.2696,0.3419 -2.436,0.8975 -0.8211,-1.1176 -1.0192,-0.0323 -1.4784,-0.6476 -0.7533,-1.0455 0.073,-2.2412 -0.9958,-0.1057 -0.7866,-0.5407 -1.9818,0.1566 -1.1903,0.7807 -1.135,0.1342 -1.6027,1.4942 -1.3786,0.6315 -0.73,0.9422 -1.4217,-0.0335 -1.1904,0.3033 -0.5773,0.7794 -1.8636,-0.0485 -0.9442,-0.3257 0.02,2.2015 -0.042,0.005 -0.1428,0.0435 -0.058,0.0485 -0.1058,0.082 -0.1982,0.0572 -0.1367,-0.0373 -0.517,-0.1827 -0.128,-0.0957 -0.1871,-0.0672 -0.4825,-0.0534 -0.181,-0.0497 -0.1501,-0.0435 -0.068,-0.0125 -0.1896,0.006 -0.092,0.0212 -0.1157,0.0547 -0.068,0.0348 -0.1207,0.0522 -0.1095,0.0596 -0.2007,0.138 -0.075,0.0448 -0.081,0.0671 -0.3065,0.1392 -0.144,0.0908 -0.1034,0.0659 -0.08,0.041 -0.098,0.0398 -0.2056,0.1466 -0.08,0.1268 -0.046,0.138 -0.02,0.0423 -0.1613,0.1243 -0.2819,0.1156 -0.4456,0.092 -0.1773,0.0833 -0.048,0.0485 -0.039,0.005 -0.037,-0.0683 -0.077,-0.0995 -0.117,0.006 -0.085,-0.0298 -0.1034,-0.0522 -0.1206,-0.0174 -0.074,0.0447 -0.1428,0.1044 -0.1095,0.0622 -0.081,0.0348 -0.1132,-0.002 -0.2536,-0.041 -0.037,-0.0149 -0.1108,-0.0758 -0.2105,-0.2226 -0.062,-0.0198 -0.074,0.0397 -0.016,0.0324 -0.2142,0.1553 -0.048,-0.0111 -0.1145,-0.007 -0.1452,0.0298 -0.2364,0.0696 -0.037,-0.0198 -0.2413,-0.1915 -0.1637,-0.0795 -0.1206,0.0435 -0.1182,0.0584 -0.084,0.0249 -0.1194,-0.0883 -0.165,-0.2076 -0.1501,-0.1218 -0.092,0.0596 -0.2424,0.2163 -0.149,0.0821 -0.073,0.0286 -0.2351,-0.1368 v -0.1429 l 0.033,-0.1243 -0.012,-0.097 -0.2068,-0.1939 -0.1108,-0.1256 -0.092,-0.0323 -0.1022,0.0112 -0.079,-0.051 -0.1219,-0.082 -0.1502,0.001 -0.066,0.005 -0.2745,-0.0696 -0.117,-0.0771 -0.07,-0.1292 -0.031,-0.0883 -0.2487,-0.1094 -0.1563,-0.1231 -0.1059,-0.1044 -0.087,-0.0348 -0.1181,-0.0385 -0.1244,-0.1032 -0.3877,-0.0833 -0.064,-0.0348 -0.517,-0.3182 -0.1083,-0.0162 -0.1822,-0.0311 -0.092,-0.0857 -0.085,-0.0759 -0.3865,-0.2958 -0.24,-0.174 -0.039,-0.0448 -0.023,-0.0572 -0.042,-0.0696 -0.043,-0.0708 -0.022,-0.0398 -0.094,-0.0858 -0.074,-0.0199 -0.085,-0.036 -0.073,-0.0535 -0.052,-0.0149 -0.097,-0.0286 -0.1404,-0.0485 -0.1649,-0.0857 -0.2573,-0.061 -0.1834,-0.0385 -0.075,-0.0311 -0.087,-0.0484 -0.06,-0.0361 -0.1022,-0.0733 -0.044,-0.046 -0.1255,-0.1007 -0.2561,0.1181 -0.1895,-0.0236 -0.039,-0.0709 -0.034,-0.1094 -0.026,-0.1119 -0.094,-0.179 -0.043,-0.0311 -0.1341,-0.0472 -0.1564,-0.0286 -0.1206,0.0112 -0.08,0.0174 -0.2327,0.0696 -0.2129,0.051 -0.2019,0.0609 -0.1834,0.0584 -0.2487,0.1169 -0.1366,0.0534 -0.1071,-0.0348 -0.021,-0.3058 -0.053,-0.2337 -0.1453,-0.2859 -0.048,-0.0298 -0.229,-0.1181 -0.1612,-0.0535 -0.3644,-0.0982 -0.176,-0.036 -0.1563,-0.0435 -0.1318,-0.0634 -0.026,-0.0261 -0.079,-0.0634 -0.1686,-0.1131 -0.1034,-0.0498 -0.057,-0.0273 -0.1342,-0.0274 -0.078,-0.0223 -0.1551,0.0373 -0.2068,0.0733 -0.079,0.036 -0.1465,-0.0124 -0.1625,-0.1877 -0.048,-0.1057 -0.097,-0.1417 -0.1304,-0.1442 -0.3226,-0.3306 -0.1317,-0.1256 -0.2375,-0.1815 -0.2425,-0.082 -0.07,-0.006 -0.1945,-0.0622 -0.045,-0.0348 -0.08,-0.0808 -0.071,-0.0683 -0.1071,-0.1231 -0.1034,-0.1392 -0.1982,-0.2922 -0.046,-0.0733 -0.098,-0.1604 -0.06,-0.1218 -0.037,-0.0945 -0.1354,-0.2051 -0.086,-0.1205 -0.1501,-0.1728 -0.089,-0.0796 -0.1108,-0.0895 -0.064,-0.082 -0.1341,-0.2312 -0.083,-0.1654 -0.038,-0.0783 -0.1329,-0.2536 -0.097,-0.1914 -0.1908,-0.3829 -0.076,-0.1591 -0.1108,-0.22 -0.1255,-0.2337 -0.08,-0.1641 -0.054,-0.1193 -0.065,-0.1144 -0.1625,-0.2412 -0.082,-0.1641 -0.01,-0.1367 -0.037,-0.312 -0.066,-0.1517 v -0.2598 l 0.012,-0.4972 0.062,-0.1902 0.1773,-0.1405 0.044,-0.0211 0.1736,-0.1467 0.061,-0.0522 0.2044,-0.2063 0.2363,-0.2959 0.028,-0.0447 0.256,-0.1194 0.1748,-0.087 0.2228,-0.1081 0.3152,-0.1492 0.485,-0.2461 0.058,-0.1069 0.011,-0.0697 v -0.174 l -0.1551,-0.3978 -0.028,-0.0609 -0.1071,-0.184 -0.1194,-0.1752 -0.058,-0.1765 v -0.0983 l 0.014,-0.1392 0.1612,-0.2436 0.1637,-0.0261 0.1601,0.006 0.4074,0.1852 0.1157,0.097 0.1526,0.1703 0.096,0.1019 0.1366,0.092 0.087,0.0621 0.096,0.0796 0.1022,0.1715 0.057,0.009 0.2622,-0.1194 0.1256,-0.1032 0.03,-0.1367 -0.01,-0.0696 -0.034,-0.1044 -0.051,-0.1032 -0.049,-0.092 -0.1182,-0.1852 -0.041,-0.0858 -0.062,-0.0858 -0.029,-0.0435 -0.1563,-0.2163 -0.094,-0.133 -0.091,-0.1429 -0.069,-0.1194 -0.071,-0.1268 -0.053,-0.0982 -0.08,-0.1877 -0.1144,-0.3132 -0.037,-0.133 -0.032,-0.0796 -0.16,-0.3269 -0.053,-0.0895 -0.2561,-0.3493 -0.091,-0.1007 -0.4161,-0.4413 -0.1822,-0.1678 -0.2573,-0.2138 -0.4665,-0.3108 -0.1514,-0.0684 -0.1305,-0.0261 -0.086,-0.0286 -0.1711,-0.0746 -0.086,-0.0447 -0.1662,-0.0622 -0.368,-0.1305 -0.1059,-0.0534 v -0.009 l 0.02,-0.0423 0.046,-0.0957 0.066,-0.1542 0.015,-0.0397 0.1096,-0.2735 0.021,-0.0858 v -0.0795 -0.2661 l 0.021,-0.046 0.128,-0.0584 0.1009,0.0522 0.036,0.0933 0.052,0.1031 0.091,0.1132 0.1268,0.0944 0.1071,-0.0323 -0.045,-0.1206 -0.031,-0.1106 0.042,-0.1405 0.026,-0.0833 0.01,-0.0845 0.012,-0.0609 v -0.0982 l -0.01,-0.0995 -0.023,-0.0658 -0.053,-0.0908 -0.089,-0.1367 -0.036,-0.1355 v -0.0684 l 0.031,-0.123 0.054,-0.0324 0.1071,-0.009 0.325,0.0137 0.055,-0.036 0.097,-0.1542 0.1219,-0.0858 0.2437,-0.1578 0.037,-0.1529 0.042,0.006 0.091,0.0273 0.1292,-0.0199 0.1404,-0.0795 0.2942,-0.3493 0.043,-0.1281 0.2499,0.015 0.032,-0.0746 -0.027,-0.1852 -0.043,-0.0858 -0.048,-0.1504 v -0.179 l -0.014,-0.0485 -0.01,-0.1604 v -0.4525 l -0.087,-0.1653 -0.042,-0.0286 -0.1083,-0.082 -0.091,-0.179 -0.027,-0.2387 0.048,-0.2014 0.086,-0.087 0.1034,-0.1106 0.049,-0.051 0.064,-0.0845 0.1724,-0.4836 0.081,-0.0373 0.047,-0.006 0.049,0.0199 0.1638,0.0646 0.3052,-0.0584 0.053,-0.2026 0.021,-0.0845 0.087,-0.1915 0.047,-0.1715 -0.01,-0.2262 -0.01,-0.1405 -0.016,-0.1293 0.015,-0.0845 v -0.0547 l 0.059,-0.0933 0.3964,-0.1466 0.3065,-0.1219 0.092,-0.0808 0.049,-0.0944 0.018,-0.0311 0.037,-0.1343 0.012,-0.1168 0.01,-0.0883 0.011,-0.0559 v -0.0945 l -0.028,0.005 -0.065,0.0547 -0.078,0.0758 -0.112,0.1641 -0.1243,0.1069 -0.085,0.0162 -0.025,-0.009 -0.074,-0.046 -0.045,-0.1069 -0.012,-0.0572 0.052,-0.1293 0.1342,-0.0348 0.1477,-0.1504 0.01,-0.1691 -0.052,-0.1019 -0.085,-0.1293 -0.012,-0.0385 -0.034,-0.179 0.027,-0.097 0.1489,-0.1628 0.1133,-0.102 0.1748,-0.1429 0.2006,-0.1989 0.048,-0.0783 0.055,-0.0957 0.031,-0.0348 0.073,-0.0833 0.028,-0.0398 0.1601,-0.1218 0.1366,-0.0299 0.4247,-0.0584 0.1403,-0.087 0.087,-0.1094 0.066,-0.1579 0.05,-0.128 0.066,-0.2001 v -0.0808 l -0.028,-0.092 -0.049,-0.0821 -0.1096,-0.1491 -0.045,-0.1281 v -0.3095 l 0.1181,-0.1554 0.079,-0.1081 0.087,-0.1492 0.069,-0.1815 0.076,-0.1231 0.091,-0.1603 0.012,-0.0373 v -0.0721 l -0.076,-0.1368 -0.06,-0.1106 -0.021,-0.0572 -0.022,-0.1864 0.01,-0.0348 -0.01,-0.1393 -0.046,-0.2946 -0.097,-0.1566 -0.1674,-0.1566 -0.2942,-0.3195 -0.1637,-0.1628 -0.069,-0.102 -0.022,-0.0348 -0.1342,-0.1628 -0.054,-0.056 -0.059,-0.0547 -0.026,-0.0397 -0.082,-0.2138 0.014,-0.0908 0.026,-0.0671 0.01,-0.041 0.065,-0.0622 0.068,-0.0746 -0.038,-0.169 -0.054,-0.0908 -0.1107,-0.1516 -0.117,-0.2002 -0.045,-0.2362 -0.021,-0.0919 -0.033,-0.097 -0.026,-0.0435 -0.1194,-0.1765 -0.1071,-0.1293 0.015,-0.271 0.027,-0.1181 0.017,-0.0684 0.058,-0.2523 0.034,-0.1032 0.01,-0.0261 0.084,-0.0758 0.3065,-0.2486 0.052,-0.0858 0.021,-0.1057 -0.057,-0.1367 -0.082,-0.143 -0.1243,-0.1839 -0.1145,-0.1256 -0.091,-0.0298 -0.1034,-0.0137 h -0.07 l -0.1698,-0.009 -0.032,-0.005 -0.1453,0.0187 -0.052,0.009 -0.1551,-0.004 -0.1095,0.0361 -0.1256,0.0398 -0.1391,0.007 -0.07,-0.0373 -0.082,-0.0323 -0.1034,-0.0323 -0.1428,-0.0448 -0.3053,-0.2287 -0.096,-0.1877 -0.051,-0.1094 -0.049,-0.0708 -0.051,-0.0547 -0.058,-0.0423 -0.1268,-0.1057 -0.07,-0.036 -0.2154,-0.0957 -0.2093,-0.1852 -0.1563,-0.1268 -0.3299,-0.2797 -0.1366,-0.1119 -0.058,-0.0249 -0.1563,-0.0895 -0.047,-0.0907 -0.027,-0.0485 -0.093,-0.1193 -0.06,-0.0522 -0.1896,-0.1007 -0.2647,-0.148 -0.075,-0.1516 -0.091,-0.1106 -0.079,-0.0883 -0.054,-0.0659 -0.032,-0.0858 -0.017,-0.1243 -0.133,-0.1703 -0.057,-0.1118 -0.021,-0.0535 -0.1527,-0.2163 -0.045,-0.0323 -0.1477,-0.1964 -0.2007,-0.1803 -0.1932,-0.0808 -0.1293,-0.0534 -0.2991,-0.1194 -0.1428,-0.0795 -0.1674,-0.051 -0.2388,-0.0311 -0.2179,0.002 -0.1662,0.004 -0.1809,-0.002 -0.1982,-0.0485 -0.1588,-0.0883 -0.4517,-0.1442 -0.3509,-0.266 -0.05,-0.046 -0.082,-0.0646 -0.043,-0.0373 -0.2252,-0.143 -0.071,-0.0323 -0.1724,-0.1206 -0.062,-0.0596 -0.076,-0.051 -0.3262,-0.1728 -0.4617,-0.0584 -0.1107,-0.0323 -0.1047,-0.0908 -0.09,-0.0721 -0.042,-0.01 -0.272,-0.008 -0.4444,-0.0186 -0.058,10e-4 -0.2795,-0.1355 -0.059,-0.0298 -0.1329,-0.0311 -0.2166,-0.046 -0.4309,-0.2983 -0.3262,-0.0622 -0.1218,0.0149 -0.1416,0.004 -0.051,0.002 -0.1575,-0.0162 -0.087,-0.0162 -0.2068,-0.0522 -0.1662,-0.036 -0.1908,0.1019 -0.1957,-0.0398 -0.033,-0.0509 -0.063,-0.0833 -0.1416,-0.1107 -0.092,-0.0186 -0.1588,0.01 -0.128,0.002 -0.149,-0.1317 -0.1022,-0.0622 -0.1378,-0.0721 -0.1354,-0.2014 -0.2856,-0.614 -0.1539,-0.2238 -0.086,-0.4972 -0.032,-0.1393 -0.06,-0.1553 -0.057,-0.1045 -0.028,-0.0484 -0.07,-0.0771 -0.085,-0.0895 -0.1034,-0.1156 -0.028,-0.0497 -0.031,-0.0771 v -0.1678 l 0.018,-0.0721 0.081,-0.1467 0.1588,-0.0448 0.1169,-0.1566 0.026,-0.0199 0.053,-0.1181 0.1231,-0.1802 0.027,-0.0199 0.09,-0.1778 0.049,-0.1081 0.015,-0.0199 0.133,-0.1243 0.057,-0.0584 0.1059,-0.1716 -0.038,-0.0721 -0.025,-0.1504 0.1046,-0.2362 0.057,-0.1181 0.074,-0.0932 0.049,-0.087 0.09,-0.22 0.023,-0.0684 0.043,-0.1069 0.078,-0.3008 0.1367,-0.3208 0.043,-0.1069 0.047,-0.1628 0.012,-0.1119 0.022,-0.1168 0.093,-0.0808 0.2265,-0.1007 0.1281,0.0559 0.1354,-0.1268 0.027,-0.0398 0.09,-0.2237 0.041,-0.0982 0.144,-0.189 0.1342,-0.3095 0.012,-0.1939 0.011,-0.0721 0.042,-0.1032 0.128,-0.3804 v -0.4388 l 0.05,-0.3381 0.08,-0.2287 0.025,-0.0908 0.084,-0.2871 0.1661,-0.2051 0.1945,-0.009 0.1083,-0.0783 0.1416,0.0236 0.1416,0.1404 0.2178,0.2313 0.341,-0.1442 0.081,-0.0435 0.091,-0.0597 0.092,-0.1044 0.043,-0.1803 0.2104,-0.2685 0.2573,-0.2001 0.1268,-0.1716 0.2536,-0.2473 0.1625,-0.1853 0.2991,-0.3443 0.1219,-0.1405 0.055,-0.0509 0.033,-0.0808 0.089,-0.3468 0.044,-0.1766 v -0.004 l 0.7927,-1.4009 0.9823,-0.3556 2.6835,-2.547 0.4468,-0.7832 0.9774,0.3294 2.6269,-0.7868 1.0672,-0.0485 z" id="_65000110">
      <title>
        汐止區 Xizhi District
      </title>
    </path>
    <path fill="#d8b365" d="m 1281.0838,145.9929 -0.1748,0.3443 -0.1538,0.1927 -1.6077,1.0641 -1.0549,-0.1318 -0.9207,0.3207 -0.6254,1.6409 -0.045,0.7906 -0.9712,0.2436 -0.085,0.9982 -1.2764,0.0361 -0.8272,0.2933 -1.9462,0.2126 -0.1391,0.9733 -1.4784,0.7844 -0.496,1.0206 -1.2888,0.8565 -1.7172,0.4686 -1.6778,1.1014 -0.4222,0.9895 -1.8932,0.1951 -1.3479,-0.0808 -0.97,0.5545 -0.2277,0.7135 -1.7098,0.2884 -1.13,0.4276 -0.7964,-0.2349 -0.6611,0.2685 -1.5596,0.004 -1.2297,1.7142 -1.4759,0.5681 -0.5182,-0.092 -1.1264,1.933 -1.9042,-0.3804 -1.199,0.0149 -0.8543,0.4624 -1.4956,-0.4114 -0.3742,0.7521 -1.1066,0.4586 -1.2913,-0.1243 -1.1977,0.7185 -1.4537,0.5022 -1.3245,1.1822 v 0.0174 l -0.4444,-0.0211 -1.0672,0.0485 -2.6269,0.7868 -0.9774,-0.3294 -0.4468,0.7832 -2.6835,2.547 -0.9823,0.3556 -0.7927,1.4009 -0.069,-0.0298 -0.059,-0.0236 -0.1748,-0.051 -0.2524,-0.0647 -0.2695,0.01 -0.2425,-0.0336 -0.1982,-0.0286 -0.112,-0.0211 -0.1859,-0.0336 -0.1219,-0.036 -0.028,-0.0547 -0.012,-0.1243 v -0.2499 l 0.1391,-0.5792 0.01,-0.097 v -0.1119 l -0.036,-0.1094 -0.08,-0.2051 -0.025,-0.092 -0.025,-0.2461 0.034,-0.1865 -0.011,-0.0795 v -0.1119 l 0.1564,-0.22 0.1932,-0.3046 0.038,-0.1728 0.01,-0.1454 0.01,-0.0771 0.011,-0.1404 0.101,-0.0808 0.058,-0.0349 0.01,-0.0596 -0.3804,-0.1007 -0.053,0.1467 -0.081,0.1044 -0.07,0.0671 -0.1022,0.0659 -0.067,0.0348 -0.1021,0.0149 -0.069,-0.1628 -0.2498,-0.3046 -0.1564,-0.1293 -0.128,-0.0907 -0.1268,-0.0858 -0.3767,-0.1839 -0.1723,-0.0411 -0.046,-0.1069 -0.055,-0.0944 -0.2167,-0.2698 -0.1194,-0.128 -0.081,-0.1455 -0.097,-0.1056 -0.086,-0.0411 -0.4395,-0.2374 -0.1698,-0.0609 -0.1022,-0.0348 -0.1933,-0.0796 -0.085,-0.0435 -0.091,-0.1454 -0.8321,-1.3177 -0.5096,-0.3915 -0.014,-0.0871 0.016,-0.0571 0.06,-0.2263 0.038,-0.1206 v -0.2349 l -0.112,-0.4314 -0.1465,-0.3766 -0.1391,-0.2971 -0.1354,-0.1827 -0.2609,-0.368 -0.2376,-0.2188 -0.1083,-0.2175 v -0.0709 -0.312 l -0.032,-0.4748 -0.044,-0.1666 -0.078,-0.1454 -0.3422,-0.2909 -0.1169,-0.0274 -0.117,-0.0186 -0.1834,-0.006 -0.341,-0.1181 -0.1046,-0.0858 -0.091,-0.0634 -0.3188,-0.1865 -0.087,-0.0509 -0.1477,-0.0721 -0.2056,-0.1268 -0.037,-0.0224 -0.099,-0.0883 -0.025,-0.1591 0.1329,-0.1243 0.1084,-0.0584 0.1107,-0.0932 0.075,-0.0647 0.1785,-0.3368 0.017,-0.1256 0.016,-0.1144 0.03,-0.0994 0.049,-0.1529 0.01,-0.0249 0.1,-0.0634 0.1957,-0.1156 0.1268,-0.1069 0.093,-0.2511 0.023,-0.133 0.012,-0.1504 -0.07,-0.2014 -0.035,-0.082 -0.032,-0.1181 -0.015,-0.1952 0.1145,-0.3505 -0.045,-0.1368 -0.309,-0.7471 -0.065,-0.1342 -0.031,-0.0622 -0.1,-0.2051 -0.091,-0.1889 -0.038,-0.1119 -0.017,-0.1914 0.014,-0.1132 v -0.0559 l -0.01,-0.1168 -0.025,-0.1169 -0.029,-0.1019 -0.028,-0.1131 -0.017,-0.061 -0.027,-0.1479 -0.011,-0.0485 -0.037,-0.174 -0.077,-0.3381 -0.027,-0.128 -0.025,-0.1169 -0.041,-0.1168 1.546,-0.2922 1.3725,-0.7744 0.6931,-0.0435 0.3976,-0.9883 2.9062,-3.6882 0.5971,-1.5476 0.7004,-0.0758 0.7976,-0.6203 0.2241,-0.9746 -0.043,-1.3537 1.2285,-1.7167 0.2461,-1.2182 0.4395,-0.4215 0.1859,-1.6843 0.5711,-1.805 -0.9872,-0.8105 0.757,-1.2741 0.6401,0.1877 1.3873,-1.6508 0.4444,-0.9858 1.892,-1.35 0.9761,-0.0596 0.9343,-1.6446 1.2765,-1.0455 1.8107,-1.9777 1.4181,-1.0094 1.0709,-0.2598 0.8001,-0.757 1.1017,-0.5569 1.9942,-0.0908 0.8604,-0.9833 0.084,-1.3126 1.2199,-1.0132 2.2305,-0.6563 1.7516,3.7379 1.3331,1.7975 2.6552,2.5682 1.4525,0.2076 0.3102,0.7757 3.3556,2.4949 0.9847,0.3269 1.7197,-1.5066 1.2469,-0.7185 0.2265,1.9255 1.567,-0.9721 1.4193,-1.6843 1.5732,-0.4612 0.074,1.5861 0.9909,-0.0882 -0.224,-0.7086 0.8715,-0.9522 1.2137,-0.1839 1.8083,-2.6167 0.032,-0.7496 2.7056,-1.8708 0.6463,0.711 -0.7201,0.5059 -0.3509,0.951 -3.6288,3.5192 -0.8838,1.9814 0.437,0.6042 1.7331,-0.24 -1.045,1.1275 0.3619,0.7844 -0.714,0.3282 -0.5293,1.1784 -1.3368,0.7397 -2.0655,2.6887 0.3286,0.4065 -0.3311,1.0181 0.9934,2.2649 1.0278,1.58 1.615,1.6023 1.8317,-0.9572 1.4562,0.4512 2.0372,0.2139 1.0119,2.1741 1.0389,-0.0771 0.3237,0.5333 z" id="_65000280">
      <title>
        萬里區 Wanli District
      </title>
    </path>
    <path fill="#d8b365" d="m 1249.4743,119.3052 -2.2305,0.6563 -1.2199,1.0132 -0.084,1.3126 -0.8604,0.9833 -1.9942,0.0908 -1.1017,0.5569 -0.8001,0.757 -1.0709,0.2598 -1.4181,1.0094 -1.8107,1.9777 -1.2765,1.0455 -0.9343,1.6446 -0.9761,0.0596 -1.892,1.35 -0.4444,0.9858 -1.3873,1.6508 -0.6401,-0.1877 -0.757,1.2741 0.9872,0.8105 -0.5711,1.805 -0.1859,1.6843 -0.4395,0.4215 -0.2461,1.2182 -1.2285,1.7167 0.043,1.3537 -0.2241,0.9746 -0.7976,0.6203 -0.7004,0.0758 -0.5971,1.5476 -2.9062,3.6882 -0.3976,0.9883 -0.6931,0.0435 -1.3725,0.7744 -1.546,0.2922 -0.3102,0.1864 -0.2487,0.184 -0.1206,0.0348 -0.057,0.0273 -0.2265,0.0174 -0.092,-0.0198 -0.09,-0.1343 -0.1748,-0.0957 -0.1059,-0.0174 -0.2806,-0.005 -0.068,-0.0224 -0.1465,-0.0621 -0.075,-0.0423 -0.1182,-0.0882 -0.2806,-0.2362 -0.076,-0.0684 -0.092,-0.0858 -0.1243,-0.0944 -0.1083,-0.0821 -0.149,-0.0597 -0.2486,-0.0435 -0.1182,-0.0484 -0.066,-0.1393 -0.014,-0.0584 -0.043,-0.1342 -0.1588,-0.0871 -0.2413,0.1554 -0.3101,0.0435 -0.4112,-0.0422 -0.1268,0.002 -0.2499,0.0397 -0.4788,-0.005 -0.4099,-0.0846 -0.1908,-0.0994 -0.7607,-0.7098 -0.026,-0.0771 v -0.0808 l 0.133,-0.5581 0.055,-0.3232 0.3546,-1.1176 0.2979,-0.2001 0.3446,-0.5084 0.16,-0.138 0.2918,-0.1516 0.1686,-0.138 0.1219,-0.1355 0.1342,-0.2039 0.3446,-0.2896 0.1047,-0.1044 0.073,-0.1828 0.084,-0.1342 0.058,-0.0846 0.1441,-0.123 0.1009,-0.1181 0.075,-0.1293 0.075,-0.1268 0.021,-0.0733 v -0.0435 l -0.011,-0.2263 v -0.1566 l 0.073,-0.1914 0.2031,-0.1442 -0.023,-0.1144 -0.015,-0.0348 -0.048,-0.1629 -0.1478,-0.2001 -0.1,-0.1305 -0.048,-0.0522 -0.087,-0.1069 -0.08,-0.1554 -0.087,-0.1566 -0.054,-0.0933 0.014,-0.353 -0.038,-0.1293 -0.4751,-0.3766 0.058,-0.2387 -0.082,-0.1629 -0.1133,-0.1268 -0.05,-0.1442 -0.032,-0.1093 0.011,-0.0871 0.099,-0.1355 0.089,-0.0783 0.048,-0.0907 0.022,-0.1765 0.033,-0.087 0.1121,-0.2362 0.038,-0.0572 0.2031,-0.1044 0.101,-0.0199 0.107,-0.0199 0.042,-0.0522 0.028,-0.0883 0.02,-0.0982 0.041,-0.1541 v -0.0995 l -0.034,-0.1081 -0.048,-0.0957 -0.1391,-0.1853 -0.059,-0.0696 -0.1157,-0.1653 -0.1268,-0.2909 0.1181,-0.2958 0.053,-0.1194 0.025,-0.0944 0.074,-0.0945 0.1034,-0.056 0.055,-0.031 0.149,-0.1007 0.049,-0.041 0.047,-0.0982 v -0.1703 l -0.066,-0.2586 0.2942,-0.1865 0.026,0.0199 0.085,0.0199 0.1575,-0.0696 0.011,-0.1057 -0.043,-0.1255 -0.065,-0.097 -0.016,-0.0907 0.01,-0.0373 0.043,-0.0957 0.048,-0.0833 0.014,-0.0398 -0.016,-0.22 -0.022,-0.051 -0.057,-0.0684 -0.026,-0.0211 -0.043,-0.0597 0.081,-0.164 -0.076,-0.1728 -0.042,-0.1256 0.075,-0.2101 v -0.0895 l -0.059,-0.1081 -0.039,-0.0572 -0.1021,-0.0994 -0.1367,-0.0883 -0.1009,-0.0709 -0.112,-0.1541 -0.02,-0.1007 0.055,-0.1417 0.038,-0.1778 0.03,-0.1006 0.144,-0.1902 0.01,-0.006 0.1797,-0.1404 0.079,-0.0622 -0.015,-0.046 -0.1292,-0.077 -0.437,-0.1616 -0.1957,-0.0187 -0.1625,-0.0261 -0.1391,-0.051 -0.068,-0.0323 -0.1219,-0.0224 -0.2302,-0.0186 -0.2806,0.0298 -0.4198,0.3158 -0.031,0.1032 -0.052,0.1429 -0.1243,0.1293 -0.1108,-0.046 -0.2265,-0.1852 -0.1403,-0.0448 -0.1292,-0.0311 -0.2068,-0.1006 -0.2635,-0.2797 -0.1009,-0.0112 -0.2203,0.0609 -0.078,-0.002 -0.1145,-0.0323 -0.036,-0.0249 -0.066,-0.0907 -0.054,-0.0398 -0.1083,-0.0162 -0.133,0.0137 -0.1969,0.0522 -0.079,0.0311 -0.16,0.0709 -0.064,0.0298 -0.1613,0.0671 -0.1292,-0.0186 -0.1022,0.0199 -0.1009,0.0472 -0.06,0.0124 -0.1267,0.0311 -0.1478,-0.001 -0.2622,-0.1318 -0.1329,-0.0609 -0.2634,-0.1094 -0.073,-0.1106 -0.023,-0.0423 -0.229,-0.174 -0.1354,-0.235 0.042,-0.133 0.021,-0.0696 0.03,-0.1206 v -0.1119 l -0.042,-0.0994 -0.02,-0.0311 -0.1342,-0.1516 -0.1527,-0.1629 -0.1071,-0.0932 -0.065,-0.0609 -0.028,-0.0187 -0.1945,-0.0373 -0.2474,-0.0186 -0.1588,-0.0647 -0.065,-0.0969 -0.1613,-0.1405 -0.4456,-0.1777 -0.3841,-0.1268 -0.1575,-0.0423 -0.1416,-0.051 -0.192,-0.1566 -0.052,-0.1081 -0.039,-0.1331 -0.068,-0.0969 -0.1293,-0.1057 -0.1772,-0.1317 -0.092,-0.0808 -0.015,-0.0833 0.01,-0.0485 0.047,-0.1566 0.022,-0.0435 0.073,-0.3779 -0.021,-0.1032 -0.049,-0.22 -0.054,-0.1716 -0.037,-0.1019 -0.086,-0.3269 -0.048,-0.2437 -0.1969,-0.4848 -0.1182,-0.1193 -0.1871,-0.1877 -0.052,-0.097 -0.028,-0.1069 -0.044,-0.174 -0.027,-0.1517 -0.1416,-0.4376 -0.037,-0.1205 -0.026,-0.1542 -0.066,-0.4276 -0.01,-0.0696 -0.016,-0.2436 -0.01,-0.097 -0.026,-0.1019 -0.176,-0.1194 -0.073,-0.009 -0.2819,-0.0248 -0.1576,-0.0261 -0.2425,-0.061 -0.076,-0.0248 -0.2375,-0.0995 -0.09,-0.0335 -0.1551,-0.0522 -0.2474,-0.0125 -0.1256,0.0137 1.7037,-2.3121 1.0069,0.1243 0.8666,-0.6588 0.9466,-1.8249 1.8636,-1.3102 1.082,-0.2237 0.6524,0.2001 1.7037,-0.2499 0.8567,-0.5407 1.002,-1.1051 0.325,-1.6583 -0.2142,-0.9994 1.1706,-2.8591 1.7911,-1.345 0.6277,-0.8553 1.0205,-0.752 0.2326,-0.5333 1.6988,-1.6172 0.1107,-0.3506 1.7874,-0.4028 0.6807,-0.7781 0.5798,-1.2941 0.1403,-1.2791 2.0286,-2.4427 1.3233,-0.0795 1.983,-0.4699 1.7184,-0.0162 1.151,0.3407 1.0685,-1.5812 0.4,-1.125 -0.9207,-2.751 0.089,-1.616 -0.5662,-0.7794 0.5957,-0.8888 -0.081,-0.7185 0.5564,-2.158 0.954,-0.6439 0.4591,-0.7521 1.2543,1.0716 3.5181,4.1258 2.3413,3.9144 0.5096,1.9604 0.4468,3.8175 -0.3779,2.859 -0.6536,2.649 0.1452,0.6266 1.1978,1.8298 1.3134,1.4233 2.0507,1.7416 1.7037,0.4624 1.1386,0.0174 -0.2499,-0.7123 0.4616,-0.8254 1.4624,-0.363 0.7152,0.317 -0.6697,1.3251 0.8937,0.2834 0.2142,0.6191 -0.9257,1.7527 z" id="_65000270">
      <title>
        金山區 Jinshan District
      </title>
    </path>
    <path d="m 1233.7587,88.5327 -0.4591,0.7521 -0.954,0.6439 -0.5564,2.158 0.081,0.7185 -0.5957,0.8888 0.5662,0.7794 -0.089,1.616 0.9207,2.751 -0.4,1.125 -1.0685,1.5812 -1.151,-0.3407 -1.7184,0.0162 -1.983,0.4699 -1.3233,0.0795 -2.0286,2.4427 -0.1403,1.2791 -0.5798,1.2941 -0.6807,0.7781 -1.7874,0.4028 -0.1107,0.3506 -1.6988,1.6172 -0.2326,0.5333 -1.0205,0.752 -0.6277,0.8553 -1.7911,1.345 -1.1706,2.8591 0.2142,0.9994 -0.325,1.6583 -1.002,1.1051 -0.8567,0.5407 -1.7037,0.2499 -0.6524,-0.2001 -1.082,0.2237 -1.8636,1.3102 -0.9466,1.8249 -0.4444,-0.5085 -0.6069,-1.7341 -0.4333,-0.496 -0.2954,-1.33 -1.2482,-0.69 -1.4907,-2.0013 -0.986,-0.5147 0.2389,-0.9459 -0.2352,-1.1524 0.4149,-1.5513 -0.5404,-1.1834 -0.2671,-1.3811 -0.5084,-0.8851 -1.7061,-1.6645 0.9318,-0.7943 -0.3459,-0.6688 -0.7139,-0.1703 -0.9023,0.6961 -0.3558,0.8491 -1.4205,1.0728 -0.4961,-0.2673 0.698,-1.2046 -0.6229,-1.0578 0.7866,-0.5296 0.6463,-1.2244 0.1526,-0.8751 -0.7029,-2.1605 0.8125,-0.7583 -0.01,-1.6135 0.9048,-1.0852 0.3656,-1.3413 -0.197,-0.7894 -0.9453,-1.7303 -0.9233,-0.0758 -1.6827,-1.0206 -0.7078,-0.0199 -0.6991,1.3015 -0.9602,-0.2101 -1.9252,0.102 -1.0832,-0.2387 -0.6007,0.4475 -0.5786,1.079 0.4629,1.7701 -1.6544,0.1753 -0.9725,-0.271 -0.3496,-0.803 -1.0943,-0.7745 -0.2216,-1.3698 -0.629,-0.1629 -0.7004,-1.4071 -0.7447,-0.1355 -2.3388,-3.3464 -0.133,-0.808 -1.775,-0.22 -0.7595,-0.5905 -1.0894,-0.3891 -0.3397,-2.6279 0.9035,-0.3928 -0.01,-1.1846 -0.4887,-0.8403 -0.053,-1.0554 0.496,-1.4954 1.3479,-0.2909 0.9392,1.4171 0.2167,1.5625 1.5325,1.0243 0.8925,0.0672 1.1767,-0.4326 0.4567,-0.7894 1.3602,0.0373 0.8875,0.45 2.3844,-1.3612 0.6179,-0.757 0.9023,-0.1417 0.6118,-0.721 0.1674,-0.8267 -0.6561,-1.4283 0.085,-1.2057 1.6483,-1.7205 0.6696,0.0348 1.3578,1.2145 0.2695,1.8957 2.4152,1.2866 2.4446,0.4127 1.3233,-0.7148 1.4008,0.0286 0.7411,0.2847 1.8304,0.174 1.8526,-0.895 0.4874,0.2188 1.0586,-1.1188 0.1601,-1.0106 1.1324,-0.9783 1.5486,0.0174 1.1768,-0.3903 1.727,0.0994 2.5887,1.493 2.1492,1.6682 2.1099,0.7757 1.642,-0.0075 0.858,0.3878 0.8838,-0.1069 0.4776,1.0305 2.3622,1.2033 0.8248,0.7098 1.258,1.5278 0.8617,1.3885 4.115,1.2667 1.1448,0.6365 z" id="_65000220">
      <title>
        石門區 Shimen District
      </title>
    </path>
  </g>
</svg>
