<?xml version="1.0" encoding="UTF-8"?>
<svg xmlns="http://www.w3.org/2000/svg" width="725.096" height="603.574">
  <g id="g1147" fill="#e0e0e0" stroke="#000" stroke-width=".5">
    <path style="fill:#fc9272" d="M224.384 127.997l-2.032 1.562-4.5.563-.906 1.25-3.062-2.282-4.532 3.032 1.625 2.187-2.437 3.344-3.188-1.844-5.843.188v3.906h-1.032l-.375-1.813-2.312.375-.438-4.843-2.437 2.687-2.219-.937-4.562.437-.782 1.969-2.093.5-.375-2.125-5.032.656v1.344l-2.718.156-1.438-1-1.875.938-.375 2.25-5.156.187-3.031 3.656 2.28 1.72-3.03 2.468 1.062 1.875-.812 4.5 3.562.437 1.063-1.03.468.655 7.594-1 1.531-1.062-1.312 1.25.5 2.469 3.656-1.625-.719 2.468 4.375.22-.093.53-4.375-.156-3.657-.937-4.718-2.25-3.157 3.625 3.72 1.25-.22 5.687 1.5-1.187 2.063-3.157 3.844 2.22 1.875.405.718 2.813-1.062 1.844-2.344-.157h-2.406l-3.875.594-6.781.375-1.625 2.156 2.312 1.375 2.125-.187 1.75 1.562 2.5-.187 3.969 4.531.937 4.875-1.5 3 4.532.875 4.687-.219 1.125-2.062-1.156-1.594.75.344 1.781-.188 3.125 1.75 2.313-.437v-.969l.187.813 2.625 4.312 5.906.406.125-.718 1 1.437 3.532.625h2.375l.03.031 2.282 3.657 3.438.843.28-.375-.187.594 2.907 1.281 3.468 3.407 1.094 2.03-.812 5.188 2.718 2 1.532-1.75-1.282-1.687v-3l2.25.531.625-1.875.282.656 2.875 2.5 1.468-2.406-.187-.375.656.906.156-.03-1.875 2.374 2.625.875 1.813 2.781 10.687-.968 2.094.468-1 .844.219 2.063.562.437 1.063-.187 1.594-1.563 1.03 1.188h3.282l3.813-1.97 5.656-2.218.187-5.5 1.25-.687 3.625-1.907 12.25-.625.813-2.28 1.844-1.813 4.437-.594.188-2.094 2.5.344 1.718 2.344 4.282 1.03.875-1.812 1-3.5 2.468-6.156 1.22-.687 3.53.437v-5.75l-1.375-1.375v-5.531l-.593-1.969v-2.969l1.968-1.968v-4.157l-.968-.78.187-5.532-1.719-.844-2.375-.031-2.125-1.688-2.218 2.657-1.782.218-1.5 2.063-1.312-.313-3.219-2.812-1.125-3.625-.656-2.688h-9.75l-3.156-1.937 2.468-3.344-5.406-.219-2.062 2.344v.031l-1.032 1.157-3.843-.407-.407 2.188-1.78.156-.188-2.625-2.375-.719-.97 1.125v-3.718l-2.718 2.03-3.594-.593-1.25 2.438-7.28 3.968v1.844h-.97v-3.437l-4.062-1.907.375-3.5-3.719-2.718v-3.407l-2.719-.593.188-3.157-2.125-.187.187-2.188h-4.437l-.438 1.344zm9.75 73.156l1.843.437 1.75 2.094-.75 1.188-2.25-.688-3-1.406 2.875-.438z"/>
    <path style="fill:#fcbba1" d="M337.071 151.34l-2.25.22-.844 2-2.687 1.093-5.313-.781-5.218 3.093-1.938-1.375-2.937 1.97-1.938-1.407-1.406-2.375-3.156-1.313-2 1.594-3.532-.406-.187 5.562.969.782v3.625l-1.97 1.968v3.25l.595 2v5.72l1.375 1.374v4.813l-3.063-.375-1.562.906-2.594 6.375-.969 3.469-.312.656-.344.687-.313-.062-3.28-.813-1.75-2.375-3.376-.437-.187 2.219-4.157.562-2.03 2.031-.782 2.063-11.906.594-5.375 2.843-.188 5.438-5.312 2.094-3.657 1.906h-2.906l-1.281-1.5-1.906 1.906-1.47.281 1.282.875-3.656 3.282.969.968.687 1.375-2.062 2.875 2.437 1.313 4.094.875.281-1.25 1.875 2.375h3.813l2.53-2.75h1.907l-2.531 1.281.187 2.156.72 1.657-1.907 1.937h-2.563l.5 3.594 4.438-.813 4.781 4.375-.062.094-.22.281-5.687 7.313-.187 4.906 6.031 5.844-.219 1.937h1.875l3.688 11.063 3.969 1.968 3.968 3.97h4.407l1.75 3.905h4.343l1.907 2.875 4.78 2.375.188-2.562.782.75 6.125-3.688 2.437-.156 1.188 3.188 3.843-1.625 3.157 2.375 2.625-1.25 2.25-.625 1-1.188 3-1.937-2.375-2.407-1.375 1.032-.094-.969 1.406-2.625-1.375-2.313 1.125-1.5-.625-5.593-1.844-2.844 1.375-1.813-3.156-3.53 1.156-2.563-4.75-3.969v-2.313l-1.78-2.5.5-.218 3.187-1.375 6.093 1.406 2.938-1.969v-2.594l5.062-.375 4.813-.968 5.062-.188.532 1.188 1.718 1.5 1.5-2.594 3.625-3.813h1.594l2.25-8.156 3.156-3.75-.218-4.312 1.968-2.563v-1.344l-.906-1.125.563-1.156 1.125-2.25 3.718 2.594h2.657l-1.063-3.5 1.906 1.281 1.47-2.125 5.874-1.625-1.031-2.5 1.219-1.562 2.937-1.157 2.813-3.656v-3.531h1.906l.844-3 .187-4.25-1.844-1.719 1.407-2.469 2.5-3.187-2.97-2.094-2.53-.437-2.75-4.125h-1.22l-.062.593h-3.968l-1.938-2.906-3.25-1.156-.937-6.844-1.72-2.375-5.53.188-5.282 4.875-2.687-.156-.281-.032-.97-3.468-2.53-.97-.75-4.218z"/>
    <path style="fill:#fcbba1" d="M343.071 230.653l-3.844 4.031-.437.781-.719 1.25-1.062-.875-.625-1.5-5.532.22-4.843.968-5.563.406v2.844l-2.469 1.625-6.03-1.375-4.532 1.937 2.094 2.97v2.405l4.625 3.844-1.157 2.5 3.094 3.469-1.344 1.75 2 3.031.594 5.281-1.219 1.625 1.375 2.344-1.312 2.5.25 2.188 1.781-1.344 1.469 1.531-2.406 1.531-.97 1.157-2.124.593-2.344 1.094-.031-.031-.531-.438v.063l-2.563-1.938-3.594 1.532-1.125-3.063-2.968.219-6.438 3.875 1.469 1.344-2.938 2.375-.343 1.875-2.563.312-1.531-1.719-3.813-.343-.406-1.875-2.562-1.72-3.813 1.376 2.469 3.562h2.781l2.656 1.688 2.25 1.812 4-.187.75 1.719 2.72.593.968 2.688 1.687.719-.156 1.625-2.219-.344-1 1.469 1.782 2.593-.875 3.938-2.407-.188-.625-1.343-.937-.813-.406-4.812-3.438-.438-3.125-3.812-.469 7.78 4.5 3.345.375 3.593.782 4.25.437 4.625 2.531-.25 4.032 3.313 2.593 1.469.22 2.03 2.28.407 6.125 6.125 1.375 6.313.125.593h.032l1.562 6.625.375 5.563-.531.844-.813-3.97-2.78-10.812-9.938-8.968.25-4.22-2.438-.25-3.281 4.907-.969 16.469-2.531 16.594-1.781 12.906-.188 3.344.594.093 1.344-4.437 2.5-3.25 3.593 3.281.407 1.094.843 1.187-4.125.188-.843-1.25-2.313.937-.437 3.032-2.157 2.937v4.531l-.03.125-3.47 18.594-4.5 17.188-1.375 6.656-1.125 4.656-2.75 4.719-.125.219-.187.28-.625 1.126-4.438 5.406-3.375 1.344-2.78.406v2.563l2.53 2.312 3.344.156.188 2.532 3.218.25.75-1.688 3.47 1.469 2.187.531.468 2-1.312 1.156v3.625l-2.719 1.375-.219 2.063 1.875 2.125 3.532 1.094.656-3.188 1.094-1.219-.125 1.75 1.53 2.188h3.5l1.532 2.094 4.75.78 4.531 2.782h7.22l.405 3.938 5.094 3.968 2.125 2.5 2.344-1.25 1.75-.343 1 1 5.531-3.032.313-4.062 1.562-1.156.781-6.25 2.72.53 1.5-.968-1.376-2.781 5.094-4.344 3.156-7.094 2.063-2.687-3.875-5.813 2.156-1.968-3.531-5.813-5.25-.375-.063-.062-.219-.407-1.156-2 1.313-3.562 2-2.594-.594-3.281 1.625-1.625-2.344-3.938 1.75-2.093 1.969-.375 2 .843 2.562-2.187.844 2.5 1.125 1.625 2.594-.688-.219-2.718.656-1.407.532-1.093 2.218 1.875 3.063-3.063 1.281 1.813 3.5-.625 3.688-.407 1.562-2.75 5.531-.53 3.063 3.03 1.156-1.125 2.156-.656-.78-2.719 2.624-.687 4.031-.875-.843-2.5 1.062-1.219 1.063-4-2.157-2.344 1.22-3.937 2.718 1.625 4.812-.875-2.125-4.625-1.468-5.5 3.718-.156.97-2.532.062-.156 1.812-1.781.188-2.813 4.156-.375 3.062-4.343-1.375-.47-.156-1.624 3.25-.406.25-2.032 1.438-.937 1.937-3.406-1.812-2v-1.907l1.437-1.25.125-.03 4.125-1.907 4.75 2.125 3.906 5.594 2.5-.344 3.094-3.094 1.094 1.938 2.375-2.344 2.687.719.125.937 3.125-2.187-.875-2.157-1.062-1.093 1.312-1.625h1.657l1.03-3.282.845-1.656-.594-3.5 2.406-3.344 3.625-2.218.188-5.157 1.25.72 2.03 2.218h2.22l1.406-1.625-1-2.406.937-3.47-.625-3.468-1.156-1.344v-2.562l1.781-2.938-.437-2.937-.25-.281-4.219-4.25-.312-1.438 3.5-2.031 2.28-1.25.563-2.75 2.407-1.813-.813-3.906-1.562-2-.375-5.969-2.22-5.28-2.187-.782-1.718-3.031-1.407 1.78-1.062-1.343v-2.344l-2.5-3.53-6.563.78-3.687-.937-10.031-1.219-1.157 3.125-3.25-.156-.78-.438-2.345.22-1.875-1.282-3.03 3.5-.438.5-.157.187-.25.282-3.093-3.094-1.875 1.844-3.532-.25.438-3.313-2.188-1.187-1.218-4.157-3.22-.437-1.874-1.875-3.563-2.813.72-2.156v-3.937l-3.532-3.5-.375-2.75-3.375-3.532-1.156-4.75-1.438-.625-1.687-2.312-1.97 1.25.376 2.062-4.719 1.125h-5.531l.156-2.062v-3.938l-4.687-1.375v-2.375l-3.782-.78-.78-3.157zm-49.594 72.531l.188 2.844.344.656h-1.97l-.28-1.219z"/>
    <path style="fill:#de2d26" d="M410.102 114.372l-1.875 2.312-1.218 4.406-1.157 1.938h-.03l-.126.25-5.437 1.562-.97 1.22 1.063 1.655v1.72l1.438.312-.688.718.157 1.532.343-.25 1.688 1.687.594 2.344 1.5 1.5-.72 1.969-.03 2.156 1.312 1.469-1.344 2.312 1.47 3.563 2.687 1.906.406 2.25 2.344.375.562 4.156 1.875 2.313 3.281.625.72.125.343 2.343.406.657.438 5.468 6.656-.593 2.406-2.25 2.031 1.656 5.188.375 1.219 1.812.718 1.063 2.25 1.125.188 2.969-3.313 2.28 2.22 1.97 2.25-1.438 5.28.188 2.094-.407.563-1.53 1.718.155.407 1.75 5.218-2.937 4.375-5.156-1.593-1.782 1.25-2.687 3.343-1.656 7.657.375 1.625-1.25.406.406.5-3.875.781-3.844 1.375-1.781.188-2.25 2.718-1.156v-2.094l-3 .187-.468-1.03.968-1.72-.843-3.187-1.5-.938.375-2.375 1.593-1.03-.218-1.22.78-.968-3.593-.75-1-2.313-1.812-.625-5.125-4.937-.594-4.344-2.406-1.75-1.407.719-1.812 1.468-1.906-.593-3.313 1.375-2.812-1.625-1.25 1.656-1.5.156-1.125-.906-2.125-1.25-2.282 1.531-.343-.344-.875-.843-4.344-2.594-4.25-2.219-2.219 1-2.187.563-1.47-1.125-3.312-2.032-2.625 2-3.593.407-5.125-.407-1.094-1.75z"/>
    <path style="fill:#fb6a4a" d="M601.759 344.122l-1.97.875-.405 2.875-3 .343-.563-2.562-1.312-1.344-3.75.406-1.532 1.313-.812 4.312.719 1.188 4.03.406.782 2.469 1.5.75v3.781l-3.531-.156-1.563 1.719-4.437-.782-2.5 2.125-1.781-.78-2.875 2.25 1 1.78-1.313 1.313h-5.062v2.812l1.468.75-.437 1-3.156 1.282-4.22.406-1.28 4-.188 2.5 2.031 1.625-1.812 2.125-2.5-1.25-3.5-.25-.5 2.187 1.781 1.25-2.187 1.438.906 3.687 6.656 1.782 1.188 2.562 1.812.344-.625 5.969-.031.312-.75-.875-1.906-1.656-1.125 3.281-1.594 1.406-.375-.03h-.281l-.344-.032-1.313-.094-2.78-2.062-.813-2.625-5.657-.406-3.875-.375-.343-2 1.312-2.875-.469-.344-2.406 2.062-3.625-.375-.625-1.062 2.75-3.75-3-2.844-3.031.25-2.25 3.531.594 3.844 3.187.375-.375 1.031-2.5.188-2.75 2.781-.469-.625.563-3.906-1.344-1.594-5.625.844-1.219 2.469.75.406 3.22 5.375v4.469l5.812 5.78v2.22l-2.625 1.5-5.063 2.875-1.406 10.343-5.719-.781-1.781 4.781 1.281 1.782-6.156 3.78-1.969 4.532 6.625.313 8.094.593.969.969h-2.375l-2.22 3.813 8.813 1.843 7.313-1.281-3.719-3.5 1.938-1.625 3.468 1.469 1.75 3.781 11.407.188 2.687-1.094.406 1.281-3.53 3.094 4.655.187-.625 1.532-1.562 1.843h10.156l4.563 1.5.343.469.625.875 3.47 1.531.968 3.969 2.469.438 2.062-1.438 3.406-2.094 5.657.563-.125 1.094-1.844.906.125.562 5.437.25-1.593-1.656-.375-2.25 2.25-1.563 2.812.907 1.094.375 1.094 1.312 1.718-1.187.375-2.594 1.375-1.188h4.157l1.156-1.75 2.594.782 3.406-1.47v-5.624l-3.25.156 2.156-1.344 1.625-2.218.438-3.032 5.562-.78 3-3.345v-.03l.188-.188.218-.25.032-.063.187-4.219 3.75.75 1.375-1.78 2.125.437.188-6.157 4.343-.343 3.875-3.532h3.657l.218-2.28 3.625-2.188-2-4.532 2.907-2.5-.563-2.843 4.219-1.344 1.219-4.5-.594-3-1-1.813-.844-2.78-3.156.25-9.219 3.312h-2.781l-4.969-4.032-5.219-1.437h-2.718v-3.406l-4.094-2.532v-3.468l3.156-.438-2.062-1.812-1.938-.594-.875-2.281.719-1.594 3.562-3.813-.562-2.75.312-.312.063-.063.469-.5 1.312-1.437 2.281.219v-2.282l-2.718-1.375-.594-5.687-2.406-.875-2.72.406-4.843-2.437-.812-5.875-2.97-.97-.937-1.874-1.343-2.969z"/>
    <path style="fill:#a50f15" d="M632.415 454.81l-3.25 2.187.437 2.125 1.438 1.843-1.719 1.313.406.812.407.813-1.125 1.281v2l1.968 1.781v2.532l-1.125 2.375-1 .437-.593-.781-.938-1.313-2.812.22-.594-.407h-2.531l-2.282 2.125-.78 3.219-4.97.937-4.03 3.406-.72 2.032-1.593-.157-1.344-1.593-.625 3.812-1.406.563-.438 3.375.531 1.25-2.03 1.468-.532 1.438h-1.656v2.625l2.093 1.469 3.22 1.875.155 1.156-1.687.531-3.375.625v1.719l1.156 1.187.219 4 4.5 1.438 1.437.344 1.22 1.906-.813 1.125-1.563.562-1.219 2.22-1.25 1.468.625 3.906 3.094-.187.844.625 2.75-1.344.469.469-1.375 2.937 1.28 1.281-2.124 1.594-1.75 3.906 4.687 1.094 5.47.5-2.032 2.344c-.411-.14-1.25-.354-1.75-.125-.03.015-.058.006-.125.062-.007.006-.04.038-.094.094-.018.014-.067.048-.094.094l-.062.125c-.002.004 0 .03 0 .031v.031a.526.526 0 00-.031.125v.094c0 .734-.948 2.551-1.313 3.187l-.125.188 2.094 2.281 3.594 2.219 6.687 1.781 1.907.781 1.5.625-1.282 2.375 3.438-.218.594 1.343h3.562l.906-4.25-1.75-.343 2.594-2.72-1.094-1.093.157-1.469 3.53-1.937.25-2.625-2.78-.219-1.157 1v-1l3.032-.187 1.03-2.5.813-6.938v-.062l-.593-2.907-.063-2.656-.125-5.844 4.688-6.625v-11.03l-.094-.157-1.844-3.656-.594-11.72-1.406-2.218-2.5-1.937-.406-7.063 1.219-3.344-1.594-5.343-.969-4.282-.875-1.312-2-1.125z"/>
    <path style="fill:#fc9272" d="M396.321 66.372l-1.375 1.687-8.344 6.406-14.812 3.72-9.813 3.53-8 4.313-4.78 7.125-1.063 5.75 4.062 3.062 4.219.907-3.906.687-7.5 4.344-8.25 3.25-6.532-3.656-16.03-2.375-3.782-1.97-5.563 1.438-1.812.438-.188-4.406-5.03-5.97 1.405-3.562h2.375l-2.125-5.875-8.718-.406-4.407 3.063-4.906-3.22-7.594-2.25-.968 2.407 4.187 3.375v4.063l-1.656 2.062 1.187 1.188.438.312-.375 3.625 1.406 3.188 4.5 5.093.938 4.407.968 1.406v6.937l2.344 4.782v5.312l-2.562 5.125 2.843 7.313 4.25.937.313 1.563-1.875.843h-4l.687 2.844 1.188 3.813 3.406 3 1.906.468 1.594-2.156 1.75-.219 2-2.406 1.813 1.438h2.375l1.343.656v.469l3.688.437 1.937-1.5 2.657 1.063v.03l.187.345 1.125 1.875 2.406 1.78 2.938-1.968 1.937 1.375 5.375-3.187 5.25.78 3.094-1.25.781-1.905 1.625-.157 1.594 1.407.781 4.343 2.563 1 1 3.594 3.656.188 5.281-4.875 5.032-.188 1.437 1.938.969 7.156 3.375 1.187 2.031 3h3.969l.156 1.094.594-.031.156-1.656h.375l2.719 4.062 2.594.438v-5.094l-1.344-1.813-.344-1.28 2.688-1.626 3-.594 2.093-2.5-.406-7.468-4.125-3.5-.187-3.375-.47-.313 2.438-2.344h2.625l7.063-3.656 2.187.906 5.157.032 1.312-1.563v-2.875l3.906-1.937v-3.157l1.094-.906-.094-.875 1.282-1.281-2.063-.438v-1.406l-.937-1.469.593-.718 5.5-1.563 1.438-2.469 1.187-4.312 1.47-1.813.25-1.937 1.468.812 1.906-.53-1.187-1.845-.563-4.53-1.687-1.532.468-1.5 1.375-2.563 1.032-1.78h-2.188v-3.157l-1.125-1.906.75-3.72.938-2.374h-1.563l.594-1.5 2.031-2.469-2-3.656-.594-3.563-8.625-8.437-1.062-2.063-2.281.188z"/>
    <path style="fill:#a50f15" d="M521.946 60.81l-2.031 3-1.844 1.843v4.062l-2.187 1.47-4.25 1.343-2.188.906-2.687-2.094h-4.094l-.563 3.813 1.688 3.187-1.688 1.5-.187 3.157.937 1.5-.687 2.093-3 1.594v2.469l-3.656.781-.72 1.969 2.563 1.375-.718 2.5-.594 2.375.125 5.219.062 1.25-1.03.28-3.313-2.155-2.72 1.156.376 1.812h-3.844l-3.906 2.907v5.562l2.781 1.813.563 1.28-4.282.345-.687 2.187 1.687 1.125-.562.875-1.906.844.5 1.812h2.625l.718 1-1.562 1.063-1.563 4.062-2.906 1.375-1.031 2.157-1.063 1.312.22 1.094-1.5.969-.47 3.03 1.625 1.032.72 2.688-.97 1.78.75 1.688 2.782-.156v1.031l-2.72 1.157-.187 2.437-1.312 1.688-.844 4.062-.469 3.438 1.438 1.187h2.312l4.907 5.094-.625 5.312 3.843 2.938 1.938-1.344 2.875 3.438.375 3.53 2.187 2.907 1.032 2.344 8.093.406 3.72-1.875 1.062 2.031 1.75.25 1.03-2.187 6.25-.188 2.782-1.468.406-2.438h5.313l1.344.75 1.687.938 3.438 3.656 4.343 5.875-2.593 2.781 1.906 1.313.219 3.437 3.218-.187.782 1.562 2.593.188 1.594-.875 2.938 3.656.5 1.156 4.687-1.031.781-1.906.313.062v-2.125l2.406-1.062 3.125 1.187 3-1.219h1.938l.625-4.093 1.28-1.5-2.062-.22-.156-1.843 2.688-.594.156-1.5h2.781v-2.625l2.25-.812-.594-1.625.188-.125.062-.031.47-.313 1.25-.75-.75-1.156.5-.281 1.343 1.562 2.281-1.594.563-1.843 3.375-.563.78.625-.187 2.156 2.75 2.094 1.782-.187 1.718-1.375h3.844l2.938 3.312h1.187l1.75-1.094.219-1.125 1.281-.656 1.563 1.063 1.718 1.937 6.22 3.281.874 1.688 3.188.187 3.406 2.625.5 1.22-.188 2.218-.968 1.812.437 2.72 2.781-.407.5 1.906 1.032 4.406 2.187-.343-.375 1.875 1.594 1.375 7.437-.188 3.907-3.094.187-4.343 2.063-2.657-2.688-3.093-1.25-2.907 1.5-2.093v-4.938l.969-2.281v-3.938l1.812-2.625-2-2.812-.156-5.063-.031-.437v-.219l-.031-.344 5.062-9.906.063-.094-.625-5.687 2.343-7.625.594-6.5 5.063-3.719v-2.375l1.812-2.375h1.563l1.937-1.937-.406-3.375 1.687-4.469 3.157-.719-3.282-2.594-4.906-.562-4.406-2.219-2.844 1.719-1.5-1.656h-2.25l-3.094.843v-.03l-.562.156-.281.093-.063.031-1.219-1.75-3.937-2.406-1.438-2.25-4.968.438-2.75 2.53-6.407.188-1.843-1.28c-.25-.444-1.172-1.99-2.032-2.47-.039-.02-.07-.073-.125-.093-.038-.02-.092-.015-.125-.031l-.187-.032v.282l-.094-.282c-.69 0-2.1-.739-2.75-1.125l-.125-.062-3.062 1.281-.188 2.281-2.875.344-1.906-3.625-1.094-.375v-2.719l-2.75-1.187-.187-4.625-2.063-2-4.156-2.031-2.156-.032-.594.407h-1.781l-2.719-2.344-3.156.187-2.438 2.031-.562.907h-3l-1.157-1.188h-3.125l-3.53-3.906h-4.75l-2.345 2.156-3.343.188-1.157 1.187h-.812l-.75-3.562-1.688-1.688-.78-.125-.626-.094-1-.156-.781-3.812-1.719-1.313-5.375-.594-.937-2.437-1.844-1.219-6.156-.781-.344-4.125.781-.781v-2.032l-3.062-1.937.5-1.906.875-2.157-1.282-1.093 2-1.813v-3.812l-.968-.688z"/>
    <path style="fill:#fc9272" d="M401.915 352.247l-4.219 1.968-1.031.157.25.375-1.25 1.062v2.406l1.687 1.875-1.625 2.844-1.625 1.063-.187 1.843-3.375.407.219 2.593 1 .344-2.438 3.469-4.375.375-.219 3.094-1.687 1.656-.969 2.5-4.094.187 1.688 6.25 1.719 3.75.093.22-3.843.687-3.157-1.875-1.53 5 2.155 2.343-.906 3.5-1.25 1.438.75 2.187-3.406.72-3.219.843.781 2.75-1.03.281-.5.156-.157.063-.875.812-2.844-2.78-6.125.593-1.562 2.75-3.407.375-3.125.531-1.468-2.062-3.188 3.187-2.406-2.031-1.563 3.344.157 2.375-1.688.468-.844-1.156-1.093-3.344-2.938 2.532-1.844-.75-2.375.437-2.125 2.594 2.282 3.906-1.5 1.5.593 3.344-1.843 2.406-1.47 3.938 1.72 3 4.78.343.5.063 3.095 5.125-2.157 1.969 3.938 5.875-1.844 2.406-3.094 7-5.406 4.594 1.344 2.718-.844.563-3.125-.625-.812 6.625-1.594 1.187-.344 4.75.813-.5 3.156 1.875 3.812 2.875.375 2.313 3.282 2.687h2.687l6.344-2.687 2.625 3.031 4.031 1.063 1.375-2.282 1.5.657 3.594.25 8.531.593.406-9.593 2.344.343 3.594 2.125 1.437.813 6.188 1.187h2.406l3.313 4.313 8.375-.406 3.375 5.343 3.093-1.25 8.282 1.157.562 3.093.094.594.312 1.844 3 2.812 5.75 1.594.188 3.406 3.344 2.938 2.593-.469 3.344-4.094 3.906-.75 6.313 2.125 5.656 4.844 1.656-2.094h1.125l1.438 1.032 1.5-.72.187-2.718 5.75-1.344 1.938-2.53 2.812-.938h3.907l2.562 2.718 3.563.25v-3.562l-1.657-2.281-2.656-1.157-.406-16.375-.188-6.062.25-6.781-2.531.187-1.75-2.594 1.281-2.062 3.219 3.031 3.156-2.531 2.063-2 .219-1.906.156-1.125 6.969-2.157.75-1.687 5.437-.188 1.781-2.218 10.532-8.407 6.562-4.625 1.844.125 3.437.25v3.938l4.75-.219 2.625.125 1.782-4.156 6.53-4-1.468-2.063 1.531-4.03 5.844.812 1.406-10.657 7.75-4.406v-2.812l-5.812-5.782v-4.375l-3.406-5.656-7.344-4.125-.563 3.25-2.281.219-.844-3.063-3.25.625-.5 3.72-1.812-.657-4.844-3.156-1.937 1v-5.22l-3.282-1.968-.843-.5.562-4.094-3.344-3.625-1.375-7.093-5.156-6.625-3.531.843-.75-2.656h-2.469l-.375 2.406-4.625 1.438-3.531-9.031-5.844 2.125-1.469 3.28-3.562-2.374-2.844 8.969-2.625 6.03-1.344-1.687-.593-5.718h-1.907l-.875-5.563-3.843.563-.5-3.313-.782-1.25-5.906 5.031v4.532h-1.344l-.562 4.5-1.344.53-1.062 2.407h-5.72l-.53-.812h-3.125l-1.657 2.718-.281-.03-1.344-.188 1.063-3.22-2.469-1.093 2.469-5.75-3.406-2.531-1.125-7.25-3.375-.906-2.063 2.03-1.094-1.937-3.53 3.5-1.938.25-3.782-5.406z"/>
    <path style="fill:#fc9272" d="M455.946 252.903l-2.719 3.531-1.562.188-1.594 1.656-1.969-2.156-5.562 5.593v3.375l.969.813.156 1.25-2.469 1.937-2.469-.75-5.062 1.032-2.594 2.968-1.219 2.625.532-.125 2.187 3.094v2.344l1.625 2.125 1.344-1.688 1.406 2.438 2.125.781 2.094 4.906.094 1.532v.03l.28 4.532 1.595 1.938.718 3.468-2.28 1.72-.563 2.718-2.032 1.094-3.906 2.25.438 2.062 4.5 4.5.375 2.531-1.782 2.907v2.937l1.22 1.406.562 3.157-.438 1.562-.562 1.969.968 2.25-1 1.156h-1.656l-1.875-2.062-2.25-1.282-.219 5.813-3.375 2.062-2.718 3.688.625 3.562-.782 1.5-.906 2.938h-1.5l-1.812 2.25 1.343 1.344.657 1.656-2.5 1.75 1.093 6.844 3.22 2.406-2.532 5.844 2.531 1.125-1.125 3.375 2.75.375 1.656-2.782h2.438l.531.813h6.469l1.125-2.531 1.406-.594.563-4.313h1.406v-4.843l5.187-4.407.313.5.562 3.813 3.907-.563.812 5.5h1.906l.532 5.25v.094l2.093 2.594 3.032-6.969 2.625-8.219 3.468 2.344 1.657-3.719 4.937-1.781.125-.062 3.531 9 5.5-1.688.375-2.281h1.47l.812 2.781 3.718-.906 4.25 5.437.375.469.188.219 1.344 7.125.03.093 3.282 3.532-.594 4.187 4.188 2.531v5.844l2.5-1.281 4.625 3 2.562.969.532-4.063 2.312-.437.813 3.031 3.25-.344.5-2.844 6.25 3.532 1.093-2.25 2.782-.407 2.187-.312.969 1.125-.563 3.906 1.063 1.344 3.062-3.094 2.657-.219.75-2.093-3.47-.407-.5-3.187 1.97-3.094 2.468-.187 2.438 2.281-2.688 3.656.969 1.656 4.188.438 1.562-1.344-.812 1.781.468 2.657 4.313.406 5.281.375.75 2.437 3.063 2.282 2.75.187 1.906-1.687.875-2.594 1.187 1.062 1.625 1.907.875-8.219-2.062-.406-1.188-2.532-6.562-1.75-.719-2.937 2.563-1.688-2.188-1.53.313-1.313 2.812.187 2.875 1.438 2.5-2.938-2.25-1.844.156-2.125 1.125-3.53 3.907-.376 3.5-1.406.312-.688.063-.187.187-.406h-.031l.219-.469-1.657-.844v-1.844h4.688l1.812-1.812-.937-1.719 2.187-1.719 1.782.782 2.562-2.188 4.5.813 1.563-1.781 3.906.187v-4.781l-1.625-.813-.781-2.593-4.157-.407-.437-.75.719-3.875 1.218-1.03 3.313-.376 1 1 .625 2.938 4-.47.406-3 1.531-.687 4.22.22-.157-.313 5.406-2.157 2.094 1.344h2.5l.219-2.469 2.375-1.28 1-1.188 5.187-2 .656-3.594-.968-1.5 2.843-4.844-2.75-1.031-.75-2.719-5.25-3.094c.052-1.122.259-5.885-.218-7.03l.375-.313h-.938c-.646.162-2.867.329-3.469.375l-2.78-3.125.093-3.375.094-2.938 6.593-2.75.844-2.094-.406-4.5-4.531-4.718-1.125.656v-4.375l-3.75-1.781-.125-1.282 2.125-2.312v-2.969l-3.532-3.719-.187-2.687h-7l-4.531.781-4.125 3.344-1.063-1.625-2.531.219-2.031 4.468-.032.094.25 1.937 1.907 1.563-3.625 2.375-2.438 2.281h-6.031v-3.25l2.156-1.25 3.656-.406.282-2.375-1.063-.719 2.844-3.593-.5-1.407-3.656-1.968-8.188 9.03h-5.25v-2.25l-3.469-1.718-3.812 4.156-2.5.344v-2.594l-2.625-1.187-3.906-5.5-3.5-1.344-1.157-2.563-2.25-.468-2 1.406-1.375.375-2.125-1.781-2.437.25-1.469 2.75-3.687 14.375-.532 1.187v.031l-.562 1.344-.938-.125-.718-3.75-1.094-3.344-2.469.22-1.594 1.593-1.156-1.563-1.812 1.625-2.282-1.468h-2.125l-.937.718-.469 2.532-.656 3.593h-2.031l-1.438 1.438-1.062-1.063-6.344-.968-.094-.032-2.375 1.407h-1.25l-.344-1.344-2.906-.594-.187-3.093-.532-.188 3.844-2.938.188-7.843-1.532-2.156h-3.125l-1.156-1.563h-3.312l-.813-1v-2.844l-3.969-7.531-2.28-1.656-3.813 5.25-1.157.281-.562-2.375-2.156-.969-.813 1.657h-2.5l-.437-1.907-2.313 1.344-1.906 1.063-2.188-2.375-3.28-1.563-.188-2.594z"/>
    <path style="fill:#fc9272" d="M401.634 130.934l-1.5 1.25v3.063l-3.907 1.937v3.031l-1 1.188h-4.687l-2.406-1-7.125 3.719h-2.75l-3.188 3.03.844.563.187 3.313 4.125 3.5.375 6.969-1.78 2.187-2.845.563-3.218 1.906.437 1.781 1.344 1.781v4.813l.594.062 2.406 1.72-.656.812-.22.28-.155.22-1.125 1.406-1.657 2.937 2 1.844-.187 3.906-.719 2.5h-2.031v3.907l-2.594 3.375-2.937 1.156-1.532 1.969.47 1.187.155.375.094.25.188.375-5.438 1.5-1.25 1.813-2.812-1.844 1.312 4.312h-1.656l-4.125-2.906-2.188 4.406 1.032 1.25v.938l-1.97 2.562.22 4.282-3.063 3.625-2.375 8.5h.406l.782 3.093 3.656.75v2.344l4.687 1.375v3.469l-.218 2.656h6.25l5.375-1.25-.438-2.25 1.156-.719 1.438 2 1.312.563 1.157 4.625 3.343 3.5.375 2.75 3.188 3.156.312.313v3.562l-.843 2.5 3.875 3.031 2 2 3.03.407 1.188 4.03 2.032 1.126-.313 2.5-1.344.25v.594l.594.125 5.031.375 1.657-1.625 3.125 3.125 3.937-4.532 1.625 1.094 2.344-.219.719.375 3.875.22 1.156-3.095 9.5 1.157 3.781.968 1.375-.156.5-.062h.094l4.531-.563 1-2.125 2.438-2.781 4.687-.969 2.656.813 2.97-2.344-.22-1.844-.968-.75v-2.875l4.968-4.969 1.97 2.157 1.874-1.938 1.594-.187 2.687-3.47 4.094.345.031.812.594.063 1.531-4.907-.968-1.78.156-2.438.625-5.22-2.156-2.155.406-4.625-2-4.125-.188-2.813-3.562-2.75-.5-2.125 1.719-2.5v-3.906l-1.813-2.156-.375-.438-.031-.031-.125-.125-.156-1.625 3.968-1.156-.687-2.438-.594-3.125-2.531-3.562-.469-1.72h3.594l2.937-2.093.407-3.187-1.625-1.844 4.937-4.156v-3.813l-2.594-2.75-.968-3.125-3.75-3.562-4.72 2.656-.343-1.375-2.594-.219-.593 1.625-1.72.313-5.374-.188-2.031 1.313-1.313-1.157 2.969-2.03-.219-3.657-2.437-1.219-2-3-5.313-.375-2.281-1.875-2.625 2.469-5.063.437.032-.03-.532.062-.218.03-.063.032-.406-5.031-.406-.594-.407-2.687-4.187-.813-1.656-2-.594-4.437-2.344-.375-.375-2.063-2.75-1.969-1.312-3.125 1.437-2.406-1.469-1.625v-1.781l.844-2.281-1.656-1.657-.594-2.343z"/>
    <path style="fill:#de2d26" d="M472.915 162.215l-1.844 1.407-7.594-.375-3.687 1.843-1.5 3.22 1.531 1.687-4.156 4.906 3.687 3.469.938 3.062 2.562 2.75v3.281l-5.218 4.375 1.843 2.094-.343 2.656-2.563 1.844h-4.187l.687 2.531 2.531 3.532.594 3.093.531 1.875-1.968.563-1.907.562.22 2.313 2.343 2.719v3.53l-1.781 2.563.625 2.563 3.5 2.719.187 2.593 1.969 4.157-.406 4.75 2.156 2.125-.594 4.968-.187 2.625.937 1.72-1.469 4.687.157 1.718 3.437 1.594 2.469 2.719 2.344-1.313 1.593-.968.375 1.593h3.344l.719-1.468 1.344.593.625 2.688 1.968-.469 3.625-4.937 1.625 1.156.438.812 3.437 6.47v2.968l1.125 1.375h3.313l1.156 1.562h3.125l1.219 1.72-.188 7.374-4.03 3.094-.345.781.75-.094.344.094.188 3.156 2.968.594.375 1.438h1.875l2.344-1.375 6.031.937 1.344 1.344 1.688-1.688h2.28l1.188-6.375.594-.468h1.75l2.5 1.656 1.656-1.5 1.188 1.562 1.937-1.906 1.782-.156.906 2.844.812 4.125 1.813.25 1.281-3 3.656-14.375 1.313-2.407 1.875-.187 2.156 1.812 1.719-.437 1.937-1.344 1.688.344 1.156 2.5 1.219.469.094.03 2.218.876 3.907 5.469 2.437 1.093v2.907l3.406-.47 3.625-4 2.75 1.376v2.469h6.094l8.469-9.313-.5-.281.344-3.813 3.156-3.75-2.125-.843.156-1.032 12.031-11.28.094-.095-.375-9.312 4.094-2.031 2.937-1.375 2.875-2.657.219-3.656 2.563-1.312 6.468-7.438-.937-2.25 1.906-.844 2.813-3.406-1.688-1.687-4.562.937-.063-.344 4.469-5.156h-.031l.437-.5 2.781-.437-1.03-4.469-.657-2.438-2.719.407-.312-1.938.906-1.687.219-2.532-.625-1.5-3.657-2.843-3.03-.188-.657-1.312-.094-.188-6.281-3.312-1.719-1.938-1.969-1.312-1.843.937-.22 1.156-1.374.875h-.75l-2.938-3.312h-4.343l-1.75 1.375-1.375.156-2.313-1.75.188-2.156-1.22-.969-4 .656-.624 2-1.656 1.188-1.344-1.563-1.438.875.75 1.157-1.875 1.156.563 1.531-2.063.75v2.438h-2.718l-.188 1.593-2.781.625.25 2.844 1.437.156-.687.782-.563 3.75h-1.5l-2.937 1.156-3.125-1.188-3 1.313v1.781h-.063l-.843 2.063-3.875.875-.313-.719-3.344-4.188-1.875 1.063-2.093-.188-.782-1.593-3.03.187-.188-3.156-1.594-1.063 2.469-2.656-4.657-6.281-3.5-3.719-3.28-1.844h-5.97l-.437 2.625-2.344 1.282-6.094.187-.156-.687-.312.687h-.157l.063.25-.875 1.875-1-.156-1.219-2.281-4.094 2.062-7.562-.375-.938-2.062-2.093-2.844-.375-3.531-3.375-4-2 1.406-3.22-2.469.595-5.25-5.25-5.5h-2.375z"/>
    <path style="fill:#fc9272" d="M440.384 8.934l-6.47 3.031-9.718 1.563-.344.062h-.062l-.563.094v.031l-10.375 1.97-8.843 6.78v26.5l-.032.407-.062.625-.5 6.312 4.312 3.906v1.344l-5.03-3-6.782 8.313 2.125.906 2.031-.188.875 1.782 8.594 8.406.562 3.406 1.875 3.438-.53.656-1.282 1.531-.969 2.438h1.563l-.657 1.593-.78 4.032 1.155 1.968v3.563h1.75l-1.906 3.5-.625 1.937 1.813 1.625.53 4.407.845 1.343-.875.22-2.032-1.126-.5 3.813.47-.594.562 1.312 1.28 2.094 5.5.406 3.782-.406 2.438-1.875 2.937 1.813 1.688 1.28 2.53-.655 1.97-.907 4 2.094 4.25 2.5 1.5 1.531 2.406-1.593 1.75 1.03 1.281 1.032 2-.219 1.094-1.437 2.625 1.5 3.375-1.406 2 .625 2-1.625 1.031-.532.063.063v.031l.312.219.25.156 1.281.938.594 4.28 5.313 5.126 1.718.625 1.032 2.375 3.593.75.563-.719.969-2 2.937-1.375 1.563-4.125 1.937-1.312-1.281-1.75h-2.438l-.25-.875 1.594-.72 1-1.5-1.812-1.218.437-1.375 4.719-.375-1-2.219-2.656-1.75v-4.937l3.5-2.594h4.375l-.407-2.062 1.97-.844 3.28 2.156 1.72-.469-.188-6.875.593-2.28.844-2.97-2.531-1.343.437-1.157 3.782-.812v-2.594l2.906-1.531.844-2.594-1-1.594.187-2.718 1.844-1.625-1.813-3.438.563-3.719h-4.375l-.125-1.5 3.906-2.343-.656-4.094-3.406-.906.687-.72V59.09l3.031-2.218-.906-1.782-6.406-5.03-11.219.593-1.156 1.937h-.906l.187-6.656-3.312-3.906-2.344.375-1.406-1.594-3.907 1.75-1.28-1.281-2.657-.375-.719-2.313-.187-7.968-1.782-.782-.218-1.28h-1.157l-.406-2.376-2.875.25-4.969 1.594-2.312 2.875h-2.063l-1.437-1.781-.563-2.094-2.093-2.375h-2.72l-1.03-1.906v-3.188l1.375-2.156-.844-3.125z"/>
    <path style="fill:#fc9272" d="M43.554 338.655c-.567.388.824.281 0 0zm78.092 23.197c-1.352.286-1.761 1.22-.04.619-.15-.228.687-.22.04-.62zm-82.928-24.847c-.027.873 1.283.337 0 0zm13.557-.867c-.093.507-1.494 2.705-.366 1.444.685.16 3.036-.11 1.326-1.114-.451.027-.48-.28-.96-.33zm-12.368 1.321c.654.944-.083.13 0 0zm80.669 25.424c-.763.88-2.604-.504-2.577.743a4.332 4.332 0 003.263-.042c.178-.38-.527-.436-.686-.7zm-59.144-26.291c-2.118-.181 1.413 1.087 0 0zm73.533.164c-.883.592-1.67.78-2.576 1.567-.482.317-.856.062-1.784.734-.877.36-1.002.722-1.812 1.084-.632.41-1.393 1.14-2.113 1.217-.926-.6-1.093.784-1.64.97-.768.232-1.545-.303-1.81.786-.863.48-.994 2.297-.276 2.584.492-1.134 2.056-.818 2.656-1.408.624-.685 2.15-.494 3.23-.847 1.906-.63 2.934-2.598 4.896-3.193.846.072.858-.34 1.562-.192.798-.366 1.612-1.233.777-1.607-.205-.646-.503-.92-.6-1.695-.178.218-.319-.086-.51 0zM23.773 363.543c-1.171.853 1.495.608 0 0zm1.11-29.84c-.008 2.119 1.68.46 0 0zm34.091 22.535c-.915 1.461 2.622.783.533.579-.254.004-.2-.593-.533-.579zm-9.672 56.382c-.386 1.154 2.19 1.303 0 0zm1.585-5.861c-.72 1.242 2.352 1.248.97.041-.234.395-.694.198-.97-.041zm1.23 5.407c-1.428 1.036-.72 1.298.634 1.558 1.252-.013-.261-1.306-.635-1.558zm2.497-6.109c-.312 2.392-.622.576-1.23.758-.746.67.055 2.31-1.307 2.204-1.008-.478-2.112.855-1.903 1.134.836.714 2.213.26 2.687-.01 1.201-.05 1.507.466 1.079-.943.59-.356 2.698-2.37 1.427-1.27-.603-.439.52-1.718-.65-1.872h-.103zm-8.88 1.94c-.441 1.557-1.703 1.162-1.784 2.672-.792 1.217 1.022 1.216 1.71 1.785 1.363.586 1.726-1.425 2.409-2.118.583 1.472 1.276-1.162-.599-.565.742-1.535-.948-.87-1.538-1.568v-.185l-.198-.022zm48.798-19.192c-.648.762-1.17 1.816-1.705 2.269.13 1.772-2.813.663-1.665 2.91.004 1.315-.385 2.495-1.783 2.91-1.65.444-.48 2.132-.547 3.384.05 1.23 1.084 2.529.467 3.53.758.847 1.185 1.942 2.016 2.83 1.417.023 2.467 1.027 3.89 1.275 1.053.499 1.888.943 3.163.496 1.38-.649 3.277-.408 4.528-1.584 1.067-.725 1.957-1.498 2.735-2.492 1.372-.384 2.15-1.155 2.537-2.486.567-1.756.578-3.406-.332-5.035-.536-1.061-2.02-1.25-2.403-2.142-.84-.927-1.423-.902-1.665-2.244-.098-.677-.469-1.405-1.363-1.888-.619.304-.839-1.124-1.53-.496-.718-.388-1.545-1.29-2.634-1.692-1.225-.3-.695-.965-2.055-.083-.53-.306-1.293.03-1.654.538zM57.78 346.897c.342.487-.054.07 0 0zm-.6.829c.295.07-.018-.544 0 0zm-6.451 41.079c-.433 1.165-1.194.924-1.839 1.857-.613 1.103-.193 2.47-1.467 2.56-.865-.383-.632 1.36-1.689.644-.806-.12-1.748-.52-2.418 0-.843 1.672-1.123-.25-2.378.748-.427 1.25-1.584 1.84-2.87 1.785-.964.601-2.698.53-2.68-.634-.128-1.41.164-3.399-1.268-4.294-1.335-.656-2.13-2.044-3.132-3.11-1.928-1.129-.541-3.805-2.14-5.118-.359-.993-1.83-1.747-2.022-2.972-.545-1.168.063-2.759.118-3.885.305-1.153-1.067-.65-.546-1.862-.474-.576-.125-1.115-.365-2.059.165-.906-.41-2.387.594-2.863.332-1.466-2.248-1.205-1.07-2.265.594-1.207.103-3.05.12-4.139-1.561.048-.824-1.495-1.01-2.461-1.332-1.362.448-2.369.137-3.879-.436-1-.369-2.139-1.387-2.93-1.024-.589-1.54-1.716-1.634-2.743-.59-.953-.063-2.252-.853-2.854 1.22-.368.958-1.624 1.006-2.65-1.014-1.642 1.899-2.16.688-2.898-1.554-1.077 1.256-1.146 1.467-2.171-.557-1.455.34-1.917 1.423-2.722-.383-1.411 1.293-.942 2.111-1.71.883-.388 2.21.584 2.332-.784.444-.926 1.388.6 2.22.376 1.136.052 1.084 1.353 1.918 1.646.002.43.579 1.688 1.927 1.392.93.228 2.153.39 2.718 1.522.61-.084 1.174-.798 1.88.692.785-.105.96.392 1.824.33.702-.542 3.32.108 2.103.933.389.84 1.672.978 2.535 1.405.77 1.05 2.754-.966 3.647.246-.983.73-1.466 1.743-1.933 2.849-1.276.798-.212-2.717-.714-.496-1.83.75-.38 2.062.982 1.114.459.314-.783 2.397.912 1.385.81-.772 1.17-2.846 1.387-.972-.866.878-.08 1.759.991 1.29.733-.578 1.59-1.345 1.32-2.239.623-.93 1.168.893 2.026-.537.825.492 1.383-.554 1.83.858-.502.147-1.555.461-.255.92.805-1.867 1.198 1.293 1 2.155-.666 1.067-.164 1.976-.252 3.275.329.925 1.588.478.714 1.682-.773.628.022 1.053-1.388.331.463-.475-.8-2.494-1.065-1.052-.846-.924-2.031-.678-2.899-.656-.184.905-1.413 2.474-.476 3.044-.708 1.086 1.076 1.761-.411 2.651-.429 1.042.102 2.633 1.204 2.703.256 1.158-1.264 1.893-.238 3.153 1.41.768.443 1.725 1.07 2.828.908.431 3.016 1.127 1.23 2.048-1.43.878.057 2.464.396 3.013.822 1.246.436 2.945.515 4.458-.714 1.217.718 2.671.397 3.291-.54.9-1.198 1.906-1.269 3.044-.418 1.122-1.417 1.581-2.26 2.456-.793.796-1.497 1.177-2.259 1.955-.014.369-.413.118-.555.316zm6.66-42.803c.692-.207 1.774-.756.99-1.809.388-1.019.998.284 1.467-1.576.566-.808.334-1.518.436-2.517-.214-1.104.895-1.577 1.348-2.162.039-1.23 2.427.876 2.498-.51-.074-.283-.478-.986 1.164-.919.73-.215.239-.93-.292-1.816.738-.346.88-1.626.5-2.435-.724-1.33-1.261-.78-1.879-.991-.997-.856-2.803-.865-2.546-2.6-.568-1.243-.815-2.144-.903-3.425-.324-1.225-1.39-1.396-.405-2.503.164-1.371.76-2.407 2.028-2.863.22-1.72 2.568-.671 2.491-2.326.578-1.136 1.838-1.172 2.894-1.967.99-.781.983-2.15 2.022-2.6.517-.13 1.508-1.1.832.537.774.448.493 1.142 1.784 1.104 1.093-.52 1.763.597 1.72 1.289 1.076.134 1.458 1.168 2.165 1.667.593.71 1.318 1.16 2.06 1.46.47 1.05.402 2.136.794 2.961.354.587.793 1.723 1.055 2.58.289 1.24-.184 2.247-.302 3.033-.586.892-.607 1.82-.58 2.87-.293 1.131.43 2.363.897 3.234.654 1.01 1.221 2.178 2.18 3.11.288 1.208 2.23 1.236 2.264 2.194.612-1.199 2.043 1.013 2.873-.149.84 1.597 1.399-.088 2.956.443 1.004.867 2.65-.475 3.126 1.105 1.202-.822 1.347.9 2.695.603.913.82 1.527 1.12 2.504 1.512.059 1.168 1.452.77 1.775 2.141.22.704 1.367 1.77 1.548 2.847.73 1.317 2.28 1.922 3.766 2.25.405.727 2.467 1.795 2.823.893.605.624 2.002.062 2.608 1.196.71.171 1.603.2.753 1.007-.682-.21-1.9-1.263-2.733-1.088-1.425.21-2.919-.421-4.235-.579-1.274.195-2.946-.4-4.147-.33-1.073-.115-2.107 1.3-3.285.66-1.267.346-2.11 1.36-3.636 1.089-1.055.445-3.053.512-3.172.304-.52.3-1.846-.34-2.18.3-1.087.026-2.119.948-3.297.743-1.228.123-1.586 1.282-2.57 1.887-1.58-.94-1.822.887-2.854.548-.832.414-1.453 1.4-2.537 1.032-.702.561-.802.56-1.552.191-1.486-.176-1.796.95-2.888 1.393-1.114-.134-1.462.053-2.354.549-.767-.429-1.76-.58-2.68-.978-1.067-.554-3.842.392-3.339-1.527-.934-.938-2.092.868-2.896-.43-1.231-.3.084-.897-.702-1.211.199-1.455-1.02-1.389-1.229-2.61-1.144-1.006-.903-1.464-.727-2.552-.173-1.2-.055-2.368-.415-3.453.843-.279-1.56-.075-.681-.806z"/>
    <path style="fill:#fcbba1" d="M116.102 474.32c-.254.987.886 1.43 1.368 2.13 1.757 1.8 2.968 4.049 4.48 6.05 1.218 1.59 2.648 3.01 3.949 4.533 1.423.483 2.983.667 4.318 1.34l3.772 2.531c.605 2.039 1.325 4.06 1.86 6.109.313 1.059-.963 1.005-1.627 1.38-.984.157-.784 1.414-1.164 2.132-1.03 3.652-2.361 7.205-3.628 10.779.468 5.686 1.05 11.368 1.446 17.056-.111.766-1.067 1.17-1.514 1.793l-4.65 4.616-16.955 1.498-1.336 2.498-12.578.346c-1.028-.788-1.974-1.781-3.054-2.443-2.86-.23-5.744-.358-8.59-.653-4.885-1.864-9.746-3.85-14.646-5.637-.975.289-1.297-.684-1.804-1.3-.432-1.031-1.675-.832-2.569-1.162-1.384-.388-2.92-.56-4.21-1.084-.892-1.307-1.672-2.732-2.635-3.966-1.44-.766-2.774-1.787-4.282-2.394l-7.688-2.131c-.72-1.227-1.472-2.44-1.695-3.87-.106-1.046-1.221-1.495-1.932-2.123l-4.517-2.68c-.605-1.72-1.012-3.538-1.738-5.197-.787-.65-.613-1.374-.067-2.124.35-.843.98-1.66 1.166-2.518l-1.448-4.851c-.77-.728-2.025-1.118-2.13-2.31-.75-2.034-1.86-3.926-2.756-5.903l-6.45-6.71.096-4.897c-.312-.65-1.37-1.224-1.209-1.921a5.944 5.944 0 011.88-2.559c.65-.534 1.198-1.33 1.91-1.705.836-.044 1.756.154 2.543-.035 1.264-1.098 2.706-2.04 3.856-3.236.773-1.07 1.262-2.262 1.536-3.548.227-.775.6-1.554.102-2.309-.24-.958-.857-1.897-.85-2.868l1.557-6.54 5.717 1.202c3.362-2.419 6.826-4.713 10.124-7.21 1.426-1.297 2.651-2.862 4.454-3.656 1.25-.566 2.718-.53 4.055-.856 1.772-.292 3.582-.25 5.363-.476.931.78 1.768 1.795 2.758 2.43 3.12.141 6.253-.025 9.367.085 1.531.021 2.854.828 4.265 1.279l11.73.818c.737.748 1.352 1.722 2.164 2.336l6.58 1.003c2.27 2.4 4.685 4.675 6.634 7.356.757.866 1.78 1.627 2.374 2.556l-.243 7.384c1.013 1.626 1.715 3.484 3.207 4.75 1.1 1.222 2.404 2.346 3.379 3.628.03.428.22.862-.045 1.253z"/>
    <path style="fill:#fcbba1" d="M123.814 221.709l4.537-3.136c.354-1.482.255-3.048.827-4.465.508-1.459-1.171-2.498-.903-3.921-.476-2.237-1.18-4.413-1.835-6.602-.943-.558-2.132-.91-2.923-1.596-.373-.78-.188-2.047-1.248-2.229l-3.375-1.528c-.523 1.263-.064 2.729-.372 3.967-.714 1.066-1.453.077-1.488-.832-.628-1.726-1.051-3.602-1.804-5.235-1.258-1.116-3.071-1.396-4.34-2.42-.614-.574-.307-1.871-1.419-1.904-.532.032-2.28.941-1.837-.057.837-.562 1.205-1.382.047-1.627-.592-.47-.411-2.14-1.316-1.788-.929.029-.872 2.231-1.588 1.254-.302-1.498-1.798-2.248-2.708-3.366-1.059-.88-2.055-1.938-3.24-2.606-.955-.142-1.711-.586-2.207-1.426-.54-.756-.823-1.553-1.826-1.864a142.908 142.908 0 00-5.955-3.763c-.065-.992-.601-1.722-1.349-2.336l-6.222-6.33c-.54.141-2.724-.315-2.003.286 1.35.892-.576.185-1.183.121-.971-.154-1.989-.617-2.933-.588-.904.33-1.718 1.526-2.719.94-1.379-.407-2.741-1.006-4.13-1.299l-3.116.463c-.466-.91-1.125-1.694-2.178-1.89-3.448-1.323-6.868-2.793-10.334-4.024-.972-.12-2.206.394-2.802-.631-.37-.256-2.683-.31-1.845.077 1.578.718-.072.51-.928.528-.49.319.186 1.616.027 2.337.174.94-.598 1.576.064 2.243.104 1.469-1.69 1.98-2.09 3.272-1.125 1.204-2.221 2.52-2.385 4.23-.142 1.021-1.433 1.296-2.115 1.95-1.057.763-2.185 1.447-2.867 2.586-1.563 2.041-3.576 3.804-4.747 6.1-.51 1.905-1.104 3.802-1.677 5.675v5.637c.804.45 1.828.746 1.675 1.87.124.98.455 1.916.696 2.872.008.734-.596 1.574-1.12 2.257-.522.81.131 1.609.06 2.438.099 1.052.196 2.089.142 3.196.14.628 1.9.347 1.726 1.454-.255 1.505.036 3.055-.575 4.495-.363.923 1.174 1.19 1.658 1.82 1.2.41.76 1.33.386 2.23-.665.94-.138 1.603.661 2.203 1.173.923.258 2.836 1.417 3.82.884.957 2.153 1.61 2.973 2.587-.063 1.246.965 1.2 1.923 1.237.95-.01.954 1.256 1.354 1.73l2.548 4.23c.967-1.126 1.246-.135 1.517.88.468.866-1.09 1.247-.562 2.304.151.953-.208 1.695-.216 2.583-.088.878.374 2.048-.74 2.382-.962.26-.903 1.348-.611 2.044.26 1.074-.278 1.735-1.214 2.19-1.188.92-2.592 1.685-3.645 2.699-.364.877-.38 1.803-.341 2.737 1.25.075.783 1.28.834 2.143.164.753-.405 2.225.249 2.496v5.443c-1.154 1.673-1.872 3.642-3.02 5.34-1.586 2.628-2.925 5.394-4.36 8.106-.747.196-2.228-.328-2.485.348-.264.785-.581 1.498-.88 2.31.079 1.397-1.195.392-1.924.4-1.141-.425-1.797.836-.32.658 1.259-.308 1.207.928 1.45 1.815-.003 1.072.806 1.58 1.634 2.075.686.717 1.57.799 2.51.704.904-.015 1.946-.255 2.134.92.19 1.193 1.357.723 2.216.778.844-.14 1.745.593 2.468-.189.8-1.12 1.314-.067 1.872.658.492 1 1.75.398 2.643.56l1.3-2.676c.642 1.217 1.37-.223 2.064-.667 1.27-1.06 2.39-2.28 3.57-3.437.758-.213 2.201.52 2.327-.566.056-1.203.836-1.392 1.888-1.202 1.306-.314.496 1.247.399 1.946 1.29.31 2.607.929 3.88 1.054.826-.834 1.613.042 2.41.446 1.22.525 2.645-.072 3.944-.081.856-.165 1.967.113 2.326-.915.605-.519.968-1.938 1.732-1.864 1.03.228 1.597.808 1.49 1.896.526.587 1.596.769 2.322 1.206.183.557-1.573 1.06-1.085 1.96 0 1.046 1.563.025 2.263.145 1.21-.121 2.485-.736 3.573.081 1.027.482 2.036 1.045 3.21.839h3.3c.927-1.297 1.722-2.738 2.73-3.946 2.078-1.172 4.275-2.21 6.278-3.466 1.08-1.6 2.396-3.122 3.329-4.769.084-1.527-.168-3.126.123-4.608l3.803-8.345c.996.183 2.04-.037 1.236-1.187.57-1.61 1.258-3.22 1.873-4.829-.281-.837-1.034-1.662-.406-2.52.585-1.526 1.795-2.724 2.65-4.107 1.15.37 1.472-.59 1.844-1.47 1.895-4.11 4.204-8.014 6.058-12.142l.968-2.652c.789-.097 2.36.436 1.646-.872-.334-.932.136-1.675.882-2.216.77-.766 1.65-1.458 1.908-2.57.664-.772 1.629-1.42 2.115-2.265.3-.62-.533-.793-.178-1.227z"/>
    <path style="fill:#fc9272" d="M73.992 121.208l-.385.4zm50.64 8.565c1.057.406.156-.612 0 0zm-12.571-12.508c-.296.49-.252-.534 0 0zm-9.449-78.262c-.409-.022.378-.285 0 0zM115.2 36.17c-.162.284-.305-.397 0 0zM99.824 47.48c.999-.334-.115.805 0 0zm13.395 11.951c-.06.438-.448-.276 0 0zm-.045 2.728c-.182.424-.183-.5 0 0zm.191-34.107c-.51.366.194-.52 0 0zm7.787 31.988c.132.77-.634-.663 0 0zM26.899 19.089c-.194.28-.048-.335 0 0zm.782.468l-.063-.01zm40.017-1.119l-.064.038zm40.76 41.197c.251-.24.086.385 0 0zM63.821 95.71c-1.315-.227 1.095-.897 0 0zm10.808-.175c.36.105-.023-.307 0 0zm-.484.18c-.096.3-.208-.205 0 0zm8.401-1.754c.35-.535-.702.12 0 0zm-3.66-.15c-3.216.855 1.974 1.437 0 0zM57.784 83.19c-.11 1.155 1.396-.34 0 0zm34.481-46.689c-.306 1.377 1.359.251 0 0zm-6.482-3.706c.077 1.547 1.728-.26 0 0zm26.481 30.009c-.39 1.25 1.51.036 0 0zm-.137-4.562c-.355 2.05 1.443.419 0 0zm-4.345.499c-.35 1.668 1.87-.32 0 0zm-2-.143c-1.534 1.496 1.206.943 0 0zm2.897-2.28c.702 3.137 7.322.507 1.925.21l-.958.045zm8.412 22.88c-.895 1.396 1.519.203 0 0zm2.897-1.853c-4.642 1.225 2.623 2.58 0 0zm1.242-3.422c-2.096 1.641 1.584 1.425 0 0zm-1.38-.356c-1.882 1.804 1.52.778 0 0zm-1.517 1.853c-3.38.786.506 2.079 0 0zm-7.378-3.35c-1.22 2.94 3.146.298 0 0zm13.31 16.608c-2.932 1.034 1.355 1.589 0 0zm-8.208 45.62c-1.034 2.181 1.793.66 0 0zm9.242-6.772c-1.779 1.277 1.214.855 0 0zm.69-3.28c-1.558 1.812 2.957.111 0 0zM83.3 114.483c2.832 3.354 2.075-3.218 3.553-.985 2.11-4.616 1.747 4.114 4.321.48 4.334 2.454 9.319 2.449 13.687 1.132.611 3.694 4.985 6.676 6.517 1.769 1.695-1.703 2.716-2.53 3.349-1.492 2.103-1.455-.585 2.145 2.045.321.913 2.905-2.679 2.242-2.92 4.155-3.465-1.285.802 4.842-2.841 6.145-1.503 3.197 3.228 9.094 7.729 7.28-.038-2.423 5.199-4.052 4.057-4.898-2.558-1.936-1.46-3.369 1.057-1.63 2.53-2.874 4.087-9.72 6.443-9.806-1.875-1.136-3.71-4.406-.85-3.434 2.742-4.2-4.46-5.478-2.123-9.81-4.332.968-3.165-2.726-.162-3.352 1.116-2.823-4.919-1.534-.724-3.057-2.462-2.666-3.328-3.96-.89-7.097 1.462-2.984-5.697 4.103-2.642-.486-3.597 2.175.982-2.975-2.346-.654-2.982-1.752 4.5-2.65-.357-2.831 2.317-1.478-.551-4.382-2.537-2.591-4.036-.158-.312-4.342-3.987-5.682 5.45-3.629-9.561.504-3.544-4.714-1.336-2.337 2.582-3.153-1.17-3.18-5.37-1.838 7.397-2.086 2.534-5.923-2.37 3.199-4.52-1.853-7.435 1.061-3.53 6.539-9.658-7.42-2.22-4.195-2.738-3.925 7.412-1.753 5.77-6.163-4.096 2.891-1.707-5.79-5.446-1.75-4.741 1.535 2.302-5.347-2.2-2.417-1.634 1.946-4.108-3.705-1.027-3.957-4.698-3.658 6.13-5.982 6.878-.773 1.71 1.647 7.523.328 3.12-2.203 4.34-1.115-2.636-5.42 2.821-5.263 1.783.83 2.1 5.154 3.01.475.832-4.889-5.1-3.597-7.094-.783-3.057-.152-3.713 3.347-7.332 1.6-4.33-.676-4.756 7.519-7.598 5.271-.973-4.603-3.938-8.767-6.797-10.438-4.3-1.511-1.305-9.218-6.403-6.798-1.889-4.812-5.511-7.675-10.339-7.035-4.879-3.115-9.558-6.976-15.015-9.123-5.26-2.21-12.122-2.885-16.995.385-5.684 1.363-8.847 6.286-10.469 11.638-1.024 6.655 4.218 10.623 8.126 14.78 3.774 3.17 6.123 7.282 3.156 12.06-1.798 6.913 5.436 11.579 7.315 17.623 3.38 3.434 7.207 5.244 11.43 7.578 2.242 3.81 4.53 6.55 8.74 5.547 2.645-.922 3.257 2.931 5.194.866.46 2.894 1.859-.319 3.335.487-2.334-4.29 6.956-5.488 3.147-1.23 4.188-.026-2.883 4.29 2.314 4.745.347 1.404 1.525.939.834 3.878 1.617 1.88 6.696 1.852 3.547 4.237 1.203.887-4.833 4.371-5.595 2.483-1.92 1.475-4.519-.818-5.32-1.763 3.328-2.756-.322-2.032-2.034-1.929.792-3.254-1.909-1.039-1.414.539-2.643 3.438-7.267 2.208-8.956 6.823-2.175 2.161-2.753 5.73 1.507 5.023 1.883 1.839-3.254 2.86 1.007 4.186 1.698 1.473-1.829 5.96 2.522 5.863 2.8 5.065 6.494 2.577 7.627-1.633 2.514-3.188 6.397-.946 8.49-.154.847-2.153 1.362-.946 1.6.799z"/>
  </g>
  <g id="g1119" stroke="#000" stroke-width="2" fill="none">
    <path id="rect1064" d="M.664 425.05h151.238v139.193H.664z"/>
    <path id="rect1066" d="M.664 297.326h151.237V425.05H.664z"/>
    <path id="rect1068" d="M.664 145.883h151.238v151.443H.664z"/>
    <path id="rect1070" d="M.664-.003h151.237v145.886H.664z"/>
  </g>
</svg>
