<?xml version="1.0" encoding="UTF-8"?>
<svg xmlns="http://www.w3.org/2000/svg" width="575" height="575" stroke-linecap="butt" stroke-linejoin="miter">
  <g id="g945" stroke="#000" stroke-width="2" fill="none">
    <path d="M.759 204.757h93.484v73.684H.759z"/>
    <path d="M.759 279.961h93.484v73.684H.759z"/>
    <path d="M.729 355.134h158.545v219.14H.729z"/>
    <path d="M160.759 500.56h93.484v73.684h-93.484z"/>
    <path d="M255.567 525.434h78.12v49.001h-78.12z"/>
    <path d="M495.843 465.549h78.315v108.61h-78.315z"/>
  </g>
  <g id="g965" stroke="#000" stroke-width=".5">
    <path d="M219.326 156.368v-4.188l-.963-.776.189-5.526-1.735-.87-2.374-.032-2.115-1.683-2.234 2.672-1.764.22-1.521 2.071-1.297-.313-3.228-2.84-1.126-3.63-.646-2.705h-9.746l-3.181-1.943 2.488-3.327-5.397-.217-2.066 2.349v.003l-1.048 1.185-3.845-.421-.386 2.209-1.81.146-.181-2.63-2.354-.71-.978 1.112v-3.72l-2.723 2.034-3.591-.608-1.239 2.463-7.291 3.957v1.856h-.963v-3.43l-4.073-1.936.371-3.497-3.704-2.738v-3.41l-2.732-.594.188-3.166-2.114-.189.188-2.19h-4.455l-.418 1.364-.983-2.323-2.024 1.567-4.517.57-.897 1.234-3.052-2.296-4.531 3.052 1.618 2.206-2.437 3.338-3.18-1.857-5.845.2v3.906h-1.021l-.384-1.797-2.308.37-.439-4.874-2.44 2.701-2.22-.92-4.565.432-.792 1.968-2.074.487-.401-2.132-5.011.667v1.358l-2.738.166-1.436-1.015-1.858.931-.392 2.26-5.141.187-3.038 3.669 2.29 1.715-3.022 2.484 1.038 1.88-.818 4.499 3.584.467 1.052-1.052.488.648 7.579-.99 1.544-1.068-1.313 1.26.478 2.48 3.665-1.65-.709 2.505 4.354.19-.094.562-4.355-.169-3.665-.951-4.706-2.261-3.163 3.644 3.712 1.266-.203 5.7 1.48-1.198 2.063-3.154 3.851 2.21 1.873.4.707 2.834-1.036 1.86-2.363-.177-2.389.005-3.878.592-6.795.384-1.632 2.165 2.311 1.381 2.124-.188 1.748 1.567 2.51-.189 3.972 4.53.937 4.895-1.507 3.022 4.554.863 4.667-.23 1.144-2.068-1.177-1.58.771.345 1.767-.187 3.138 1.762 2.288-.444v-.989l.189.812 2.646 4.326 5.891.402.135-.716 1.007 1.456 3.521.622h2.376l.022.035 2.279 3.656 3.449.864.265-.402-.16.607 2.903 1.271 3.459 3.442 1.088 2.031-.794 5.185 2.713 2.032 1.529-1.776-1.273-1.682v-3.027l2.242.54.62-1.864.282.655 2.881 2.502 1.45-2.41-.171-.388.667.907.146-.021-1.888 2.384 2.647.886 1.792 2.79 10.698-.981 2.086.456-1.007.868.218 2.074.585.44 1.062-.19 1.587-1.592 1.035 1.205h3.263l3.829-1.964 5.649-2.235.188-5.509 1.267-.687v0l3.621-1.937 12.229-.602.824-2.286 1.852-1.822 4.42-.614.181-2.086 2.5.347 1.739 2.336 4.279 1.056.874-1.835.986-3.51 2.492-6.167 1.198-.685 3.55.438v-5.76l-1.375-1.378v-5.547l-.594-1.985v-2.964zm-69.249 37.813l1.736 2.105-.733 1.187-2.271-.697-2.993-1.405 2.882-.433-.487-1.194z" id="Bretagne"/>
    <path d="M210.235 186.361l-.341.684-.312-.069-3.283-.816-1.762-2.366-3.375-.468-.193 2.238-4.144.576-2.04 2.012-.785 2.086-11.895.586-5.373 2.842-.187 5.46-5.314 2.103-3.653 1.909h-2.914l-1.276-1.49-1.913 1.92-1.464.272 1.28.882-3.67 3.28.973.975.678 1.36-2.063 2.886 2.458 1.322 4.084.873.299-1.246 1.862 2.382h3.81l2.53-2.757h1.91l-2.547 1.278.207 2.178.722 1.66-1.922 1.929h-2.564l.497 3.598 4.441-.813 4.777 4.407-.06.077-.221.277.005.004-5.672 7.337-.197 4.93 6.022 5.852-.208 1.942h1.868l3.69 11.099 3.975 1.977 3.958 3.97h4.43l1.75 3.916h4.345l1.893 2.877 4.788 2.402.174-2.569.798.754 6.102-3.716 2.453-.167 1.187 3.216 3.849-1.621 3.132 2.355 2.646-1.25 2.247-.62 1-1.2 2.992-1.927-2.382-2.427-1.356 1.033-.114-.95 1.41-2.635-1.36-2.326 1.108-1.5-.606-5.6-1.866-2.868 1.395-1.814-3.16-3.552 1.17-2.567-4.756-3.973v-2.304l-1.775-2.53.481-.201-.007-.006 3.187-1.372 6.092 1.387 2.961-1.946v-2.61l5.04-.391 4.827-.966 5.075-.18.514 1.19 1.731 1.502 1.48-2.604 3.629-3.824h1.6l2.263-8.178 3.158-3.77-.219-4.3 1.963-2.564v-1.368l-.915-1.126.561-1.15 1.134-2.276 3.7 2.611h2.655l-1.065-3.506 1.928 1.272 1.448-2.13 5.877-1.625-1.031-2.502 1.216-1.555 2.939-1.157 2.832-3.69v-3.53h1.895l.855-3.012.194-4.245-1.864-1.719 1.419-2.48 2.507-3.195-2.974-2.126-2.53-.44-2.767-4.129h-1.213l-.057.596h-3.979l-1.935-2.895-3.235-1.163-.943-6.869-1.712-2.397-5.551.197-5.27 4.879-2.679-.154-.29-.015-.983-3.48-2.514-.965-.769-4.228-1.925-1.723-2.247.218-.833 1.993-2.715 1.113-5.305-.787-5.206 3.088-1.947-1.386-2.935 1.973-1.937-1.408-1.394-2.383-3.164-1.296-2.007 1.598-3.513-.43-.205 5.584.974.788v3.65l-1.968 1.973v3.258l.593 1.988v5.75l1.375 1.378v4.832l-3.075-.378-1.552.884-2.581 6.395-.984 3.5z" id="Pays de la Loire"/>
    <path d="M314.444 121.833l1.448.31-.71.715.165 1.546.338-.255 1.693 1.7.597 2.35 1.483 1.49-.712 1.983-.02 2.158 1.307 1.489-1.341 2.291 1.466 3.57 2.69 1.923.422 2.251 2.331.374.545 4.188 1.906 2.314 3.277.618.711.143.347 2.328.407.654.427 5.489 6.651-.602 2.416-2.243 2.029 1.652 5.198.372 1.217 1.833h.001v-.006l.714 1.06 2.257 1.15.168 2.98-3.298 2.28 2.202 1.976 2.27-1.452 5.257.18 2.103-.407.571-1.512 1.715.149.417 1.745 5.22-2.954 4.377-5.154-1.604-1.804 1.248-2.67 3.335-1.674 7.658.376 1.628-1.253.4.4.514-3.874.767-3.847 1.386-1.801.182-2.257 2.734-1.166v-2.087l-3.016.195-.45-1.047.955-1.733-.843-3.178-1.496-.93.354-2.394 1.621-1.04-.23-1.22.787-.963-3.612-.76-.989-2.329-1.814-.617-5.127-4.958-.598-4.348-2.409-1.748-1.403.712-1.813 1.465-1.888-.58-3.307 1.364-2.82-1.626-1.271 1.674-1.498.161-1.125-.917-2.097-1.257-2.299 1.535-.337-.336-.001.004-.865-.87-4.354-2.592-4.258-2.23-2.207 1.014-2.201.56-1.472-1.118-3.299-2.052-2.632 2.018-3.579.396-5.129-.395-1.088-1.774-.945-2.214-1.875 2.332-1.237 4.395-1.152 1.958-.018-.008-.123.246-.007.012-5.435 1.565-.978 1.214 1.07 1.675z" id="Île-de-France"/>
    <path d="M509.541 351.963l-3.546-.18-1.548 1.737-4.443-.778-2.498 2.13-1.77-.779-2.875 2.243.981 1.78-1.311 1.318h-5.053v2.838l1.476.737-.434 1.004-3.158 1.287-4.245.419-1.263 3.989-.2 2.507 2.04 1.66-1.803 2.122-2.511-1.272-3.493-.234-.511 2.2 1.773 1.242-2.185 1.44.907 3.701 6.662 1.796 1.192 2.55 1.815.35-.641 5.98v0l-.032.317-.737-.874-1.9-1.676-1.119 3.3-1.594 1.426-.389-.031-.002-.004-.277-.021-.338-.029.001.006-1.313-.094-2.787-2.05-.814-2.644-5.668-.42-3.866-.354-.351-2.03 1.334-2.86-.466-.356-2.433 2.078-3.625-.378-.61-1.073 2.764-3.758-3.012-2.844-3.028.245-2.268 3.542.615 3.847 3.164.388-.367 1.03-2.481.182-2.75 2.786-.489-.61.561-3.916-1.349-1.611-5.604.83-1.227 2.499.742.413 3.229 5.373v4.492l5.813 5.795v2.207l-2.641 1.505.002.002-5.056 2.901-1.387 10.377-5.723-.808-1.797 4.794 1.284 1.81-6.155 3.768-1.957 4.562 6.616.3 8.105.587.973.975h-2.387l-2.234 3.83 8.837 1.853 7.305-1.272-3.723-3.53 1.944-1.611 3.446 1.453 1.778 3.793 11.406.19 2.666-1.092.428 1.292-3.541 3.089 4.644.201-.605 1.533-1.583 1.84h10.167l4.555 1.521.35.467.638.87 3.44 1.536.978 3.962 2.469.468 2.059-1.443 3.414-2.107 5.655.556-.132 1.1-1.821.898.117.57 5.448.254-1.62-1.669-.361-2.256 2.253-1.562 2.799.927 1.101.347 1.089 1.34 1.709-1.208.38-2.585 1.393-1.203h4.141l1.157-1.735 2.611.752 3.405-1.47v-5.617l-3.259.148 2.148-1.334 1.645-2.24.433-3.045 5.539-.766 3.016-3.384.007.008.18-.218.213-.24-.009-.007.049-.059.178-4.231 3.745.75 1.374-1.783 2.135.441.19-6.168 4.334-.36 3.896-3.534h3.66l.197-2.282 3.627-2.191-1.986-4.548 2.903-2.51-.575-2.854 4.212-1.346 1.217-4.518-.577-3.014-1.006-1.786-.852-2.8-3.146.238-9.218 3.32h-2.78l-4.978-4.038-5.204-1.436-2.716-.01v-3.407l-4.095-2.536V376.7l3.144-.43-2.056-1.817-1.939-.611-.872-2.281.71-1.597 3.572-3.805-.565-2.757.298-.317h.001l.076-.085.464-.495h-.007l1.308-1.424 2.305.208v-2.27l-2.738-1.387-.596-5.699-2.404-.873-2.701.405-4.865-2.458-.785-5.886-2.967-.99-.938-1.854-1.358-2.985-4.005-.2-1.966.88-.397 2.88-2.999.347-.557-2.576-1.318-1.321-3.769.4-1.523 1.32-.822 4.321.732 1.197 4.043.403.761 2.47 1.512.758z" id="Provence-Alpes-Côte d'Azur"/>
    <path d="M568.652 515.404v-.002 0l-.083-.158-1.854-3.65-.597-11.762-1.419-2.232v-.002 0l-2.488-1.94-.396-7.069 1.197-3.362-1.585-5.368-.969-4.292-.854-1.296v0l-2.017-1.149-3.262 2.19.447 2.146 1.436 1.858-1.704 1.315.397.807.401.805-1.13 1.315v2l1.971 1.784v2.527l-1.11 2.373-1.022.452-.576-.799-.942-1.306-2.812.227-.583-.397h-2.557l-2.274 2.113-.788 3.222-4.95.95-4.024 3.425-.729 2.017-1.584-.15-1.338-1.595v0-.002l-.647 3.827-1.386.563-.438 3.39.531 1.234-2.034 1.482-.554 1.455h-1.651v2.618l2.117 1.484 3.188 1.863.163 1.167-1.69.517-3.366.647v1.718l1.162 1.198.227 4.011 4.498 1.442 1.443.353 1.198 1.89-.798 1.138-1.58.57-1.209 2.213-1.245 1.484.628 3.913 3.102-.197.844.645 2.726-1.363.48.481-1.376 2.946 1.277 1.279-2.133 1.594-1.738 3.91 4.678 1.095 5.48.512-2.02 2.35c-.412-.14-1.272-.36-1.772-.133-.029.016-.062.03-.133.086-.007.006-.042.035-.095.092-.018.016-.049.043-.076.09l-.052.105.002.023c-.004.012-.009.02-.009.021l-.016.045a.36.361 0 00-.033.121v.085c0 .734-.94 2.564-1.31 3.201l-.104.189 2.085 2.289 3.597 2.219 6.67 1.776 1.933.777 1.48.648-1.293 2.354 3.458-.207.59 1.364h3.562l.894-4.261-1.732-.356 2.573-2.735-1.066-1.107.153-1.459 3.533-1.943.23-2.622-2.772-.224-1.16 1.001v-1.005l3.028-.186 1.041-2.527.802-6.947.007-.049-.599-2.94-.06-2.647.002-.003-.127-5.87 4.688-6.638v-11.06h.006v.005h-.004z" id="Corse"/>
    <path d="M192.156 94.952l4.498 5.096.952 4.435.962 1.411v6.954l2.344 4.771v5.341l-2.559 5.133 2.825 7.324 4.274.963.294 1.548-1.851.85h-4.003l.688 2.861 1.185 3.81 3.404 3.002 1.887.49 1.604-2.183 1.739-.22 2.013-2.401 1.822 1.448h2.377l1.333.669v.455l3.701.455 1.929-1.533 2.636 1.077.026.044.163.326.019-.016 1.132 1.92 2.405 1.776 2.939-1.975 1.928 1.371 5.358-3.177 5.257.776 3.097-1.27.792-1.89 1.628-.16 1.575 1.412.793 4.356 2.548.979 1.02 3.605 3.65.207 5.293-4.902 5.015-.178 1.423 1.944.981 7.154 3.393 1.219 2.003 2.997h3.994l.148 1.088.599-.016.161-1.672h.348l2.731 4.08 2.603.422.001-5.09-1.368-1.816-.334-1.292 2.7-1.613 2.993-.605 2.08-2.526-.391-7.485-4.125-3.51-.188-3.37-.473-.318 2.453-2.352h2.602l7.076-3.667 2.185.92 5.162.022 1.312-1.568v-2.868l3.909-1.943v-3.177l1.077-.894-.095-.895 1.289-1.293-2.057-.44v-1.41l-.929-1.459.588-.732 5.491-1.57 1.434-2.455 1.204-4.336 1.45-1.803.264-1.966 1.476.816 1.888-.516-1.184-1.853-.566-4.556-1.698-1.52.495-1.52 1.369-2.56 1.043-1.798h-2.19v-3.135l-1.14-1.915.743-3.752.944-2.385h-1.562l.599-1.487 2.035-2.471-2.009-3.676-.603-3.556-8.627-8.46-1.038-2.08-2.285.199-1.825-.78-1.375 1.692-8.327 6.415-14.812 3.722-9.823 3.53-8 4.324-4.794 7.149-1.047 5.781 4.054 3.058 4.254.898-3.938.704-7.496 4.34-8.243 3.27-6.532-3.657-16.053-2.378-3.775-1.975-5.572 1.42v-.001l-1.806.459-.177-4.432-5.043-5.988 1.42-3.56h2.383l-2.151-5.887-8.707-.422-4.417 3.073-4.897-3.21-7.592-2.278-.964 2.437 4.186 3.37v4.074l-1.666 2.07 1.202 1.2.445.305-.396 3.63z" id="Normandie"/>
    <path d="M318.02 42.172l-.523 6.34 4.327 3.927v1.317l-5.053-2.997-6.757 8.345 2.123.904 2.026-.177.875 1.76 8.583 8.44.58 3.414 1.873 3.46-.53.655-1.277 1.531-.996 2.437h1.562l-.632 1.614-.805 4.033 1.173 1.97v3.57h1.747l-1.92 3.528-.623 1.94 1.81 1.624.554 4.399.821 1.346-.859.237-2.027-1.126-.517 3.832.485-.614.575 1.332 1.266 2.075 5.49.418 3.802-.417 2.435-1.868 2.927 1.817 1.675 1.278 2.536-.647 1.994-.91 3.98 2.087 4.245 2.517 1.523 1.526 2.388-1.599 1.743 1.037 1.282 1.05 2.007-.219 1.106-1.46 2.614 1.508 3.382-1.392 1.986.608 2.005-1.632 1.024-.513.086.066-.001.01.305.22.237.178.002-.007 1.282.924.59 4.3 5.325 5.148 1.73.62 1.014 2.371 3.609.759.561-.703.954-2.03 2.944-1.383 1.575-4.13 1.925-1.316-1.269-1.754h-2.456l-.244-.877 1.593-.713.996-1.515-1.811-1.2.434-1.377 4.718-.394-.984-2.222-2.658-1.747v-4.951l3.488-2.608h4.395l-.432-2.063 1.971-.845 3.29 2.15 1.733-.476-.194-6.87.581-2.3.849-2.96-2.542-1.368.44-1.167 3.796-.799v-2.59l2.887-1.538.861-2.598-.99-1.605.172-2.728 1.834-1.642-1.813-3.443.564-3.726h-3.351l.014-.008h-1.019l-.145-1.483 3.917-2.356-.654-4.124-3.411-.89.692-.722v-2.694l3.022-2.222-.897-1.794-6.419-5.06-11.209.61-1.151 1.934h-.896l.181-6.669-3.308-3.914-2.347.376-1.413-1.608-3.919 1.761-1.271-1.272-2.66-.394-.713-2.317-.19-7.983-1.776-.796-.237-1.28h-1.153l-.41-2.374-2.872.256-4.96 1.595-2.314 2.872h-2.052l-1.435-1.781-.578-2.102-2.092-2.383h-2.705l-1.036-1.906v-3.19l1.368-2.167-.836-3.13-2.662-5.37-6.479 3.052-9.711 1.56-.332.06v-.002l-.075.014-.565.1.005.007-10.381 1.985-8.837 6.79.001 26.572-.083 1.04z" id="Hauts-de-France"/>
    <path d="M568.489 114.95l-3.278-2.608-4.907-.569-4.412-2.212-2.864 1.713-1.483-1.67h-2.263l-3.086.849.019-.029-.665.207-.186.05-.005.008-.07.022-1.222-1.762-3.938-2.402-1.438-2.256-4.974.435-2.741 2.527-6.413.182-1.83-1.28c-.249-.443-1.165-1.99-2.021-2.47-.039-.022-.103-.057-.153-.077-.038-.02-.092-.032-.125-.048l-.175-.036v.3l-.097-.3c-.688 0-2.104-.731-2.755-1.118l-.13-.078-3.059 1.289-.188 2.288-2.86.353-1.932-3.65-1.062-.376v-2.711l-2.758-1.194-.188-4.627-2.057-2.026-4.174-2.029-2.16-.028-.595.407h-1.768l-2.729-2.36-3.155.202-2.42 2.038-.568.898h-3.019l-1.155-1.191h-.349v-.002h-2.776l-3.53-3.917h-4.75l-2.351 2.17-3.322.188-1.147 1.187h-.402v.004h-.415l-.749-3.578-1.697-1.7-.773-.107.004-.005-1.646-.254-.763-3.825-1.723-1.31-5.369-.585-.938-2.458-1.861-1.212-6.137-.799-.343-4.13.771-.772V66.46l-3.075-1.944.521-1.914.862-2.143-1.28-1.106 2.002-1.807V53.72l-.982-.71h-3.189l-2.021 3.004-1.836 1.87v4.071l-2.178 1.454-4.264 1.375-2.188.901-2.688-2.115h-4.08l-.585 3.829 1.686 3.201-1.666 1.491-.198 3.163.942 1.53-.697 2.1-2.989 1.596v2.478l-3.646.766-.744 1.967 2.58 1.39-.717 2.5-.604 2.391.136 5.216h.005l.044 1.28-1.019.275-3.334-2.176-2.719 1.163.383 1.823h-3.854l-3.888 2.904v5.579l2.775 1.825.572 1.286-4.277.358-.688 2.193 1.688 1.12-.564.867-1.907.852.507 1.819h2.606l.728 1.004-1.57 1.066-1.555 4.08-2.927 1.373-1.006 2.168-1.062 1.299.205 1.096-1.507.966-.456 3.058 1.629 1.015.726 2.714-.981 1.775.737 1.708 2.797-.18v.404h-.006v.642l-2.704 1.149-.195 2.445-1.316 1.716-.844 4.06-.459 3.457 1.436 1.177h2.32l4.877 5.1-.602 5.325 3.842 2.964 1.926-1.348 2.892 3.45.375 3.53 2.172 2.923 1.044 2.33 8.075.42 3.716-1.878 1.09 2.04 1.746.239 1.016-2.194 6.253-.182 2.796-1.486.392-2.431h5.323l1.325.748-.002-.008 1.692.95 3.445 3.668 4.352 5.878-2.601 2.8 1.917 1.304.193 3.475 3.229-.19.771 1.54 2.604.209 1.604-.896 2.938 3.686.488 1.166 4.687-1.062.78-1.9.302.054v-2.132l2.428-1.066 3.121 1.192 2.99-1.213h1.949l.621-4.09 1.271-1.527-2.062-.222-.146-1.839 2.67-.584.186-1.514h2.783v-2.628l2.242-.816-.611-1.622.542-.344 1.442-.876-.752-1.16.487-.3 1.354 1.579 2.271-1.595.569-1.862 3.374-.544.771.605-.188 2.164 2.76 2.115 1.77-.213 1.731-1.366h3.854l2.938 3.322h1.188l1.748-1.086.216-1.143 1.271-.642 1.571 1.042 1.727 1.944 6.189 3.298.021.014.854 1.67 3.204.192 3.396 2.652.505 1.208-.179 2.214-.983 1.818.438 2.745 2.78-.412.52 1.897 1.032 4.44 2.166-.354-.356 1.88 1.596 1.379 7.438-.195 3.904-3.092.188-4.367 2.062-2.655-2.694-3.096-1.257-2.935 1.521-2.069v-4.96l.943-2.295.021-3.937 1.812-2.635-2.007-2.824-.168-5.073.007.003-.021-.462-.007-.208h-.003l-.021-.357 5.061-9.923.04-.08-.6-5.7 2.338-7.65.582-6.538 5.075-3.707v-2.4l1.814-2.373h1.538l1.938-1.945-.383-3.394 1.667-4.48z" id="Grand Est"/>
    <path d="M316.017 345.241l-4.242 1.986-1.014.16.235.355-1.248 1.075v2.418l1.685 1.864-1.608 2.88-1.62 1.038-.209 1.851-3.361.414.229 2.614.993.34-2.439 3.475-4.397.388-.196 3.088-1.7 1.675-.968 2.493-4.082.195 1.675 6.267 1.711 3.755.099.219-3.823.692-3.169-1.892-1.538 5.013 2.162 2.357-.91 3.5-1.255 1.456.758 2.195-3.398.717-3.234.86.784 2.736-1.017.304-.015-.014-.504.17-.152.045.009.008-.893.826-2.829-2.806-6.139.593-1.563 2.758-3.397.364-3.125.56-1.469-2.071-3.183 3.185-2.398-2.048-1.576 3.375.175 2.365-1.715.479-.821-1.17-1.095-3.33-2.951 2.525-1.85-.748-2.352.443-2.141 2.597 2.301 3.901-1.508 1.511.598 3.345-1.854 2.433-1.467 3.94 1.712 3.022 4.802.335.483.043 3.106 5.14-2.165 1.983 3.93 5.9-1.843 2.426-3.098 6.989-5.408 4.618 1.362 2.73-.862.568-3.101-.637-.84 6.654-1.567 1.194-.366 4.74.838-.475 3.136 1.867 3.812 2.871.374 2.345 3.297 2.677h2.669l6.354-2.695 2.637 3.037 4.026 1.087 1.362-2.315 1.505.674 3.603.255v.005l8.517.568.419-9.6 2.332.348 3.626 2.116-.016.013 1.422.797 6.178 1.198h2.415l3.318 4.33 8.389-.406 3.354 5.362 3.095-1.256 8.298 1.15.539 3.11h-.002l.408 2.445 3.011 2.825 5.762 1.582.185 3.417 3.325 2.937 2.597-.45 3.347-4.108 3.909-.748 6.307 2.116 5.663 4.866 1.656-2.095h1.136l1.441 1.018 1.474-.719.186-2.708 5.763-1.352 1.947-2.55 2.803-.93h3.916l2.554 2.717 3.564.251v-3.555l-1.668-2.309-2.647-1.146-.42-16.435.002.002-.17-6.077.23-6.792-2.505.202-1.764-2.611 1.27-2.086 3.23 3.058 3.164-2.532 2.045-2.018.23-1.903h.005l.142-1.144 6.974-2.145.761-1.71 5.418-.187 1.79-2.223 10.551-8.418 6.536-4.64 1.868.13-.002.002 3.427.25v3.951l4.753-.233 2.613.135 1.794-4.18 6.538-4.002-1.473-2.072 1.519-4.045 5.843.825 1.423-10.68 7.743-4.432v-2.804l-5.814-5.799v-4.408l-3.395-5.654-7.346-4.132-.563 3.236-2.303.23-.82-3.063-3.265.626-.51 3.734-1.81-.66-4.833-3.162-1.938.982v-5.227l-3.274-1.965-.853-.524.556-4.08-3.351-3.646-1.359-7.125-5.146-6.64-3.532.855-.769-2.666h-2.446l-.388 2.42-4.621 1.428-3.531-9.037-5.864 2.114-1.469 3.3-3.536-2.373-2.859 8.97-2.62 6.032-1.353-1.673-.58-5.728h-1.92l-.854-5.585-3.873.565-.483-3.308-.797-1.25-5.895 5.041v4.537h-1.341l-.573 4.506-1.327.542-1.062 2.409h-5.734l-.53-.816h-3.114l-1.648 2.739-.298-.033-1.328-.18 1.065-3.24-2.48-1.086 2.479-5.772-3.402-2.544-1.138-7.28-3.387-.908-2.063 2.036-1.094-1.944-3.521 3.53-1.938.247-3.788-5.436z" id="Occitanie"/>
    <path d="M541.305 319.88l-2.722-1.044-.771-2.733-5.229-3.104c.052-1.126.255-5.881-.226-7.032l.367-.333h-.938c-.646.162-2.888.342-3.486.389l-2.761-3.154.101-3.384h-.002l.083-2.946 6.594-2.736.854-2.127-.424-4.497-4.519-4.726-1.13.644v-4.371l-3.74-1.796-.147-1.267 2.145-2.333v-2.966l-3.54-3.738-.2-2.71-6.982.005-4.546.796-4.115 3.35-1.069-1.627-2.509.221-2.041 4.484-.036.078.243 1.958 1.906 1.566-3.604 2.376-2.441 2.27h-4.301l-.013.01h-1.722v-3.255l2.142-1.261 3.679-.398.267-2.397-1.063-.705 2.839-3.602-.5-1.429-3.652-1.948-8.188 9.037h-5.23v-2.235l-3.491-1.751-3.801 4.193-2.486.346v-2.607l-2.637-1.206-3.908-5.492-3.501-1.366-1.169-2.569-2.246-.464-1.999 1.423-1.357.355-2.138-1.77-2.438.248-1.479 2.746-3.671 14.434-.53 1.191v.008l-.012-.004-.564 1.358-.937-.128-.721-3.74-1.07-3.362-2.476.218-1.607 1.587-1.146-1.553-1.821 1.633-2.259-1.49h-2.129l-.953.732-.459 2.548.003.002-.669 3.577h-2.03l-1.438 1.442-1.047-1.048-6.347-.986-.104-.016-2.363 1.391h-1.252l-.36-1.336-2.896-.586-.19-3.112-.539-.17 3.849-2.947.192-7.891-1.521-2.152h-3.131l-1.152-1.567h-3.32l-.812-.998v-2.839l-3.974-7.567-2.271-1.655-3.827 5.259-1.16.28-.563-2.388-2.145-.962-.828 1.656h-2.48l-.439-1.922-2.314 1.364-1.918 1.075-2.184-2.396-3.279-1.562-.191-2.619-4.918-.408-2.737 3.537-1.543.188-1.608 1.636-1.968-2.162-5.562 5.608v3.404l.982.795.153 1.275-2.462 1.933-2.487-.763-5.048 1.039-2.604 2.991-1.229 2.612.548-.106 2.178 3.083v2.357l1.646 2.142 1.338-1.707 1.396 2.465 2.144.776 2.085 4.909.098 1.557.008.004.275 4.554 1.578 1.96.729 3.471-2.283 1.71-.559 2.731-2.041 1.1-3.904 2.276.438 2.055 4.488 4.504.38 2.552-1.771 2.895v2.953l1.205 1.4.568 3.172-.438 1.566.002.002-.543 1.978.938 2.276-.979 1.138H351.8l-1.883-2.067-2.254-1.274-.197 5.815-3.395 2.076-2.689 3.694.598 3.57-.756 1.525-.934 2.924h-1.486l-1.816 2.266 1.335 1.338.669 1.665-2.49 1.756 1.08 6.857 3.221 2.402-2.521 5.883 2.521 1.108-1.123 3.406 2.742.356 1.67-2.78h2.449l.531.813h6.447l1.123-2.544 1.43-.583.551-4.328h1.411v-4.861l5.169-4.422.338.507.562 3.835 3.877-.564.842 5.503h1.894l.533 5.28.012.089 2.086 2.587 3.021-6.97 2.628-8.238 3.465 2.323 1.655-3.72 4.937-1.793.135-.045 3.527 9.018 5.508-1.704.363-2.279h1.484l.801 2.785 3.717-.898 4.254 5.45h-.002l.182.23.213.27.001-.001.161.205 1.359 7.134.02.085 3.271 3.564-.568 4.198 4.186 2.523v5.867l2.5-1.274 4.604 3.006 2.566.944.551-4.044 2.295-.44.81 3.023 3.265-.331.498-2.848 6.244 3.524 1.104-2.24 2.772-.422v-.006l2.189-.314.963 1.148-.562 3.912 1.071 1.332 3.062-3.106 2.646-.19.76-2.11-3.463-.427-.511-3.172 1.979-3.1 2.471-.194 2.43 2.293-2.678 3.64.953 1.687 4.188.44 1.574-1.348-.829 1.775.466 2.669 4.323.397 5.269.396.75 2.437 3.086 2.277 2.744.203 1.908-1.705.881-2.593 1.19 1.05 1.604 1.917.889-8.252-2.061-.397-1.185-2.528-6.59-1.774-.722-2.947 2.566-1.693-2.165-1.518.304-1.315 2.812.17 2.873 1.458 2.513-2.951-2.272-1.851.162-2.125 1.127-3.535 3.896-.392 3.51-1.412.301-.69.006.003.068-.17.182-.416h-.012l.195-.48-1.646-.825v-1.862h4.699l1.812-1.815-.953-1.734 2.188-1.704 1.79.785 2.562-2.194 4.493.788 1.577-1.776 3.894.197v-4.796l-1.611-.809-.805-2.612-4.146-.41-.455-.741.739-3.888 1.212-1.052 3.318-.355.992.995.633 2.938 4-.464.415-3.01 1.531-.691 4.188.213-.146-.295 5.396-2.17 2.103 1.343h2.521l.194-2.463 2.392-1.303 1.007-1.173 5.182-2.01.646-3.603-.966-1.51z" id="Auvergne-Rhône-Alpes"/>
    <path d="M290.976 169.654l-.004-.002-.221.285-.157.197.003.002-1.113 1.438-1.681 2.935 2.01 1.853-.17 3.895-.721 2.509h-2.042v3.927l-2.604 3.398-2.938 1.155-1.53 1.956.486 1.212h-.01l.157.368.096.239h.006l.166.388-5.431 1.504-1.239 1.822-2.819-1.862 1.31 4.326h-1.656l-4.113-2.906-2.181 4.406 1.023 1.26v.946l-1.976 2.576.221 4.285-3.052 3.64-2.384 8.512h.396l.787 3.089 3.663.773v2.332l4.687 1.379.001 3.478-.214 2.675 6.238-.007 5.374-1.256-.424-2.244 1.15-.715 1.447 2.004 1.313.565 1.143 4.634 3.332 3.496.375 2.763 3.203 3.178.311.313v3.556l-.833 2.505 3.859 3.052 2.008 2.014 3.033.395 1.167 4.036 2.054 1.121-.321 2.523-1.346.243-.011.59.603.13 5.045.39 1.634-1.643 3.143 3.153 3.933-4.551 1.619 1.1 2.362-.221.704.364 3.875.234 1.149-3.119 9.505 1.155 3.773.986 1.397-.158v.005l.481-.06.115-.013v0l4.525-.561.993-2.118 2.437-2.806 4.697-.966 2.642.807 2.977-2.328-.224-1.86-.951-.77v-2.866l4.941-4.983 1.969 2.163 1.894-1.94 1.582-.188 2.698-3.482 4.078.342.049.807.586.07 1.539-4.915-.991-1.79.184-2.436.607-5.254-2.157-2.134.4-4.64-1.98-4.16-.193-2.802-3.553-2.775-.507-2.117 1.726-2.505v-3.934l-1.829-2.147.013-.007-.382-.426-.043-.05h-.002l-.104-.113-.153-1.628 3.949-1.173-.665-2.423-.595-3.134-2.553-3.586-.474-1.73h3.606l2.938-2.105.408-3.182-1.639-1.846 4.966-4.184v-3.8l-2.597-2.763-.971-3.141-3.749-3.56-4.724 2.671-.333-1.393-2.598-.225-.615 1.623-1.705.338-5.375-.192-2.043 1.31-1.297-1.16 2.952-2.042-.209-3.663-2.428-1.232-2.006-3.003-5.305-.379-2.281-1.86-2.646 2.458-5.043.443.007-.02-.52.064-.216.02-.005.007-.073.01-.393-5.036-.407-.604-.395-2.682-4.2-.806-1.653-2.011-.581-4.461-2.355-.378-.391-2.07-2.747-1.964-1.284-3.135 1.408-2.41-1.444-1.644v-1.776l.831-2.293-1.641-1.643-.594-2.35-2.189-2.194-1.508 1.234v3.09l-3.905 1.943v3.024l-.996 1.188h-4.707l-2.388-1.003-7.122 3.73h-2.764l-3.17 3.037.842.563.186 3.332 4.125 3.51.362 6.995-1.795 2.178-2.833.571-3.227 1.906.466 1.787 1.334 1.81v4.796l.589.09 2.4 1.717z" id="Centre-Val de Loire"/>
    <path d="M357.79 289.537l-1.562-1.993-.369-5.985-2.23-5.294-2.174-.789-1.729-3.05-1.413 1.804-1.046-1.367v-2.343l-2.502-3.548-6.562.798-3.703-.964-10.018-1.219-1.16 3.148-3.246-.173-.804-.418-2.323.218-1.883-1.276-3.041 3.5v-.011l-.416.49-.168.193v.005l-.248.293-3.106-3.117-1.862 1.871-3.522-.268.422-3.315-2.187-1.199-1.208-4.173-3.219-.42-1.895-1.893-3.554-2.815.715-2.152.015-3.949-3.547-3.53-.375-2.752-3.354-3.522-1.173-4.767-1.438-.622-1.678-2.32-1.978 1.228.394 2.082-4.746 1.117h-5.521l.163-2.053v-3.95l-4.688-1.38v-2.369l-3.773-.794-.792-3.178h-2.11l-3.853 4.067-.438.763-.001-.013-.727 1.284-1.044-.88-.646-1.502-5.534.2-4.839.967-5.561.43v2.84l-2.477 1.628-6.033-1.37-4.524 1.94 2.099 2.985v2.398l4.619 3.86-1.146 2.509 3.09 3.47-1.354 1.758 2.016 3.032.573 5.293-1.204 1.632 1.39 2.372-1.34 2.505.264 2.185 1.769-1.352 1.494 1.526-2.409 1.554-.976 1.149-2.114.59-2.355 1.105-.046-.035-.512-.427.001.046-2.572-1.92-3.588 1.511-1.125-3.05-2.974.203-6.446 3.887 1.478 1.35-2.938 2.393-.354 1.863-2.563.327-1.536-1.725-3.803-.365-.387-1.878-2.571-1.72-3.822 1.373 2.467 3.586h2.789l2.648 1.689 2.245 1.826 4.004-.189.76 1.706 2.706.593.987 2.696 1.67.747-.144 1.627-2.214-.355-1.003 1.487 1.792 2.6-.883 3.943-2.421-.19-.603-1.36-.956-.813-.416-4.822-3.435-.42-3.128-3.823-.461 7.792 4.521 3.34.365 3.617.777 4.268.435 4.617 2.521-.23 4.04 3.303 2.612 1.484.194 2.018 2.287.433 6.122 6.138 1.501 6.916h.015l1.587 6.644.369 5.574-.52.846-.821-3.976-2.772-10.836-9.93-8.994.228-4.247-2.435-.23-3.269 4.916-.971 16.503-2.531 16.645-1.784 12.934-.188 3.355.586.104 1.359-4.461 2.488-3.238 3.608 3.275.381 1.087.863 1.191-4.141.189-.823-1.256-2.327.94-.419 3.04-2.169 2.963.004 4.532-.024.149-3.471 18.626-4.504 17.25-1.373 6.664-1.145 4.659-2.743 4.73-.004-.002-.125.225-.173.3.005.002-.629 1.124-4.452 5.419-3.361 1.331-2.787.416v2.553l2.52 2.325 3.344.178.186 2.53 3.22.26.75-1.71 3.491 1.464 2.168.55.477 1.998-1.309 1.163v3.645l-2.732 1.37-.219 2.051 1.894 2.135 3.522 1.097.643-3.193 1.108-1.23-.13 1.77 1.525 2.19h3.504l1.545 2.11 4.75.794 4.522 2.773h7.219l.393 3.964 5.118 3.95 2.125 2.534 2.333-1.254 1.736-.364 1.012 1.017 5.528-3.037.315-4.072 1.555-1.188.788-6.257 2.71.557 1.514-.995-1.389-2.786 5.102-4.36 3.169-7.097 2.068-2.709-3.882-5.826 2.148-1.967-3.521-5.828-5.27-.376-.044-.074-.213-.394-.008.004-1.155-2.025 1.311-3.555 1.992-2.612-.591-3.296 1.617-1.62-2.325-3.938 1.735-2.106 1.963-.366 2.024.814 2.549-2.18.829 2.521 1.13 1.634 2.597-.717-.199-2.709.645-1.425.527-1.1 2.226 1.902 3.071-3.079 1.278 1.812 3.479-.626 3.684-.394 1.562-2.756 5.548-.534 3.046 3.022 1.159-1.126 2.151-.658-.779-2.714 2.626-.701 4.052-.857-.867-2.51 1.074-1.246 1.073-4.007-2.15-2.346 1.212-3.949 2.706 1.618 4.804-.874-2.113-4.627-1.466-5.5 3.729-.18.955-2.525-.004-.002.062-.172 1.814-1.786.178-2.802 4.164-.366 3.061-4.36-1.38-.475-.146-1.65 3.26-.396.229-2.039 1.443-.924 1.955-3.427-1.816-2.022v-1.905l1.438-1.237-.014-.02.139-.022 4.111-1.909 4.77 2.137 3.898 5.593 2.495-.315 3.104-3.113 1.097 1.944 2.375-2.348 2.674.719.138.943 3.125-2.203-.869-2.164-1.062-1.1 1.305-1.62h1.639l1.055-3.3.82-1.65-.59-3.514 2.422-3.361 3.617-2.215.179-5.159 1.276.709 2.025 2.225h2.207l1.396-1.62-1-2.426.959-3.48-.619-3.47-1.17-1.359v-2.563l1.795-2.936-.438-2.963-.269-.267.016-.014-4.238-4.248-.312-1.453 3.521-2.048 2.279-1.23.562-2.781 2.404-1.8zm-151.654 10.015l-.284-1.198 1.712-2.297.196 2.847.354.648z" id="Nouvelle-Aquitaine"/>
    <path d="M437.665 174.745h-5.985l-.427 2.648-2.34 1.274-6.11.18-.134-.66-.31.671-.166.005.051.248-.868 1.87-1.004-.14-1.221-2.282-4.095 2.068-7.555-.393-.923-2.05-2.106-2.85-.376-3.55-3.362-4.01-2.012 1.407-3.226-2.485.589-5.266-5.248-5.493h-2.359l-1.479-1.241-1.853 1.426-7.592-.375-3.664 1.837-1.503 3.22 1.521 1.707-4.14 4.907 3.681 3.495.944 3.057 2.549 2.756v3.28l-5.222 4.405 1.859 2.102-.339 2.651-2.563 1.842h-4.203l.693 2.543 2.539 3.552.586 3.09.52 1.876-1.97.59.007.002-1.898.562.22 2.318 2.336 2.713v3.526l-1.774 2.57.618 2.583 3.509 2.74.178 2.593 1.961 4.171-.407 4.76 2.152 2.124-.581 4.976-.19 2.625.944 1.724-1.477 4.728.143 1.705 3.45 1.612 2.463 2.702 2.337-1.313 1.618-.95.367 1.588h3.33l.736-1.478 1.352.607.629 2.686 1.957-.466 3.607-4.957 1.637 1.165.43.819.014-.009 3.439 6.48v2.978l1.127 1.383h3.3l1.159 1.569h3.121l1.229 1.732-.182 7.401-4.043 3.094-.331.77.731-.081.337.102.186 3.16 2.983.602.388 1.422h1.874l2.32-1.362 6.049.94 1.329 1.334 1.693-1.685h2.278l1.185-6.398.605-.464h1.748l2.491 1.644 1.678-1.501 1.167 1.581 1.951-1.922 1.777-.159.918 2.871.791 4.13 1.813.244 1.292-3.013 3.661-14.404 1.297-2.402 1.875-.187 2.179 1.804 1.713-.448 1.929-1.347 1.689.349 1.146 2.51 1.236.48v.002l2.318.904 3.903 5.476 2.428 1.112v2.91l3.394-.47 3.639-4.017 2.758 1.382v2.462h6.085l8.474-9.338-.506-.278.351-3.814 3.145-3.757-2.131-.848.162-1.027.002-.008 12.018-11.305.103-.094-.373-9.344 4.101-2.038 2.938-1.379 2.883-2.672.217-3.677 2.565-1.304 6.462-7.45-.93-2.252 1.893-.852 2.812-3.428-1.681-1.688-4.563.945-.084-.349 4.477-5.17-.015-.007.415-.489 2.804-.438-1.045-4.495-.664-2.419-2.72.403-.313-1.956.92-1.696.229-2.54-.621-1.488-3.666-2.862-3.046-.184-.652-1.307h-.001l-.094-.191-6.287-3.341-1.714-1.933-1.954-1.306-1.852.928-.223 1.174-1.378.856h-.748l-2.938-3.322h-4.332l-1.768 1.391-1.356.163-2.305-1.766.188-2.161-1.23-.965-4.001.649-.617 2.022-1.662 1.165-1.334-1.555-1.448.89.75 1.16-1.887 1.156.572 1.517-2.066.751v2.446h-2.716l-.194 1.62-2.766.605.229 2.862 1.438.155-.663.792-.566 3.742h-1.495l-2.936 1.169-3.129-1.19-3.015 1.315v1.813l-.061-.011-.844 2.053-3.888.885-.309-.74-3.323-4.186-1.894 1.05-2.085-.167-.794-1.592-3.022.182-.18-3.169-1.583-1.077 2.463-2.653-4.671-6.307-3.5-3.728z" id="Bourgogne-Franche-Comté"/>
    <path d="M45.684 228.752l-2.623.625-2.419 2.13.103 4.782 1.873.316.1 2.955-1.836 1.436-.343 2.338v.414l-1.642 1.719-.103.312-3.605-.211-.444-1.742-2.623-1.5-4.686-2.445h-5.144l-2.395 3.662.112 5.277.646 2.154.104.395.336 4.076 1.537 7.533 1.53 3.988s1.085 1.014 1.298 1.529c.223.508 1.437 2.125 1.437 2.125l2.385.32.674-1.248.112.123h2.385l3.614-3.064 2.292-3.148-.112-7.32-1.324-3.877.444-3.166 2.496-.5h.024l.754.91 2.075.492 1.642.623.155-.076.19.602 3.168.182 5.453-1.01 3.067-2.242 5.352-.205 4.582-1.541-2.838-1.602-.335-1.54-3.614-2.335-6.863-.1-2.076-3.564v-3.98l-1.426-3.063z" id="Guadeloupe"/>
    <path d="M32.537 300.243s-6.325.148-7.097.445c-.775.28-3.87 2.439-3.87 2.439l-.471.133-1.847 2.752.624 3.584 5.403 5.33-.934 1.453v2.885l2.318 3.17 7.428 6.629h7.256l1.846-.158h.307l-.307 1.299v1.023l2.18.57.905.568s-.298 2.457.472 2.604l-2.31.129-3.255-.996-2.155-.436-2.777 1.14-1.563 1.868-.752 2.168.599 2.18 1.556 2.16 2.008 1.135s2.01-.561 2.777-.852c.77-.291 1.403-1.586 1.403-1.586s2.297-.141 3.376-.291c1.084-.141 2.188 1.305 2.188 1.305l5.094.695 2.314 1.299 1.377-.123v-1.457l1.25-.701 1.246.7-.624 1.745-1.41 1.299.622 2.576 1.849 1.01 2.188-.133 2.155-1.744.624-2.281 2.16-2.312-1.41-2.883-.907-2.605-1.093-3.451-1.085-2.445s-2.632-2.594-2.632-3.176c0-.566-2.471-1.867-2.471-1.867l-.307-2.311s.632-.7 1.4-.992c.779-.291-.472-1.578-.472-1.578l-1.527.277-2.342.574-.6-.73-.93-1.017.152-1.293 1.69.314 1.403-1.594-2-1.576-1.564-.445-.461-.855v-1.02l1.709-.73 1.223 1.01 2.162.868 1.084-1.3v-1.437l.94-1.141-.774-.885-1.693-.701-1.095.992-4.31.436-1.408 1.018-1.847-.572-2.153-3.453-4.966-4.914-2.777-1.148z" id="Martinique"/>
    <path d="M31.156 381.132c-.428.015-.77.193-.94.341l-8.6 11.914-7.464 9.39-8.6 9.427 1.218 25.197-.624 23.225 7.501 11.333 7.342 14.42 4.256 8.838-4.256 5.687-4.965 15.055.628 20.788-6.133 11.914-9.852 8.853 3.012 3.722 7.461 4.979 6.727 4.455 9.879-3.199 10.466-6.921 21.57-.567 8.089 6.235 8.606.683 8.627 1.943 12.316-10.781 14.221-26.995 10.473-23.24 10.466-17.023 11.097-15.632 6.137-12.041-4.885-10.647-3.722-15.077-8.002-3.22-9.105-6.78-7.58-7.604-9.846-6.92-6.757-2.499-19.698-15.062-12.963-5.135-12.355-1.786s-5.526-2.499-8.594-3.751c-2.693-1.115-12.033-3.751-15.151-3.519z" id="Guyane"/>
    <path d="M289.304 529.895l-4.078.072-1.479.729-1.69 1.303-.315.289h-1.162l-2.472.93-1.067.939-3.4.492-.318 1.791-.932 3.74s-1.307.877-1.691 1.023c-.385.141-2.547 1.299-2.547 1.299l-.393 3.971.939 2.367 2.547 3.021 1.223 1.375.982-.219-.599.291.086 5.406 2.545 3.17 2.625 2.441 4.625 2.734.313-.188-.366.266 5.487 3.297 4.23 1.531 4.547.791 3.641 1.299 2.316.436s3.564-.727 4.027-.727c.461 0 4.162-.727 4.162-.727l3.793-1.227 2.549-2.312-.24-4.104.471-2.572 1.019-1.451 1.685-2.244.86-2.799-.237-2.736-1.787-1.008-2.316-1.068-1.068-.076-1.717-2.449c-.385-.287-2.471-2.592-2.625-2.961-.152-.359-1.529-3.453-1.529-3.453l-.471-4.838-2.623-2.521-3.094-1.713s-2.471-1.434-2.932-1.51c-.472-.068-4.558-.938-4.863-.938-.309 0-3.326.219-3.402.287l-.393-.152z" id="La Réunion"/>
    <path d="M228.234 540.596c-.053.115-.268.076-.358.115-.273.072-.515.111-.709.33-.078.092-.104.195-.146.311-.061.189-.154.355-.24.533-.094.219-.016.531-.229.699-.095.076-.205.076-.334.084-.195.021-.214.039-.343-.104-.102-.119-.151-.162-.162-.338-.016-.141 0-.303 0-.461 0-.141.019-.219-.102-.32-.104-.094-.24-.162-.35-.246-.111-.078-.248-.172-.326-.273-.094-.133-.119-.301-.195-.434-.172-.32-.248-.602-.59-.738-.156-.062-.248-.18-.393-.254-.189-.102-.369-.156-.531-.293-.291-.244-.59-.488-.531-.91.301-.146.412.111.643.234.224.109.437.227.632.369.258.17.498.211.53-.146.017-.137-.018-.262-.032-.385-.011-.072.016-.158 0-.227-.019-.057-.07-.096-.097-.143a.757.757 0 01-.086-.352c.027-.156.215-.166.326-.26.111-.086.172-.209.256-.305.094-.109.224-.195.353-.273.118-.086.264-.092.383-.188.129-.102.215-.188.334-.328.067-.086.17-.141.248-.236.11-.133.162-.287.248-.418.076-.141.215-.348.351-.432.229-.143.334.072.43.236.049.074.117.146.16.225.104.172.119.244.323.244.259-.008.396.115.438.35.051.229.033.445.061.672a.701.701 0 00.119.281c.086.141.076.211.094.359.025.195.068.424.17.57.068.117.181.125.248.229.068.086.053.219.043.342-.385-.016-.563.377-.563.705 0 .406.164.756.104 1.172-.068.029-.138.055-.214.039m-13.358 26.645c-.443 0-.796.029-1.009.475-.258.535-.752-.029-1.053-.123-.59-.18-1.025.109-1.256.65-.102.217-.043.412-.111.641-.086.293-.393.227-.41-.057-.043-1 .068-2.039-1.084-2.328-1.215-.305-1.703.264-1.463 1.404.043.195.076.406.051.604-.161 0-.332.029-.436.172-.172.227-.111.564-.307.781-.197.234-.777.531-1.078.547-.555.039-.531-.877-.762-1.209-.221-.33-.803-.535-1.152-.262-.207.158-.129.611-.504.463-.188-.391-.145-.973-.273-1.416-.139-.443-.787-.623-1.223-.623-.471 0-.805 1.234-1.369 1.547-.145.104-.297-.877-.076-1.068.437-.4.205-.658.24-1.283.043-.631.658-2.477-.701-2.102-.377.104-.436.5-.803.615-.412.125-.959.281-1.377.111-.342-.141-.213-.572-.76-.5-.6.086-.607-.215-.129-.486.393-.219.77-.428 1.205-.531.528-.131.666-.547 1.041-.883.584-.531.789-1.775.516-2.5-.121-.312-.205-.758-.607-.812-.283-.029-1.291 1.037-1.291.115 0-.59-.137-.521-.563-.844-.394-.289-.521-.82-.658-1.266-.119-.375-.076-.986-.428-1.227-.281-.188-.871-.195-.771-.674.607-.078 1.273-.18 1.881-.17.248.006.455.139.701.158.256.02.453-.096.701-.145.24-.055.812.352.914.557.129.248.035.539.051.795.035.387.129.742.146 1.129.025.504.418.738.684 1.123.316.463.803.396 1.264.611.474.23.881.418 1.388.561.562.172.965.65 1.579.695.334.02.923-.094 1.181-.35.229-.244.806-.791.795-1.064-.008-.234.019-.482-.008-.727.084-.18.264-.01.221-.303-.094-.564-.666-.895-.836-1.402-.053-.17.052-.357-.153-.471-.189-.098-.386-.068-.429-.332-.094-.586.019-.611-.452-.953-.367-.275-.257-.773-.513-1.111-.14-.162-.334-.123-.506-.234-.283-.188-.504-.461-.769-.68-.762-.594-1.84-1.014-2.035-2.096-.067-.396-.096-.811-.633-.82-.512 0-1.111-.336-1.41-.756-.162-.234-.684-.439-.539-.811.068-.182.351-.15.488-.236.205-.133.205-.281.281-.486.309-.805 2.273-.457 2.35-.914.062-.416-.307-.445-.615-.5-.426-.076-.752-.359-1.213-.406-.521-.047-.256-.633-.067-.898.342-.49.342-1.123.342-1.705 0-.871-1.28-1.414-.733-2.48.248-.48.819-.086 1.094-.441.547-.727-.828-.426-1.068-.451-.453-.043-.615-.646-.572-1.014.051-.424.426-.594.631-.945.14-.242.472-1.004.369-1.26-.188-.492-.401-.748-.862-.377-.906.723-1.479-.914-2.31-.465-.436.229-.871.145-1.094-.338-.121-.244-.309-.205-.496-.359-.18-.123-.34-.377-.496-.533-.289-.297-.58-.576-1.016-.615-.352-.031-.881.48-1.197.318-.188-.092-.23-.357-.375-.498-.189-.18-.428-.188-.65-.293-.59-.264.267-.951.427-1.141.487-.566 1.207-1.162 1.471-1.82.453-1.152-1.641-.623-2.084-.889-.385-.227 1.017-1.303 1.095-1.666.094-.414-.13-.881.075-1.273.248-.482.453-.234.863-.141.42.094 1.024.127 1.237-.312.121-.227.463-.834.677-.982.266-.188.659-.67.325-1.008-.514-.51-.258-.414.4-.51.291-.037.959.025 1.002-.375.041-.334 0-1.143.289-1.367.316-.248.549-.539.863-.777.146-.113.357-.205.461-.369.146-.242-.119-.619.299-.666.455-.047.479.15.83-.291.127-.162.914-.98.881-.332-.008.312-.803.576-.369.896.463.35-.092.406-.356.479-.744.18-2.479.834-1.154 1.561.418.227.847.33 1.3.424.727.148-.548.604.291.764.266.057.342-.002.485.205.069.115.172.352.283.424.42.266.256.625.469 1.014.188.354.735.619 1.067.816.259.154.539.295.849.295.256 0 .633-.096.785.199.153.301-1.332.783-.863 1.527.248.396.744.594.935 1.047.151.377-.104 1.172.451 1.102.215-.039.479-.156.686-.008.162.111.178.213.418.227.539.018.539-.35 1 .148 1.043 1.104 1.59-.584 2.375-.893.514-.193.564-.09.891.27.188.211.486.777.863.615.494-.217.871.076 1.316-.008.512-.104.709-.047 1.151.234.316.207.897-.064 1.275.111.159.076.426.066.536.227.076.102-.018.246.205.246.273 0 .332-.377.479.088.051.148.172.188.06.326-.146.189.301.52.395.635.291.396.803.365 1.264.414.359.033.709.547.873.828.137.234.334.227.486.406.215.264.539.623.65.943.289.82-1.494 1.668-.812 2.678.248.365.564.512.607 1.021.067.732-.658.109-.939.271-.625.375-1.891.82-2.025 1.633-.139.809-.531.744-1.035 1.213-.291.273-1.016.613-1.01 1.107.01.598-.023.736-.527 1.082-.43.303-.754.271-.959.795-.075.188.068.299.188.422.229.244-.008.273-.065.508-.121.477-.359.939-.035 1.408.137.205.17.367.248.594.061.172-.078.346.041.492.129.141.268.346.42.469.145.125.496.078.582.256.256.518 0 .744.709.848.248.029 1.154.406.496.492-.154.5.203 1.133.744 1.133.162 0 .34-.086.504-.031.237.094-.232.389-.256.453-.189.52-.011 1.162-.455 1.578-.394.355-.974.602-1.445.875-.365.209-.828.625-1.049.99-.23.395.043 1.479.076 1.941.018.217.846 1.17-.119.773-.82-.338-1.213-.059-1.558.631-.221.416-.784.342-1.161.658-.335.266-.154 1.162.008 1.492.315.613.119.709-.556.68-.647-.047-.819.943-.633 1.414.224.561.821.695.862 1.352.043.594.625.828 1.111 1.055.316.143.615.234.898.453.188.135.34.375.58.406.281.047.607-.086.846.104.412.311.111.436.172.842" id="Mayotte"/>
  </g>
</svg>
