<?xml version="1.0" encoding="UTF-8"?>
<svg xmlns="http://www.w3.org/2000/svg" id="svg155" version="1.1" height="1440.995" width="1143.062">
  <g transform="matrix(1.11644 0 0 1.11406 -.116 -164.251)" id="g1250" stroke="#000">
    <path id="box" fill="none" stroke-width="7" d="M529.905 151.748H1019.642V714.5329999999999H529.905z"/>
    <g id="town" transform="matrix(1.11819 0 0 1.11819 .21 -553.183)" fill="#ddd" stroke-width=".2">
      <path d="m 536.94,1668.3 0.1797,-0.4624 0.3065,-0.7608 0.1022,-0.261 1.1337,-0.854 0.8124,-0.6203 0.4998,-0.2921 0.3853,-0.1654 0.3299,-1.1187 0.4776,-0.4388 0.4702,-0.4475 0.2523,-0.1293 1.1473,-0.1355 0.0997,-0.04 0.357,-0.1865 0.4234,-0.256 0.1157,-0.082 0.2105,-0.1417 0.3139,-0.2337 0.2696,-0.2784 -0.4235,-0.6178 0.6623,-0.4152 0.368,-0.23 0.3299,-0.1305 0.1527,-0.06 0.2757,-0.072 0.1908,-0.034 0.293,-0.041 0.5798,-0.091 0.4493,-0.053 0.0849,-0.057 0.0431,-0.063 0.0898,-0.2163 0.096,-0.3008 0.0394,-0.1815 0.0924,-0.4922 0.0787,-0.4625 0.1453,-0.5121 0.1219,-0.4202 0.2683,-0.8254 0.1428,-0.358 0.1022,-0.5569 0.004,-0.9186 -0.0222,-0.491 -0.0209,-0.2462 h 0.0898 l 0.3041,0.027 0.4973,0.3493 0.336,0.1554 0.1674,0.047 0.4776,0.012 0.1982,-0.062 0.5933,-0.2089 0.6266,-0.024 0.2708,-0.032 0.3594,-0.1082 0.0813,-0.01 0.208,-0.1118 0.3127,-0.072 0.4173,-0.042 0.2129,-0.062 0.2253,-0.1218 1.3319,-0.22 0.6019,0.06 0.97,0.2063 0.192,0.01 1.0426,-0.024 0.5958,0.027 1.7652,0.034 0.8481,-0.08 0.3336,-0.082 0.0677,-0.1455 0.1564,-0.3169 0.2117,-0.03 0.1514,-0.2113 0.1182,-0.096 0.3126,0.024 0.2216,0.011 0.2733,-0.024 0.3754,-0.1368 0.1649,-0.05 0.0961,-0.01 0.1895,0.01 0.1564,-0.02 0.2154,0.057 h 0.1698 l 0.2315,-0.031 0.2708,-0.1306 0.0443,-0.097 0.1932,-0.2337 0.053,-0.1131 0.005,-0.02 0.1206,0.047 0.1231,0.065 0.1231,0.048 -0.1563,0.3344 0.1182,0.055 0.4271,0.235 0.2523,0.027 0.1945,0.2126 0.1034,0.1516 0.4813,0.4003 0.009,0.2039 -0.048,0.4176 -0.0394,0.1592 -0.1305,0.092 -0.096,0.3668 0.1378,0.1354 0.0985,0.025 0.3976,0.3642 0.1329,0.039 0.2167,-0.1094 0.0111,-0.037 0.2388,-0.1156 0.2203,0.03 0.1933,0.075 0.1637,0.1243 0.5428,0.2362 0.1945,0.035 0.0751,-0.1504 0.3521,-0.1392 0.2092,-0.1132 0.0431,-0.072 0.2659,-0.07 0.3077,0.1355 0.1724,0.3183 0.1095,0.1429 0.2979,0.3443 0.1354,0.3593 0.0271,0.3095 0.4321,0.2163 0.1034,0.051 0.0431,0.317 0.1157,0.1491 0.1428,0.1268 0.1772,0.138 0.0862,0.082 0.16,0.133 0.2302,0.047 0.1588,0.09 0.24,0.076 h 0.1871 l 0.2388,0.6365 0.0173,0.2635 0.0332,0.3779 0.0911,0.1741 0.0111,0.179 0.01,0.1106 0.128,0.5134 0.0357,0.2598 -0.1009,0.2474 -0.0554,0.066 -0.1674,0.04 -0.1243,0.1144 -0.0111,0.2088 -0.2573,0.3667 0.009,0.133 0.032,0.1505 0.1428,0.1355 0.1637,0.4562 0.1391,0.2598 0.1231,0.1616 0.2721,0.1728 0.1465,0.1168 0.3015,0.1156 0.2204,-0.1641 h 0.0849 l 0.1305,0.034 h 0.2671 l 0.2647,0.6812 -0.005,0.2014 0.2499,0.1752 0.0653,-0.22 0.0332,-0.029 0.064,0.035 v 0.063 l -0.0702,0.1952 -0.009,0.1305 0.165,0.2611 0.0578,0.1541 0.3545,0.271 0.2118,0.1579 0.1649,0.026 0.08,-0.01 0.037,-0.086 0.0775,-0.031 0.2917,0.041 0.0468,0.049 0.4518,-0.327 0.0209,-0.1728 -0.3299,-0.02 -0.1366,0.099 -0.3041,-0.081 -0.1354,-0.065 -0.0135,-0.1542 0.0468,-0.065 -10e-4,-0.065 -0.0541,-0.08 -0.0604,-0.042 -0.1378,0.024 -0.2105,0.052 -0.0431,-0.1081 0.0185,-0.128 0.1932,-0.071 0.1428,0.058 0.0406,-0.06 0.021,-0.1256 0.2474,0.024 0.0566,0.071 -0.0554,0.1579 0.2302,0.2809 0.096,0.063 h 0.2228 l 0.213,-0.3083 0.1969,0.2437 0.144,0.2212 0.0764,0.092 -0.0948,0.1007 -0.2696,0.3108 -0.1416,0.4152 0.0493,0.1678 0.0714,0.053 0.1649,0.1466 0.2425,0.01 0.1736,0.086 0.1883,0.1491 -0.1046,0.235 -0.1699,0.6862 -0.0209,0.2821 0.0849,0.2437 0.1773,0.1243 0.2326,0.1467 0.0173,0.05 -0.0788,0.1641 -0.1034,0.063 -0.1317,-0.01 -0.053,-0.01 -0.1858,-0.1143 -0.0579,-0.015 -0.1194,0.017 -0.0332,0.057 -0.1539,0.4078 0.1268,0.2523 v 0.035 l 0.0849,0.2287 0.0567,0.1007 0.1046,0.2263 0.2289,0.1355 -0.1415,0.1678 -0.0665,0.1653 0.1662,0.1666 0.1526,0.1355 0.0554,0.075 -0.1858,0.2349 -0.1945,-0.1392 -0.1588,0.123 -0.069,0.056 10e-4,0.095 0.3409,0.2075 0.165,-0.056 0.2979,-0.1193 0.1957,0.5158 0.1736,0.2661 0.1071,0.6339 0.1403,0.1368 0.2745,0.1927 -0.0382,0.128 -0.0332,0.058 -0.0283,0.634 0.0172,0.082 0.1157,0.322 0.2868,0.1467 0.1207,0.053 0.1317,0.1977 0.0652,0.097 0.112,0.3033 0.0714,0.1157 -0.002,0.037 -0.0948,0.1878 -0.1157,0.2212 -0.08,0.1392 -0.3459,0.7161 -0.069,0.2088 -0.004,0.08 -0.027,0.3269 -0.1121,0.1815 -0.2855,0.3083 -0.0776,0.1852 -0.3767,0.9609 -0.1157,0.174 -0.1883,0.1 -0.2733,0.118 -0.0837,0.086 -0.1538,0.3605 -0.0616,0.4115 -0.0345,0.123 -0.1255,0.4053 -0.1576,0.3219 -0.3102,0.1679 -0.3791,0.6227 0.01,0.235 -0.005,0.1877 -0.4247,0.2934 -0.2215,0.042 -0.3201,-0.01 -0.1711,0.016 -0.2166,0.1902 -0.0751,0.1405 -0.0702,0.2001 -0.0283,0.09 -0.6893,-0.01 -0.0948,0.032 -0.2954,0.1828 -0.3767,0.03 -0.1613,0.1032 -0.0689,0.1566 0.004,0.1653 0.0505,0.2437 -0.006,0.057 -0.0148,0.1889 -0.0295,0.1193 -0.1108,0.1741 -0.4517,0.3306 -0.2795,0.1045 -0.3016,0.1976 -0.3816,0.2685 -0.2388,0.2088 -0.853,0.7422 -0.3213,0.445 -0.3397,0.3766 -0.4641,0.3108 -1.0598,0.2573 -0.389,0.1057 -0.5786,0.2635 -0.2142,0.056 h -0.6917 l -0.0382,0.017 -0.1563,0.1454 -0.0837,0.063 -0.3312,0.2324 -0.1612,0.1256 -0.1527,0.1591 -0.3877,0.4985 -0.2093,0.3393 -0.0554,0.4923 -0.01,0.058 -0.032,0.053 -0.006,0.091 0.004,0.04 -0.0148,0.072 -0.1538,0.2337 -0.341,0.3667 -0.0468,0.057 -0.1563,0.1144 -0.9023,0.711 -0.5108,0.4848 -0.3201,0.2822 -0.1735,0.1728 -0.005,0.5221 0.0997,0.1864 0.0394,0.271 -0.0861,0.1753 -0.1133,0.1019 -0.2092,0.2573 -0.0197,0.036 -0.1379,0.1268 -0.1157,0.1168 -0.1231,0.2387 -0.2376,0.3767 -0.1292,0.1765 -0.2499,0.5768 -0.1797,0.1914 -0.1231,0.5743 0.006,0.093 -0.0271,0.1306 -0.2326,0.2685 -0.2228,0.1976 -10e-4,0.1629 0.0603,0.092 0.0147,0.08 h -0.368 l -0.197,0.031 -0.3311,0.1952 0.0726,0.3083 0.0751,0.1641 0.003,0.1342 -0.1502,0.1542 -0.032,0.042 -0.3496,0.2052 -0.0664,0.075 -0.7509,4.0898 -0.005,-0.8553 -1.6113,-1.2232 -0.5502,-0.9944 -2.1172,-2.0772 -2.3696,-1.6496 -1.6643,-1.3922 -0.8284,-0.2636 -1.5584,-1.197 -2.8509,-2.439 1.2507,-1.3176 0.469,-0.8192 -1.9141,-2.1518 -2.8829,2.0125 -1.4686,1.048 0.4493,-3.416 h -0.3656 l -0.0467,-0.052 0.0246,-0.024 0.4973,-0.3033 0.0812,-0.072 0.0579,-0.05 1.7984,-1.5974 -0.2142,-0.4612 -2.3166,2.2065 -0.0406,0.3008 -0.1761,1.3463 -0.3311,2.5421 -6.396,4.5621 -12.782,-16.907 2.5604,3.1599 1.9264,-1.4557 3.6424,4.817 2.0951,-1.5837 4.9398,6.5361 2.7241,-2.0585 -7.7021,-10.186 -2.1271,-0.1492 0.0234,-0.071 2.4607,-1.3089 4.0227,-2.2836 2.5863,-1.974 z" transform="translate(-1408.5 -3478.7) scale(3.0564)" id="path4">
        <title id="title2">
          小港區 Xiaogang District
        </title>
      </path>
      <path d="m 520.32,1626 1.4033,3.0057 0.634,1.6782 0.2609,1.841 -0.0652,3.2544 -3.848,-1.8858 -2.2723,-1.2716 -0.9405,-1.6931 0.9983,-1.9529 2.4386,-3.8573 0.9687,-0.8552 z" transform="translate(-1408.5 -3478.7) scale(3.0564)" id="path8">
        <title id="title6">
          鹽埕區 Yancheng District
        </title>
      </path>
      <path d="m 536.94,1624.6 -0.0283,0.4836 0.6438,1.8646 -2.4693,-0.2163 0.4751,1.8037 -1.7824,0.7086 0.6413,1.7664 -5.3891,1.9131 -0.6499,-1.9256 0.3311,-2.4501 -1.8366,0.6377 -0.3015,-0.8776 1.2961,-0.4674 -1.5276,-4.316 1.3172,-0.4723 3.9255,0.2958 1.3675,-0.2449 2.3955,0.1529 z" transform="translate(-1408.5 -3478.7) scale(3.0564)" id="path12">
        <title id="title10">
          新興區 Xinxing District
        </title>
      </path>
      <path d="m 529.03,1632.9 -3.2164,1.1038 -0.6611,-1.7726 -0.6979,0.2486 -1.8403,0.029 -0.2609,-1.841 -0.634,-1.6782 -1.4033,-3.0057 1.3282,-0.8553 4.6973,-1.6272 1.5276,4.316 -1.2961,0.4674 0.3015,0.8776 1.8366,-0.6377 -0.3311,2.4501 z" transform="translate(-1408.5 -3478.7) scale(3.0564)" id="path16">
        <title id="title14">
          前金區 Qianjin District
        </title>
      </path>
      <path d="m 542.4,1637.4 3.0663,-0.1541 0.0775,1.5762 2.0828,0.057 0.4296,-0.1666 0.4591,2.7174 -4.2985,3.0145 -0.3225,-0.4475 -3.7285,2.6639 -0.3484,2.5918 -0.7939,0.3282 1.258,1.3674 0.3582,0.9658 -0.293,0.6738 0.4247,0.7346 1.3147,-0.3953 0.8198,0.051 1.0487,-0.6116 0.6795,0.4239 1.6569,-0.2586 0.1932,-0.5158 -0.2535,-1.3637 0.5317,-0.5569 1.0796,0.9622 0.7102,1.1809 0.4186,1.381 0.0209,0.2462 0.0222,0.491 -0.004,0.9186 -0.1022,0.5569 -0.1428,0.358 -0.2683,0.8254 -0.1219,0.4202 -0.1453,0.5121 -0.0787,0.4625 -0.0924,0.4922 -0.0394,0.1815 -0.096,0.3008 -0.0898,0.2163 -0.0431,0.063 -0.0849,0.057 -0.4493,0.053 -0.5798,0.091 -0.293,0.041 -0.1908,0.034 -0.2757,0.072 -0.1527,0.06 -0.3299,0.1305 -0.368,0.23 -0.6623,0.4152 0.4235,0.6178 -0.2696,0.2784 -0.3139,0.2337 -0.2105,0.1417 -0.1157,0.082 -0.4234,0.256 -0.357,0.1865 -0.0997,0.04 -1.1473,0.1355 -0.2523,0.1293 -0.4702,0.4475 -0.4776,0.4388 -0.3299,1.1187 -0.3853,0.1654 -0.4998,0.2921 -0.8124,0.6203 -1.1337,0.854 -0.1022,0.261 -0.3065,0.7608 -0.7915,-0.2996 -0.2486,-0.3095 -0.3939,-0.4811 -0.5564,-0.6874 -0.1908,-0.2337 -0.7805,-0.9572 -0.3828,-0.4624 -0.1834,-0.2213 -0.858,-1.0578 -0.8136,-0.9609 -0.8851,-0.951 -0.3397,-0.358 -0.101,-0.1541 -0.1994,-0.327 -0.1095,-0.1777 -0.2191,-0.3754 -0.0653,-0.1069 -0.2769,-0.4699 -0.3275,-0.5482 -0.4345,-0.634 -0.2979,-0.4251 -0.0763,-0.083 -0.4284,-0.4836 -0.1403,-0.1603 -0.4788,-0.542 -0.4026,-0.4836 -0.6204,-0.7632 -0.0627,-0.083 -0.3139,-0.4823 -0.3065,-0.4562 -1.3578,-2.2152 -0.2252,-0.3779 -0.2475,-0.4376 -0.3902,-0.6725 -0.4,-0.6849 -0.7398,-1.2928 -1.2088,-2.1108 -0.5897,-1.0379 -0.24,-0.414 -0.245,-0.4288 -0.2855,-0.501 -0.9602,-1.6744 -0.1908,-0.322 -0.2105,-0.3891 -0.3926,-0.7856 -0.117,-0.2175 -0.3742,-0.5843 -0.2745,-0.3642 -0.2745,-0.3195 -0.1514,-0.1653 -0.2253,-0.235 -0.9872,-0.9248 1.988,-1.8746 0.9552,0.5395 3.1377,1.4084 3.779,1.9318 0.405,-1.0057 0.6044,-0.3058 3.9784,-1.4233 0.048,-0.9435 6.7764,-2.4103 0.2511,1.6868 2.3832,-0.1131 0.5773,0.6787 0.8493,-0.2759 -0.0849,1.7353 z" transform="translate(-1408.5 -3478.7) scale(3.0564)" id="path20">
        <title id="title18">
          前鎮區 Qianzhen District
        </title>
      </path>
      <path d="m 544.98,1554.4 0.3409,1.1685 0.6057,0.6079 0.8148,-0.2237 0.2302,1.7639 0.7017,0.2088 -0.2487,1.8796 1.3282,0.3791 0.3311,0.5059 1.0784,0.2934 -1.9166,2.1679 0.1489,0.6887 1.4587,0.2834 -0.3484,1.6695 -0.5317,1.0976 0.8518,1.0256 0.1341,0.9435 -2.2157,1.5302 -0.4456,0.02 -0.6339,1.1374 -0.1502,1.0131 1.9006,1.5663 -1.6593,-0.7459 -1.3331,0.5383 0.5477,0.8987 -1.6162,1.1051 -0.7497,-0.6849 -2.2711,0.7633 0.6795,0.6476 1.1313,1.575 0.8703,1.7403 -0.3016,1.0454 -1.3812,-0.2809 -0.3225,0.8229 0.7349,1.1499 1.0746,0.6911 -0.2991,0.7111 -2.7561,-0.9386 -1.354,2.4166 -1.9868,1.8174 -1.3257,1.3798 -1.6052,-2.0349 -2.0901,2.4128 -2.137,-1.3438 -0.8025,-0.844 -0.0234,-1.0616 -2.5838,0.025 -0.7669,-2.0038 -0.8013,-0.6837 2.7228,-0.9348 0.004,-0.4885 -1.6359,-1.0194 -2.1468,2.1294 -0.1772,0.4127 -5.6082,0.094 h -5.8384 l -1.2236,-0.3294 -0.3348,-0.8478 -1.1042,0.3853 -0.3496,1.5154 -0.6905,0.5109 -0.65,1.2754 -0.1575,1.0939 0.2129,1.1163 -2.8866,1.7863 0.007,-1.1238 1.0832,-0.5345 0.517,0.128 0.6685,-1.1374 -0.3484,-1.8795 -1.5461,-4.2899 -0.986,-2.0983 0.2499,-0.6949 -0.5379,-2.1368 0.009,-0.7235 1.892,-2.6515 1.1928,-1.3935 0.8136,-1.3438 1.3848,-1.1995 0.5121,0.092 1.2433,-1.0876 0.8863,0.6973 2.3277,-0.7235 -0.1403,-1.1063 0.6893,-0.1342 0.7287,-2.3532 4.0338,1.2841 0.3693,-1.1225 2.1837,0.5619 0.8002,-0.2909 0.8345,0.537 -0.2597,0.6203 0.5835,0.8714 0.8555,0.578 0.469,1.2506 -0.3619,0.6787 0.6684,0.6141 0.453,-0.8826 1.0364,-1.2593 0.4013,0.2698 0.0603,1.1113 0.8051,0.3729 1.0032,-0.7085 1.0106,0.5967 1.2901,-0.3344 1.3392,0.021 0.613,-0.5121 -0.0455,-0.6154 -0.6943,-0.7421 -0.009,-0.7172 -0.9564,-1.1064 2.4237,0.4003 1.5042,-0.8441 0.9171,0.8876 1.5965,0.491 1.599,0.1467 0.7226,-0.9373 0.7349,0.048 -1.4661,-2.1132 1.5215,-1.2307 -1.4402,-1.5663 1.8882,-2.1977 -0.7324,-0.813 0.4444,-1.6111 -0.6549,-0.7371 0.0887,-1.3798 0.9712,-0.017 0.2745,0.6501 z" transform="translate(-1408.5 -3478.7) scale(3.0564)" id="path24">
        <title id="title22">
          楠梓區 Nanzi District
        </title>
      </path>
      <path d="m 569.9,1622.7 0.4038,1.0305 1.8242,3.4956 0.9713,0.7396 1.2555,-0.4848 0.7694,1.9802 -1.6249,0.8267 -1.7467,0.481 -0.4358,0.6278 -1.1214,0.05 -0.0246,1.6508 0.6869,0.8714 0.0455,0.675 -0.6474,1.2854 -0.9848,4.444 -1.1485,0.583 -0.9084,-0.1666 -0.9996,2.4352 0.357,1.4892 -0.1292,1.0579 -1.716,2.4787 0.9799,1.6023 -0.6278,1.166 0.0566,0.3406 0.245,0.016 0.2117,0.1317 0.0603,0.066 0.0468,0.093 -0.053,0.1131 -0.1932,0.2337 -0.0443,0.097 -0.2708,0.1306 -0.2315,0.031 h -0.1698 l -0.2154,-0.057 -0.1564,0.02 -0.1895,-0.01 -0.0961,0.01 -0.1649,0.05 -0.3754,0.1368 -0.2733,0.024 -0.2216,-0.011 -0.3126,-0.024 -0.1182,0.096 -0.1514,0.2113 -0.2117,0.03 -0.1564,0.3169 -0.0677,0.1455 -0.3336,0.082 -0.8481,0.08 -1.7652,-0.034 -0.5958,-0.027 -1.0426,0.024 -0.192,-0.01 -0.97,-0.2063 -0.6019,-0.06 -1.3319,0.22 -0.2253,0.1218 -0.2129,0.062 -0.4173,0.042 -0.3127,0.072 -0.208,0.1118 -0.0813,0.01 -0.3594,0.1082 -0.2708,0.032 -0.6266,0.024 -0.5933,0.2089 -0.1982,0.062 -0.4776,-0.012 -0.1674,-0.047 -0.336,-0.1554 -0.4973,-0.3493 -0.3041,-0.027 h -0.0898 l -0.4186,-1.381 -0.7102,-1.1809 -1.0796,-0.9622 -0.5317,0.5569 0.2535,1.3637 -0.1932,0.5158 -1.6569,0.2586 -0.6795,-0.4239 -1.0487,0.6116 -0.8198,-0.051 -1.3147,0.3953 -0.4247,-0.7346 0.293,-0.6738 -0.3582,-0.9658 -1.258,-1.3674 0.7939,-0.3282 0.3484,-2.5918 3.7285,-2.6639 0.3225,0.4475 4.2985,-3.0145 -0.4591,-2.7174 -0.4296,0.1666 -2.0828,-0.057 -0.0775,-1.5762 -3.0663,0.1541 0.24,-1.0454 -0.3299,-1.3947 0.6032,-0.6415 3.582,-0.4524 0.1847,1.3835 1.2358,-0.1243 1.892,-1.5762 -1.3319,-0.9125 0.7866,-1.1274 0.1994,-0.9659 2.5739,-0.4115 0.4358,-0.9422 -1.3245,-0.8689 -1.7307,-0.6091 1.743,-1.0678 0.2302,-1.2245 0.6278,-0.4264 0.1686,-1.749 0.4764,-0.3903 2.3191,-0.7819 -0.2708,-0.5196 -2.0175,-1.1499 1.4106,-2.864 -0.6708,-0.3916 1.5399,-0.3045 0.6425,0.6924 0.7805,-0.4028 1.1054,0.8192 1.4069,2.0809 0.4641,0.053 0.4641,-3.0419 1.5165,0.6365 0.2203,0.4202 1.3664,0.8937 0.2105,-0.6725 1.0143,-0.012 1.0512,-0.6824 -0.2425,-0.8342 1.21,-0.1292 0.6709,0.9385 1.3319,-0.4811 0.7312,1.7664 -0.4813,0.3754 z" transform="translate(-1408.5 -3478.7) scale(3.0564)" id="path28">
        <title id="title26">
          鳳山區 Fengshan District
        </title>
      </path>
      <path d="m 600.91,1628 -0.8556,2.4439 -0.1489,2.1865 0.1182,1.892 0.4924,2.4352 1.5719,3.5738 0.7902,0.8615 2.0028,1.432 1.13,1.5178 0.5084,1.1163 0.4444,2.5272 0.2252,4.1892 -0.7902,4.6939 -0.4161,3.4545 -0.4259,2.5744 -0.3656,0.9696 -0.4124,2.8106 -0.3865,1.309 -0.6881,1.4208 -0.9293,1.5079 -0.8666,2.3606 -0.4727,1.9715 -1.9055,0.9733 -0.9663,0.6899 -0.3299,0.6937 -0.8186,2.8441 -0.9306,2.5036 -4.8044,0.1467 -0.9798,0.5519 -0.9343,-0.2436 -0.7645,0.5382 -2.1455,-0.1926 -1.5559,-0.4376 -1.8748,-0.1504 0.007,-0.956 -1.8292,-1.1535 -0.7595,0.1491 -0.8555,-0.4139 -1.5879,0.7719 -0.7964,-0.5059 0.002,-0.1566 -0.01,-0.235 0.3791,-0.6227 0.3102,-0.1679 0.1576,-0.3219 0.1255,-0.4053 0.0345,-0.123 0.0616,-0.4115 0.1538,-0.3605 0.0837,-0.086 0.2733,-0.118 0.1883,-0.1 0.1157,-0.174 0.3767,-0.9609 0.0776,-0.1852 0.2855,-0.3083 0.1121,-0.1815 0.027,-0.3269 0.004,-0.08 0.069,-0.2088 0.3459,-0.7161 0.08,-0.1392 0.1157,-0.2212 0.0948,-0.1878 0.002,-0.037 -0.0714,-0.1157 -0.112,-0.3033 -0.0652,-0.097 -0.1317,-0.1977 -0.1207,-0.053 -0.2868,-0.1467 -0.1157,-0.322 -0.0172,-0.082 0.0283,-0.634 0.0332,-0.058 0.0382,-0.128 -0.2745,-0.1927 -0.1403,-0.1368 -0.1071,-0.6339 -0.1736,-0.2661 -0.1957,-0.5158 -0.2979,0.1193 -0.165,0.056 -0.3409,-0.2075 -10e-4,-0.095 0.069,-0.056 0.1588,-0.123 0.1945,0.1392 0.1858,-0.2349 -0.0554,-0.075 -0.1526,-0.1355 -0.1662,-0.1666 0.0665,-0.1653 0.1415,-0.1678 -0.2289,-0.1355 -0.1046,-0.2263 -0.0567,-0.1007 -0.0849,-0.2287 v -0.035 l -0.1268,-0.2523 0.1539,-0.4078 0.0332,-0.057 0.1194,-0.017 0.0579,0.015 0.1858,0.1143 0.053,0.01 0.1317,0.01 0.1034,-0.063 0.0788,-0.1641 -0.0173,-0.05 -0.2326,-0.1467 -0.1773,-0.1243 -0.0849,-0.2437 0.0209,-0.2821 0.1699,-0.6862 0.1046,-0.235 -0.1883,-0.1491 -0.1736,-0.086 -0.2425,-0.01 -0.1649,-0.1466 -0.0714,-0.053 -0.0493,-0.1678 0.1416,-0.4152 0.2696,-0.3108 0.0948,-0.1007 -0.0764,-0.092 -0.144,-0.2212 -0.1969,-0.2437 -0.213,0.3083 h -0.2228 l -0.096,-0.063 -0.2302,-0.2809 0.0554,-0.1579 -0.0566,-0.071 -0.2474,-0.024 -0.021,0.1256 -0.0406,0.06 -0.1428,-0.058 -0.1932,0.071 -0.0185,0.128 0.0431,0.1081 0.2105,-0.052 0.1378,-0.024 0.0604,0.042 0.0541,0.08 10e-4,0.065 -0.0468,0.065 0.0135,0.1542 0.1354,0.065 0.3041,0.081 0.1366,-0.099 0.3299,0.02 -0.0209,0.1728 -0.4518,0.327 -0.0468,-0.049 -0.2917,-0.041 -0.0775,0.031 -0.037,0.086 -0.08,0.01 -0.1649,-0.026 -0.2118,-0.1579 -0.3545,-0.271 -0.0578,-0.1541 -0.165,-0.2611 0.009,-0.1305 0.0702,-0.1952 v -0.063 l -0.064,-0.035 -0.0332,0.029 -0.0653,0.22 -0.2499,-0.1752 0.005,-0.2014 -0.2647,-0.6812 h -0.2671 l -0.1305,-0.034 h -0.0849 l -0.2204,0.1641 -0.3015,-0.1156 -0.1465,-0.1168 -0.2721,-0.1728 -0.1231,-0.1616 -0.1391,-0.2598 -0.1637,-0.4562 -0.1428,-0.1355 -0.032,-0.1505 -0.009,-0.133 0.2573,-0.3667 0.0111,-0.2088 0.1243,-0.1144 0.1674,-0.04 0.0554,-0.066 0.1009,-0.2474 -0.0357,-0.2598 -0.128,-0.5134 -0.01,-0.1106 -0.0111,-0.179 -0.0911,-0.1741 -0.0332,-0.3779 -0.0173,-0.2635 -0.2388,-0.6365 h -0.1871 l -0.24,-0.076 -0.1588,-0.09 -0.2302,-0.047 -0.16,-0.133 -0.0862,-0.082 -0.1772,-0.138 -0.1428,-0.1268 -0.1157,-0.1491 -0.0431,-0.317 -0.1034,-0.051 -0.4321,-0.2163 -0.0271,-0.3095 -0.1354,-0.3593 -0.2979,-0.3443 -0.1095,-0.1429 -0.1724,-0.3183 -0.3077,-0.1355 -0.2659,0.07 -0.0431,0.072 -0.2092,0.1132 -0.3521,0.1392 -0.0751,0.1504 -0.1945,-0.035 -0.5428,-0.2362 -0.1637,-0.1243 -0.1933,-0.075 -0.2203,-0.03 -0.2388,0.1156 -0.0111,0.037 -0.2167,0.1094 -0.1329,-0.039 -0.3976,-0.3642 -0.0985,-0.025 -0.1378,-0.1354 0.096,-0.3668 0.1305,-0.092 0.0394,-0.1592 0.048,-0.4176 -0.009,-0.2039 -0.4813,-0.4003 -0.1034,-0.1516 -0.1945,-0.2126 -0.2523,-0.027 -0.4271,-0.235 -0.1182,-0.055 0.1563,-0.3344 -0.1231,-0.048 -0.1231,-0.065 -0.1206,-0.047 -0.005,0.02 -0.0468,-0.093 -0.0603,-0.066 -0.2117,-0.1317 -0.245,-0.016 -0.0566,-0.3406 0.6278,-1.166 -0.9799,-1.6023 1.716,-2.4787 0.1292,-1.0579 -0.357,-1.4892 0.9996,-2.4352 0.9084,0.1666 1.1485,-0.583 0.9848,-4.444 0.6474,-1.2854 -0.0455,-0.675 -0.6869,-0.8714 0.0246,-1.6508 1.1214,-0.05 0.4358,-0.6278 1.7467,-0.481 1.6249,-0.8267 -0.7694,-1.9802 -1.2555,0.4848 -0.9713,-0.7396 -1.8242,-3.4956 -0.4038,-1.0305 0.1859,-0.5097 1.7122,-0.4201 1.7234,-1.5253 2.0495,-0.1367 0.9921,-0.7807 1.2261,0.2375 0.2991,-0.3357 1.4747,-0.4711 1.4562,0.039 1.6335,0.8677 1.8058,-0.1168 1.1681,-0.4376 1.8588,0.4736 3.0306,0.1007 1.4328,-1.2269 0.9724,-0.071 2.1136,-1.4171 0.885,-0.844 2.2133,-0.1331 3.2423,-1.2903 0.0616,2.0524 -0.4826,4.5869 0.0123,3.7715 0.2819,1.3985 z" transform="translate(-1408.5 -3478.7) scale(3.0564)" id="path32">
        <title id="title30">
          大寮區 Daliao District
        </title>
      </path>
      <path d="m 611.47,1545 -0.3016,1.6247 0.3434,2.7932 -0.352,1.5551 0.1268,2.097 -0.1748,0.7683 0.2511,1.7527 0.0394,2.8032 0.1723,0.6227 0.1502,4.674 0.5711,5.267 -0.0135,4.4191 -0.1526,2.6055 -0.4863,2.5943 -1.0143,4.3297 -0.1354,1.4643 -0.8124,2.3134 -0.0997,1.2219 -1.2371,3.9406 -0.4161,1.0168 -0.2929,0.6551 -1.4981,1.0828 -1.1509,1.0864 -1.6151,3.4931 0.2659,2.2935 -0.0935,0.9049 -1.1583,3.4707 -0.6771,1.1884 -0.3188,2.1368 -0.0972,2.1245 0.0812,3.4905 -3.2423,1.2903 -2.2133,0.1331 -0.885,0.844 -2.1136,1.4171 -0.9724,0.071 -1.4328,1.2269 -3.0306,-0.1007 -1.8588,-0.4736 -1.1681,0.4376 -1.8058,0.1168 0.2769,-0.5109 -0.9798,-0.8279 0.8924,-1.0864 -0.3065,-1.3736 -0.7299,-0.4674 -0.1022,-1.0616 1.0648,-1.8497 0.032,-1.5265 0.4148,-1.2232 0.1379,-3.5615 -1.0808,-1.1262 -1.2482,-2.0076 0.0751,-1.0305 -0.725,-1.2058 0.0689,-0.7806 -0.8801,-1.1586 0.6154,-0.7607 0.009,-0.7123 -1.2125,-0.6924 -0.3656,-0.8093 -0.7632,0.057 -0.3201,-0.6588 -1.0524,-0.3071 0.0726,-1.0528 1.0045,-1.2456 0.8739,-1.5041 -0.4874,-1.6073 1.6064,-1.7018 0.8136,-1.6844 -0.4517,-1.074 -1.1953,-0.68 0.4333,-0.7918 1.8231,-1.8945 0.112,-1.4208 0.7718,-0.5656 -0.1305,-1.9119 1.4722,-3.4097 0.6401,-2.3246 -1.7381,-0.8192 0.4161,-0.726 -0.2758,-0.7247 0.7164,-2.6564 -0.9933,-1.3699 -0.8063,0.4699 -0.533,-0.2909 0.6069,-0.593 0.8764,-1.5265 0.5182,0.5358 2.4361,-0.5258 0.3225,-0.716 1.082,-1.1424 0.5059,-0.075 0.8641,-1.0417 -0.1108,-0.9348 0.7386,-0.8963 -0.6684,-0.8701 0.4272,-0.6961 0.2523,-1.483 -0.1994,-1.0741 0.2757,-2.1592 0.5441,-0.5407 1.5916,-2.5073 0.8149,-0.629 0.0456,-0.8167 -0.5897,-0.4177 0.0973,-1.7503 0.6708,-0.6227 0.4826,-1.089 0.224,-1.2331 0.9688,0.3481 0.7853,-0.506 1.2026,0.027 0.8974,-0.629 0.2462,-0.7658 1.0512,-0.307 1.375,2.1132 0.6696,-0.058 3.3913,0.7993 1.8415,-0.2424 1.0832,0.4637 1.2962,0.065 0.5441,-0.2747 1.8895,0.1392 z" transform="translate(-1408.5 -3478.7) scale(3.0564)" id="path36">
        <title id="title34">
          大樹區 Dashu District
        </title>
      </path>
      <path d="m 588.55,1552.8 -0.2757,2.1592 0.1994,1.0741 -0.2523,1.483 -0.4272,0.6961 0.6684,0.8701 -0.7386,0.8963 0.1108,0.9348 -0.8641,1.0417 -0.5059,0.075 -1.082,1.1424 -0.3225,0.716 -2.4361,0.5258 -0.5182,-0.5358 -0.8764,1.5265 -0.6069,0.593 -0.8457,0.2474 -1.5719,-0.542 0.3976,-0.7894 -0.272,-1.2977 -0.9651,-0.4898 -0.1773,-0.9535 -1.3257,-0.016 -0.7226,1.0715 -0.6634,0.1293 -0.1748,1.1063 -1.551,0.8491 -0.9983,0.2386 -1.3898,1.7279 -0.2388,0.716 0.3496,1.662 -1.0229,0.2424 -0.698,0.8118 -1.3097,0.45 0.4345,2.8789 -0.2437,1.0405 -0.7004,1.4283 0.16,1.0255 -0.4702,0.5358 -0.9491,0.1442 0.1724,0.6887 -0.9368,0.9497 -0.8112,-0.026 -0.4394,0.931 -0.9146,0.2387 -0.4272,-0.9286 -1.7307,-2.0361 -2.2563,-1.1822 -1.4932,-0.1293 -1.0967,-0.6675 -1.199,0.7831 -0.9392,-0.021 -0.6413,-0.3866 -2.4976,0.4649 -1.3036,-0.716 -0.4641,-2.076 -0.2757,-0.027 -1.9006,-1.5663 0.1502,-1.0131 0.6339,-1.1374 0.4456,-0.02 2.2157,-1.5302 -0.1341,-0.9435 -0.8518,-1.0256 0.5317,-1.0976 0.3484,-1.6695 -1.4587,-0.2834 -0.1489,-0.6887 1.9166,-2.1679 -1.0784,-0.2934 -0.3311,-0.5059 -1.3282,-0.3791 0.2487,-1.8796 0.5908,-0.071 1.0402,1.0081 1.0968,-1.2829 -0.341,-1.734 0.5588,-0.7185 1.0094,0.5332 0.4444,-0.271 -0.5047,-0.9621 0.6622,-0.4065 0.5478,0.4972 0.6167,1.1872 0.8765,0.7508 1.7824,-0.5308 1.583,-0.1753 1.4217,0.6017 2.3327,0.2399 2.7709,-0.051 0.7188,0.9883 1.0488,-1.2754 0.1096,-0.8515 0.9983,0.083 0.6708,1.1573 0.421,-0.088 0.192,-1.9951 0.6549,-0.4637 1.423,-0.1454 0.9503,-0.3456 0.2462,-1.2108 0.9281,-0.2635 0.6684,-0.7434 0.1009,-1.3599 0.7817,-0.368 1.0106,0.1567 0.5576,0.5507 1.0131,-0.3282 0.677,-1.1362 1.2987,1.6794 1.4279,0.1989 0.3102,0.6626 1.2408,-0.7459 -0.048,-1.0342 1.4931,-1.4805 1.1189,0.1653 0.8248,-0.3381 1.3331,1.9354 -0.2043,0.9435 0.9736,0.039 0.49,1.478 z" transform="translate(-1408.5 -3478.7) scale(3.0564)" id="path40">
        <title id="title38">
          大社區 Dashe District
        </title>
      </path>
      <path d="m 580.62,1566 0.533,0.2909 0.8063,-0.4699 0.9933,1.3699 -0.7164,2.6564 0.2758,0.7247 -0.4161,0.726 1.7381,0.8192 -0.6401,2.3246 -1.4722,3.4097 0.1305,1.9119 -0.7718,0.5656 -0.112,1.4208 -1.8231,1.8945 -0.4333,0.7918 1.1953,0.68 0.4517,1.074 -0.8136,1.6844 -1.6064,1.7018 -1.4981,-1.0815 -1.7799,2.0287 -2.8189,2.2487 -1.0254,0.1131 0.0763,1.5601 -2.4939,1.3823 -0.581,1.2742 -1.1214,0.9534 -0.8543,1.4457 -0.9724,0.9497 h -0.5823 l -0.2117,1.125 -0.7927,1.3388 -1.4218,1.1785 -1.3749,0.435 -0.3422,-0.4413 -1.295,0.2226 -0.4136,-1.1723 -1.082,-1.0901 -0.7349,0.073 -1.0574,1.0852 -1.3823,0.6315 -1.3368,-0.1392 -2.3573,-1.5154 -1.1608,0.4314 -0.9552,-0.8055 -0.4148,0.2685 -2.4275,0.44 -1.2149,-0.1218 -1.183,0.4699 -0.6154,-0.5693 -0.3078,-1.7043 0.8654,-0.271 -0.6832,-2.1841 -0.2265,-0.4375 -1.503,0.1056 -0.7324,-0.7769 1.1953,-1.2592 -0.7078,-2.3905 -0.9429,-1.3288 -0.4346,0.1578 -2.2329,-2.0995 0.3176,-0.3966 -1.0217,-0.9795 1.3257,-1.3798 1.9868,-1.8174 1.354,-2.4166 2.7561,0.9386 0.2991,-0.7111 -1.0746,-0.6911 -0.7349,-1.1499 0.3225,-0.8229 1.3812,0.2809 0.3016,-1.0454 -0.8703,-1.7403 -1.1313,-1.575 -0.6795,-0.6476 2.2711,-0.7633 0.7497,0.6849 1.6162,-1.1051 -0.5477,-0.8987 1.3331,-0.5383 1.6593,0.7459 0.2757,0.027 0.4641,2.076 1.3036,0.716 2.4976,-0.4649 0.6413,0.3866 0.9392,0.021 1.199,-0.7831 1.0967,0.6675 1.4932,0.1293 2.2563,1.1822 1.7307,2.0361 0.4272,0.9286 0.9146,-0.2387 0.4394,-0.931 0.8112,0.026 0.9368,-0.9497 -0.1724,-0.6887 0.9491,-0.1442 0.4702,-0.5358 -0.16,-1.0255 0.7004,-1.4283 0.2437,-1.0405 -0.4345,-2.8789 1.3097,-0.45 0.698,-0.8118 1.0229,-0.2424 -0.3496,-1.662 0.2388,-0.716 1.3898,-1.7279 0.9983,-0.2386 1.551,-0.8491 0.1748,-1.1063 0.6634,-0.1293 0.7226,-1.0715 1.3257,0.016 0.1773,0.9535 0.9651,0.4898 0.272,1.2977 -0.3976,0.7894 1.5719,0.542 z" transform="translate(-1408.5 -3478.7) scale(3.0564)" id="path44">
        <title id="title42">
          仁武區 Renwu District
        </title>
      </path>
      <path d="m 577.94,1589.6 0.4874,1.6073 -0.8739,1.5041 -1.0045,1.2456 -0.0726,1.0528 1.0524,0.3071 0.3201,0.6588 0.7632,-0.057 0.3656,0.8093 1.2125,0.6924 -0.009,0.7123 -0.6154,0.7607 0.8801,1.1586 -0.0689,0.7806 0.725,1.2058 -0.0751,1.0305 1.2482,2.0076 1.0808,1.1262 -0.1379,3.5615 -0.4148,1.2232 -0.032,1.5265 -1.0648,1.8497 0.1022,1.0616 0.7299,0.4674 0.3065,1.3736 -0.8924,1.0864 0.9798,0.8279 -0.2769,0.5109 -1.6335,-0.8677 -1.4562,-0.039 -1.4747,0.4711 -0.2991,0.3357 -1.2261,-0.2375 -0.9921,0.7807 -2.0495,0.1367 -1.7234,1.5253 -1.7122,0.4201 -0.1859,0.5097 -1.4685,-3.5279 0.4813,-0.3754 -0.7312,-1.7664 -1.3319,0.4811 -0.6709,-0.9385 -1.21,0.1292 0.2425,0.8342 -1.0512,0.6824 -1.0143,0.012 -0.2105,0.6725 -1.3664,-0.8937 -0.2203,-0.4202 -1.5165,-0.6365 -0.4641,3.0419 -0.4641,-0.053 -1.4069,-2.0809 -1.1054,-0.8192 -0.7805,0.4028 -0.6425,-0.6924 -1.5399,0.3045 -0.938,0.6427 -4.6001,-3.6982 0.2721,-0.3779 -1.3627,-1.0665 -0.9195,-1.3861 -0.8937,-0.6476 -0.4321,-0.9634 0.9491,-0.2648 1.4168,0.5892 0.7743,-0.2274 -0.7373,-0.8702 -0.8248,-2.7584 3.1636,-2.7919 0.0258,-0.6278 1.1608,-0.4314 2.3573,1.5154 1.3368,0.1392 1.3823,-0.6315 1.0574,-1.0852 0.7349,-0.073 1.082,1.0901 0.4136,1.1723 1.295,-0.2226 0.3422,0.4413 1.3749,-0.435 1.4218,-1.1785 0.7927,-1.3388 0.2117,-1.125 h 0.5823 l 0.9724,-0.9497 0.8543,-1.4457 1.1214,-0.9534 0.581,-1.2742 2.4939,-1.3823 -0.0763,-1.5601 1.0254,-0.1131 2.8189,-2.2487 1.7799,-2.0287 z" transform="translate(-1408.5 -3478.7) scale(3.0564)" id="path48">
        <title id="title46">
          鳥松區 Niaosong District
        </title>
      </path>
      <path d="m 555.81,1513.6 -1.0488,0.3257 -0.2905,0.6016 -0.7927,0.3158 0.8727,2.685 0.6463,0.496 -0.1502,0.9286 0.4838,0.3854 -0.2315,0.8888 -1.2457,1.4245 -0.9429,-0.1641 -0.5428,-0.4835 -0.7189,0.6986 0.4271,1.6782 -0.741,0.019 -1.1251,-0.8565 -1.0008,0.6676 -0.5465,-0.3668 -1.9449,1.0132 -0.7447,1.0765 -0.8383,0.711 -1.1251,-0.1802 -0.4985,0.491 -0.7054,2.0958 -1.1078,-1.7092 0.4136,-0.7285 -1.0746,-0.1976 0.0504,1.4805 -1.1017,1.2605 -0.6093,-0.4699 -0.6044,0.3866 -0.0566,1.2381 -0.4998,1.35 -0.9478,0.7172 -1.0648,-0.1939 -0.8112,1.9144 0.9158,2.3979 0.8433,-0.1641 -0.2192,1.1672 0.1133,2.3942 0.2942,0.8552 -0.7361,0.2238 -0.4001,1.0193 0.7374,0.5694 0.4985,1.0777 -1.1546,0.7595 -0.2191,1.8199 -0.6623,0.052 -1.4279,-1.529 -0.8777,-0.5755 -1.6334,0.9186 -0.7571,-0.7496 -0.4727,-1.3785 -2.0507,-0.7658 -0.8715,1.0156 -1.4169,-0.01 -0.3102,1.6458 -0.4665,1.3413 -0.5355,-0.9696 -0.8998,-0.2188 -1.066,1.4669 -0.8776,0.09 -0.8826,-0.6564 -0.9122,0.5868 0.1096,0.8714 -1.3811,-0.1877 -0.0751,1.1585 -0.9602,0.7111 -0.6684,-0.6017 -1.4045,-0.6936 -1.1066,0.5469 -0.0591,-0.8813 -0.677,-0.6775 -0.89,-0.075 -1.178,-0.4972 -0.2696,1.79 -1.0685,0.068 -0.4308,-1.8559 -1.2839,0.9733 -0.5305,-0.6949 -2.2453,0.011 -0.1711,-1.3487 1.9658,-1.8348 -1.4082,-1.8758 -2.3314,0.037 -0.0751,-2.8044 -0.5748,-1.662 -0.3275,-0.225 -0.4985,-1.4619 0.0603,-0.8092 1.0094,-0.2325 0.112,-1.3612 1.0549,-0.266 0.0247,-0.8204 0.7447,-0.086 1.972,-0.8204 -0.2881,-1.4457 0.5404,-0.4798 -0.3262,-1.1412 0.7767,-0.215 -0.9515,-1.5688 -0.2129,-1.0703 -0.8679,-1.1586 -2.1886,1.5017 -0.4505,-0.4861 -0.1526,-1.5464 0.7373,-0.7446 0.7263,-1.5451 -0.7152,-1.9056 -1.05,-0.5085 0.0369,-1.698 1.2186,-1.5738 -0.4037,-0.7073 1.8119,0.593 3.203,0.4537 2.0323,0.4189 -0.4899,1.3115 1.8218,-0.1368 1.551,1.2866 0.7976,0.9709 2.3204,-0.067 0.7681,-0.9261 1.6187,-0.1988 0.437,-2.8467 0.448,-0.3431 1.087,0.1467 0.5945,-0.6004 0.9023,-0.2374 0.6758,-0.6638 1.631,-0.5905 0.5872,-0.8204 -1.1682,-1.7975 -0.778,-0.5097 0.4469,-2.2288 0.5317,-0.2735 0.3669,-1.355 0.2092,-0.2784 1.4008,0.1616 1.4501,0.5718 0.5859,1.0168 1.2925,0.022 1.2125,0.9398 1.1116,0.5382 0.6044,-1.3947 1.8279,0.092 0.6118,0.3518 2.2846,-0.04 1.1707,-2.833 0.9687,1.0106 0.4727,-0.2138 1.6557,0.726 0.3458,-0.3705 1.876,1.4594 0.3053,0.8478 2.5308,0.01 0.97,-0.7682 1.5461,0.2287 0.9084,-0.4214 0.2216,-0.711 1.4476,-2.2836 0.565,1.2928 0.6524,0.5159 0.3484,1.6173 0.0984,1.9093 0.2881,0.9212 -1.0882,0.9062 -1.3602,0.043 -0.6118,0.7247 0.3681,0.5084 0.9047,-0.2436 1.3886,0.3207 0.3926,-0.3046 0.8383,1.2269 z" transform="translate(-1408.5 -3478.7) scale(3.0564)" id="path52">
        <title id="title50">
          岡山區 Gangshan District
        </title>
      </path>
      <path d="m 536.27,1545.2 0.0763,0.4102 1.3909,0.8851 0.8888,-0.4003 2.1739,0.4177 3.4983,-3.4757 0.6918,1.0939 0.9244,2.6752 -0.0923,0.8962 1.1497,2.245 0.1514,1.4109 1.3664,1.5514 -0.6278,0.5171 -0.9097,-0.2362 -0.6241,0.3531 -1.2346,0.068 -0.1095,0.7943 -2.0348,0.1057 -0.2745,-0.6501 -0.9712,0.017 -0.0887,1.3798 0.6549,0.7371 -0.4444,1.6111 0.7324,0.813 -1.8882,2.1977 1.4402,1.5663 -1.5215,1.2307 1.4661,2.1132 -0.7349,-0.048 -0.7226,0.9373 -1.599,-0.1467 -1.5965,-0.491 -0.9171,-0.8876 -1.5042,0.8441 -2.4237,-0.4003 0.9564,1.1064 0.009,0.7172 0.6943,0.7421 0.0455,0.6154 -0.613,0.5121 -1.3392,-0.021 -1.2901,0.3344 -1.0106,-0.5967 -1.0032,0.7085 -0.8051,-0.3729 -0.0603,-1.1113 -0.4013,-0.2698 -1.0364,1.2593 -0.453,0.8826 -0.6684,-0.6141 0.3619,-0.6787 -0.469,-1.2506 -0.8555,-0.578 -0.5835,-0.8714 0.2597,-0.6203 -0.8345,-0.537 -0.8002,0.2909 -2.1837,-0.5619 -0.3693,1.1225 -4.0338,-1.2841 -0.7287,2.3532 -0.6893,0.1342 0.1403,1.1063 -2.3277,0.7235 -0.8863,-0.6973 -1.2433,1.0876 -0.5121,-0.092 0.2475,-0.7484 -0.5072,-0.8937 0.0702,-0.8603 -1.2224,-0.491 0.2118,-0.8341 0.9244,-0.5469 0.4284,-0.6638 -0.9097,-1.4134 0.7115,-0.4898 1.9289,-0.2499 0.9281,-1.4121 0.4715,-1.345 -0.0886,-1.2021 1.0832,-0.6949 0.2253,-0.532 -0.1921,-1.3226 0.9109,-0.7571 0.3582,-2.1281 -0.1797,-1.57 -0.8444,-1.3935 0.5576,-0.9597 -0.2757,-1.0964 1.1066,-0.5469 1.4045,0.6936 0.6684,0.6017 0.9602,-0.7111 0.0751,-1.1585 1.3811,0.1877 -0.1096,-0.8714 0.9122,-0.5868 0.8826,0.6564 0.8776,-0.09 1.066,-1.4669 0.8998,0.2188 0.5355,0.9696 0.4665,-1.3413 0.3102,-1.6458 1.4169,0.01 0.8715,-1.0156 2.0507,0.7658 0.4727,1.3785 0.7571,0.7496 1.6334,-0.9186 0.8777,0.5755 1.4279,1.529 z" transform="translate(-1408.5 -3478.7) scale(3.0564)" id="path56">
        <title id="title54">
          橋頭區 Qiaotou District
        </title>
      </path>
      <path d="m 591.98,1523.6 -1.4192,1.3127 0.5194,0.68 1.8267,1.1685 0.3743,1.8236 1.226,1.4643 -0.5072,2.0611 0.9946,0.9795 1.5092,0.455 1.4193,1.3413 0.4763,1.2318 0.8605,0.2698 -0.7214,2.6602 -0.4813,0.4475 -0.757,1.4308 0.2794,0.5283 -1.0512,0.307 -0.2462,0.7658 -0.8974,0.629 -1.2026,-0.027 -0.7853,0.506 -0.9688,-0.3481 -0.224,1.2331 -0.4826,1.089 -0.6708,0.6227 -0.0973,1.7503 0.5897,0.4177 -0.0456,0.8167 -0.8149,0.629 -1.5916,2.5073 -0.5441,0.5407 -0.9527,-0.4475 -0.49,-1.478 -0.9736,-0.039 0.2043,-0.9435 -1.3331,-1.9354 -0.8248,0.3381 -1.1189,-0.1653 -1.4931,1.4805 0.048,1.0342 -1.2408,0.7459 -0.3102,-0.6626 -1.4279,-0.1989 -1.2987,-1.6794 -0.677,1.1362 -1.0131,0.3282 -0.5576,-0.5507 -1.0106,-0.1567 -0.7817,0.368 -0.1009,1.3599 -0.6684,0.7434 -0.9281,0.2635 -0.2462,1.2108 -0.9503,0.3456 -1.423,0.1454 -0.6549,0.4637 -0.192,1.9951 -0.421,0.088 -0.6708,-1.1573 -0.9983,-0.083 -0.1096,0.8515 -1.0488,1.2754 -0.7188,-0.9883 -2.7709,0.051 -2.3327,-0.2399 -1.4217,-0.6017 -1.583,0.1753 -1.7824,0.5308 -0.8765,-0.7508 -0.6167,-1.1872 -0.5478,-0.4972 -0.6622,0.4065 0.5047,0.9621 -0.4444,0.271 -1.0094,-0.5332 -0.5588,0.7185 0.341,1.734 -1.0968,1.2829 -1.0402,-1.0081 -0.5908,0.071 -0.7017,-0.2088 -0.2302,-1.7639 -0.8148,0.2237 -0.6057,-0.6079 -0.3409,-1.1685 0.1095,-0.7943 1.2346,-0.068 0.6241,-0.3531 0.9097,0.2362 0.6278,-0.5171 -1.3664,-1.5514 -0.1514,-1.4109 -1.1497,-2.245 0.0923,-0.8962 -0.9244,-2.6752 -0.6918,-1.0939 -3.4983,3.4757 -2.1739,-0.4177 -0.8888,0.4003 -1.3909,-0.8851 -0.0763,-0.4102 0.2191,-1.8199 1.1546,-0.7595 -0.4985,-1.0777 -0.7374,-0.5694 0.4001,-1.0193 0.7361,-0.2238 -0.2942,-0.8552 -0.1133,-2.3942 0.2192,-1.1672 -0.8433,0.1641 -0.9158,-2.3979 0.8112,-1.9144 1.0648,0.1939 0.9478,-0.7172 0.4998,-1.35 0.0566,-1.2381 0.6044,-0.3866 0.6093,0.4699 1.1017,-1.2605 -0.0504,-1.4805 1.0746,0.1976 -0.4136,0.7285 1.1078,1.7092 0.7054,-2.0958 0.4985,-0.491 1.1251,0.1802 0.8383,-0.711 0.7447,-1.0765 1.9449,-1.0132 0.5465,0.3668 1.0008,-0.6676 1.1251,0.8565 0.741,-0.019 -0.4271,-1.6782 0.7189,-0.6986 0.5428,0.4835 0.9429,0.1641 1.2457,-1.4245 0.2315,-0.8888 -0.4838,-0.3854 0.1502,-0.9286 -0.6463,-0.496 -0.8727,-2.685 0.7927,-0.3158 0.2905,-0.6016 1.0488,-0.3257 -0.277,-0.8565 1.9301,-2.0026 1.3147,0.042 1.2408,-0.2946 0.8174,2.1256 1.482,0.9311 0.2314,-0.7371 0.8026,-0.8466 0.8765,1.2058 2.0064,0.3941 0.5121,0.6277 1.1521,-0.5768 1.4858,0.3133 1.0057,0.4935 1.162,1.35 0.5441,1.212 1.0672,0.5805 0.8285,-1.1809 1.0881,0.7806 0.7509,0.9522 0.6438,-0.5357 0.7213,0.043 0.8124,0.6252 0.4764,-0.1715 1.6027,0.5221 -0.1723,0.8627 0.6105,0.8453 0.7128,-1.0566 0.7939,-0.3779 1.3935,0.2449 1.1817,0.4649 2.532,-0.24 0.6487,0.496 -0.1501,1.0529 1.5559,1.4022 h 1.7221 z" transform="translate(-1408.5 -3478.7) scale(3.0564)" id="path60">
        <title id="title58">
          燕巢區 Yanchao District
        </title>
      </path>
      <path d="m 587.18,1463.1 -0.5194,0.936 0.1834,0.5445 0.9601,0.063 2.0065,1.1759 0.2671,-0.8241 1.1054,-0.5109 0.6191,0.9447 -0.4271,1.8597 1.503,0.7073 0.7201,0.1118 0.6586,1.079 -0.3164,0.5793 0.2117,0.9 0.7189,-0.179 0.4604,0.8093 -0.5933,1.2505 -0.3509,1.5153 1.3012,0.4276 1.8021,-0.946 1.0475,-0.7794 0.1428,0.8752 1.3688,1.9255 0.0911,2.3805 1.5215,0.5544 1.7331,0.23 1.3689,-0.6589 0.8653,0.6601 -0.2388,1.9081 0.2548,0.7546 -0.1046,1.0728 1.0488,0.6078 1.0352,1.8199 0.8506,0.2872 -0.7829,1.3512 -1.8514,1.304 -0.2646,0.8266 0.874,0.9833 0.8284,0.3046 -1.1657,0.9397 -0.5416,1.1934 0.0837,1.1859 1.0475,1.9628 0.0886,1.7428 0.8457,2.0772 0.6352,0.3344 0.789,1.5128 -0.986,0.583 -0.5145,1.6036 -1.1534,0.6824 -0.5158,1.6173 -0.4998,0.4475 -1.4648,0.5233 -0.533,0.9162 -1.3984,0.9049 -0.3508,0.7857 -1.1325,0.9422 -0.725,1.2095 -0.4505,1.3587 -0.6032,0.9609 -1.8919,0.6887 0.2486,1.6682 -0.5675,1.5253 -0.6585,0.3244 -0.6758,-0.3157 -0.6881,1.3201 -0.4567,0.3444 -0.3434,2.7161 -1.7234,1.8074 -1.0598,-1.289 h -1.7221 l -1.5559,-1.4022 0.1501,-1.0529 -0.6487,-0.496 -2.532,0.24 -1.1817,-0.4649 -1.3935,-0.2449 -0.7939,0.3779 -0.7128,1.0566 -0.6105,-0.8453 0.1723,-0.8627 -1.6027,-0.5221 -0.4764,0.1715 -0.8124,-0.6252 -0.7213,-0.043 -0.6438,0.5357 -0.7509,-0.9522 -1.0881,-0.7806 -0.8285,1.1809 -1.0672,-0.5805 -0.5441,-1.212 -1.162,-1.35 -1.0057,-0.4935 -1.4858,-0.3133 -1.1521,0.5768 -0.5121,-0.6277 -2.0064,-0.3941 -0.8765,-1.2058 -0.8026,0.8466 -0.2314,0.7371 -1.482,-0.9311 -0.8174,-2.1256 -1.2408,0.2946 -1.3147,-0.042 -1.9301,2.0026 0.277,0.8565 -0.8063,-0.3307 -0.8383,-1.2269 -0.3926,0.3046 -1.3886,-0.3207 -0.9047,0.2436 -0.3681,-0.5084 0.6118,-0.7247 1.3602,-0.043 1.0882,-0.9062 -0.2881,-0.9212 -0.0984,-1.9093 -0.3484,-1.6173 -0.6524,-0.5159 -0.565,-1.2928 0.2647,-2.695 -0.245,-2.501 0.7324,-1.58 -0.0603,-0.8068 0.6659,-1.1697 0.0185,-0.5842 0.9811,-1.0741 -0.1502,-0.7098 0.8137,-1.6085 0.2215,-1.3239 1.0365,-0.8092 0.2351,-0.8814 1.7664,-1.5389 0.6918,-1.5949 -0.2659,-1.0193 -0.7644,-0.8304 0.2683,-1.3425 1.0919,-0.1902 0.0332,-1.0628 -0.7311,-0.3419 0.3754,-1.8609 -2.0803,-0.5618 -0.3422,0.8788 0.805,0.9112 -0.5441,0.6514 -1.3097,0.3443 -0.794,-1.0467 0.1773,-1.0355 0.9897,-1.3848 0.5219,-0.6638 1.3294,-0.3704 -0.6191,-0.6228 0.1809,-0.7881 0.7657,-0.7906 1.0746,0.3965 0.5945,-1.6818 1.54,-1.0952 0.2548,-0.5606 -1.2334,-0.7844 0.1329,-0.6936 1.615,-0.327 0.9084,0.1318 0.9885,-0.2635 -0.1391,-1.3277 1.7529,-0.6712 1.8538,-1.3251 0.4037,-0.7832 -0.7656,-0.8726 -0.293,-0.8441 0.9688,-0.045 0.6672,-1.1312 1.3995,-0.3257 -0.1748,-0.7098 0.5847,-1.2257 1.5215,-0.2275 0.0899,-0.8577 1.066,-0.271 2.1837,1.3338 2.3018,-1.9964 0.7325,-0.3219 0.9638,0.1231 1.05,-0.3767 1.6692,0.276 0.4542,0.4823 0.309,1.4059 0.8038,0.5059 1.8304,0.014 0.5219,2.0424 z" transform="translate(-1408.5 -3478.7) scale(3.0564)" id="path64">
        <title id="title62">
          田寮區 Tianliao District
        </title>
      </path>
      <path d="m 537.48,1471 0.9897,1.452 0.938,0.5618 1.9559,-2.5147 0.8309,-0.5532 0.9713,1.0703 0.8358,2.199 1.1595,2.3283 0.8642,0.8217 1.4143,-0.082 3.3888,0.094 0.8125,-0.2151 1.5756,0.065 1.4845,-0.5271 0.6389,0.062 0.7607,1.2629 -0.9897,1.3848 -0.1773,1.0355 0.794,1.0467 1.3097,-0.3443 0.5441,-0.6514 -0.805,-0.9112 0.3422,-0.8788 2.0803,0.5618 -0.3754,1.8609 0.7311,0.3419 -0.0332,1.0628 -1.0919,0.1902 -0.2683,1.3425 0.7644,0.8304 0.2659,1.0193 -0.6918,1.5949 -1.7664,1.5389 -0.2351,0.8814 -1.0365,0.8092 -0.2215,1.3239 -0.8137,1.6085 0.1502,0.7098 -0.9811,1.0741 -0.0185,0.5842 -0.6659,1.1697 0.0603,0.8068 -0.7324,1.58 0.245,2.501 -0.2647,2.695 -1.4476,2.2836 -0.2216,0.711 -0.9084,0.4214 -1.5461,-0.2287 -0.97,0.7682 -2.5308,-0.01 -0.3053,-0.8478 -1.876,-1.4594 -0.3458,0.3705 -1.6557,-0.726 -0.4727,0.2138 -0.9687,-1.0106 -1.1707,2.833 -2.2846,0.04 -0.6118,-0.3518 -1.8279,-0.092 -0.6044,1.3947 -1.1116,-0.5382 -1.2125,-0.9398 -1.2925,-0.022 -0.5859,-1.0168 -1.4501,-0.5718 -1.4008,-0.1616 -0.2092,0.2784 -0.1527,-1.5091 1.21,-0.3083 0.7608,-0.4922 0.0591,-0.9137 0.725,-2.1331 1.2888,-0.8577 1.6248,-0.8167 0.6278,0.1056 0.3989,-0.7359 -0.0407,-0.854 -0.6634,-1.6806 0.9884,-2.0039 0.1453,-0.8067 -0.4247,-1.805 -0.8494,-0.4835 -0.1157,-1.4196 0.1576,-1.7839 -0.4407,-0.6128 0.8297,-0.8453 -0.1564,-1.386 -0.4468,-0.9423 0.2351,-1.836 -1.2716,-0.4065 -0.1588,-0.8652 -0.9379,-0.225 -0.1231,1.1809 -4.0449,-0.3095 0.075,-2.3084 -0.8136,-0.1964 -0.8654,0.6041 -0.3212,-0.5668 0.2794,-0.8453 -0.581,-1.1262 -0.0887,-1.3376 -0.789,-0.6824 -1.8649,0.015 -2.2034,-0.6713 -0.4185,-1.0578 0.7053,-0.06 -0.0923,-1.1225 -0.7029,-1.8112 -0.1218,-1.5053 1.1435,-0.5532 2.5272,0.1044 4.7046,1.0778 3.1242,1.074 2.3142,0.394 3.07,-0.07 2.3733,0.3916 z" transform="translate(-1408.5 -3478.7) scale(3.0564)" id="path68">
        <title id="title66">
          阿蓮區 Alian District
        </title>
      </path>
      <path d="m 512.35,1471.9 1.5535,0.7086 h 2.084 l 0.8555,-0.3903 0.4185,1.0578 2.2034,0.6713 1.8649,-0.015 0.789,0.6824 0.0887,1.3376 0.581,1.1262 -0.2794,0.8453 0.3212,0.5668 0.8654,-0.6041 0.8136,0.1964 -0.075,2.3084 4.0449,0.3095 0.1231,-1.1809 0.9379,0.225 0.1588,0.8652 1.2716,0.4065 -0.2351,1.836 0.4468,0.9423 0.1564,1.386 -0.8297,0.8453 0.4407,0.6128 -0.1576,1.7839 0.1157,1.4196 0.8494,0.4835 0.4247,1.805 -0.1453,0.8067 -0.9884,2.0039 0.6634,1.6806 0.0407,0.854 -0.3989,0.7359 -0.6278,-0.1056 -1.6248,0.8167 -1.2888,0.8577 -0.725,2.1331 -0.0591,0.9137 -0.7608,0.4922 -1.21,0.3083 0.1527,1.5091 -0.3669,1.355 -0.5317,0.2735 -0.4469,2.2288 0.778,0.5097 1.1682,1.7975 -0.5872,0.8204 -1.631,0.5905 -0.6758,0.6638 -0.9023,0.2374 -0.5945,0.6004 -1.087,-0.1467 -0.448,0.3431 -0.437,2.8467 -1.6187,0.1988 -0.7681,0.9261 -2.3204,0.067 -0.7976,-0.9709 -1.551,-1.2866 -1.8218,0.1368 0.4899,-1.3115 -2.0323,-0.4189 -3.203,-0.4537 -1.8119,-0.593 -0.4825,-0.9547 1.6827,-0.9497 -1.0353,-1.8671 -2.4853,1.3774 -0.4136,-0.5346 -1.3478,0.4053 -1.9782,0.019 -0.4259,-1.4507 -0.906,-0.2784 -0.4062,-1.2033 -0.5835,-0.7993 -0.1206,-1.4134 -1.3971,-1.1125 -2.3117,0.5494 -1.3479,-0.7583 -1.5301,0.6129 -1.5165,-3.6162 -2.057,-0.7694 -1.0856,-0.9547 -2.4669,-1.6297 2.8386,-3.4719 0.4481,-3.0219 0.6351,-1.2879 -1.7258,-0.7048 -0.3372,-0.7794 0.9478,-2.0063 0.7816,-0.039 0.7952,-0.1554 0.6832,-0.757 1.2728,-0.3269 1.2125,0.1193 1.535,2.1157 0.5946,0.4065 0.9749,0.031 1.1731,-0.992 0.8826,-0.4114 0.5354,0.8701 2.0816,0.2213 -0.0148,-0.46 1.1558,-0.5768 0.5429,-0.747 2.0335,0.2163 1.2088,-0.3966 0.9552,-0.8465 0.7078,-0.085 -0.7225,-1.8658 0.1821,-0.8055 -0.2375,-2.1245 0.0714,-1.3562 1.3934,-0.034 2.4114,-0.6427 0.0185,-1.0268 0.5712,-1.0603 0.0935,-0.9199 -0.6856,-1.2642 -0.4296,-1.3811 -0.1059,-1.0902 -0.8727,-1.0267 -0.01,-0.6539 0.5515,-0.8988 1.4045,-0.057 1.6926,1.074 1.8427,0.8875 z" transform="translate(-1408.5 -3478.7) scale(3.0564)" id="path72">
        <title id="title70">
          路竹區 Luzhu District
        </title>
      </path>
      <path d="m 506.39,1472.7 0.4296,1.3811 0.6856,1.2642 -0.0935,0.9199 -0.5712,1.0603 -0.0185,1.0268 -2.4114,0.6427 -1.3934,0.034 -0.0714,1.3562 0.2375,2.1245 -0.1821,0.8055 0.7225,1.8658 -0.7078,0.085 -0.9552,0.8465 -1.2088,0.3966 -2.0335,-0.2163 -0.5429,0.747 -1.1558,0.5768 0.0148,0.46 -2.0816,-0.2213 -0.5354,-0.8701 -0.8826,0.4114 -1.1731,0.992 -0.9749,-0.031 -0.5946,-0.4065 -1.535,-2.1157 -1.2125,-0.1193 -1.2728,0.3269 -0.6832,0.757 -0.7952,0.1554 -0.7213,-0.3704 -0.1182,-5.8537 -3.8171,-0.7272 -0.8371,0.1616 -1.4796,-0.9062 0.2154,-0.4388 1.1596,-0.5445 0.6548,-0.8838 0.009,-0.8565 -0.4826,-1.3388 -0.5896,-0.9099 -0.8136,-0.6539 -1.2285,0.1417 -0.3841,0.4438 -0.5022,2.69 -0.4382,0.2785 -0.9848,-0.68 -0.8715,-1.171 -0.6093,-1.9367 -0.4912,-2.6266 0.3804,-1.4271 1.1965,-0.1429 -0.3324,-3.2494 -0.2622,-0.7359 -3.3445,-1.6981 -1.0303,-1.5227 -0.2868,-2.5508 -1.1805,-1.4221 0.7743,-0.2586 1.0709,0.1069 0.4813,-0.3928 2.0422,0.9286 3.182,2.2872 1.2002,0.5209 1.0906,0.086 1.0906,-0.3145 1.6113,1.611 1.7775,1.1772 2.0028,0.5059 1.1571,0.01 1.242,-0.9882 2.2255,-2.8616 1.0944,-0.4065 0.9342,0.179 0.682,0.7546 -0.1502,1.8149 0.064,2.1008 0.2955,1.1386 0.5748,0.7645 1.5978,0.1865 3.5993,0.9373 1.3023,1.3102 1.2384,1.7975 2.1061,1.6334 1.4107,0.6675 1.146,0.1554 z" transform="translate(-1408.5 -3478.7) scale(3.0564)" id="path76">
        <title id="title74">
          湖內區 Hunei District
        </title>
      </path>
      <g id="g986" transform="translate(346.064 645.133) scale(.37947)" stroke-width=".418" stroke-miterlimit="4" stroke-dasharray="none">
        <path id="path80" transform="translate(-1408.5 -3478.7) scale(3.0564)" d="m 647.42,1424 1.0352,1.222 0.954,-0.2176 1.375,0.3096 1.1288,1.0876 0.3053,1.3674 -0.8716,2.2861 -0.4849,0.8428 -1.071,0.7955 -0.5884,1.0927 -0.7681,2.5371 1.0414,4.7014 -0.3385,0.5768 -1.2347,0.1019 -0.8912,0.8614 -0.3225,1.4234 0.1539,1.2791 0.8629,1.4233 -0.2253,1.5191 -0.7361,0.5158 0.1404,1.5154 0.6474,0.8092 1.7394,3.2805 -0.4924,1.3251 -1.3319,1.4843 -0.8149,2.2412 -1.1756,1.4681 -0.2671,1.0691 -0.9933,0.6414 0.8013,0.8316 0.277,1.5999 -0.6389,1.0255 -1.4304,0.4214 -1.1189,0.9149 -0.5207,1.0827 -1.114,0.8515 -1.0635,1.5191 -0.2118,1.5949 0.7608,0.5668 1.0537,1.5427 -0.8051,2.3146 0.3004,2.1803 -1.0488,0.6004 -0.3644,1.7851 -0.5403,0.496 -0.5626,1.1884 0.144,1.1871 -0.3409,0.9224 0.4837,1.1213 -0.6795,1.6097 -2.2637,0.4177 -0.5995,1.4383 -0.5354,0.568 -0.4407,1.5129 1.9769,0.1181 0.4555,0.6041 1.9646,0.2536 0.8629,-0.2598 3.3051,0.8304 2.6293,-0.043 0.6081,0.1168 0.3311,1.6744 0.9601,0.3605 -0.7016,8.7277 -0.133,0.3133 -2.0827,-0.049 -1.8501,0.711 -1.6126,0.015 -0.0492,3.728 -0.1539,0.634 -1.1977,1.8161 -0.9885,-0.164 -1.4685,0.2709 -1.1152,-0.1143 -1.1424,-0.583 -1.3675,-2.516 -0.6389,0.6203 -1.0599,0.2411 -1.3577,-0.312 -1.5584,0.1542 -1.6421,-0.2486 -0.3582,-0.8043 -0.7078,-0.2399 -0.7053,0.5581 -0.5921,-0.5569 -0.9232,-0.2747 -1.1177,0.7508 -1.0845,1.7105 -1.1878,1.4183 -0.6574,0.4774 0.2228,3.2879 -0.8986,1.5477 -0.1083,3.994 -1.0044,1.5837 -0.2462,3.0567 -0.389,1.933 -0.1822,2.2537 -0.7792,2.1344 -0.6561,1.2182 -0.7939,2.3208 -1.3602,2.9784 -0.8026,3.1028 -0.1391,2.8852 -0.7681,1.9193 -1.8034,-0.547 -1.8895,-0.1392 -0.5441,0.2747 -1.2962,-0.065 -1.0832,-0.4637 -1.8415,0.2424 -3.3913,-0.7993 -0.6696,0.058 -1.375,-2.1132 -0.2794,-0.5283 0.757,-1.4308 0.4813,-0.4475 0.7214,-2.6602 -0.8605,-0.2698 -0.4763,-1.2318 -1.4193,-1.3413 -1.5092,-0.455 -0.9946,-0.9795 0.5072,-2.0611 -1.226,-1.4643 -0.3743,-1.8236 -1.8267,-1.1685 -0.5194,-0.68 1.4192,-1.3127 1.7234,-1.8074 0.3434,-2.7161 0.4567,-0.3444 0.6881,-1.3201 0.6758,0.3157 0.6585,-0.3244 0.5675,-1.5253 -0.2486,-1.6682 1.8919,-0.6887 0.6032,-0.9609 0.4505,-1.3587 0.725,-1.2095 1.1325,-0.9422 0.3508,-0.7857 1.3984,-0.9049 0.533,-0.9162 1.4648,-0.5233 0.4998,-0.4475 0.5158,-1.6173 1.1534,-0.6824 0.5145,-1.6036 0.986,-0.583 -0.789,-1.5128 -0.6352,-0.3344 -0.8457,-2.0772 -0.0886,-1.7428 -1.0475,-1.9628 -0.0837,-1.1859 0.5416,-1.1934 1.1657,-0.9397 -0.8284,-0.3046 -0.874,-0.9833 0.2646,-0.8266 1.8514,-1.304 0.7829,-1.3512 -0.8506,-0.2872 -1.0352,-1.8199 -1.0488,-0.6078 0.1046,-1.0728 -0.2548,-0.7546 0.2388,-1.9081 0.5158,-0.5047 1.2285,-0.4711 3.0515,0.2573 1.3528,-0.8813 2.7967,-0.4401 0.4112,-0.711 1.2605,-0.7745 0.8382,-1.023 1.6643,1.2194 0.5884,-0.5022 0.8087,-1.5389 -0.4284,-1.2381 0.0308,-0.9348 1.2445,-2.828 1.311,-2.1866 0.6536,-0.7421 -0.1846,-0.547 1.146,-1.1486 0.0935,-0.8055 1.5239,-0.9944 0.01,-1.3127 0.7152,-0.4326 0.4308,-1.4718 -0.3804,-1.2692 -0.7521,-0.956 1.4846,-0.7321 0.2375,-2.0387 -0.8715,-0.8478 -0.1748,-1.3052 0.629,-2.4203 0.7485,-1.8074 0.5231,1.3313 1.3024,2.4216 0.8161,0.3953 0.8604,-0.01 1.0352,0.4898 1.1781,-0.045 0.7287,-0.7297 0.2412,-0.9174 0.9651,-1.2928 0.0234,-2.0039 0.858,-1.028 -0.1576,-0.8105 -0.016,-3.2593 1.6421,-1.4768 0.7263,0.061 1.5165,-1.9181 1.194,-1.0131 0.7398,-0.091 0.4838,-0.8938 -0.7632,-1.4457 0.2733,-0.6564 -0.7275,-1.57 0.5157,-0.5246 0.3607,-1.1088 -0.4025,-0.4935 0.4111,-2.3395 0.9122,-2.0249 2.5985,-1.1673 1.3897,-0.1504 z">
          <title id="title78">
            旗山區 Qishan District
          </title>
        </path>
        <path id="path84" transform="translate(-1408.5 -3478.7) scale(3.0564)" d="m 703.08,1425.3 1.2298,1.1088 0.8309,1.3786 0.4037,1.6334 -0.1526,1.4047 -0.8051,2.6751 0.3151,1.0181 -0.6339,3.9716 -0.9823,2.5857 0.8789,0.8651 0.3127,2.7796 -0.4998,0.9944 -1.4894,0.8105 -0.7743,0.9783 0.4037,1.3301 -1.0623,1.5017 -0.5207,0.1715 -0.5022,1.1523 -0.7496,0.946 0.3052,0.987 -0.6474,3.4807 -1.7061,1.8807 -0.5552,0.1119 -1.5498,-0.6265 -0.528,-0.9522 -1.0045,0.4475 -1.6212,0.036 -0.693,0.5245 0.8617,0.9 0.0504,1.6608 -0.8382,1.3935 -0.0234,1.1697 -0.5503,1.2978 -1.674,0.6464 -0.501,0.9211 1.8119,1.1126 -0.677,1.4917 -0.9331,0.7346 -0.7607,2.7012 0.5896,0.5855 -0.0517,1.1673 -0.5761,0.7272 0.794,1.8882 -0.6942,0.9945 0.533,1.0367 -0.7595,1.0082 -0.3398,1.1113 -1.1202,0.8875 0.4875,0.9398 -0.6684,1.611 0.4111,0.4612 -0.6351,0.7086 1.0426,2.6167 0.0468,0.9733 0.6868,1.5688 -0.2228,0.9534 -5.1527,4.1059 -6.156,5.0979 -2.5148,2.6452 -1.5781,2.7995 -1.6778,1.7763 -0.8087,0.6452 -2.4238,1.1946 -1.8316,1.8944 -1.0451,0.2996 -2.281,-0.081 -2.1332,-0.7993 -1.0106,0.2548 -0.7977,-0.1466 -1.5756,0.2163 -1.471,-0.281 -0.5662,-0.5084 -1.615,-0.1579 -0.6647,-0.5084 -1.2162,-0.2797 -1.7246,0.1119 -0.4579,-0.5283 -1.8119,0.2996 0.01,0.4897 -2.4077,-0.04 -1.1313,0.4214 -1.9276,1.3462 -0.5626,-0.6252 -1.9855,-1.094 1.1977,-1.8161 0.1539,-0.634 0.0492,-3.728 1.6126,-0.015 1.8501,-0.711 2.0827,0.049 0.133,-0.3133 0.7016,-8.7277 -0.9601,-0.3605 -0.3311,-1.6744 -0.6081,-0.1168 -2.6293,0.043 -3.3051,-0.8304 -0.8629,0.2598 -1.9646,-0.2536 -0.4555,-0.6041 -1.9769,-0.1181 0.4407,-1.5129 0.5354,-0.568 0.5995,-1.4383 2.2637,-0.4177 0.6795,-1.6097 -0.4837,-1.1213 0.3409,-0.9224 -0.144,-1.1871 0.5626,-1.1884 0.5403,-0.496 0.3644,-1.7851 1.0488,-0.6004 -0.3004,-2.1803 0.8051,-2.3146 -1.0537,-1.5427 -0.7608,-0.5668 0.2118,-1.5949 1.0635,-1.5191 1.114,-0.8515 0.5207,-1.0827 1.1189,-0.9149 1.4304,-0.4214 0.6389,-1.0255 2.0643,-1.2543 1.4094,-0.04 0.9454,-1.1051 1.2051,-0.4463 0.2117,-1.8037 0.4973,-1.386 1.0882,-0.4127 0.9712,-1.2704 1.9609,-0.091 0.8124,-0.844 -0.1945,-0.9671 1.2433,-1.2394 0.2006,-0.6278 0.9639,-1.033 1.21,-0.9397 2.26,-0.6265 1.0931,-1.1636 1.1559,-1.928 1.1521,-0.1168 1.0574,-0.6937 2.1997,0.8777 0.7004,-0.1306 2.2121,0.6763 0.741,-0.5209 1.2322,-0.065 1.5399,-0.8341 1.2371,-1.3252 0.4628,-1.4457 -0.432,-0.6128 0.0566,-0.9012 1.0205,-0.8329 0.1994,-1.2928 -0.6278,-1.4146 -1.0266,-1.0803 0.437,-1.6557 0.9823,-1.2854 0.4099,-0.9746 1.9289,-1.9976 0.7656,-1.1014 1.3134,-0.5034 1.4993,-1.0827 1.391,-1.3774 0.5047,0.032 1.0118,0.7719 2.1099,0.2722 1.9301,-0.3331 0.5749,-2.424 0.6647,-1.4731 1.679,-1.7415 1.4464,1.2207 0.6179,1.0653 2.729,0.4202 3.0134,-0.1355 1.3171,0.6327 z">
          <title id="title82">
            美濃區 Meinong District
          </title>
        </path>
        <path id="path88" transform="translate(-1408.5 -3478.7) scale(3.0564)" d="m 728.44,1422.7 -0.4948,1.6881 -0.9269,1.4593 -1.9252,3.5179 -0.8297,2.214 0.0997,0.6451 1.4882,2.9536 -0.1551,2.4041 1.7209,2.3594 0.906,2.7658 1.0894,1.4333 -0.5059,0.7583 -0.3447,1.3761 0.1773,2.3121 -0.0899,1.6421 0.1883,0.8901 -0.8013,2.6241 0.0788,2.1058 -0.4161,1.5725 0.0431,1.5165 0.4813,1.2058 -0.309,0.9883 -0.9232,1.7353 -2.1172,2.7969 -0.9109,2.2637 -1.6261,2.7174 -0.5281,1.9466 -1.8304,2.2115 -1.8883,2.6216 -0.8469,1.5713 -0.4087,2.1953 0.016,2.3693 -0.2141,0.5954 -0.6266,-0.5308 -0.1317,-0.9845 -0.5589,-2.3059 -0.8653,-0.9584 -2.4755,1.2045 -1.8353,0.445 -1.4365,0.9124 -2.1382,0.4824 -2.3696,0.9298 -1.9092,1.1884 -0.9934,0.3866 -2.0901,-0.7235 -2.0569,0.4251 -3.8369,1.6546 -1.8809,1.4606 -2.2908,2.2127 -1.5744,1.8994 0.2228,-0.9534 -0.6868,-1.5688 -0.0468,-0.9733 -1.0426,-2.6167 0.6351,-0.7086 -0.4111,-0.4612 0.6684,-1.611 -0.4875,-0.9398 1.1202,-0.8875 0.3398,-1.1113 0.7595,-1.0082 -0.533,-1.0367 0.6942,-0.9945 -0.794,-1.8882 0.5761,-0.7272 0.0517,-1.1673 -0.5896,-0.5855 0.7607,-2.7012 0.9331,-0.7346 0.677,-1.4917 -1.8119,-1.1126 0.501,-0.9211 1.674,-0.6464 0.5503,-1.2978 0.0234,-1.1697 0.8382,-1.3935 -0.0504,-1.6608 -0.8617,-0.9 0.693,-0.5245 1.6212,-0.036 1.0045,-0.4475 0.528,0.9522 1.5498,0.6265 0.5552,-0.1119 1.7061,-1.8807 0.6474,-3.4807 -0.3052,-0.987 0.7496,-0.946 0.5022,-1.1523 0.5207,-0.1715 1.0623,-1.5017 -0.4037,-1.3301 0.7743,-0.9783 1.4894,-0.8105 0.4998,-0.9944 -0.3127,-2.7796 -0.8789,-0.8651 0.9823,-2.5857 0.6339,-3.9716 -0.3151,-1.0181 0.8051,-2.6751 0.1526,-1.4047 -0.4037,-1.6334 -0.8309,-1.3786 -1.2298,-1.1088 -1.1017,-2.828 -0.2966,-1.7266 -0.661,-0.8242 -0.1859,-0.987 0.4025,-1.1163 -0.3114,-2.2301 -0.6377,-1.7055 0.3915,-1.2841 -0.1194,-0.6576 1.5177,-2.3059 -0.3889,-1.5426 0.08,-1.2046 -0.5749,-1.8012 0.0197,-0.9733 0.6315,-1.2357 0.1896,-1.391 -1.0427,-2.7608 -1.0278,-0.322 -0.6819,-1.0144 -1.0008,-0.8527 -1.1325,-1.3599 -2.1492,-0.8752 0.1046,-1.4929 -0.3323,-1.4395 1.0389,-0.4177 1.1349,-1.5389 1.2248,-0.2349 0.8161,-1.1959 1.9462,-1.3326 0.9539,-1.0118 0.4395,-0.9435 1.5658,-0.097 -1.0426,-3.1052 0.9342,-3.38 0.8814,-2.0635 -0.906,-0.7483 -0.1489,-0.905 2.4767,-1.4817 1.2284,-1.7627 2.4582,-1.1809 1.0156,-1.1486 1.0992,-2.0287 -0.144,-2.306 -0.4985,-0.839 -0.2647,-1.1375 -0.6019,-0.7396 0.5773,-0.946 0.6389,-0.1205 2.2427,-1.3662 1.3036,-0.4363 1.4784,0.4748 1.1386,-1.9976 0.3619,-1.0641 -0.8087,-2.0684 0.1563,-0.6154 1.3442,-1.9006 0.8358,-1.5651 0.7718,-0.9845 0.3558,-1.2493 -0.0209,-1.2505 0.4739,-0.6551 1.5165,-1.3637 1.4291,-0.8552 0.8137,-0.076 0.9577,-0.5892 0.4936,1.1847 3.5611,2.8404 0.1133,0.8814 0.7509,1.7925 -0.8728,1.524 0.1896,0.8416 0.821,1.6769 0.7977,0.8776 -0.0616,0.6253 1.6655,2.2114 1.0672,0.445 0.5195,-0.3804 2.2514,1.1437 0.0702,-0.8901 1.2777,-1.8447 1.4021,-1.4867 0.8973,-1.4619 0.9368,-2.3817 -0.1761,-1.1685 -0.6696,-0.2859 -1.1226,-1.0815 -1.9609,-0.7757 -1.1473,-1.6446 -0.5527,-1.3624 -1.4734,-2.3842 -1.1436,-3.0468 -1.5325,-1.3276 -0.8789,-0.2511 0.4887,-1.1201 0.1711,-1.2592 0.6327,-1.3438 0.5958,-2.3481 0.4136,-0.6067 1.7245,1.9007 1.2815,0.6576 1.4697,1.0467 1.5313,-0.2536 0.8494,0.573 0.7422,1.6869 1.4821,2.0685 1.7049,1.1996 0.8641,0.8502 0.2117,0.6216 1.7874,2.7758 1.0413,0.9932 1.8366,0.6004 1.5781,-0.3083 1.519,-1.3052 2.1874,-0.7832 3.0749,0.2424 0.8851,0.2089 1.3405,-0.46 0.7976,-0.7359 0.8014,-0.03 0.9933,0.4363 1.1091,1.1325 1.6372,0.4425 2.3942,-0.1641 0.1145,1.3935 -0.618,0.8366 -0.9552,2.3382 -3.017,3.9667 -1.796,1.0777 -2.052,1.7714 -1.3848,0.2051 -3.1869,-1.6694 -1.8748,-0.3729 -1.8969,0.5096 -2.2526,1.222 -0.0579,1.6545 0.2093,0.7086 -0.405,1.6284 -1.322,1.5452 -0.0837,0.7831 1.3245,2.695 -0.0702,1.1038 0.3373,1.8013 -0.2228,2.7472 1.7258,0.4562 0.8272,2.3158 1.1361,0.8379 0.9897,2.1555 1.3898,1.033 1.0155,1.1262 1.0438,0.5905 -0.3692,1.5277 -0.5269,0.5234 -1.0241,0.1777 -0.8383,1.4756 -1.3984,0.6103 -1.3393,2.925 -0.0492,0.9223 -1.4254,0.9572 -0.746,0.1318 -1.5891,0.8751 -1.3762,0.4214 -0.7682,0.5557 -0.8973,1.6582 -0.8137,3.0133 -0.0566,1.9429 -0.7041,1.4743 -0.8297,1.0603 -2.8595,2.8181 -1.0894,0.6054 -0.9232,1.2903 -1.6199,1.5936 -1.1239,1.9852 -1.9855,1.212 -0.9404,1.314 -1.2236,0.6078 0.2499,0.5147 1.1472,0.7806 1.6335,0.8155 1.9794,0.3965 1.3269,0.063 0.6697,0.3891 3.0884,0.7471 -1.4402,2.3047 -1.4106,1.0491 -2.4152,0.327 -0.8038,0.5544 -2.3326,0.7558 -2.3056,1.5849 z">
          <title id="title86">
            六龜區 Liugui District
          </title>
        </path>
        <path id="path92" transform="translate(-1408.5 -3478.7) scale(3.0564)" d="m 718.33,1291.3 1.0401,0.4686 2.0471,2.3022 0.405,1.6483 0.5207,0.3245 1.29,0.07 2.6958,0.4326 1.1251,0.5817 2.6416,0.01 2.2785,1.0591 1.2937,0.1131 1.3762,1.0231 -0.9109,2.3917 0.2191,1.6284 -0.1957,0.8205 -0.0443,2.0846 1.7898,2.4302 1.4254,1.2307 1.5621,0.2722 0.4198,0.8093 0.4123,1.6408 -1.2358,2.3818 -0.8371,0.808 -0.7176,1.8596 -0.0677,1.1213 -0.4715,1.2294 0.1403,1.657 -0.3668,1.0243 -0.9503,1.3661 -0.4554,2.1754 -1.247,3.022 -0.0418,1.4531 -0.4136,0.6067 -0.5958,2.3481 -0.6327,1.3438 -0.1711,1.2592 -0.4887,1.1201 -1.0623,1.6682 -1.2556,0.6613 -2.905,3.3998 -0.9577,0.5892 -0.8137,0.076 -1.4291,0.8552 -1.5165,1.3637 -0.4739,0.6551 0.0209,1.2505 -0.3558,1.2493 -0.7718,0.9845 -0.8358,1.5651 -1.3442,1.9006 -0.1563,0.6154 0.8087,2.0684 -0.3619,1.0641 -1.1386,1.9976 -1.4784,-0.4748 -1.3036,0.4363 -2.2427,1.3662 -0.6389,0.1205 -0.5773,0.946 0.6019,0.7396 0.2647,1.1375 0.4985,0.839 0.144,2.306 -1.0992,2.0287 -1.0156,1.1486 -2.4582,1.1809 -1.2284,1.7627 -2.4767,1.4817 0.1489,0.905 0.906,0.7483 -0.8814,2.0635 -0.9342,3.38 1.0426,3.1052 -1.5658,0.097 -0.4395,0.9435 -0.9539,1.0118 -1.9462,1.3326 -0.8161,1.1959 -1.2248,0.2349 -1.1349,1.5389 -1.0389,0.4177 -0.7349,-0.4102 -2.6983,-0.317 -0.7385,-1.0231 0.3286,-1.2977 -0.5982,-1.1822 -2.7032,-2.434 -1.4365,-0.5917 -0.5552,-0.747 -0.6364,0.1553 -1.0463,-1.5252 -1.082,-0.5457 -1.5313,1.4457 -1.1152,0.3779 -1.3196,0.8378 -0.3422,1.57 -0.661,0.6191 -1.4907,0.3555 -2.1185,-0.097 -0.4037,0.3792 -3.166,-0.01 -0.2401,-0.363 -1.4993,0.3779 -0.6228,0.4625 -1.732,2.5445 -0.6511,-0.1243 -2.2441,-2.1853 -0.4936,0.2101 -1.4759,-0.2524 -0.0541,-2.286 0.128,-1.6881 -1.2568,-0.6986 0.2843,-2.1592 -0.1711,-1.1561 -0.6413,-1.3475 -0.1379,-0.8776 -0.9724,-1.1946 0.5157,-0.6651 1.6458,-0.3269 0.5724,-0.8938 0.8186,-0.2312 3.4959,-1.7005 2.5358,-2.9399 -0.2869,-0.8304 0.922,-1.0839 1.2433,-0.6924 0.4197,-0.9572 1.0808,-0.404 0.8617,-0.726 0.5908,-1.0914 1.0734,-0.8726 1.6015,-2.5608 0.9318,-1.1374 -0.4111,-1.6856 0.8444,-0.5383 0.8678,-2.2574 0.6118,-0.6626 1.4562,-2.5532 0.8002,-0.5855 0.3557,-1.1772 1.9991,-2.3868 0.6967,-1.3387 0.2733,-3.4645 -0.1281,-1.657 1.1202,-2.2798 1.3011,-1.7441 1.0106,-0.9385 0.2105,-1.5215 0.602,-1.4097 0.6819,-0.3095 0.7853,-2.1245 1.1399,-1.8049 1.4414,-0.4376 1.0513,-1.0442 -0.1354,-0.9671 1.0303,0.068 0.8604,-0.5755 0.8211,-0.9771 0.7139,-0.4351 0.272,-1.1063 -0.661,-1.3339 0.7546,-0.8179 0.4985,-1.1262 0.8014,-0.1293 0.5305,-0.8167 0.3939,-1.3102 2.0828,0.1914 1.3134,-0.6476 0.8888,-1.2058 0.3422,-1.0169 0.9638,-0.1193 2.1776,-1.4196 -0.2044,-0.8702 -0.6659,-0.7756 0.08,-0.7036 1.6618,0.01 1.8796,-0.3754 0.6906,-1.9877 -0.0763,-1.0889 1.439,-1.2593 0.1058,-0.4649 -0.9429,-1.3487 -0.9848,-2.6565 0.2118,-0.624 1.0746,-1.0666 0.3348,-1.3015 0.7607,-1.9591 0.9109,-0.8055 0.3546,-1.8373 0.7533,-0.8105 0.8026,-1.3636 0.6351,-0.1529 0.5281,-0.7198 z">
          <title id="title90">
            甲仙區 Jiaxian District
          </title>
        </path>
        <path id="path96" transform="translate(-1408.5 -3478.7) scale(3.0564)" d="m 694.77,1391.4 0.3323,1.4395 -0.1046,1.4929 2.1492,0.8752 1.1325,1.3599 1.0008,0.8527 0.6819,1.0144 1.0278,0.322 1.0427,2.7608 -0.1896,1.391 -0.6315,1.2357 -0.0197,0.9733 0.5749,1.8012 -0.08,1.2046 0.3889,1.5426 -1.5177,2.3059 0.1194,0.6576 -0.3915,1.2841 0.6377,1.7055 0.3114,2.2301 -0.4025,1.1163 0.1859,0.987 0.661,0.8242 0.2966,1.7266 1.1017,2.828 -0.6536,0.04 -1.3171,-0.6327 -3.0134,0.1355 -2.729,-0.4202 -0.6179,-1.0653 -1.4464,-1.2207 -1.679,1.7415 -0.6647,1.4731 -0.5749,2.424 -1.9301,0.3331 -2.1099,-0.2722 -1.0118,-0.7719 -0.5047,-0.032 -1.391,1.3774 -1.4993,1.0827 -1.3134,0.5034 -0.7656,1.1014 -1.9289,1.9976 -0.4099,0.9746 -0.9823,1.2854 -0.437,1.6557 1.0266,1.0803 0.6278,1.4146 -0.1994,1.2928 -1.0205,0.8329 -0.0566,0.9012 0.432,0.6128 -0.4628,1.4457 -1.2371,1.3252 -1.5399,0.8341 -1.2322,0.065 -0.741,0.5209 -2.2121,-0.6763 -0.7004,0.1306 -2.1997,-0.8777 -1.0574,0.6937 -1.1521,0.1168 -1.1559,1.928 -1.0931,1.1636 -2.26,0.6265 -1.21,0.9397 -0.9639,1.033 -0.2006,0.6278 -1.2433,1.2394 0.1945,0.9671 -0.8124,0.844 -1.9609,0.091 -0.9712,1.2704 -1.0882,0.4127 -0.4973,1.386 -0.2117,1.8037 -1.2051,0.4463 -0.9454,1.1051 -1.4094,0.04 -2.0643,1.2543 -0.277,-1.5999 -0.8013,-0.8316 0.9933,-0.6414 0.2671,-1.0691 1.1756,-1.4681 0.8149,-2.2412 1.3319,-1.4843 0.4924,-1.3251 -1.7394,-3.2805 -0.6474,-0.8092 -0.1404,-1.5154 0.7361,-0.5158 0.2253,-1.5191 -0.8629,-1.4233 -0.1539,-1.2791 0.3225,-1.4234 0.8912,-0.8614 1.2347,-0.1019 0.3385,-0.5768 -1.0414,-4.7014 0.7681,-2.5371 0.5884,-1.0927 1.071,-0.7955 0.4849,-0.8428 0.8716,-2.2861 -0.3053,-1.3674 -1.1288,-1.0876 -1.375,-0.3096 -0.954,0.2176 -1.0352,-1.222 0.0197,-1.3027 1.2187,-2.2438 -0.1305,-1.3276 1.146,-0.8267 0.469,-2.0461 0.858,-0.8937 0.1501,-1.1611 -0.6044,-1.0143 0.5884,-0.7459 1.3824,-0.5917 -0.0973,-2.7372 0.4949,-0.8963 0.485,-1.9318 1.6458,-1.601 0.5071,-0.8876 0.0689,-1.5277 0.8346,-2.3084 -0.1428,-1.0952 0.3472,-0.9099 -0.3336,-0.6253 -1.0906,-0.5755 -0.5503,-0.6427 -1.0007,0.9273 -1.1645,0.5706 -0.3656,0.486 -1.4525,0.854 -1.7591,1.7366 -1.4205,0.6999 -1.4205,0.3804 -2.2108,-0.2275 -1.306,-1.2307 -1.5387,-0.8366 -0.7534,-1.2393 -0.8358,-0.091 -1.7159,-1.7913 0.8493,-0.6016 0.9848,-1.4954 1.6913,-2.0884 1.4132,-0.7744 0.6277,-0.9684 0.9417,-0.6775 1.1276,-1.6458 1.4943,-1.2232 0.5983,-0.7881 1.1029,-0.1865 0.794,-1.1697 -0.3435,-1.1138 1.7418,-1.5228 0.3927,-0.6986 1.7455,-1.4594 1.5572,-0.7073 1.0857,-0.1517 1.3848,-0.8341 0.1514,-0.9733 0.9515,-0.8155 0.906,-0.169 0.9724,1.1946 0.1379,0.8776 0.6413,1.3475 0.1711,1.1561 -0.2843,2.1592 1.2568,0.6986 -0.128,1.6881 0.0541,2.286 1.4759,0.2524 0.4936,-0.2101 2.2441,2.1853 0.6511,0.1243 1.732,-2.5445 0.6228,-0.4625 1.4993,-0.3779 0.2401,0.363 3.166,0.01 0.4037,-0.3792 2.1185,0.097 1.4907,-0.3555 0.661,-0.6191 0.3422,-1.57 1.3196,-0.8378 1.1152,-0.3779 1.5313,-1.4457 1.082,0.5457 1.0463,1.5252 0.6364,-0.1553 0.5552,0.747 1.4365,0.5917 2.7032,2.434 0.5982,1.1822 -0.3286,1.2977 0.7385,1.0231 2.6983,0.317 z">
          <title id="title94">
            杉林區 Shanlin District
          </title>
        </path>
        <path id="path100" transform="translate(-1408.5 -3478.7) scale(3.0564)" d="m 647.42,1424 -0.5761,1.1623 -1.3897,0.1504 -2.5985,1.1673 -0.9122,2.0249 -0.4111,2.3395 0.4025,0.4935 -0.3607,1.1088 -0.5157,0.5246 0.7275,1.57 -0.2733,0.6564 0.7632,1.4457 -0.4838,0.8938 -0.7398,0.091 -1.194,1.0131 -1.5165,1.9181 -0.7263,-0.061 -1.6421,1.4768 0.016,3.2593 0.1576,0.8105 -0.858,1.028 -0.0234,2.0039 -0.9651,1.2928 -0.2412,0.9174 -0.7287,0.7297 -1.1781,0.045 -1.0352,-0.4898 -0.8604,0.01 -0.8161,-0.3953 -1.3024,-2.4216 -0.5231,-1.3313 -0.7485,1.8074 -0.629,2.4203 0.1748,1.3052 0.8715,0.8478 -0.2375,2.0387 -1.4846,0.7321 0.7521,0.956 0.3804,1.2692 -0.4308,1.4718 -0.7152,0.4326 -0.01,1.3127 -1.5239,0.9944 -0.0935,0.8055 -1.146,1.1486 0.1846,0.547 -0.6536,0.7421 -1.311,2.1866 -1.2445,2.828 -0.0308,0.9348 0.4284,1.2381 -0.8087,1.5389 -0.5884,0.5022 -1.6643,-1.2194 -0.8382,1.023 -1.2605,0.7745 -0.4112,0.711 -2.7967,0.4401 -1.3528,0.8813 -3.0515,-0.2573 -1.2285,0.4711 -0.5158,0.5047 -0.8653,-0.6601 -1.3689,0.6589 -1.7331,-0.23 -1.5215,-0.5544 -0.0911,-2.3805 -1.3688,-1.9255 -0.1428,-0.8752 -1.0475,0.7794 -1.8021,0.946 -1.3012,-0.4276 0.3509,-1.5153 0.5933,-1.2505 -0.4604,-0.8093 -0.7189,0.179 -0.2117,-0.9 0.3164,-0.5793 -0.6586,-1.079 -0.7201,-0.1118 -1.503,-0.7073 0.4271,-1.8597 -0.6191,-0.9447 -1.1054,0.5109 -0.2671,0.8241 -2.0065,-1.1759 -0.9601,-0.063 -0.1834,-0.5445 0.5194,-0.936 0.7964,-1.0156 3.4295,-1.314 0.6635,-1.3126 0.1809,-1.2071 1.0229,-1.3239 1.1497,-2.6477 -0.0197,-1.0442 0.4001,-0.9323 1.1509,-1.2816 -0.1821,-0.322 0.6511,-1.299 -0.1341,-1.1685 0.3557,-0.7993 1.2174,-0.6414 0.0123,-0.9846 0.5121,-1.0653 0.741,-2.5893 0.4666,-0.5669 0.6031,-1.8161 0.1527,-1.9777 1.2617,-2.0275 1.0869,-1.6446 0.2647,-1.355 1.0586,-2.1231 1.3417,-3.2843 0.2487,-1.974 1.3762,-1.2468 2.3843,1.309 0.5897,-0.532 1.3097,-0.2474 0.8161,-1.1785 0.0616,-1.1237 -0.8432,-1.309 0.176,-1.4718 0.906,-2.1816 2.3966,0.7024 0.8149,-0.5632 -0.0345,-0.7955 -0.9256,-1.5676 0.4702,-1.4009 0.6807,-0.4773 -0.501,-1.2406 -0.4948,-0.2226 0.4111,-1.5749 0.7164,-0.3692 0.517,0.4823 0.6463,-0.2076 1.8082,0.014 0.5293,0.5482 1.263,0.1417 2.42,-0.4811 1.7505,-0.1641 0.949,0.3108 -0.3397,-1.2269 0.5084,-0.6812 0.6339,-3.4359 0.629,-1.9728 1.6729,-1.6036 3.3543,-1.6781 1.4895,-1.1213 1.5079,-0.5357 0.5354,-0.7086 0.922,-0.3369 1.0205,-0.9746 1.7159,1.7913 0.8358,0.091 0.7534,1.2393 1.5387,0.8366 1.306,1.2307 2.2108,0.2275 1.4205,-0.3804 1.4205,-0.6999 1.7591,-1.7366 1.4525,-0.854 0.3656,-0.486 1.1645,-0.5706 1.0007,-0.9273 0.5503,0.6427 1.0906,0.5755 0.3336,0.6253 -0.3472,0.9099 0.1428,1.0952 -0.8346,2.3084 -0.0689,1.5277 -0.5071,0.8876 -1.6458,1.601 -0.485,1.9318 -0.4949,0.8963 0.0973,2.7372 -1.3824,0.5917 -0.5884,0.7459 0.6044,1.0143 -0.1501,1.1611 -0.858,0.8937 -0.469,2.0461 -1.146,0.8267 0.1305,1.3276 -1.2187,2.2438 z">
          <title id="title98">
            內門區 Neimen District
          </title>
        </path>
        <path id="path104" transform="translate(-1408.5 -3478.7) scale(3.0564)" d="m 813.84,1427.2 -0.2499,0.9497 0.6635,1.8572 -1.2691,1.171 -1.1201,0.6116 -1.9154,1.5314 0.0763,0.5321 -0.7866,0.7955 0.0296,0.8143 1.0266,2.6477 0.1182,0.859 0.9158,1.4357 -0.6401,1.1163 -0.9663,3.145 0.1157,1.125 -0.2536,2.511 0.3299,1.166 -0.1132,1.0865 0.8481,1.0516 0.9995,1.9939 0.6783,0.6788 0.6438,1.7341 0.7115,2.8081 1.2814,0.7098 0.5724,3.3314 0.3656,0.9125 -0.5429,0.7359 -1.2531,0.8564 -0.7681,2.5111 0.0677,0.7172 1.0635,1.2928 1.5597,1.1275 -0.1588,0.9485 0.5342,1.1772 0.3828,1.7801 1.764,1.8658 0.2609,1.2854 0.0677,1.7701 0.5577,1.1785 1.1312,0.8117 3.1894,0.9398 2.2551,0.8801 1.6532,-0.3605 2.4606,0.2063 0.8038,1.2916 0.7029,0.583 1.3221,1.7042 0.304,1.4843 -0.7263,1.7403 -1.0721,0.5482 -1.6236,1.2244 1.3195,1.2928 4.1927,2.0026 -0.0801,0.7807 -1.1177,1.1262 -0.3274,0.772 0.8481,1.1747 -0.2412,0.987 -1.1657,1.4768 -0.5441,2.3283 -0.5429,-0.5781 -0.5613,-1.5899 -1.5017,-1.1299 0.1095,-1.575 -1.583,-0.8975 -0.4271,-1.2356 -0.9109,-0.5731 -0.7103,-0.8789 -0.9367,1.1834 -1.3393,1.3301 -0.3299,0.7832 -0.6364,-0.012 -1.7923,-0.854 -0.4677,-0.4525 -0.9602,-1.7888 0.2277,-0.941 -0.7213,-1.36 -1.6285,-1.7403 -1.2815,-0.3505 -0.986,-0.8366 -2.5419,0.276 -1.1841,-0.3506 -0.9614,0.016 -0.746,0.3729 -2.0852,1.9603 -1.7246,0.1355 -0.9195,0.9659 -0.2055,1.6185 -1.05,0.3493 -2.5801,1.2729 -1.0746,0.8764 -1.3172,0.5718 -0.8419,0.7794 -1.6803,-0.4028 -2.4853,-0.1864 -0.8899,2.1281 0.2105,1.8249 0.4813,1.7055 -0.1625,0.6862 -1.3405,0.5643 -2.3536,0.138 -2.036,2.0001 -1.1325,0.634 -1.4057,-0.2151 -1.7086,-1.294 -0.6942,-1.8273 -0.7312,-0.45 -0.8691,-1.5638 -0.7582,-0.3779 -1.391,-2.0362 -1.0365,-0.3406 -0.1268,-1.4208 -0.8592,-2.9586 -1.8218,-2.3941 -1.1915,-0.7546 -0.6808,-1.294 -0.7336,-0.4276 -0.8814,0.2784 -1.6322,-0.5743 -1.4402,-1.2244 -0.1268,-0.7969 -1.1645,-1.1809 -0.8087,-1.3786 -0.8641,-0.3182 -1.9412,-0.1206 -2.2761,-0.6053 -1.242,-0.5395 -1.94,-1.4532 -1.2432,-1.2132 -1.5769,-0.2773 -0.853,-0.404 -1.8255,0.5942 -1.9523,0.076 -2.0028,-0.1604 -0.8235,-0.3182 -2.0003,0.5643 -1.0795,0.8304 -0.6352,1.5999 -0.9564,0.8291 -0.9171,1.1561 -3.1931,2.6751 -0.7792,2.0796 -2.3289,0.1169 -1.1781,0.665 -2.6133,0.3232 -0.5896,2.0101 -0.7435,1.2978 -2.4853,0.5208 -1.2014,-0.302 -0.7065,-1.0753 -2.3032,-0.06 -1.8242,-0.5059 -0.7657,-1.309 -0.0751,-1.3089 -0.3705,-1.1051 0.5515,-2.2537 -0.661,-2.5533 -0.1945,-3.1239 -0.8408,-0.9547 -0.8666,-0.076 -1.3675,1.1623 -0.7152,1.3102 -1.0352,0.1417 0.2141,-0.5954 -0.016,-2.3693 0.4087,-2.1953 0.8469,-1.5713 1.8883,-2.6216 1.8304,-2.2115 0.5281,-1.9466 1.6261,-2.7174 0.9109,-2.2637 2.1172,-2.7969 0.9232,-1.7353 0.309,-0.9883 -0.4813,-1.2058 -0.0431,-1.5165 0.4161,-1.5725 -0.0788,-2.1058 0.8013,-2.6241 -0.1883,-0.8901 0.0899,-1.6421 -0.1773,-2.3121 0.3447,-1.3761 0.5059,-0.7583 -1.0894,-1.4333 -0.906,-2.7658 -1.7209,-2.3594 0.1551,-2.4041 -1.4882,-2.9536 -0.0997,-0.6451 0.8297,-2.214 1.9252,-3.5179 0.9269,-1.4593 0.4948,-1.6881 0.6992,0.118 1.7689,1.0728 3.8061,1.4693 1.9264,0.061 0.7164,-0.3767 0.5269,-1.1573 1.6482,-0.6626 1.2347,0.016 3.102,-2.4613 1.402,-1.4097 1.9683,-0.9919 1.29,-0.1318 2.0582,-1.2928 0.4948,-1.1262 1.3307,-1.2195 1.5128,-0.5258 0.5712,-0.4736 0.245,-0.8503 1.5756,-1.1412 0.9195,-0.2921 1.343,2.5247 0.8555,1.1859 1.4266,0.4351 0.7546,0.7173 1.8046,0.8229 1.2605,1.396 0.7632,2.4351 0.6819,0.6427 1.3935,0.4102 0.6191,0.9336 1.5326,0.3754 1.4783,-1.2965 1.6446,0.011 1.8944,0.4027 1.359,-0.051 0.6795,0.2748 1.8021,-0.2002 2.1997,0.3717 1.7048,-0.3207 0.7571,-0.7023 0.5096,-1.0915 1.1559,-0.9808 0.5059,-1.5016 3.0478,-1.5924 0.3939,0.5395 1.2777,0.4363 1.7837,1.3612 1.5498,0.2536 1.1115,1.0056 1.7455,0.194 1.2765,0.7918 0.8973,0.081 1.2827,-0.7707 1.9067,-0.3406 1.0267,-0.9211 0.8813,2.1691 2.308,2.1083 0.8863,1.12 0.6918,0.2586 2.1887,0.3356 0.9835,0.5147 2.0471,0.6501 z">
          <title id="title102">
            茂林區 Maolin District
          </title>
        </path>
        <path id="path108" transform="translate(-1408.5 -3478.7) scale(3.0564)" d="m 725.94,1343.2 2.905,-3.3998 1.2556,-0.6613 1.0623,-1.6682 0.8789,0.2511 1.5325,1.3276 1.1436,3.0468 1.4734,2.3842 0.5527,1.3624 1.1473,1.6446 1.9609,0.7757 1.1226,1.0815 0.6696,0.2859 0.1761,1.1685 -0.9368,2.3817 -0.8973,1.4619 -1.4021,1.4867 -1.2777,1.8447 -0.0702,0.8901 -2.2514,-1.1437 -0.5195,0.3804 -1.0672,-0.445 -1.6655,-2.2114 0.0616,-0.6253 -0.7977,-0.8776 -0.821,-1.6769 -0.1896,-0.8416 0.8728,-1.524 -0.7509,-1.7925 -0.1133,-0.8814 -3.5611,-2.8404 z m 187.89,-183.6 -1.1781,1.1909 0.5823,1.4134 1.3048,-0.02 2.4077,0.9335 0.6832,1.1648 0.2031,1.4805 1.7664,0.3866 0.7484,0.5594 0.9405,0.1765 0.0837,1.6384 -0.4949,0.8876 -0.3483,1.3263 -1.3701,1.217 0.9023,0.6191 0.2918,2.1418 -0.4087,1.9603 0.9109,1.3251 -1.2753,0.4861 -1.7861,1.5439 -1.8772,-0.6762 -2.4139,2.823 -1.5596,0.3928 -0.6844,0.4736 -0.8998,-0.2623 -0.4038,-0.6116 -1.6285,0.3394 -0.9602,0.7135 -1.114,1.7714 1.3861,1.6322 1.4857,0.7135 0.6463,0.6091 0.0172,1.161 -1.2925,0.7397 -1.2777,0.1827 -1.6446,0.5059 -0.2868,0.6241 -0.9244,0.6812 -0.4518,0.7073 -1.5461,1.6334 -1.4537,2.6266 -1.7295,0.4935 -0.6339,2.797 -0.1133,1.3599 0.2844,2.731 2.2046,0.9 1.8587,0.4712 2.2379,-0.2213 0.6598,0.1342 4.0338,2.6118 0.2401,0.936 -0.2536,0.7185 1.2999,1.8497 0.9281,0.088 1.8797,-0.2884 1.3577,-1.1399 0.2979,-1.13 0.9478,-0.081 1.1928,1.2331 0.0677,1.2642 1.2667,3.6199 1.2088,1.3027 1.967,0.2735 1.1411,1.8659 1.9683,0.2523 0.7804,0.818 0.8149,1.7229 1.2913,0.6551 0.9786,-0.046 1.0586,0.3543 1.3676,0.9236 0.4579,0.6998 -0.1256,1.033 -0.8702,1.6857 0.512,3.1611 -0.6277,1.4631 -0.2647,1.7105 -1.2026,0.9509 -1.3393,0.2524 -0.666,0.5768 -2.276,1.3351 -1.05,-0.2599 -1.2777,0.3121 -0.2844,1.8832 -0.7865,1.2033 -0.8457,0.721 -1.4685,0.6427 -0.9429,1.3301 -2.185,-0.4214 -0.4136,0.588 -0.9564,0.3493 -3.4565,0.048 -1.2962,0.8789 -1.4649,0.3804 -2.2846,1.8758 -1.1448,0.2685 -2.8102,1.4395 -1.9683,0.3132 -1.3947,1.7876 -0.9011,0.2946 -1.0413,-0.4264 -1.7591,-0.2896 -1.0093,-0.414 -2.8632,0.2698 -0.5552,-0.2238 -1.2629,0.9187 -0.8617,1.5986 -1.3762,0.7408 -0.7509,1.0815 -0.725,1.5253 -1.9819,0.7322 -0.2966,0.6016 -0.5158,2.5769 -0.4222,0.7061 -2.0557,1.9454 -1.3159,0.7583 -0.7349,1.0392 -0.3889,1.0715 -1.6717,1.8137 -2.4988,0.4724 -1.5658,2.557 -0.2375,1.5103 -2.0828,0.68 -1.2223,0.6986 -1.1731,-0.1355 -1.2654,-1.0616 -0.6044,0.1542 -1.2815,1.4904 -2.3043,0.4798 -0.8715,0.8068 -0.3262,0.7384 -0.9257,0.4711 -0.6229,2.8889 -1.3688,2.3917 -0.112,0.716 0.309,1.1921 -0.2241,2.4961 0.1724,2.2301 -0.1724,3.958 -0.6782,1.207 -1.5178,0.6228 -0.5699,0.992 -0.0382,1.176 0.3484,1.2816 -0.7546,0.9161 0.3718,1.6533 0.917,1.1983 1.4735,1.4457 0.8432,3.1438 -0.4998,0.8117 -0.1477,1.4868 -0.741,1.5053 -0.4481,0.2424 -1.6889,-0.4525 -2.2784,1.1573 -0.7965,0.8516 -0.9392,0.5022 -0.0714,1.8211 -1.0291,0.4773 -0.2905,0.5035 -0.2006,1.7241 0.0394,1.6831 -0.3927,1.7428 0.0923,1.0803 -2.3843,1.2493 -1.7307,0.1877 -0.4456,1.4134 -1.524,1.2654 -2.3166,0.5743 -1.455,0.634 -0.0443,0.353 1.5781,1.3736 0.8173,1.2033 1.3885,0.8155 1.0648,0.2871 1.2088,4.7959 -0.8863,2.6166 -0.1982,1.3736 0.3225,1.933 0.7349,1.7155 -0.0566,0.854 -1.4427,1.0181 0.0283,0.8701 0.6414,1.1959 0.2597,1.6595 1.4107,1.8447 -0.1638,1.9206 -0.517,1.7055 0.5429,2.1604 -0.7176,2.2115 -1.2224,2.3569 0.1108,1.7527 -1.1645,1.7751 -0.5453,1.8783 -2.4287,2.9623 -0.6216,1.4594 -0.5145,3.0206 -0.3373,1.1549 -1.1854,1.5327 -1.4156,2.608 -0.6475,0.8664 0.357,1.2369 0.8592,1.7776 1.1534,0.7669 0.405,1.3426 2.2551,1.2319 0.581,0.7147 0.2142,1.222 0.5121,0.6899 0.1452,1.4867 -0.6819,3.3998 -0.3472,0.823 -1.6716,0.256 -2.0015,-0.1641 -3.4701,1.2717 -1.4882,0.029 -0.9774,0.8664 -0.3434,0.7906 -0.16,1.9902 0.6942,2.2786 -0.0443,1.8161 -0.3385,3.3377 -0.4074,1.5936 0.0738,1.4022 -1.3048,1.7416 -1.0315,0.1367 -2.8583,-0.1231 0.5379,0.9759 0.0283,2.0013 -0.8124,1.1561 -0.2252,0.8714 -0.8063,1.2232 -0.8691,0.8453 -2.6145,0.9559 -0.4345,0.7545 0.2979,1.1934 -0.1071,1.6682 -0.2955,0.5743 -1.3368,0.7633 -1.5448,0.5134 -0.7127,0.6066 -1.2298,0.404 -0.8309,2.46 -0.6967,0.3829 -1.1841,-0.9037 -2.0471,-0.6501 -0.9835,-0.5147 -2.1887,-0.3356 -0.6918,-0.2586 -0.8863,-1.12 -2.308,-2.1083 -0.8813,-2.1691 -1.0267,0.9211 -1.9067,0.3406 -1.2827,0.7707 -0.8973,-0.081 -1.2765,-0.7918 -1.7455,-0.194 -1.1115,-1.0056 -1.5498,-0.2536 -1.7837,-1.3612 -1.2777,-0.4363 -0.3939,-0.5395 -3.0478,1.5924 -0.5059,1.5016 -1.1559,0.9808 -0.5096,1.0915 -0.7571,0.7023 -1.7048,0.3207 -2.1997,-0.3717 -1.8021,0.2002 -0.6795,-0.2748 -1.359,0.051 -1.8944,-0.4027 -1.6446,-0.011 -1.4783,1.2965 -1.5326,-0.3754 -0.6191,-0.9336 -1.3935,-0.4102 -0.6819,-0.6427 -0.7632,-2.4351 -1.2605,-1.396 -1.8046,-0.8229 -0.7546,-0.7173 -1.4266,-0.4351 -0.8555,-1.1859 -1.343,-2.5247 -0.9195,0.2921 -1.5756,1.1412 -0.245,0.8503 -0.5712,0.4736 -1.5128,0.5258 -1.3307,1.2195 -0.4948,1.1262 -2.0582,1.2928 -1.29,0.1318 -1.9683,0.9919 -1.402,1.4097 -3.102,2.4613 -1.2347,-0.016 -1.6482,0.6626 -0.5269,1.1573 -0.7164,0.3767 -1.9264,-0.061 -3.8061,-1.4693 -1.7689,-1.0728 -0.6992,-0.118 1.6569,-2.0561 2.3056,-1.5849 2.3326,-0.7558 0.8038,-0.5544 2.4152,-0.327 1.4106,-1.0491 1.4402,-2.3047 -3.0884,-0.7471 -0.6697,-0.3891 -1.3269,-0.063 -1.9794,-0.3965 -1.6335,-0.8155 -1.1472,-0.7806 -0.2499,-0.5147 1.2236,-0.6078 0.9404,-1.314 1.9855,-1.212 1.1239,-1.9852 1.6199,-1.5936 0.9232,-1.2903 1.0894,-0.6054 2.8595,-2.8181 0.8297,-1.0603 0.7041,-1.4743 0.0566,-1.9429 0.8137,-3.0133 0.8973,-1.6582 0.7682,-0.5557 1.3762,-0.4214 1.5891,-0.8751 0.746,-0.1318 1.4254,-0.9572 0.0492,-0.9223 1.3393,-2.925 1.3984,-0.6103 0.8383,-1.4756 1.0241,-0.1777 0.5269,-0.5234 0.3692,-1.5277 -1.0438,-0.5905 -1.0155,-1.1262 -1.3898,-1.033 -0.9897,-2.1555 -1.1361,-0.8379 -0.8272,-2.3158 -1.7258,-0.4562 0.2228,-2.7472 -0.3373,-1.8013 0.0702,-1.1038 -1.3245,-2.695 0.0837,-0.7831 1.322,-1.5452 0.405,-1.6284 -0.2093,-0.7086 0.0579,-1.6545 2.2526,-1.222 1.8969,-0.5096 1.8748,0.3729 3.1869,1.6694 1.3848,-0.2051 2.052,-1.7714 1.796,-1.0777 3.017,-3.9667 0.9552,-2.3382 0.618,-0.8366 -0.1145,-1.3935 -2.3942,0.1641 -1.6372,-0.4425 -1.1091,-1.1325 -0.9933,-0.4363 -0.8014,0.03 -0.7976,0.7359 -1.3405,0.46 -0.8851,-0.2089 -3.0749,-0.2424 -2.1874,0.7832 -1.519,1.3052 -1.5781,0.3083 -1.8366,-0.6004 -1.0413,-0.9932 -1.7874,-2.7758 -0.2117,-0.6216 -0.8641,-0.8502 -1.7049,-1.1996 -1.4821,-2.0685 -0.7422,-1.6869 -0.8494,-0.573 -1.5313,0.2536 -1.4697,-1.0467 -1.2815,-0.6576 -1.7245,-1.9007 0.0418,-1.4531 1.247,-3.022 0.4554,-2.1754 0.9503,-1.3661 0.3668,-1.0243 -0.1403,-1.657 0.4715,-1.2294 0.0677,-1.1213 0.7176,-1.8596 0.8371,-0.808 1.2358,-2.3818 0.9171,0.5942 1.3651,-0.1579 1.3455,0.9174 0.8358,-0.6861 1.0266,-1.5576 1.6667,-0.8863 0.9884,-0.8963 1.78,-0.9621 0.6401,-1.0952 1.3922,-0.9634 0.9577,-1.0032 0.5404,0.014 0.6991,1.1026 0.6844,-0.099 0.5737,-0.6688 1.3343,-0.45 0.9146,-0.6004 0.8592,-2.0759 0.8408,-1.1089 1.1103,-0.2511 1.4562,-0.9547 1.7282,-1.6371 0.5687,-1.8484 0.7608,-1.0181 1.1965,-0.8341 0.6807,-0.8515 0.4714,-1.3264 0.5909,-0.68 0.4604,-1.4295 0.009,-0.9709 0.6438,-2.4762 0.1095,-2.644 0.8641,-0.3555 1.4673,-1.6347 0.6648,-2.0424 1.2518,-1.4109 1.2125,-0.8105 0.3065,-1.0019 -1.0032,-2.429 0.773,-0.7234 1.2691,-0.6676 0.2647,-1.207 0.9306,-2.2823 -0.144,-2.7895 0.7853,-1.3089 0.1908,-0.8006 1.4833,-1.6707 0.3939,-1.8136 -0.2511,-1.7204 0.7189,-0.4538 1.2679,-2.6129 -0.213,-1.4482 0.6106,-0.7919 0.6327,-0.123 0.3409,-0.9398 0.6795,-0.6402 0.7718,-2.1331 0.1564,-1.0728 1.0364,-1.4034 -1.0143,-2.5595 0.4382,-0.8006 0.8174,-0.3468 -0.1268,-1.652 0.5933,-1.3426 0.7214,-1.0566 1.9018,0.1554 0.4357,-0.8204 1.215,-1.1636 0.0874,-1.335 1.2715,-1.268 0.9737,-0.1007 1.3775,-1.2542 0.7311,-1.749 2.1801,-3.0046 0.0578,-2.0834 0.4961,-1.1548 0.7386,-0.6663 h 0.9281 l 2.5973,-0.9708 0.4173,-2.1829 0.6265,-0.7222 0.1798,-1.8286 1.6937,-1.5787 -0.0332,-0.9447 1.5707,-0.987 1.8206,-1.4333 0.368,-0.5557 1.2851,-0.7595 1.2125,-0.404 -0.1994,-2.787 -0.9257,-0.7595 -1.482,-2.1269 -2.4976,-1.754 -0.6352,-1.3512 0.5662,-2.1282 -0.7164,-0.8565 -1.3639,-1.0429 -2.889,-4.4154 0.6475,-0.052 0.6585,0.9124 0.8051,0.5532 0.7078,-0.6738 1.6975,0.1442 0.9884,-0.5146 0.5466,-0.68 1.9978,0.1293 0.8678,0.3617 1.1694,-0.844 1.0069,0.2076 0.4382,-1.212 1.3245,-0.7235 0.469,-1.4383 0.1995,-2.4115 -0.2093,-0.9137 0.8592,-2.0076 1.0438,-0.3505 0.7743,0.3555 0.2942,-0.6526 -0.421,-1.1262 0.8531,-0.2238 0.6278,-1.9442 1.0758,-0.634 0.8888,-0.037 -0.4432,-0.9013 -0.6758,-0.5221 -0.016,-0.7321 0.9011,-0.6502 0.5108,-0.9559 0.8124,-0.5631 0.7448,-1.13 0.4394,-2.5023 1.5929,-1.12 0.9601,-1.5713 -0.1157,-4.0512 2.0434,-1.2256 0.8124,-0.6502 1.4341,0.5445 0.6856,-1.6098 0.6512,0.5581 1.3614,-0.3716 1.0845,0.4015 1.0327,-1.2729 1.9536,-0.3605 0.3434,-0.9622 0.6499,-0.721 1.0771,-0.1367 0.9712,-1.0056 -0.1021,-0.7011 1.9055,0.3617 1.6568,-0.6825 0.4407,-1.2157 0.5379,-0.4873 0.7558,0.7459 1.0008,-0.1318 0.7053,-1.2779 0.2056,-1.0069 1.0242,-1.9081 v -0.7521 l 0.5416,-0.9559 1.1238,0.092 0.7226,-0.4227 0.8789,-2.8951 0.8937,-0.056 1.0537,-0.6377 -0.032,-0.9572 1.082,-0.2325 1.1337,0.6962 0.6364,-0.133 0.9663,-1.0828 0.4628,-0.9696 0.8666,-0.6302 0.6192,0.1268 0.8579,-0.5258 1.4415,0.2237 0.2757,-0.4226 2.7327,-0.1766 0.8001,0.5719 0.7448,-0.1169 1.3589,0.5818 0.2339,0.7831 0.7854,-0.455 1.5399,-0.1591 1.5177,-0.5892 0.357,-2.1145 1.0562,-1.207 1.2174,-0.077 0.7373,0.4625 2.2244,-0.184 3.1413,-0.7906 0.938,-0.5843 1.9474,-0.798 0.9934,-1.3512 0.7299,-0.088 1.3491,-0.6489 2.0533,0.04 0.8001,-0.5805 1.3713,0.6501 0.7336,0.895 3.1476,0.022 1.3762,-0.2163 1.6802,0.5171 0.725,0.8503 1.5252,0.4152 1.8341,0.7682 2.228,0.7073 1.4255,0.2362 1.6494,0.6974 2.2084,-0.4612 1.7738,0.041 0.7201,0.4649 1.0561,1.447 0.6918,1.4109 1.7344,1.6818 0.485,1.5526 -0.8038,1.3923 -0.7977,0.266 -1.2026,1.3164 -0.1354,1.8149 0.1059,1.1673 0.8739,1.1362 1.0439,0.8627 z">
          <title id="title106">
            桃源區 Taoyuan District
          </title>
        </path>
        <path id="path112" transform="translate(-1408.5 -3478.7) scale(3.0564)" d="m 739.72,1312.7 -0.4123,-1.6408 -0.4198,-0.8093 -1.5621,-0.2722 -1.4254,-1.2307 -1.7898,-2.4302 0.0443,-2.0846 0.1957,-0.8205 -0.2191,-1.6284 0.9109,-2.3917 -1.3762,-1.0231 -1.2937,-0.1131 -2.2785,-1.0591 -2.6416,-0.01 -1.1251,-0.5817 -2.6958,-0.4326 -1.29,-0.07 -0.5207,-0.3245 -0.405,-1.6483 -2.0471,-2.3022 -1.0401,-0.4686 0.1711,-0.9808 0.4788,-0.5532 0.714,-2.5558 1.2309,-1.2182 -0.1723,-2.0884 -0.4001,-1.3089 -0.9256,-0.6166 -1.567,-1.5514 -0.5564,-0.839 0.0332,-1.0678 0.4862,-2.5446 0.3816,-0.3879 -0.1526,-1.437 -0.8924,-1.4556 -0.1884,-1.8659 -0.4222,-0.3816 0.6315,-1.3885 -0.3755,-1.2829 -1.482,-2.0834 -1.9585,-2.4936 0.0246,-2.2239 -0.576,-1.9864 -0.1564,-1.2854 -1.1928,-1.4954 0.2672,-0.941 1.2014,-0.6203 -0.3582,-1.4457 1.3909,-1.1499 -0.6634,-1.4904 1.1546,-2.1406 -0.549,-2.5433 -0.4469,-0.8752 0.6611,-0.4587 0.1391,-0.6849 -0.8543,-1.7677 0.9035,-1.7378 1.6396,-0.8092 0.2856,0.1641 0.9232,2.2114 0.8518,0.9771 0.7177,0.3306 1.7935,-0.4363 1.1275,-1.923 0.7214,-0.3829 0.4899,0.6675 1.2051,-0.082 0.4074,0.7931 0.6635,-0.1703 0.7964,0.3903 0.4161,-0.67 0.6179,0.1752 0.5773,1.1934 0.7977,-0.026 0.197,0.7421 0.624,0.4525 1.034,-0.5954 1.5006,0.5581 0.0172,0.8416 1.1965,-0.1542 0.9491,0.1728 0.9453,0.5432 2.8177,0.6116 1.4636,0.7533 1.9412,0.4513 3.2398,0.073 0.8703,-0.6563 0.128,-0.7782 1.1498,-1.4892 -0.6426,-2.6962 0.2757,-2.0163 0.8346,-2.5645 1.2876,-1.5974 2.393,-1.5712 0.5083,-0.7322 2.2121,0.6365 2.3388,-0.4202 0.7114,0.1193 2.1936,0.8764 2.457,0.6004 0.0985,-1.2791 -0.3743,-1.5141 0.3619,-0.8987 0.8248,-1.1026 2.1554,-1.2406 1.2937,-0.2387 0.7238,-0.7906 0.1711,-1.5451 1.0008,-0.5992 2.212,-0.071 0.8001,-0.1839 1.1916,-1.2344 0.2142,-0.8528 1.1681,-0.7048 0.3287,-0.8552 -0.5761,-1.1536 0.3557,-0.6899 1.0156,-0.2288 0.9232,-0.5979 1.0722,-1.565 0.0615,-1.0566 -0.7029,-0.4873 0.133,-0.8354 0.5391,-0.7533 -0.5194,-1.2269 0.2991,-0.7458 1.3983,0.2088 2.2638,1.2903 1.1017,-0.9621 0.8136,-0.3058 2.4472,1.1709 1.0278,-0.7707 1.1842,-0.1976 0.7755,0.5097 2.4877,0.2722 1.2519,-1.9728 1.0943,-0.3145 0.5896,-1.9181 -0.1157,-1.9653 1.2938,-0.1989 0.6302,-0.4574 -0.2006,-1.5352 0.9736,-0.5432 1.4883,0.394 0.645,-1.6496 0.9072,-0.8216 0.8912,0.091 0.0258,-1.3624 0.6537,-1.0405 1.4205,-1.2306 -0.7595,-1.3115 0.7041,-0.7868 2.889,4.4154 1.3639,1.0429 0.7164,0.8565 -0.5662,2.1282 0.6352,1.3512 2.4976,1.754 1.482,2.1269 0.9257,0.7595 0.1994,2.787 -1.2125,0.404 -1.2851,0.7595 -0.368,0.5557 -1.8206,1.4333 -1.5707,0.987 0.0332,0.9447 -1.6937,1.5787 -0.1798,1.8286 -0.6265,0.7222 -0.4173,2.1829 -2.5973,0.9708 h -0.9281 l -0.7386,0.6663 -0.4961,1.1548 -0.0578,2.0834 -2.1801,3.0046 -0.7311,1.749 -1.3775,1.2542 -0.9737,0.1007 -1.2715,1.268 -0.0874,1.335 -1.215,1.1636 -0.4357,0.8204 -1.9018,-0.1554 -0.7214,1.0566 -0.5933,1.3426 0.1268,1.652 -0.8174,0.3468 -0.4382,0.8006 1.0143,2.5595 -1.0364,1.4034 -0.1564,1.0728 -0.7718,2.1331 -0.6795,0.6402 -0.3409,0.9398 -0.6327,0.123 -0.6106,0.7919 0.213,1.4482 -1.2679,2.6129 -0.7189,0.4538 0.2511,1.7204 -0.3939,1.8136 -1.4833,1.6707 -0.1908,0.8006 -0.7853,1.3089 0.144,2.7895 -0.9306,2.2823 -0.2647,1.207 -1.2691,0.6676 -0.773,0.7234 1.0032,2.429 -0.3065,1.0019 -1.2125,0.8105 -1.2518,1.4109 -0.6648,2.0424 -1.4673,1.6347 -0.8641,0.3555 -0.1095,2.644 -0.6438,2.4762 -0.009,0.9709 -0.4604,1.4295 -0.5909,0.68 -0.4714,1.3264 -0.6807,0.8515 -1.1965,0.8341 -0.7608,1.0181 -0.5687,1.8484 -1.7282,1.6371 -1.4562,0.9547 -1.1103,0.2511 -0.8408,1.1089 -0.8592,2.0759 -0.9146,0.6004 -1.3343,0.45 -0.5737,0.6688 -0.6844,0.099 -0.6991,-1.1026 -0.5404,-0.014 -0.9577,1.0032 -1.3922,0.9634 -0.6401,1.0952 -1.78,0.9621 -0.9884,0.8963 -1.6667,0.8863 -1.0266,1.5576 -0.8358,0.6861 -1.3455,-0.9174 -1.3651,0.1579 z">
          <title id="title110">
            那瑪夏區 Namaxia District
          </title>
        </path>
      </g>
      <path d="m 559.38,1702.4 0.7509,-4.0898 0.0664,-0.075 0.3496,-0.2052 0.032,-0.042 0.1502,-0.1542 -0.003,-0.1342 -0.0751,-0.1641 -0.0726,-0.3083 0.3311,-0.1952 0.197,-0.031 h 0.368 l -0.0147,-0.08 -0.0603,-0.092 10e-4,-0.1629 0.2228,-0.1976 0.2326,-0.2685 0.0271,-0.1306 -0.006,-0.093 0.1231,-0.5743 0.1797,-0.1914 0.2499,-0.5768 0.1292,-0.1765 0.2376,-0.3767 0.1231,-0.2387 0.1157,-0.1168 0.1379,-0.1268 0.0197,-0.036 0.2092,-0.2573 0.1133,-0.1019 0.0861,-0.1753 -0.0394,-0.271 -0.0997,-0.1864 0.005,-0.5221 0.1735,-0.1728 0.3201,-0.2822 0.5108,-0.4848 0.9023,-0.711 0.1563,-0.1144 0.0468,-0.057 0.341,-0.3667 0.1538,-0.2337 0.0148,-0.072 -0.004,-0.04 0.006,-0.091 0.032,-0.053 0.01,-0.058 0.0554,-0.4923 0.2093,-0.3393 0.3877,-0.4985 0.1527,-0.1591 0.1612,-0.1256 0.3312,-0.2324 0.0837,-0.063 0.1563,-0.1454 0.0382,-0.017 h 0.6917 l 0.2142,-0.056 0.5786,-0.2635 0.389,-0.1057 1.0598,-0.2573 0.4641,-0.3108 0.3397,-0.3766 0.3213,-0.445 0.853,-0.7422 0.2388,-0.2088 0.3816,-0.2685 0.3016,-0.1976 0.2795,-0.1045 0.4517,-0.3306 0.1108,-0.1741 0.0295,-0.1193 0.0148,-0.1889 0.006,-0.057 -0.0505,-0.2437 -0.004,-0.1653 0.0689,-0.1566 0.1613,-0.1032 0.3767,-0.03 0.2954,-0.1828 0.0948,-0.032 0.6893,0.01 0.0283,-0.09 0.0702,-0.2001 0.0751,-0.1405 0.2166,-0.1902 0.1711,-0.016 0.3201,0.01 0.2215,-0.042 0.4247,-0.2934 0.002,-0.031 0.7964,0.5059 1.5879,-0.7719 0.8555,0.4139 0.7595,-0.1491 1.8292,1.1535 -0.007,0.956 1.8748,0.1504 1.5559,0.4376 2.1455,0.1926 0.7645,-0.5382 0.9343,0.2436 0.9798,-0.5519 4.8044,-0.1467 -1.2691,3.3675 -0.3311,2.5085 -0.922,3.3141 0.0824,4.3247 0.325,2.6117 1.1005,4.8592 -1.0069,10.591 0.2437,6.5337 -1.9486,0.133 -3.7618,-1.1685 -1.5867,-0.1654 -1.8082,-0.578 -3.0848,-1.2754 -0.5084,-0.6128 -1.3491,-0.3754 -1.4845,-0.8528 -1.0377,-1.171 -2.1628,-1.5426 -1.5079,-0.8043 -1.0931,-1.0691 -6.2742,-3.7192 -0.9576,-0.9423 -3.8788,-3.1388 -2.3634,-1.6682 z" transform="translate(-1408.5 -3478.7) scale(3.0564)" id="path116">
        <title id="title114">
          林園區 Linyuan District
        </title>
      </path>
      <path d="m 485.39,1486.9 -0.7816,0.039 -0.9478,2.0063 0.3372,0.7794 1.7258,0.7048 -0.6351,1.2879 -0.4481,3.0219 -2.8386,3.4719 -3.3162,-2.1505 -3.0133,0.1317 -0.8568,0.4003 -1.7528,1.933 -0.7903,0.1939 -0.4111,-1.5128 -1.1584,-2.8752 0.4936,-0.9224 -1.9153,-0.8167 0.3126,-1.9193 1.3504,-0.7011 -1.4156,-4.674 -2.068,-5.4149 -0.9614,-2.0896 -0.1994,-0.9497 -0.5822,-0.9945 -0.5847,-1.6794 -0.8728,-1.7552 -0.6191,-2.3469 -0.3632,-0.7745 -0.8629,-2.8056 -1.0475,-2.6154 0.006,-0.9833 1.0783,-0.3605 1.1521,-1.1573 1.9388,-1.58 2.857,-1.8223 1.1805,1.4221 0.2868,2.5508 1.0303,1.5227 3.3445,1.6981 0.2622,0.7359 0.3324,3.2494 -1.1965,0.1429 -0.3804,1.4271 0.4912,2.6266 0.6093,1.9367 0.8715,1.171 0.9848,0.68 0.4382,-0.2785 0.5022,-2.69 0.3841,-0.4438 1.2285,-0.1417 0.8136,0.6539 0.5896,0.9099 0.4826,1.3388 -0.009,0.8565 -0.6548,0.8838 -1.1596,0.5445 -0.2154,0.4388 1.4796,0.9062 0.8371,-0.1616 3.8171,0.7272 0.1182,5.8537 z" transform="translate(-1408.5 -3478.7) scale(3.0564)" id="path120">
        <title id="title118">
          茄萣區 Qieding District
        </title>
      </path>
      <path d="m 504.02,1513.6 0.4037,0.7073 -1.2186,1.5738 -0.0369,1.698 1.05,0.5085 0.7152,1.9056 -0.7263,1.5451 -0.7373,0.7446 0.1526,1.5464 0.4505,0.4861 2.1886,-1.5017 0.8679,1.1586 0.2129,1.0703 0.9515,1.5688 -0.7767,0.215 0.3262,1.1412 -0.5404,0.4798 0.2881,1.4457 -1.972,0.8204 -0.7447,0.086 -1.6852,-0.026 -0.8014,-0.5544 -1.8501,-0.7173 -1.9793,-0.179 -0.4075,1.4917 -1.9116,-0.3791 -1.4206,-0.7061 -0.3422,-0.5793 -3.2103,-2.4029 -2.1074,0.1268 -2.4065,-0.4611 -0.917,-0.6241 -1.1091,-0.3878 -1.9265,0.6103 -1.695,-2.4264 -7.7821,1.3338 -2.4668,-1.2916 -1.6851,-3.5801 0.1821,-0.9894 8.3693,-2.7821 0.6598,-0.527 0.0295,-1.0703 -0.5404,-1.4731 -0.5785,0.1194 -0.8199,-2.7448 -1.6765,-4.9673 0.4665,-0.1343 -1.2162,-2.8081 -0.7188,-0.8266 -0.6315,0.1044 -1.9166,-2.1779 1.2962,-0.9895 0.7903,-0.1939 1.7528,-1.933 0.8568,-0.4003 3.0133,-0.1317 3.3162,2.1505 2.4669,1.6297 1.0856,0.9547 2.057,0.7694 1.5165,3.6162 1.5301,-0.6129 1.3479,0.7583 2.3117,-0.5494 1.3971,1.1125 0.1206,1.4134 0.5835,0.7993 0.4062,1.2033 0.906,0.2784 0.4259,1.4507 1.9782,-0.019 1.3478,-0.4053 0.4136,0.5346 2.4853,-1.3774 1.0353,1.8671 -1.6827,0.9497 z" transform="translate(-1408.5 -3478.7) scale(3.0564)" id="path124">
        <title id="title122">
          永安區 Yong&apos;an District
        </title>
      </path>
      <path d="m 504.87,1530.8 -0.0247,0.8204 -1.0549,0.266 -0.112,1.3612 -1.0094,0.2325 -0.0603,0.8092 0.4985,1.4619 0.3275,0.225 0.5748,1.662 0.0751,2.8044 2.3314,-0.037 1.4082,1.8758 -1.9658,1.8348 0.1711,1.3487 -0.3853,0.2573 -1.8489,0.2549 0.2019,0.5879 -1.6876,2.1854 -0.7275,0.4114 0.16,1.9293 -0.7644,0.4786 0.5785,1.4792 -0.6708,1.626 -1.3836,0.077 -0.1022,1.9392 -0.7681,-0.2797 -0.1748,-1.3214 -0.7484,-0.06 -0.1994,1.2406 0.5478,0.1566 -0.2315,1.0144 0.3065,0.573 -0.677,0.8528 0.9515,0.8739 -0.8727,0.9596 -0.3644,-0.5854 -1.6888,-3.8101 -0.618,-0.7931 -1.0413,-2.3718 -1.1916,-2.0312 -0.5724,0.2288 -0.885,-0.5159 -0.1773,-0.6228 0.7964,-0.368 0.1748,-1.1709 -0.2757,-1.0803 -0.8444,-1.4755 -0.8322,-2.5185 -0.6992,-1.2257 -1.114,-2.8068 -1.4857,-3.1028 -0.1207,-0.67 -1.0844,-2.2437 -0.1884,-0.9411 -1.3971,-3.324 -1.1288,-3.2606 1.9265,-0.6103 1.1091,0.3878 0.917,0.6241 2.4065,0.4611 2.1074,-0.1268 3.2103,2.4029 0.3422,0.5793 1.4206,0.7061 1.9116,0.3791 0.4075,-1.4917 1.9793,0.179 1.8501,0.7173 0.8014,0.5544 z" transform="translate(-1408.5 -3478.7) scale(3.0564)" id="path128">
        <title id="title126">
          彌陀區 Mituo District
        </title>
      </path>
      <path d="m 514.66,1547.3 0.2757,1.0964 -0.5576,0.9597 0.8444,1.3935 0.1797,1.57 -0.3582,2.1281 -0.9109,0.7571 0.1921,1.3226 -0.2253,0.532 -1.0832,0.6949 0.0886,1.2021 -0.4715,1.345 -0.9281,1.4121 -1.9289,0.2499 -0.7115,0.4898 0.9097,1.4134 -0.4284,0.6638 -0.9244,0.5469 -0.2118,0.8341 1.2224,0.491 -0.0702,0.8603 0.5072,0.8937 -0.2475,0.7484 -1.3848,1.1995 -0.8136,1.3438 -1.1928,1.3935 -1.892,2.6515 -0.7139,-0.5979 -0.6401,-1.8982 -0.5306,-0.7645 -0.7546,0.2436 -0.8136,-0.2958 -0.2302,-1.089 0.5108,-0.44 -1.8291,-4.5758 -0.8556,-1.8323 0.0579,-0.5668 -1.2088,-2.9785 0.8727,-0.9596 -0.9515,-0.8739 0.677,-0.8528 -0.3065,-0.573 0.2315,-1.0144 -0.5478,-0.1566 0.1994,-1.2406 0.7484,0.06 0.1748,1.3214 0.7681,0.2797 0.1022,-1.9392 1.3836,-0.077 0.6708,-1.626 -0.5785,-1.4792 0.7644,-0.4786 -0.16,-1.9293 0.7275,-0.4114 1.6876,-2.1854 -0.2019,-0.5879 1.8489,-0.2549 0.3853,-0.2573 2.2453,-0.011 0.5305,0.6949 1.2839,-0.9733 0.4308,1.8559 1.0685,-0.068 0.2696,-1.79 1.178,0.4972 0.89,0.075 0.677,0.6775 z" transform="translate(-1408.5 -3478.7) scale(3.0564)" id="path132">
        <title id="title130">
          梓官區 Ziguan District
        </title>
      </path>
      <path d="m 552.02,1624.9 -0.6278,0.4264 -0.2302,1.2245 -1.743,1.0678 1.7307,0.6091 1.3245,0.8689 -0.4358,0.9422 -2.5739,0.4115 -0.1994,0.9659 -0.7866,1.1274 1.3319,0.9125 -1.892,1.5762 -1.2358,0.1243 -0.1847,-1.3835 -3.582,0.4524 -0.6032,0.6415 0.3299,1.3947 -0.24,1.0454 -1.0045,0.2449 0.0849,-1.7353 -0.8493,0.2759 -0.5773,-0.6787 -2.3832,0.1131 -0.2511,-1.6868 -6.7764,2.4103 -0.048,0.9435 -3.9784,1.4233 -0.6044,0.3058 -0.405,1.0057 -3.779,-1.9318 0.7226,-2.2723 0.0652,-3.2544 1.8403,-0.029 0.6979,-0.2486 0.6611,1.7726 3.2164,-1.1038 5.3891,-1.9131 -0.6413,-1.7664 1.7824,-0.7086 -0.4751,-1.8037 2.4693,0.2163 -0.6438,-1.8646 0.0283,-0.4836 1.6236,1.3786 0.5355,-0.1852 -0.8715,-2.5098 -0.5589,-1.0977 8.5871,1.7018 z" transform="translate(-1408.5 -3478.7) scale(3.0564)" id="path136">
        <title id="title134">
          苓雅區 Lingya District
        </title>
      </path>
      <path d="m 542.39,1598.2 0.6832,2.1841 -0.8654,0.271 0.3078,1.7043 0.6154,0.5693 1.183,-0.4699 1.2149,0.1218 2.4275,-0.44 0.4148,-0.2685 0.9552,0.8055 -0.0258,0.6278 -3.1636,2.7919 0.8248,2.7584 0.7373,0.8702 -0.7743,0.2274 -1.4168,-0.5892 -0.9491,0.2648 0.4321,0.9634 0.8937,0.6476 0.9195,1.3861 1.3627,1.0665 -0.2721,0.3779 4.6001,3.6982 0.938,-0.6427 0.6708,0.3916 -1.4106,2.864 2.0175,1.1499 0.2708,0.5196 -2.3191,0.7819 -0.4764,0.3903 -0.1686,1.749 -5.7609,-1.074 -8.5871,-1.7018 0.5589,1.0977 0.8715,2.5098 -0.5355,0.1852 -1.6236,-1.3786 -1.5916,-1.3438 -2.3955,-0.1529 -1.3675,0.2449 -3.9255,-0.2958 -1.3172,0.4723 -4.6973,1.6272 -1.3282,0.8553 -0.4222,-1.7366 -0.3545,-2.2637 -1.4599,-2.7211 0.128,-1.202 0.4419,-0.6725 1.9548,-1.8845 0.89,-0.3792 1.354,0.4724 h 1.247 l 1.4648,-1.4469 1.05,0.016 0.6942,0.3941 0.842,-0.1691 0.9614,-0.7073 2.2428,-0.1703 1.3269,-0.8291 1.4242,-0.1914 0.4284,-0.4811 0.0271,-1.6496 -0.5022,-1.166 -0.08,-0.9572 0.3483,-0.7272 1.4993,-2.0162 0.3976,-1.3152 1.2851,-0.1131 0.9823,-1.1462 0.5121,-1.6968 1.8834,-1.5973 0.7582,-1.406 z" transform="translate(-1408.5 -3478.7) scale(3.0564)" id="path140">
        <title id="title138">
          三民區 Sanmin District
        </title>
      </path>
      <path d="m 509.72,1634.8 0.9515,0.353 0.8346,0.3033 0.4604,0.1877 0.2265,0.097 0.661,0.2896 0.7989,0.4115 0.693,0.4437 1.4033,1.0952 0.9872,0.9248 0.2253,0.235 0.1514,0.1653 0.2745,0.3195 0.2745,0.3642 0.3742,0.5843 0.117,0.2175 0.3926,0.7856 0.2105,0.3891 0.1908,0.322 0.9602,1.6744 0.2855,0.501 0.245,0.4288 0.24,0.414 0.5897,1.0379 1.2088,2.1108 0.7398,1.2928 0.4,0.6849 0.3902,0.6725 0.2475,0.4376 0.2252,0.3779 1.3578,2.2152 0.3065,0.4562 0.3139,0.4823 0.0627,0.083 0.6204,0.7632 0.4026,0.4836 0.4788,0.542 0.1403,0.1603 0.4284,0.4836 0.0763,0.083 0.2979,0.4251 0.4345,0.634 0.3275,0.5482 0.2769,0.4699 0.0653,0.1069 0.2191,0.3754 0.1095,0.1777 0.1994,0.327 0.101,0.1541 0.3397,0.358 0.8851,0.951 0.8136,0.9609 0.858,1.0578 0.1834,0.2213 0.3828,0.4624 0.7805,0.9572 0.1908,0.2337 0.5564,0.6874 0.3939,0.4811 0.2486,0.3095 0.6118,0.762 1.7369,2.2214 -2.5863,1.974 -4.0227,2.2836 -2.4607,1.3089 -0.1034,0.055 -0.7546,-0.1404 -0.1674,0.4748 -0.1268,-0.046 0.1625,-0.4649 -1.4956,-0.9323 0.133,-0.9497 0.7705,-1.1374 0.0234,-0.039 -0.016,-0.1243 0.037,-0.014 0.0406,-0.016 0.032,-0.07 0.0541,-0.01 0.006,-0.065 0.0542,-0.043 0.0911,-0.1094 0.006,-0.052 0.0739,-0.027 0.004,-0.061 0.0197,-0.025 0.0603,-0.011 v -0.01 l 0.006,-0.087 0.0246,-0.011 0.037,-0.016 -0.001,-0.034 0.0222,-0.047 0.0615,-0.011 10e-4,-0.029 0.009,-0.049 0.0714,-0.019 -0.006,-0.048 0.0333,-0.041 0.0603,-0.026 v -0.056 l 0.0578,-0.017 0.0197,-0.01 0.006,-0.067 0.0726,-0.035 0.0542,-0.083 0.0295,-0.014 0.01,-0.071 0.0529,-0.026 h 0.0234 l 0.001,-0.077 0.0222,-0.016 h 0.0578 l -0.002,-0.04 0.0258,-0.043 h 0.0603 l 0.003,-0.06 0.0258,-0.026 0.0579,-0.017 0.0271,-0.086 0.0603,-0.08 0.0123,-0.1952 -0.277,-1.8261 -9.1631,-11.721 -0.6881,-0.1292 -1.1325,-1.5651 -2.1603,-2.1058 -3.7975,-4.9163 -0.7854,-1.672 -1.1743,-1.4221 -0.4493,-1.1063 -1.3602,-0.9733 -0.7029,-0.049 0.1527,-1.0877 0.2572,-0.8851 0.2548,-0.3505 0.586,-0.5047 0.32,-1.6347 0.0554,-0.3083 -0.2326,-0.5158 -0.4826,-0.3033 -0.2215,-0.029 -0.0948,0.1591 -0.0271,0.025 -0.0652,0.1231 -0.0567,0.092 -0.0357,0.01 -0.0221,0.095 -0.0369,0.083 -0.149,0.041 -0.0258,-0.01 -0.0505,-0.035 -0.0148,-0.1691 -0.0123,-0.084 0.0222,-0.063 -0.0296,-0.078 -0.0197,-0.045 0.1059,-0.2996 0.0246,-0.052 -0.0295,-0.2461 0.0123,-0.3742 -0.037,-0.09 -0.0984,-0.072 -0.133,-0.1268 -0.0763,-0.086 -0.1268,-0.1691 -0.2425,-0.2449 -0.2523,-0.1703 -0.229,-0.1355 -0.0812,-0.04 -0.3792,-0.2772 -0.2129,-0.1268 -0.1539,-0.1007 -0.2523,-0.1578 -0.112,-0.085 -0.0751,-0.08 -0.3607,-0.2598 -0.0283,-0.021 -0.3004,-0.2499 -0.1489,-0.076 -0.3582,-0.1828 -0.16,-0.1218 0.2018,-1.0777 0.197,0.055 0.6278,0.1814 0.2179,0.078 0.5391,0.1777 0.2524,0.09 0.8727,0.2909 0.8223,0.2834 0.4948,0.1691 0.2918,0.1069 z" transform="translate(-1408.5 -3478.7) scale(3.0564)" id="path144">
        <title id="title142">
          旗津區 Qijin District
        </title>
      </path>
      <path d="m 532.68,1612.7 -1.3269,0.8291 -2.2428,0.1703 -0.9614,0.7073 -0.842,0.1691 -0.6942,-0.3941 -1.05,-0.016 -1.4648,1.4469 h -1.247 l -1.354,-0.4724 -0.89,0.3792 -1.9548,1.8845 -0.4419,0.6725 -0.128,1.202 1.4599,2.7211 0.3545,2.2637 -0.9687,0.8552 -2.4386,3.8573 -0.9983,1.9529 0.9405,1.6931 2.2723,1.2716 3.848,1.8858 -0.7226,2.2723 -3.1377,-1.4084 -0.9552,-0.5395 -1.988,1.8746 -1.4033,-1.0952 -0.693,-0.4437 -0.7989,-0.4115 -0.661,-0.2896 -0.2265,-0.097 -0.4604,-0.1877 -0.8346,-0.3033 -0.9515,-0.353 -1.0167,-0.3742 -0.2918,-0.1069 -0.4948,-0.1691 -0.8223,-0.2834 -0.8727,-0.2909 -0.2524,-0.09 -0.5391,-0.1777 -0.2179,-0.078 -0.6278,-0.1814 -0.197,-0.055 0.1244,-0.7832 3.5685,-1.8248 0.0763,-1.2207 -1.3011,-3.1115 -0.5219,-0.2821 -0.3816,-1.1027 -1.7209,-1.3673 -0.5613,-1.9778 -1.8206,-3.2208 -0.2942,-2.388 -0.6216,-0.849 0.3385,-1.069 0.1022,-1.3699 -0.2204,-0.9249 0.4641,-3.1474 0.9798,-1.8 1.295,-1.0778 0.549,-0.9857 0.6155,-0.1393 0.5921,0.8354 0.8678,-0.4674 0.5268,-0.8577 1.3725,-1.0305 2.297,-0.7235 2.313,-0.2076 0.8702,-0.5432 1.0636,0.1678 1.4254,-0.1107 1.7332,1.4843 1.5215,0.01 1.1337,0.5556 0.016,0.8727 1.013,0.7545 2.3524,-2.8379 0.5404,0.2187 0.933,1.3861 1.1103,1.0777 0.1121,0.5669 1.0844,0.7011 1.8366,0.037 -0.16,4.2674 0.0898,1.3078 1.7948,-0.4376 1.2248,0.2287 z" transform="translate(-1408.5 -3478.7) scale(3.0564)" id="path148">
        <title id="title146">
          鼓山區 Gushan District
        </title>
      </path>
      <path d="m 505.05,1604.3 0.9527,-0.1069 1.7985,-2.1443 0.581,-0.2846 0.4431,-1.1462 -0.01,-3.2804 -0.1588,-0.9746 -0.5281,-0.859 0.1908,-1.3065 -0.3373,-1.6209 -2.5727,-0.179 0.0123,-2.5011 2.8866,-1.7863 -0.2129,-1.1163 0.1575,-1.0939 0.65,-1.2754 0.6905,-0.5109 0.3496,-1.5154 1.1042,-0.3853 0.3348,0.8478 1.2236,0.3294 h 5.8384 l 5.6082,-0.094 0.1772,-0.4127 2.1468,-2.1294 1.6359,1.0194 -0.004,0.4885 -2.7228,0.9348 0.8013,0.6837 0.7669,2.0038 2.5838,-0.025 0.0234,1.0616 0.8025,0.844 2.137,1.3438 2.0901,-2.4128 1.6052,2.0349 1.0217,0.9795 -0.3176,0.3966 2.2329,2.0995 0.4346,-0.1578 0.9429,1.3288 0.7078,2.3905 -1.1953,1.2592 0.7324,0.7769 1.503,-0.1056 0.2265,0.4375 -0.7472,0.05 -0.7582,1.406 -1.8834,1.5973 -0.5121,1.6968 -0.9823,1.1462 -1.2851,0.1131 -0.3976,1.3152 -1.4993,2.0162 -0.3483,0.7272 0.08,0.9572 0.5022,1.166 -0.0271,1.6496 -0.4284,0.4811 -1.4242,0.1914 0.0407,-1.0952 -1.2248,-0.2287 -1.7948,0.4376 -0.0898,-1.3078 0.16,-4.2674 -1.8366,-0.037 -1.0844,-0.7011 -0.1121,-0.5669 -1.1103,-1.0777 -0.933,-1.3861 -0.5404,-0.2187 -2.3524,2.8379 -1.013,-0.7545 -0.016,-0.8727 -1.1337,-0.5556 -1.5215,-0.01 -1.7332,-1.4843 -1.4254,0.1107 -1.0636,-0.1678 -0.8702,0.5432 -2.313,0.2076 -2.297,0.7235 -1.3725,1.0305 -0.5268,0.8577 -0.8678,0.4674 z" transform="translate(-1408.5 -3478.7) scale(3.0564)" id="path152">
        <title id="title150">
          左營區 Zuoying District
        </title>
      </path>
    </g>
  </g>
</svg>
